<svg width="340" height="190" viewBox="0 0 340 190" fill="none" xmlns="http://www.w3.org/2000/svg">
<rect width="340" height="190" fill="#F3F6F9"/>
<path d="M296 58H44C39.0294 58 35 62.0294 35 67V123C35 127.971 39.0294 132 44 132H296C300.971 132 305 127.971 305 123V67C305 62.0294 300.971 58 296 58Z" fill="white"/>
<path d="M72 85C66.48 85 62 89.48 62 95C62 100.52 66.48 105 72 105C77.52 105 82 100.52 82 95C82 89.48 77.52 85 72 85ZM72 100C71.45 100 71 99.55 71 99V95C71 94.45 71.45 94 72 94C72.55 94 73 94.45 73 95V99C73 99.55 72.55 100 72 100ZM73 92H71V90H73V92Z" fill="#38485C"/>
<path d="M104.75 101L103.328 97.3672H98.75L97.3438 101H96L100.516 89.5312H101.633L106.125 101H104.75ZM102.914 96.1719L101.586 92.6328C101.414 92.1849 101.237 91.6354 101.055 90.9844C100.94 91.4844 100.776 92.0339 100.562 92.6328L99.2188 96.1719H102.914ZM110.922 101.156C109.682 101.156 108.721 100.776 108.039 100.016C107.362 99.25 107.023 98.1693 107.023 96.7734C107.023 95.3411 107.367 94.2344 108.055 93.4531C108.747 92.6719 109.732 92.2812 111.008 92.2812C111.419 92.2812 111.831 92.3255 112.242 92.4141C112.654 92.5026 112.977 92.6068 113.211 92.7266L112.812 93.8281C112.526 93.7135 112.214 93.6198 111.875 93.5469C111.536 93.4688 111.237 93.4297 110.977 93.4297C109.237 93.4297 108.367 94.5391 108.367 96.7578C108.367 97.8099 108.578 98.6172 109 99.1797C109.427 99.7422 110.057 100.023 110.891 100.023C111.604 100.023 112.336 99.8698 113.086 99.5625V100.711C112.513 101.008 111.792 101.156 110.922 101.156ZM118.547 101.156C117.307 101.156 116.346 100.776 115.664 100.016C114.987 99.25 114.648 98.1693 114.648 96.7734C114.648 95.3411 114.992 94.2344 115.68 93.4531C116.372 92.6719 117.357 92.2812 118.633 92.2812C119.044 92.2812 119.456 92.3255 119.867 92.4141C120.279 92.5026 120.602 92.6068 120.836 92.7266L120.438 93.8281C120.151 93.7135 119.839 93.6198 119.5 93.5469C119.161 93.4688 118.862 93.4297 118.602 93.4297C116.862 93.4297 115.992 94.5391 115.992 96.7578C115.992 97.8099 116.203 98.6172 116.625 99.1797C117.052 99.7422 117.682 100.023 118.516 100.023C119.229 100.023 119.961 99.8698 120.711 99.5625V100.711C120.138 101.008 119.417 101.156 118.547 101.156ZM126.367 101.156C125.102 101.156 124.102 100.771 123.367 100C122.638 99.2292 122.273 98.1589 122.273 96.7891C122.273 95.4089 122.612 94.3125 123.289 93.5C123.971 92.6875 124.885 92.2812 126.031 92.2812C127.104 92.2812 127.953 92.6354 128.578 93.3438C129.203 94.0469 129.516 94.9766 129.516 96.1328V96.9531H123.617C123.643 97.9583 123.896 98.7214 124.375 99.2422C124.859 99.763 125.539 100.023 126.414 100.023C127.336 100.023 128.247 99.8307 129.148 99.4453V100.602C128.69 100.799 128.255 100.94 127.844 101.023C127.438 101.112 126.945 101.156 126.367 101.156ZM126.016 93.3672C125.328 93.3672 124.779 93.5911 124.367 94.0391C123.961 94.487 123.721 95.1068 123.648 95.8984H128.125C128.125 95.0807 127.943 94.4557 127.578 94.0234C127.214 93.5859 126.693 93.3672 126.016 93.3672ZM137.258 98.6641C137.258 99.4609 136.961 100.076 136.367 100.508C135.773 100.94 134.94 101.156 133.867 101.156C132.732 101.156 131.846 100.977 131.211 100.617V99.4141C131.622 99.6224 132.062 99.7865 132.531 99.9062C133.005 100.026 133.461 100.086 133.898 100.086C134.576 100.086 135.096 99.9792 135.461 99.7656C135.826 99.5469 136.008 99.2161 136.008 98.7734C136.008 98.4401 135.862 98.1562 135.57 97.9219C135.284 97.6823 134.721 97.401 133.883 97.0781C133.086 96.7812 132.518 96.5234 132.18 96.3047C131.846 96.0807 131.596 95.8281 131.43 95.5469C131.268 95.2656 131.188 94.9297 131.188 94.5391C131.188 93.8411 131.471 93.2917 132.039 92.8906C132.607 92.4844 133.385 92.2812 134.375 92.2812C135.297 92.2812 136.198 92.4688 137.078 92.8438L136.617 93.8984C135.758 93.5443 134.979 93.3672 134.281 93.3672C133.667 93.3672 133.203 93.4635 132.891 93.6562C132.578 93.849 132.422 94.1146 132.422 94.4531C132.422 94.6823 132.479 94.8776 132.594 95.0391C132.714 95.2005 132.904 95.3542 133.164 95.5C133.424 95.6458 133.924 95.8568 134.664 96.1328C135.68 96.5026 136.365 96.875 136.719 97.25C137.078 97.625 137.258 98.0964 137.258 98.6641ZM146.766 96.7109C146.766 98.1068 146.414 99.1979 145.711 99.9844C145.008 100.766 144.036 101.156 142.797 101.156C142.031 101.156 141.352 100.977 140.758 100.617C140.164 100.258 139.706 99.7422 139.383 99.0703C139.06 98.3984 138.898 97.612 138.898 96.7109C138.898 95.3151 139.247 94.2292 139.945 93.4531C140.643 92.6719 141.612 92.2812 142.852 92.2812C144.049 92.2812 145 92.6797 145.703 93.4766C146.411 94.2734 146.766 95.3516 146.766 96.7109ZM140.242 96.7109C140.242 97.8047 140.461 98.638 140.898 99.2109C141.336 99.7839 141.979 100.07 142.828 100.07C143.677 100.07 144.32 99.7865 144.758 99.2188C145.201 98.6458 145.422 97.8099 145.422 96.7109C145.422 95.6224 145.201 94.7969 144.758 94.2344C144.32 93.6667 143.672 93.3828 142.812 93.3828C141.964 93.3828 141.323 93.6615 140.891 94.2188C140.458 94.776 140.242 95.6068 140.242 96.7109Z" fill="#38485C"/>
<g clip-path="url(#clip0_2197_23024)">
<path d="M265.29 98.8805L269.17 95.0005L265.29 91.1205C264.9 90.7305 264.9 90.1005 265.29 89.7105C265.68 89.3205 266.31 89.3205 266.7 89.7105L271.29 94.3005C271.68 94.6905 271.68 95.3205 271.29 95.7105L266.7 100.3C266.31 100.69 265.68 100.69 265.29 100.3C264.91 99.9105 264.9 99.2705 265.29 98.8805Z" fill="#38485C"/>
</g>
<path d="M296 58H44C39.0294 58 35 62.0294 35 67V123C35 127.971 39.0294 132 44 132H296C300.971 132 305 127.971 305 123V67C305 62.0294 300.971 58 296 58Z" stroke="#E6EBF0" stroke-width="2"/>
<defs>
<clipPath id="clip0_2197_23024">
<rect width="24" height="24" fill="white" transform="translate(256 83)"/>
</clipPath>
</defs>
</svg>
