<svg width="340" height="190" viewBox="0 0 340 190" fill="none" xmlns="http://www.w3.org/2000/svg">
<rect width="340" height="190" fill="#F3F6F9"/>
<rect x="57.5" y="29" width="225" height="54" rx="7" fill="#F5F9FC"/>
<path d="M92.5 46C86.98 46 82.5 50.48 82.5 56C82.5 61.52 86.98 66 92.5 66C98.02 66 102.5 61.52 102.5 56C102.5 50.48 98.02 46 92.5 46ZM92.5 61C91.95 61 91.5 60.55 91.5 60V56C91.5 55.45 91.95 55 92.5 55C93.05 55 93.5 55.45 93.5 56V60C93.5 60.55 93.05 61 92.5 61ZM93.5 53H91.5V51H93.5V53Z" fill="#007BC7"/>
<path d="M122.773 62L120.023 53.0391H119.953C119.964 53.2526 119.979 53.5755 120 54.0078C120.026 54.4349 120.049 54.8906 120.07 55.375C120.091 55.8594 120.102 56.2969 120.102 56.6875V62H117.938V50.5781H121.234L123.938 59.3125H123.984L126.852 50.5781H130.148V62H127.891V56.5938C127.891 56.2344 127.896 55.8203 127.906 55.3516C127.922 54.8828 127.94 54.4375 127.961 54.0156C127.982 53.5885 127.997 53.2682 128.008 53.0547H127.938L124.992 62H122.773ZM136.445 53.1016C137.253 53.1016 137.948 53.2578 138.531 53.5703C139.115 53.8776 139.565 54.3255 139.883 54.9141C140.201 55.5026 140.359 56.2214 140.359 57.0703V58.2266H134.727C134.753 58.8984 134.953 59.4271 135.328 59.8125C135.708 60.1927 136.234 60.3828 136.906 60.3828C137.464 60.3828 137.974 60.3255 138.438 60.2109C138.901 60.0964 139.378 59.9245 139.867 59.6953V61.5391C139.435 61.7526 138.982 61.9089 138.508 62.0078C138.039 62.1068 137.469 62.1562 136.797 62.1562C135.922 62.1562 135.146 61.9948 134.469 61.6719C133.797 61.349 133.268 60.8568 132.883 60.1953C132.503 59.5339 132.312 58.7005 132.312 57.6953C132.312 56.6745 132.484 55.8255 132.828 55.1484C133.177 54.4661 133.661 53.9557 134.281 53.6172C134.901 53.2734 135.622 53.1016 136.445 53.1016ZM136.461 54.7969C135.997 54.7969 135.612 54.9453 135.305 55.2422C135.003 55.5391 134.828 56.0052 134.781 56.6406H138.125C138.12 56.2865 138.055 55.9714 137.93 55.6953C137.81 55.4193 137.628 55.2005 137.383 55.0391C137.143 54.8776 136.836 54.7969 136.461 54.7969ZM147.258 53.1016C148.19 53.1016 148.94 53.3568 149.508 53.8672C150.076 54.3724 150.359 55.1849 150.359 56.3047V62H147.977V56.8984C147.977 56.2734 147.862 55.8021 147.633 55.4844C147.409 55.1667 147.055 55.0078 146.57 55.0078C145.841 55.0078 145.344 55.2552 145.078 55.75C144.812 56.2448 144.68 56.9583 144.68 57.8906V62H142.297V53.2656H144.117L144.438 54.3828H144.57C144.758 54.0807 144.99 53.8359 145.266 53.6484C145.547 53.4609 145.857 53.3229 146.195 53.2344C146.539 53.1458 146.893 53.1016 147.258 53.1016ZM158.906 59.4062C158.906 60 158.766 60.5026 158.484 60.9141C158.208 61.3203 157.794 61.6302 157.242 61.8438C156.69 62.0521 156.003 62.1562 155.18 62.1562C154.57 62.1562 154.047 62.1172 153.609 62.0391C153.177 61.9609 152.74 61.8307 152.297 61.6484V59.6797C152.771 59.8932 153.279 60.0703 153.82 60.2109C154.367 60.3464 154.846 60.4141 155.258 60.4141C155.721 60.4141 156.052 60.3464 156.25 60.2109C156.453 60.0703 156.555 59.888 156.555 59.6641C156.555 59.5182 156.513 59.388 156.43 59.2734C156.352 59.1536 156.18 59.0208 155.914 58.875C155.648 58.724 155.232 58.5286 154.664 58.2891C154.117 58.0599 153.667 57.8281 153.312 57.5938C152.964 57.3594 152.703 57.0833 152.531 56.7656C152.365 56.4427 152.281 56.0339 152.281 55.5391C152.281 54.7318 152.594 54.125 153.219 53.7188C153.849 53.3073 154.69 53.1016 155.742 53.1016C156.284 53.1016 156.799 53.1562 157.289 53.2656C157.784 53.375 158.292 53.5495 158.812 53.7891L158.094 55.5078C157.661 55.3203 157.253 55.1667 156.867 55.0469C156.487 54.9271 156.099 54.8672 155.703 54.8672C155.354 54.8672 155.091 54.9141 154.914 55.0078C154.737 55.1016 154.648 55.2448 154.648 55.4375C154.648 55.5781 154.693 55.7031 154.781 55.8125C154.875 55.9219 155.052 56.0443 155.312 56.1797C155.578 56.3099 155.966 56.4792 156.477 56.6875C156.971 56.8906 157.401 57.1042 157.766 57.3281C158.13 57.5469 158.411 57.8203 158.609 58.1484C158.807 58.4714 158.906 58.8906 158.906 59.4062ZM164.344 53.0859C165.516 53.0859 166.414 53.3411 167.039 53.8516C167.664 54.362 167.977 55.138 167.977 56.1797V62H166.312L165.852 60.8125H165.789C165.539 61.125 165.284 61.3802 165.023 61.5781C164.763 61.776 164.464 61.9219 164.125 62.0156C163.786 62.1094 163.375 62.1562 162.891 62.1562C162.375 62.1562 161.911 62.0573 161.5 61.8594C161.094 61.6615 160.773 61.3594 160.539 60.9531C160.305 60.5417 160.188 60.0208 160.188 59.3906C160.188 58.4635 160.513 57.7812 161.164 57.3438C161.815 56.901 162.792 56.6562 164.094 56.6094L165.609 56.5625V56.1797C165.609 55.7214 165.49 55.3854 165.25 55.1719C165.01 54.9583 164.677 54.8516 164.25 54.8516C163.828 54.8516 163.414 54.9115 163.008 55.0312C162.602 55.151 162.195 55.3021 161.789 55.4844L161 53.875C161.464 53.6302 161.982 53.4375 162.555 53.2969C163.133 53.1562 163.729 53.0859 164.344 53.0859ZM165.609 57.9531L164.688 57.9844C163.917 58.0052 163.38 58.1432 163.078 58.3984C162.781 58.6536 162.633 58.9896 162.633 59.4062C162.633 59.7708 162.74 60.0312 162.953 60.1875C163.167 60.3385 163.445 60.4141 163.789 60.4141C164.299 60.4141 164.729 60.263 165.078 59.9609C165.432 59.6589 165.609 59.2292 165.609 58.6719V57.9531ZM169.734 65.8438C169.464 65.8438 169.182 65.8229 168.891 65.7812C168.599 65.7448 168.357 65.7005 168.164 65.6484V63.7734C168.357 63.8255 168.539 63.862 168.711 63.8828C168.878 63.9089 169.068 63.9219 169.281 63.9219C169.604 63.9219 169.878 63.8307 170.102 63.6484C170.326 63.4714 170.438 63.1198 170.438 62.5938V53.2656H172.82V62.9453C172.82 63.4766 172.719 63.9609 172.516 64.3984C172.312 64.8411 171.984 65.1927 171.531 65.4531C171.078 65.7135 170.479 65.8438 169.734 65.8438ZM170.336 51.0078C170.336 50.5599 170.461 50.2552 170.711 50.0938C170.966 49.9271 171.273 49.8438 171.633 49.8438C171.987 49.8438 172.292 49.9271 172.547 50.0938C172.802 50.2552 172.93 50.5599 172.93 51.0078C172.93 51.4505 172.802 51.7578 172.547 51.9297C172.292 52.0964 171.987 52.1797 171.633 52.1797C171.273 52.1797 170.966 52.0964 170.711 51.9297C170.461 51.7578 170.336 51.4505 170.336 51.0078ZM178.93 53.1016C179.737 53.1016 180.432 53.2578 181.016 53.5703C181.599 53.8776 182.049 54.3255 182.367 54.9141C182.685 55.5026 182.844 56.2214 182.844 57.0703V58.2266H177.211C177.237 58.8984 177.438 59.4271 177.812 59.8125C178.193 60.1927 178.719 60.3828 179.391 60.3828C179.948 60.3828 180.458 60.3255 180.922 60.2109C181.385 60.0964 181.862 59.9245 182.352 59.6953V61.5391C181.919 61.7526 181.466 61.9089 180.992 62.0078C180.523 62.1068 179.953 62.1562 179.281 62.1562C178.406 62.1562 177.63 61.9948 176.953 61.6719C176.281 61.349 175.753 60.8568 175.367 60.1953C174.987 59.5339 174.797 58.7005 174.797 57.6953C174.797 56.6745 174.969 55.8255 175.312 55.1484C175.661 54.4661 176.146 53.9557 176.766 53.6172C177.385 53.2734 178.107 53.1016 178.93 53.1016ZM178.945 54.7969C178.482 54.7969 178.096 54.9453 177.789 55.2422C177.487 55.5391 177.312 56.0052 177.266 56.6406H180.609C180.604 56.2865 180.539 55.9714 180.414 55.6953C180.294 55.4193 180.112 55.2005 179.867 55.0391C179.628 54.8776 179.32 54.7969 178.945 54.7969ZM191.703 62.1562C190.729 62.1562 189.935 61.776 189.32 61.0156C188.711 60.25 188.406 59.1276 188.406 57.6484C188.406 56.1536 188.716 55.0234 189.336 54.2578C189.956 53.487 190.766 53.1016 191.766 53.1016C192.182 53.1016 192.549 53.1589 192.867 53.2734C193.185 53.388 193.458 53.5417 193.688 53.7344C193.922 53.9271 194.12 54.1432 194.281 54.3828H194.359C194.328 54.2161 194.289 53.9714 194.242 53.6484C194.201 53.3203 194.18 52.9844 194.18 52.6406V49.8438H196.57V62H194.742L194.281 60.8672H194.18C194.029 61.1068 193.839 61.3255 193.609 61.5234C193.385 61.7161 193.117 61.8698 192.805 61.9844C192.492 62.099 192.125 62.1562 191.703 62.1562ZM192.539 60.2578C193.19 60.2578 193.648 60.0651 193.914 59.6797C194.185 59.2891 194.328 58.7031 194.344 57.9219V57.6641C194.344 56.8151 194.214 56.1667 193.953 55.7188C193.693 55.2656 193.208 55.0391 192.5 55.0391C191.974 55.0391 191.562 55.2656 191.266 55.7188C190.969 56.1719 190.82 56.8255 190.82 57.6797C190.82 58.5339 190.969 59.1771 191.266 59.6094C191.568 60.0417 191.992 60.2578 192.539 60.2578ZM202.664 53.1016C203.471 53.1016 204.167 53.2578 204.75 53.5703C205.333 53.8776 205.784 54.3255 206.102 54.9141C206.419 55.5026 206.578 56.2214 206.578 57.0703V58.2266H200.945C200.971 58.8984 201.172 59.4271 201.547 59.8125C201.927 60.1927 202.453 60.3828 203.125 60.3828C203.682 60.3828 204.193 60.3255 204.656 60.2109C205.12 60.0964 205.596 59.9245 206.086 59.6953V61.5391C205.654 61.7526 205.201 61.9089 204.727 62.0078C204.258 62.1068 203.688 62.1562 203.016 62.1562C202.141 62.1562 201.365 61.9948 200.688 61.6719C200.016 61.349 199.487 60.8568 199.102 60.1953C198.721 59.5339 198.531 58.7005 198.531 57.6953C198.531 56.6745 198.703 55.8255 199.047 55.1484C199.396 54.4661 199.88 53.9557 200.5 53.6172C201.12 53.2734 201.841 53.1016 202.664 53.1016ZM202.68 54.7969C202.216 54.7969 201.831 54.9453 201.523 55.2422C201.221 55.5391 201.047 56.0052 201 56.6406H204.344C204.339 56.2865 204.273 55.9714 204.148 55.6953C204.029 55.4193 203.846 55.2005 203.602 55.0391C203.362 54.8776 203.055 54.7969 202.68 54.7969ZM216.25 53.0859C217.422 53.0859 218.32 53.3411 218.945 53.8516C219.57 54.362 219.883 55.138 219.883 56.1797V62H218.219L217.758 60.8125H217.695C217.445 61.125 217.19 61.3802 216.93 61.5781C216.669 61.776 216.37 61.9219 216.031 62.0156C215.693 62.1094 215.281 62.1562 214.797 62.1562C214.281 62.1562 213.818 62.0573 213.406 61.8594C213 61.6615 212.68 61.3594 212.445 60.9531C212.211 60.5417 212.094 60.0208 212.094 59.3906C212.094 58.4635 212.419 57.7812 213.07 57.3438C213.721 56.901 214.698 56.6562 216 56.6094L217.516 56.5625V56.1797C217.516 55.7214 217.396 55.3854 217.156 55.1719C216.917 54.9583 216.583 54.8516 216.156 54.8516C215.734 54.8516 215.32 54.9115 214.914 55.0312C214.508 55.151 214.102 55.3021 213.695 55.4844L212.906 53.875C213.37 53.6302 213.888 53.4375 214.461 53.2969C215.039 53.1562 215.635 53.0859 216.25 53.0859ZM217.516 57.9531L216.594 57.9844C215.823 58.0052 215.286 58.1432 214.984 58.3984C214.688 58.6536 214.539 58.9896 214.539 59.4062C214.539 59.7708 214.646 60.0312 214.859 60.1875C215.073 60.3385 215.352 60.4141 215.695 60.4141C216.206 60.4141 216.635 60.263 216.984 59.9609C217.339 59.6589 217.516 59.2292 217.516 58.6719V57.9531ZM224.727 62H222.344V49.8438H224.727V62ZM230.836 53.1016C231.643 53.1016 232.339 53.2578 232.922 53.5703C233.505 53.8776 233.956 54.3255 234.273 54.9141C234.591 55.5026 234.75 56.2214 234.75 57.0703V58.2266H229.117C229.143 58.8984 229.344 59.4271 229.719 59.8125C230.099 60.1927 230.625 60.3828 231.297 60.3828C231.854 60.3828 232.365 60.3255 232.828 60.2109C233.292 60.0964 233.768 59.9245 234.258 59.6953V61.5391C233.826 61.7526 233.372 61.9089 232.898 62.0078C232.43 62.1068 231.859 62.1562 231.188 62.1562C230.312 62.1562 229.536 61.9948 228.859 61.6719C228.188 61.349 227.659 60.8568 227.273 60.1953C226.893 59.5339 226.703 58.7005 226.703 57.6953C226.703 56.6745 226.875 55.8255 227.219 55.1484C227.568 54.4661 228.052 53.9557 228.672 53.6172C229.292 53.2734 230.013 53.1016 230.836 53.1016ZM230.852 54.7969C230.388 54.7969 230.003 54.9453 229.695 55.2422C229.393 55.5391 229.219 56.0052 229.172 56.6406H232.516C232.51 56.2865 232.445 55.9714 232.32 55.6953C232.201 55.4193 232.018 55.2005 231.773 55.0391C231.534 54.8776 231.227 54.7969 230.852 54.7969ZM241.562 53.1016C241.682 53.1016 241.82 53.1094 241.977 53.125C242.138 53.1354 242.268 53.151 242.367 53.1719L242.188 55.4062C242.109 55.3802 241.997 55.362 241.852 55.3516C241.711 55.3359 241.589 55.3281 241.484 55.3281C241.177 55.3281 240.878 55.3672 240.586 55.4453C240.299 55.5234 240.042 55.651 239.812 55.8281C239.583 56 239.401 56.2292 239.266 56.5156C239.135 56.7969 239.07 57.1432 239.07 57.5547V62H236.688V53.2656H238.492L238.844 54.7344H238.961C239.133 54.4375 239.346 54.1667 239.602 53.9219C239.862 53.6719 240.156 53.474 240.484 53.3281C240.818 53.1771 241.177 53.1016 241.562 53.1016ZM247.633 60.2578C247.893 60.2578 248.146 60.2318 248.391 60.1797C248.641 60.1276 248.888 60.0625 249.133 59.9844V61.7578C248.878 61.8724 248.56 61.9661 248.18 62.0391C247.805 62.1172 247.393 62.1562 246.945 62.1562C246.424 62.1562 245.956 62.0729 245.539 61.9062C245.128 61.7344 244.802 61.4401 244.562 61.0234C244.328 60.6016 244.211 60.0156 244.211 59.2656V55.0547H243.07V54.0469L244.383 53.25L245.07 51.4062H246.594V53.2656H249.039V55.0547H246.594V59.2656C246.594 59.599 246.688 59.849 246.875 60.0156C247.068 60.1771 247.32 60.2578 247.633 60.2578ZM254.484 53.0859C255.656 53.0859 256.555 53.3411 257.18 53.8516C257.805 54.362 258.117 55.138 258.117 56.1797V62H256.453L255.992 60.8125H255.93C255.68 61.125 255.424 61.3802 255.164 61.5781C254.904 61.776 254.604 61.9219 254.266 62.0156C253.927 62.1094 253.516 62.1562 253.031 62.1562C252.516 62.1562 252.052 62.0573 251.641 61.8594C251.234 61.6615 250.914 61.3594 250.68 60.9531C250.445 60.5417 250.328 60.0208 250.328 59.3906C250.328 58.4635 250.654 57.7812 251.305 57.3438C251.956 56.901 252.932 56.6562 254.234 56.6094L255.75 56.5625V56.1797C255.75 55.7214 255.63 55.3854 255.391 55.1719C255.151 54.9583 254.818 54.8516 254.391 54.8516C253.969 54.8516 253.555 54.9115 253.148 55.0312C252.742 55.151 252.336 55.3021 251.93 55.4844L251.141 53.875C251.604 53.6302 252.122 53.4375 252.695 53.2969C253.273 53.1562 253.87 53.0859 254.484 53.0859ZM255.75 57.9531L254.828 57.9844C254.057 58.0052 253.521 58.1432 253.219 58.3984C252.922 58.6536 252.773 58.9896 252.773 59.4062C252.773 59.7708 252.88 60.0312 253.094 60.1875C253.307 60.3385 253.586 60.4141 253.93 60.4141C254.44 60.4141 254.87 60.263 255.219 59.9609C255.573 59.6589 255.75 59.2292 255.75 58.6719V57.9531Z" fill="#38485C"/>
<rect x="57.5" y="29" width="225" height="54" rx="7" stroke="#007BC7" stroke-width="2"/>
<rect x="57.5" y="107" width="225" height="54" rx="7" fill="#FCF5F5"/>
<path d="M92.5 124C86.97 124 82.5 128.47 82.5 134C82.5 139.53 86.97 144 92.5 144C98.03 144 102.5 139.53 102.5 134C102.5 128.47 98.03 124 92.5 124ZM96.8 138.3C96.7075 138.393 96.5976 138.466 96.4766 138.516C96.3557 138.567 96.226 138.592 96.095 138.592C95.964 138.592 95.8343 138.567 95.7134 138.516C95.5924 138.466 95.4825 138.393 95.39 138.3L92.5 135.41L89.61 138.3C89.423 138.487 89.1694 138.592 88.905 138.592C88.6406 138.592 88.387 138.487 88.2 138.3C88.013 138.113 87.908 137.859 87.908 137.595C87.908 137.464 87.9338 137.334 87.9839 137.213C88.034 137.092 88.1074 136.983 88.2 136.89L91.09 134L88.2 131.11C88.013 130.923 87.908 130.669 87.908 130.405C87.908 130.141 88.013 129.887 88.2 129.7C88.387 129.513 88.6406 129.408 88.905 129.408C89.1694 129.408 89.423 129.513 89.61 129.7L92.5 132.59L95.39 129.7C95.4826 129.607 95.5925 129.534 95.7135 129.484C95.8344 129.434 95.9641 129.408 96.095 129.408C96.2259 129.408 96.3556 129.434 96.4765 129.484C96.5975 129.534 96.7074 129.607 96.8 129.7C96.8926 129.793 96.966 129.902 97.0161 130.023C97.0662 130.144 97.092 130.274 97.092 130.405C97.092 130.536 97.0662 130.666 97.0161 130.787C96.966 130.908 96.8926 131.017 96.8 131.11L93.91 134L96.8 136.89C97.18 137.27 97.18 137.91 96.8 138.3Z" fill="#C93B3B"/>
<path d="M122.773 140L120.023 131.039H119.953C119.964 131.253 119.979 131.576 120 132.008C120.026 132.435 120.049 132.891 120.07 133.375C120.091 133.859 120.102 134.297 120.102 134.688V140H117.938V128.578H121.234L123.938 137.312H123.984L126.852 128.578H130.148V140H127.891V134.594C127.891 134.234 127.896 133.82 127.906 133.352C127.922 132.883 127.94 132.438 127.961 132.016C127.982 131.589 127.997 131.268 128.008 131.055H127.938L124.992 140H122.773ZM136.445 131.102C137.253 131.102 137.948 131.258 138.531 131.57C139.115 131.878 139.565 132.326 139.883 132.914C140.201 133.503 140.359 134.221 140.359 135.07V136.227H134.727C134.753 136.898 134.953 137.427 135.328 137.812C135.708 138.193 136.234 138.383 136.906 138.383C137.464 138.383 137.974 138.326 138.438 138.211C138.901 138.096 139.378 137.924 139.867 137.695V139.539C139.435 139.753 138.982 139.909 138.508 140.008C138.039 140.107 137.469 140.156 136.797 140.156C135.922 140.156 135.146 139.995 134.469 139.672C133.797 139.349 133.268 138.857 132.883 138.195C132.503 137.534 132.312 136.701 132.312 135.695C132.312 134.674 132.484 133.826 132.828 133.148C133.177 132.466 133.661 131.956 134.281 131.617C134.901 131.273 135.622 131.102 136.445 131.102ZM136.461 132.797C135.997 132.797 135.612 132.945 135.305 133.242C135.003 133.539 134.828 134.005 134.781 134.641H138.125C138.12 134.286 138.055 133.971 137.93 133.695C137.81 133.419 137.628 133.201 137.383 133.039C137.143 132.878 136.836 132.797 136.461 132.797ZM147.258 131.102C148.19 131.102 148.94 131.357 149.508 131.867C150.076 132.372 150.359 133.185 150.359 134.305V140H147.977V134.898C147.977 134.273 147.862 133.802 147.633 133.484C147.409 133.167 147.055 133.008 146.57 133.008C145.841 133.008 145.344 133.255 145.078 133.75C144.812 134.245 144.68 134.958 144.68 135.891V140H142.297V131.266H144.117L144.438 132.383H144.57C144.758 132.081 144.99 131.836 145.266 131.648C145.547 131.461 145.857 131.323 146.195 131.234C146.539 131.146 146.893 131.102 147.258 131.102ZM158.906 137.406C158.906 138 158.766 138.503 158.484 138.914C158.208 139.32 157.794 139.63 157.242 139.844C156.69 140.052 156.003 140.156 155.18 140.156C154.57 140.156 154.047 140.117 153.609 140.039C153.177 139.961 152.74 139.831 152.297 139.648V137.68C152.771 137.893 153.279 138.07 153.82 138.211C154.367 138.346 154.846 138.414 155.258 138.414C155.721 138.414 156.052 138.346 156.25 138.211C156.453 138.07 156.555 137.888 156.555 137.664C156.555 137.518 156.513 137.388 156.43 137.273C156.352 137.154 156.18 137.021 155.914 136.875C155.648 136.724 155.232 136.529 154.664 136.289C154.117 136.06 153.667 135.828 153.312 135.594C152.964 135.359 152.703 135.083 152.531 134.766C152.365 134.443 152.281 134.034 152.281 133.539C152.281 132.732 152.594 132.125 153.219 131.719C153.849 131.307 154.69 131.102 155.742 131.102C156.284 131.102 156.799 131.156 157.289 131.266C157.784 131.375 158.292 131.549 158.812 131.789L158.094 133.508C157.661 133.32 157.253 133.167 156.867 133.047C156.487 132.927 156.099 132.867 155.703 132.867C155.354 132.867 155.091 132.914 154.914 133.008C154.737 133.102 154.648 133.245 154.648 133.438C154.648 133.578 154.693 133.703 154.781 133.812C154.875 133.922 155.052 134.044 155.312 134.18C155.578 134.31 155.966 134.479 156.477 134.688C156.971 134.891 157.401 135.104 157.766 135.328C158.13 135.547 158.411 135.82 158.609 136.148C158.807 136.471 158.906 136.891 158.906 137.406ZM164.344 131.086C165.516 131.086 166.414 131.341 167.039 131.852C167.664 132.362 167.977 133.138 167.977 134.18V140H166.312L165.852 138.812H165.789C165.539 139.125 165.284 139.38 165.023 139.578C164.763 139.776 164.464 139.922 164.125 140.016C163.786 140.109 163.375 140.156 162.891 140.156C162.375 140.156 161.911 140.057 161.5 139.859C161.094 139.661 160.773 139.359 160.539 138.953C160.305 138.542 160.188 138.021 160.188 137.391C160.188 136.464 160.513 135.781 161.164 135.344C161.815 134.901 162.792 134.656 164.094 134.609L165.609 134.562V134.18C165.609 133.721 165.49 133.385 165.25 133.172C165.01 132.958 164.677 132.852 164.25 132.852C163.828 132.852 163.414 132.911 163.008 133.031C162.602 133.151 162.195 133.302 161.789 133.484L161 131.875C161.464 131.63 161.982 131.438 162.555 131.297C163.133 131.156 163.729 131.086 164.344 131.086ZM165.609 135.953L164.688 135.984C163.917 136.005 163.38 136.143 163.078 136.398C162.781 136.654 162.633 136.99 162.633 137.406C162.633 137.771 162.74 138.031 162.953 138.188C163.167 138.339 163.445 138.414 163.789 138.414C164.299 138.414 164.729 138.263 165.078 137.961C165.432 137.659 165.609 137.229 165.609 136.672V135.953ZM169.734 143.844C169.464 143.844 169.182 143.823 168.891 143.781C168.599 143.745 168.357 143.701 168.164 143.648V141.773C168.357 141.826 168.539 141.862 168.711 141.883C168.878 141.909 169.068 141.922 169.281 141.922C169.604 141.922 169.878 141.831 170.102 141.648C170.326 141.471 170.438 141.12 170.438 140.594V131.266H172.82V140.945C172.82 141.477 172.719 141.961 172.516 142.398C172.312 142.841 171.984 143.193 171.531 143.453C171.078 143.714 170.479 143.844 169.734 143.844ZM170.336 129.008C170.336 128.56 170.461 128.255 170.711 128.094C170.966 127.927 171.273 127.844 171.633 127.844C171.987 127.844 172.292 127.927 172.547 128.094C172.802 128.255 172.93 128.56 172.93 129.008C172.93 129.451 172.802 129.758 172.547 129.93C172.292 130.096 171.987 130.18 171.633 130.18C171.273 130.18 170.966 130.096 170.711 129.93C170.461 129.758 170.336 129.451 170.336 129.008ZM178.93 131.102C179.737 131.102 180.432 131.258 181.016 131.57C181.599 131.878 182.049 132.326 182.367 132.914C182.685 133.503 182.844 134.221 182.844 135.07V136.227H177.211C177.237 136.898 177.438 137.427 177.812 137.812C178.193 138.193 178.719 138.383 179.391 138.383C179.948 138.383 180.458 138.326 180.922 138.211C181.385 138.096 181.862 137.924 182.352 137.695V139.539C181.919 139.753 181.466 139.909 180.992 140.008C180.523 140.107 179.953 140.156 179.281 140.156C178.406 140.156 177.63 139.995 176.953 139.672C176.281 139.349 175.753 138.857 175.367 138.195C174.987 137.534 174.797 136.701 174.797 135.695C174.797 134.674 174.969 133.826 175.312 133.148C175.661 132.466 176.146 131.956 176.766 131.617C177.385 131.273 178.107 131.102 178.93 131.102ZM178.945 132.797C178.482 132.797 178.096 132.945 177.789 133.242C177.487 133.539 177.312 134.005 177.266 134.641H180.609C180.604 134.286 180.539 133.971 180.414 133.695C180.294 133.419 180.112 133.201 179.867 133.039C179.628 132.878 179.32 132.797 178.945 132.797ZM191.703 140.156C190.729 140.156 189.935 139.776 189.32 139.016C188.711 138.25 188.406 137.128 188.406 135.648C188.406 134.154 188.716 133.023 189.336 132.258C189.956 131.487 190.766 131.102 191.766 131.102C192.182 131.102 192.549 131.159 192.867 131.273C193.185 131.388 193.458 131.542 193.688 131.734C193.922 131.927 194.12 132.143 194.281 132.383H194.359C194.328 132.216 194.289 131.971 194.242 131.648C194.201 131.32 194.18 130.984 194.18 130.641V127.844H196.57V140H194.742L194.281 138.867H194.18C194.029 139.107 193.839 139.326 193.609 139.523C193.385 139.716 193.117 139.87 192.805 139.984C192.492 140.099 192.125 140.156 191.703 140.156ZM192.539 138.258C193.19 138.258 193.648 138.065 193.914 137.68C194.185 137.289 194.328 136.703 194.344 135.922V135.664C194.344 134.815 194.214 134.167 193.953 133.719C193.693 133.266 193.208 133.039 192.5 133.039C191.974 133.039 191.562 133.266 191.266 133.719C190.969 134.172 190.82 134.826 190.82 135.68C190.82 136.534 190.969 137.177 191.266 137.609C191.568 138.042 191.992 138.258 192.539 138.258ZM202.664 131.102C203.471 131.102 204.167 131.258 204.75 131.57C205.333 131.878 205.784 132.326 206.102 132.914C206.419 133.503 206.578 134.221 206.578 135.07V136.227H200.945C200.971 136.898 201.172 137.427 201.547 137.812C201.927 138.193 202.453 138.383 203.125 138.383C203.682 138.383 204.193 138.326 204.656 138.211C205.12 138.096 205.596 137.924 206.086 137.695V139.539C205.654 139.753 205.201 139.909 204.727 140.008C204.258 140.107 203.688 140.156 203.016 140.156C202.141 140.156 201.365 139.995 200.688 139.672C200.016 139.349 199.487 138.857 199.102 138.195C198.721 137.534 198.531 136.701 198.531 135.695C198.531 134.674 198.703 133.826 199.047 133.148C199.396 132.466 199.88 131.956 200.5 131.617C201.12 131.273 201.841 131.102 202.664 131.102ZM202.68 132.797C202.216 132.797 201.831 132.945 201.523 133.242C201.221 133.539 201.047 134.005 201 134.641H204.344C204.339 134.286 204.273 133.971 204.148 133.695C204.029 133.419 203.846 133.201 203.602 133.039C203.362 132.878 203.055 132.797 202.68 132.797ZM216.25 131.086C217.422 131.086 218.32 131.341 218.945 131.852C219.57 132.362 219.883 133.138 219.883 134.18V140H218.219L217.758 138.812H217.695C217.445 139.125 217.19 139.38 216.93 139.578C216.669 139.776 216.37 139.922 216.031 140.016C215.693 140.109 215.281 140.156 214.797 140.156C214.281 140.156 213.818 140.057 213.406 139.859C213 139.661 212.68 139.359 212.445 138.953C212.211 138.542 212.094 138.021 212.094 137.391C212.094 136.464 212.419 135.781 213.07 135.344C213.721 134.901 214.698 134.656 216 134.609L217.516 134.562V134.18C217.516 133.721 217.396 133.385 217.156 133.172C216.917 132.958 216.583 132.852 216.156 132.852C215.734 132.852 215.32 132.911 214.914 133.031C214.508 133.151 214.102 133.302 213.695 133.484L212.906 131.875C213.37 131.63 213.888 131.438 214.461 131.297C215.039 131.156 215.635 131.086 216.25 131.086ZM217.516 135.953L216.594 135.984C215.823 136.005 215.286 136.143 214.984 136.398C214.688 136.654 214.539 136.99 214.539 137.406C214.539 137.771 214.646 138.031 214.859 138.188C215.073 138.339 215.352 138.414 215.695 138.414C216.206 138.414 216.635 138.263 216.984 137.961C217.339 137.659 217.516 137.229 217.516 136.672V135.953ZM224.727 140H222.344V127.844H224.727V140ZM230.836 131.102C231.643 131.102 232.339 131.258 232.922 131.57C233.505 131.878 233.956 132.326 234.273 132.914C234.591 133.503 234.75 134.221 234.75 135.07V136.227H229.117C229.143 136.898 229.344 137.427 229.719 137.812C230.099 138.193 230.625 138.383 231.297 138.383C231.854 138.383 232.365 138.326 232.828 138.211C233.292 138.096 233.768 137.924 234.258 137.695V139.539C233.826 139.753 233.372 139.909 232.898 140.008C232.43 140.107 231.859 140.156 231.188 140.156C230.312 140.156 229.536 139.995 228.859 139.672C228.188 139.349 227.659 138.857 227.273 138.195C226.893 137.534 226.703 136.701 226.703 135.695C226.703 134.674 226.875 133.826 227.219 133.148C227.568 132.466 228.052 131.956 228.672 131.617C229.292 131.273 230.013 131.102 230.836 131.102ZM230.852 132.797C230.388 132.797 230.003 132.945 229.695 133.242C229.393 133.539 229.219 134.005 229.172 134.641H232.516C232.51 134.286 232.445 133.971 232.32 133.695C232.201 133.419 232.018 133.201 231.773 133.039C231.534 132.878 231.227 132.797 230.852 132.797ZM241.562 131.102C241.682 131.102 241.82 131.109 241.977 131.125C242.138 131.135 242.268 131.151 242.367 131.172L242.188 133.406C242.109 133.38 241.997 133.362 241.852 133.352C241.711 133.336 241.589 133.328 241.484 133.328C241.177 133.328 240.878 133.367 240.586 133.445C240.299 133.523 240.042 133.651 239.812 133.828C239.583 134 239.401 134.229 239.266 134.516C239.135 134.797 239.07 135.143 239.07 135.555V140H236.688V131.266H238.492L238.844 132.734H238.961C239.133 132.438 239.346 132.167 239.602 131.922C239.862 131.672 240.156 131.474 240.484 131.328C240.818 131.177 241.177 131.102 241.562 131.102ZM247.633 138.258C247.893 138.258 248.146 138.232 248.391 138.18C248.641 138.128 248.888 138.062 249.133 137.984V139.758C248.878 139.872 248.56 139.966 248.18 140.039C247.805 140.117 247.393 140.156 246.945 140.156C246.424 140.156 245.956 140.073 245.539 139.906C245.128 139.734 244.802 139.44 244.562 139.023C244.328 138.602 244.211 138.016 244.211 137.266V133.055H243.07V132.047L244.383 131.25L245.07 129.406H246.594V131.266H249.039V133.055H246.594V137.266C246.594 137.599 246.688 137.849 246.875 138.016C247.068 138.177 247.32 138.258 247.633 138.258ZM254.484 131.086C255.656 131.086 256.555 131.341 257.18 131.852C257.805 132.362 258.117 133.138 258.117 134.18V140H256.453L255.992 138.812H255.93C255.68 139.125 255.424 139.38 255.164 139.578C254.904 139.776 254.604 139.922 254.266 140.016C253.927 140.109 253.516 140.156 253.031 140.156C252.516 140.156 252.052 140.057 251.641 139.859C251.234 139.661 250.914 139.359 250.68 138.953C250.445 138.542 250.328 138.021 250.328 137.391C250.328 136.464 250.654 135.781 251.305 135.344C251.956 134.901 252.932 134.656 254.234 134.609L255.75 134.562V134.18C255.75 133.721 255.63 133.385 255.391 133.172C255.151 132.958 254.818 132.852 254.391 132.852C253.969 132.852 253.555 132.911 253.148 133.031C252.742 133.151 252.336 133.302 251.93 133.484L251.141 131.875C251.604 131.63 252.122 131.438 252.695 131.297C253.273 131.156 253.87 131.086 254.484 131.086ZM255.75 135.953L254.828 135.984C254.057 136.005 253.521 136.143 253.219 136.398C252.922 136.654 252.773 136.99 252.773 137.406C252.773 137.771 252.88 138.031 253.094 138.188C253.307 138.339 253.586 138.414 253.93 138.414C254.44 138.414 254.87 138.263 255.219 137.961C255.573 137.659 255.75 137.229 255.75 136.672V135.953Z" fill="#38485C"/>
<rect x="57.5" y="107" width="225" height="54" rx="7" stroke="#C93B3B" stroke-width="2"/>
</svg>
