<svg width="340" height="190" viewBox="0 0 340 190" fill="none" xmlns="http://www.w3.org/2000/svg">
<rect width="340" height="190" fill="#F3F6F9"/>
<path d="M53.6328 89.1797C53.6328 90.4661 53.3984 91.5417 52.9297 92.4062C52.4609 93.2656 51.7812 93.9141 50.8906 94.3516C50.0052 94.7839 48.9297 95 47.6641 95H44.5625V83.5781H48.0078C49.1693 83.5781 50.1693 83.7917 51.0078 84.2188C51.8464 84.6406 52.4922 85.2682 52.9453 86.1016C53.4036 86.9297 53.6328 87.9557 53.6328 89.1797ZM52.2344 89.2266C52.2344 88.2005 52.0625 87.3542 51.7188 86.6875C51.3802 86.0208 50.8802 85.526 50.2188 85.2031C49.5625 84.875 48.7578 84.7109 47.8047 84.7109H45.8906V93.8594H47.5078C49.0807 93.8594 50.2604 93.4714 51.0469 92.6953C51.8385 91.9193 52.2344 90.763 52.2344 89.2266ZM59.2734 86.2812C60.0026 86.2812 60.6276 86.4427 61.1484 86.7656C61.6693 87.0885 62.0677 87.5417 62.3438 88.125C62.6198 88.7031 62.7578 89.3802 62.7578 90.1562V90.9609H56.8438C56.8594 91.9661 57.1094 92.7318 57.5938 93.2578C58.0781 93.7839 58.7604 94.0469 59.6406 94.0469C60.1823 94.0469 60.6615 93.9974 61.0781 93.8984C61.4948 93.7995 61.9271 93.6536 62.375 93.4609V94.6016C61.9427 94.7943 61.513 94.9349 61.0859 95.0234C60.6641 95.112 60.1641 95.1562 59.5859 95.1562C58.763 95.1562 58.0443 94.9896 57.4297 94.6562C56.8203 94.3177 56.3464 93.8229 56.0078 93.1719C55.6693 92.5208 55.5 91.724 55.5 90.7812C55.5 89.8594 55.6536 89.0625 55.9609 88.3906C56.2734 87.7135 56.7109 87.1927 57.2734 86.8281C57.8411 86.4635 58.5078 86.2812 59.2734 86.2812ZM59.2578 87.3438C58.5651 87.3438 58.013 87.5703 57.6016 88.0234C57.1901 88.4766 56.9453 89.1094 56.8672 89.9219H61.3984C61.3932 89.4115 61.3125 88.9635 61.1562 88.5781C61.0052 88.1875 60.7734 87.8854 60.4609 87.6719C60.1484 87.4531 59.7474 87.3438 59.2578 87.3438ZM70.5 92.6562C70.5 93.2031 70.362 93.6641 70.0859 94.0391C69.8151 94.4089 69.4245 94.6875 68.9141 94.875C68.4089 95.0625 67.8047 95.1562 67.1016 95.1562C66.5026 95.1562 65.9844 95.1094 65.5469 95.0156C65.1094 94.9219 64.7266 94.7891 64.3984 94.6172V93.4219C64.7474 93.5938 65.1641 93.75 65.6484 93.8906C66.1328 94.0312 66.6276 94.1016 67.1328 94.1016C67.8724 94.1016 68.4089 93.9818 68.7422 93.7422C69.0755 93.5026 69.2422 93.1771 69.2422 92.7656C69.2422 92.5312 69.1745 92.3255 69.0391 92.1484C68.9089 91.9661 68.6875 91.7917 68.375 91.625C68.0625 91.4531 67.6302 91.2656 67.0781 91.0625C66.5312 90.8542 66.0573 90.6484 65.6562 90.4453C65.2604 90.237 64.9531 89.9844 64.7344 89.6875C64.5208 89.3906 64.4141 89.0052 64.4141 88.5312C64.4141 87.8073 64.7057 87.2526 65.2891 86.8672C65.8776 86.4766 66.6484 86.2812 67.6016 86.2812C68.1172 86.2812 68.599 86.3333 69.0469 86.4375C69.5 86.5365 69.9219 86.6719 70.3125 86.8438L69.875 87.8828C69.5208 87.7318 69.1432 87.6042 68.7422 87.5C68.3411 87.3958 67.9323 87.3438 67.5156 87.3438C66.9167 87.3438 66.4557 87.4427 66.1328 87.6406C65.8151 87.8385 65.6562 88.1094 65.6562 88.4531C65.6562 88.7188 65.7292 88.9375 65.875 89.1094C66.026 89.2812 66.2656 89.4427 66.5938 89.5938C66.9219 89.7448 67.3542 89.9219 67.8906 90.125C68.4271 90.3229 68.8906 90.5286 69.2812 90.7422C69.6719 90.9505 69.9714 91.2057 70.1797 91.5078C70.3932 91.8047 70.5 92.1875 70.5 92.6562ZM76.0156 95.1562C75.2448 95.1562 74.5651 94.9974 73.9766 94.6797C73.388 94.362 72.9297 93.8776 72.6016 93.2266C72.2734 92.5755 72.1094 91.7552 72.1094 90.7656C72.1094 89.7292 72.2812 88.8828 72.625 88.2266C72.974 87.5651 73.4531 87.0755 74.0625 86.7578C74.6719 86.4401 75.3646 86.2812 76.1406 86.2812C76.5677 86.2812 76.9792 86.3255 77.375 86.4141C77.776 86.4974 78.1042 86.6042 78.3594 86.7344L77.9688 87.8203C77.7083 87.7161 77.4062 87.6224 77.0625 87.5391C76.724 87.4557 76.4062 87.4141 76.1094 87.4141C75.5156 87.4141 75.0208 87.5417 74.625 87.7969C74.2344 88.0521 73.9401 88.4271 73.7422 88.9219C73.5495 89.4167 73.4531 90.026 73.4531 90.75C73.4531 91.4427 73.5469 92.0339 73.7344 92.5234C73.9271 93.013 74.2109 93.388 74.5859 93.6484C74.9661 93.9036 75.4401 94.0312 76.0078 94.0312C76.4609 94.0312 76.8698 93.9844 77.2344 93.8906C77.599 93.7917 77.9297 93.6771 78.2266 93.5469V94.7031C77.9401 94.849 77.6198 94.9609 77.2656 95.0391C76.9167 95.1172 76.5 95.1562 76.0156 95.1562ZM84.1484 86.2812C84.3203 86.2812 84.5 86.2917 84.6875 86.3125C84.875 86.3281 85.0417 86.3516 85.1875 86.3828L85.0234 87.5859C84.8828 87.5495 84.7266 87.5208 84.5547 87.5C84.3828 87.4792 84.2214 87.4688 84.0703 87.4688C83.7266 87.4688 83.401 87.5391 83.0938 87.6797C82.7917 87.8151 82.526 88.013 82.2969 88.2734C82.0677 88.5286 81.888 88.8385 81.7578 89.2031C81.6276 89.5625 81.5625 89.9635 81.5625 90.4062V95H80.2578V86.4375H81.3359L81.4766 88.0156H81.5312C81.7083 87.6979 81.9219 87.4089 82.1719 87.1484C82.4219 86.8828 82.7109 86.6719 83.0391 86.5156C83.3724 86.3594 83.7422 86.2812 84.1484 86.2812ZM88.1016 86.4375V95H86.8047V86.4375H88.1016ZM87.4688 83.2344C87.6823 83.2344 87.8646 83.3047 88.0156 83.4453C88.1719 83.5807 88.25 83.7943 88.25 84.0859C88.25 84.3724 88.1719 84.5859 88.0156 84.7266C87.8646 84.8672 87.6823 84.9375 87.4688 84.9375C87.2448 84.9375 87.0573 84.8672 86.9062 84.7266C86.7604 84.5859 86.6875 84.3724 86.6875 84.0859C86.6875 83.7943 86.7604 83.5807 86.9062 83.4453C87.0573 83.3047 87.2448 83.2344 87.4688 83.2344ZM94.875 86.2812C95.9427 86.2812 96.7943 86.6484 97.4297 87.3828C98.0651 88.1172 98.3828 89.2214 98.3828 90.6953C98.3828 91.6693 98.237 92.487 97.9453 93.1484C97.6536 93.8099 97.2422 94.3099 96.7109 94.6484C96.1849 94.987 95.5625 95.1562 94.8438 95.1562C94.3906 95.1562 93.9922 95.0964 93.6484 94.9766C93.3047 94.8568 93.0104 94.6953 92.7656 94.4922C92.5208 94.2891 92.3177 94.0677 92.1562 93.8281H92.0625C92.0781 94.0312 92.0964 94.276 92.1172 94.5625C92.1432 94.849 92.1562 95.099 92.1562 95.3125V98.8281H90.8516V86.4375H91.9219L92.0938 87.7031H92.1562C92.3229 87.4427 92.526 87.2057 92.7656 86.9922C93.0052 86.7734 93.2969 86.6016 93.6406 86.4766C93.9896 86.3464 94.401 86.2812 94.875 86.2812ZM94.6484 87.375C94.0547 87.375 93.5755 87.4896 93.2109 87.7188C92.8516 87.9479 92.5885 88.2917 92.4219 88.75C92.2552 89.2031 92.1667 89.7734 92.1562 90.4609V90.7109C92.1562 91.4349 92.2344 92.0469 92.3906 92.5469C92.5521 93.0469 92.8151 93.4271 93.1797 93.6875C93.5495 93.9479 94.0443 94.0781 94.6641 94.0781C95.1953 94.0781 95.638 93.9349 95.9922 93.6484C96.3464 93.362 96.6094 92.9635 96.7812 92.4531C96.9583 91.9375 97.0469 91.3464 97.0469 90.6797C97.0469 89.6693 96.849 88.8672 96.4531 88.2734C96.0625 87.6745 95.4609 87.375 94.6484 87.375ZM104.078 95.1562C103.307 95.1562 102.628 94.9974 102.039 94.6797C101.451 94.362 100.992 93.8776 100.664 93.2266C100.336 92.5755 100.172 91.7552 100.172 90.7656C100.172 89.7292 100.344 88.8828 100.688 88.2266C101.036 87.5651 101.516 87.0755 102.125 86.7578C102.734 86.4401 103.427 86.2812 104.203 86.2812C104.63 86.2812 105.042 86.3255 105.438 86.4141C105.839 86.4974 106.167 86.6042 106.422 86.7344L106.031 87.8203C105.771 87.7161 105.469 87.6224 105.125 87.5391C104.786 87.4557 104.469 87.4141 104.172 87.4141C103.578 87.4141 103.083 87.5417 102.688 87.7969C102.297 88.0521 102.003 88.4271 101.805 88.9219C101.612 89.4167 101.516 90.026 101.516 90.75C101.516 91.4427 101.609 92.0339 101.797 92.5234C101.99 93.013 102.273 93.388 102.648 93.6484C103.029 93.9036 103.503 94.0312 104.07 94.0312C104.523 94.0312 104.932 93.9844 105.297 93.8906C105.661 93.7917 105.992 93.6771 106.289 93.5469V94.7031C106.003 94.849 105.682 94.9609 105.328 95.0391C104.979 95.1172 104.562 95.1562 104.078 95.1562ZM109.617 86.4375V95H108.32V86.4375H109.617ZM108.984 83.2344C109.198 83.2344 109.38 83.3047 109.531 83.4453C109.688 83.5807 109.766 83.7943 109.766 84.0859C109.766 84.3724 109.688 84.5859 109.531 84.7266C109.38 84.8672 109.198 84.9375 108.984 84.9375C108.76 84.9375 108.573 84.8672 108.422 84.7266C108.276 84.5859 108.203 84.3724 108.203 84.0859C108.203 83.7943 108.276 83.5807 108.422 83.4453C108.573 83.3047 108.76 83.2344 108.984 83.2344ZM119.75 90.7031C119.75 91.4062 119.659 92.0339 119.477 92.5859C119.294 93.138 119.031 93.6042 118.688 93.9844C118.344 94.3646 117.927 94.6562 117.438 94.8594C116.953 95.0573 116.404 95.1562 115.789 95.1562C115.216 95.1562 114.69 95.0573 114.211 94.8594C113.737 94.6562 113.326 94.3646 112.977 93.9844C112.633 93.6042 112.365 93.138 112.172 92.5859C111.984 92.0339 111.891 91.4062 111.891 90.7031C111.891 89.7656 112.049 88.9688 112.367 88.3125C112.685 87.651 113.138 87.1484 113.727 86.8047C114.32 86.4557 115.026 86.2812 115.844 86.2812C116.625 86.2812 117.307 86.4557 117.891 86.8047C118.479 87.1536 118.935 87.6589 119.258 88.3203C119.586 88.9766 119.75 89.7708 119.75 90.7031ZM113.234 90.7031C113.234 91.3906 113.326 91.987 113.508 92.4922C113.69 92.9974 113.971 93.388 114.352 93.6641C114.732 93.9401 115.221 94.0781 115.82 94.0781C116.414 94.0781 116.901 93.9401 117.281 93.6641C117.667 93.388 117.951 92.9974 118.133 92.4922C118.315 91.987 118.406 91.3906 118.406 90.7031C118.406 90.0208 118.315 89.4323 118.133 88.9375C117.951 88.4375 117.669 88.0521 117.289 87.7812C116.909 87.5104 116.417 87.375 115.812 87.375C114.922 87.375 114.268 87.6693 113.852 88.2578C113.44 88.8464 113.234 89.6615 113.234 90.7031ZM118.086 82.7422V82.8984C117.982 83.0495 117.839 83.2318 117.656 83.4453C117.479 83.6536 117.281 83.875 117.062 84.1094C116.844 84.3385 116.622 84.5573 116.398 84.7656C116.18 84.974 115.977 85.1536 115.789 85.3047H114.922V85.1172C115.089 84.9193 115.271 84.6823 115.469 84.4062C115.667 84.125 115.859 83.8385 116.047 83.5469C116.234 83.25 116.391 82.9818 116.516 82.7422H118.086ZM126.047 86.2812C127.062 86.2812 127.831 86.5312 128.352 87.0312C128.872 87.526 129.133 88.3229 129.133 89.4219V95H127.852V89.5078C127.852 88.7943 127.688 88.2604 127.359 87.9062C127.036 87.5521 126.539 87.375 125.867 87.375C124.919 87.375 124.253 87.6432 123.867 88.1797C123.482 88.7161 123.289 89.4948 123.289 90.5156V95H121.992V86.4375H123.039L123.234 87.6719H123.305C123.487 87.3698 123.719 87.1172 124 86.9141C124.281 86.7057 124.596 86.5495 124.945 86.4453C125.294 86.3359 125.661 86.2812 126.047 86.2812Z" fill="#38485C"/>
<rect x="43" y="109" width="254" height="4" rx="2" fill="#E6EBF0"/>
<rect x="43" y="109" width="66.0281" height="4" rx="2" fill="#007BC7"/>
</svg>
