<svg width="340" height="190" viewBox="0 0 340 190" fill="none" xmlns="http://www.w3.org/2000/svg">
<rect width="340" height="190" fill="#F3F6F9"/>
<rect x="21" y="36" width="26" height="26" rx="13" fill="#38485C"/>
<path d="M37.016 52.336C37.656 52.336 37.976 52.608 37.976 53.152C37.976 53.7173 37.656 54 37.016 54H31.608C30.9573 54 30.632 53.7173 30.632 53.152C30.632 52.608 30.9573 52.336 31.608 52.336H33.272V45.04L31.736 45.984C31.5867 46.0693 31.4533 46.112 31.336 46.112C31.112 46.112 30.92 46.016 30.76 45.824C30.6107 45.632 30.536 45.4187 30.536 45.184C30.536 44.8747 30.6747 44.6347 30.952 44.464L33.432 42.928C33.752 42.736 34.056 42.64 34.344 42.64C34.6427 42.64 34.8827 42.7307 35.064 42.912C35.2453 43.0933 35.336 43.344 35.336 43.664V52.336H37.016Z" fill="white"/>
<line x1="35" y1="62" x2="35" y2="154" stroke="#38485C" stroke-width="2"/>
<path d="M67.04 60.1C66.7333 60.1 66.48 60.0067 66.28 59.82C66.0933 59.62 66 59.3667 66 59.06V47.62H62C61.36 47.62 61.04 47.3333 61.04 46.76C61.04 46.48 61.12 46.2667 61.28 46.12C61.4533 45.9733 61.6933 45.9 62 45.9H72.08C72.3867 45.9 72.62 45.9733 72.78 46.12C72.9533 46.2667 73.04 46.48 73.04 46.76C73.04 47.3333 72.72 47.62 72.08 47.62H68.08V59.06C68.08 59.3667 67.9867 59.62 67.8 59.82C67.6133 60.0067 67.36 60.1 67.04 60.1ZM75.5294 60.1C75.236 60.1 74.9894 60.02 74.7894 59.86C74.6027 59.7 74.5094 59.46 74.5094 59.14V51.02C74.5094 50.7 74.6027 50.46 74.7894 50.3C74.9894 50.1267 75.236 50.04 75.5294 50.04C75.8227 50.04 76.0627 50.1267 76.2494 50.3C76.436 50.46 76.5294 50.7 76.5294 51.02V59.14C76.5294 59.46 76.436 59.7 76.2494 59.86C76.0627 60.02 75.8227 60.1 75.5294 60.1ZM75.9494 48.92C75.8427 49.0133 75.716 49.06 75.5694 49.06C75.4227 49.06 75.2894 49.0067 75.1694 48.9C75.0627 48.7933 75.0094 48.6667 75.0094 48.52C75.0094 48.3867 75.056 48.2667 75.1494 48.16L77.3094 45.34C77.576 44.98 77.8827 44.8 78.2294 44.8C78.4827 44.8 78.696 44.8867 78.8694 45.06C79.0427 45.2333 79.1294 45.44 79.1294 45.68C79.1294 45.9867 78.9694 46.2733 78.6494 46.54L75.9494 48.92ZM84.1331 58.56C84.4265 58.5867 84.6331 58.6667 84.7531 58.8C84.8865 58.92 84.9531 59.0933 84.9531 59.32C84.9531 59.5867 84.8465 59.7933 84.6331 59.94C84.4331 60.0733 84.1331 60.1267 83.7331 60.1L83.1931 60.06C82.1131 59.98 81.3065 59.6533 80.7731 59.08C80.2398 58.4933 79.9731 57.6333 79.9731 56.5V51.8H78.7731C78.1865 51.8 77.8931 51.54 77.8931 51.02C77.8931 50.78 77.9665 50.5933 78.1131 50.46C78.2731 50.3133 78.4931 50.24 78.7731 50.24H79.9731V48.18C79.9731 47.8733 80.0598 47.6333 80.2331 47.46C80.4198 47.2867 80.6665 47.2 80.9731 47.2C81.2798 47.2 81.5265 47.2867 81.7131 47.46C81.8998 47.6333 81.9931 47.8733 81.9931 48.18V50.24H83.9731C84.2531 50.24 84.4665 50.3133 84.6131 50.46C84.7731 50.5933 84.8531 50.78 84.8531 51.02C84.8531 51.2733 84.7731 51.4667 84.6131 51.6C84.4665 51.7333 84.2531 51.8 83.9731 51.8H81.9931V56.64C81.9931 57.2667 82.1198 57.7267 82.3731 58.02C82.6398 58.3133 83.0398 58.48 83.5731 58.52L84.1331 58.56ZM93.9639 50.04C94.2706 50.04 94.5106 50.1267 94.6839 50.3C94.8706 50.4733 94.9639 50.7133 94.9639 51.02V59.16C94.9639 59.44 94.8706 59.6667 94.6839 59.84C94.4972 60.0133 94.2506 60.1 93.9439 60.1C93.6639 60.1 93.4372 60.02 93.2639 59.86C93.0906 59.6867 93.0039 59.46 93.0039 59.18V58.42C92.6972 58.98 92.2706 59.4067 91.7239 59.7C91.1906 59.9933 90.5906 60.14 89.9239 60.14C87.5506 60.14 86.3639 58.8333 86.3639 56.22V51.02C86.3639 50.7133 86.4506 50.4733 86.6239 50.3C86.8106 50.1267 87.0639 50.04 87.3839 50.04C87.6906 50.04 87.9306 50.1267 88.1039 50.3C88.2906 50.4733 88.3839 50.7133 88.3839 51.02V56.2C88.3839 56.9867 88.5439 57.5667 88.8639 57.94C89.1839 58.3133 89.6772 58.5 90.3439 58.5C91.1306 58.5 91.7572 58.2467 92.2239 57.74C92.7039 57.2333 92.9439 56.56 92.9439 55.72V51.02C92.9439 50.7267 93.0372 50.4933 93.2239 50.32C93.4106 50.1333 93.6572 50.04 93.9639 50.04ZM98.8106 60.1C98.5173 60.1 98.2706 60.02 98.0706 59.86C97.884 59.7 97.7906 59.46 97.7906 59.14V46.78C97.7906 46.46 97.884 46.22 98.0706 46.06C98.2706 45.8867 98.5173 45.8 98.8106 45.8C99.104 45.8 99.344 45.8867 99.5306 46.06C99.7173 46.22 99.8106 46.46 99.8106 46.78V59.14C99.8106 59.46 99.7173 59.7 99.5306 59.86C99.344 60.02 99.104 60.1 98.8106 60.1ZM106.874 60.14C105.914 60.14 105.068 59.9333 104.334 59.52C103.614 59.1067 103.054 58.52 102.654 57.76C102.268 56.9867 102.074 56.0933 102.074 55.08C102.074 54.0533 102.268 53.16 102.654 52.4C103.054 51.6267 103.614 51.0333 104.334 50.62C105.068 50.2067 105.914 50 106.874 50C107.834 50 108.674 50.2067 109.394 50.62C110.128 51.0333 110.688 51.6267 111.074 52.4C111.474 53.16 111.674 54.0533 111.674 55.08C111.674 56.0933 111.474 56.9867 111.074 57.76C110.688 58.52 110.128 59.1067 109.394 59.52C108.674 59.9333 107.834 60.14 106.874 60.14ZM106.874 58.54C107.768 58.54 108.448 58.2467 108.914 57.66C109.394 57.0733 109.634 56.2133 109.634 55.08C109.634 53.96 109.394 53.1067 108.914 52.52C108.434 51.92 107.754 51.62 106.874 51.62C105.994 51.62 105.314 51.92 104.834 52.52C104.354 53.1067 104.114 53.96 104.114 55.08C104.114 56.2133 104.348 57.0733 104.814 57.66C105.294 58.2467 105.981 58.54 106.874 58.54ZM127.177 45.8C127.484 45.8 127.73 45.8867 127.917 46.06C128.104 46.2333 128.197 46.4667 128.197 46.76V59.12C128.197 59.4267 128.104 59.6667 127.917 59.84C127.744 60.0133 127.504 60.1 127.197 60.1C126.89 60.1 126.644 60.0133 126.457 59.84C126.284 59.6667 126.197 59.4267 126.197 59.12V58.32C125.904 58.9067 125.477 59.36 124.917 59.68C124.357 59.9867 123.71 60.14 122.977 60.14C122.137 60.14 121.384 59.9267 120.717 59.5C120.064 59.0733 119.55 58.4733 119.177 57.7C118.817 56.9267 118.637 56.04 118.637 55.04C118.637 54.0267 118.817 53.14 119.177 52.38C119.55 51.62 120.064 51.0333 120.717 50.62C121.37 50.2067 122.124 50 122.977 50C123.71 50 124.35 50.16 124.897 50.48C125.457 50.7867 125.884 51.2267 126.177 51.8V46.72C126.177 46.44 126.264 46.22 126.437 46.06C126.624 45.8867 126.87 45.8 127.177 45.8ZM123.457 58.54C124.324 58.54 124.997 58.24 125.477 57.64C125.957 57.04 126.197 56.1867 126.197 55.08C126.197 53.9733 125.957 53.12 125.477 52.52C125.01 51.92 124.337 51.62 123.457 51.62C122.577 51.62 121.89 51.92 121.397 52.52C120.917 53.1067 120.677 53.9467 120.677 55.04C120.677 56.1333 120.924 56.9933 121.417 57.62C121.91 58.2333 122.59 58.54 123.457 58.54ZM138.653 57.54C138.84 57.54 138.993 57.6133 139.113 57.76C139.233 57.9067 139.293 58.0933 139.293 58.32C139.293 58.7067 139.053 59.0333 138.573 59.3C138.107 59.5667 137.593 59.7733 137.033 59.92C136.487 60.0667 135.96 60.14 135.453 60.14C133.907 60.14 132.687 59.6933 131.793 58.8C130.9 57.8933 130.453 56.66 130.453 55.1C130.453 54.1 130.647 53.2133 131.033 52.44C131.433 51.6667 131.987 51.0667 132.693 50.64C133.413 50.2133 134.227 50 135.133 50C136.44 50 137.473 50.42 138.233 51.26C138.993 52.1 139.373 53.2333 139.373 54.66C139.373 55.1933 139.133 55.46 138.653 55.46H132.473C132.607 57.5267 133.6 58.56 135.453 58.56C135.947 58.56 136.373 58.4933 136.733 58.36C137.093 58.2267 137.473 58.0533 137.873 57.84C137.913 57.8133 138.02 57.76 138.193 57.68C138.38 57.5867 138.533 57.54 138.653 57.54ZM135.173 51.48C134.4 51.48 133.78 51.7267 133.313 52.22C132.847 52.7133 132.567 53.4067 132.473 54.3H137.633C137.593 53.3933 137.36 52.7 136.933 52.22C136.52 51.7267 135.933 51.48 135.173 51.48ZM142.619 60.1C142.326 60.1 142.079 60.02 141.879 59.86C141.693 59.7 141.599 59.46 141.599 59.14V46.78C141.599 46.46 141.693 46.22 141.879 46.06C142.079 45.8867 142.326 45.8 142.619 45.8C142.913 45.8 143.153 45.8867 143.339 46.06C143.526 46.22 143.619 46.46 143.619 46.78V59.14C143.619 59.46 143.526 59.7 143.339 59.86C143.153 60.02 142.913 60.1 142.619 60.1ZM156.956 50C157.796 50 158.543 50.2133 159.196 50.64C159.863 51.0667 160.376 51.6667 160.736 52.44C161.11 53.2133 161.296 54.1067 161.296 55.12C161.296 56.12 161.116 57 160.756 57.76C160.396 58.52 159.883 59.1067 159.216 59.52C158.563 59.9333 157.81 60.14 156.956 60.14C156.223 60.14 155.576 59.9867 155.016 59.68C154.456 59.36 154.03 58.9067 153.736 58.32V62.78C153.736 63.06 153.643 63.28 153.456 63.44C153.283 63.6133 153.05 63.7 152.756 63.7C152.45 63.7 152.196 63.6133 151.996 63.44C151.81 63.2667 151.716 63.0333 151.716 62.74V51.02C151.716 50.7267 151.81 50.4933 151.996 50.32C152.183 50.1333 152.43 50.04 152.736 50.04C153.03 50.04 153.27 50.1333 153.456 50.32C153.643 50.4933 153.736 50.7267 153.736 51.02V51.84C154.03 51.2533 154.456 50.8 155.016 50.48C155.576 50.16 156.223 50 156.956 50ZM156.476 58.54C157.356 58.54 158.036 58.2467 158.516 57.66C158.996 57.06 159.236 56.2133 159.236 55.12C159.236 54.0133 158.99 53.1533 158.496 52.54C158.016 51.9267 157.343 51.62 156.476 51.62C155.596 51.62 154.916 51.92 154.436 52.52C153.97 53.12 153.736 53.9733 153.736 55.08C153.736 56.1867 153.97 57.04 154.436 57.64C154.916 58.24 155.596 58.54 156.476 58.54ZM167.633 50C168.926 50 169.886 50.3267 170.513 50.98C171.153 51.6333 171.473 52.6267 171.473 53.96V59.14C171.473 59.4467 171.386 59.6867 171.213 59.86C171.039 60.02 170.799 60.1 170.493 60.1C170.199 60.1 169.966 60.0133 169.793 59.84C169.619 59.6667 169.533 59.4333 169.533 59.14V58.4C169.279 58.96 168.899 59.3933 168.393 59.7C167.899 59.9933 167.319 60.14 166.653 60.14C166.013 60.14 165.426 60.0133 164.893 59.76C164.359 59.4933 163.939 59.1267 163.633 58.66C163.339 58.1933 163.193 57.6733 163.193 57.1C163.193 56.3933 163.373 55.84 163.733 55.44C164.106 55.0267 164.713 54.7333 165.553 54.56C166.406 54.3867 167.573 54.3 169.053 54.3H169.513V53.72C169.513 52.9733 169.359 52.4333 169.053 52.1C168.746 51.7667 168.253 51.6 167.573 51.6C167.106 51.6 166.666 51.66 166.253 51.78C165.839 51.9 165.386 52.0733 164.893 52.3C164.533 52.5 164.279 52.6 164.133 52.6C163.933 52.6 163.766 52.5267 163.633 52.38C163.513 52.2333 163.453 52.0467 163.453 51.82C163.453 51.62 163.506 51.4467 163.613 51.3C163.733 51.14 163.919 50.9867 164.173 50.84C164.639 50.5867 165.186 50.3867 165.813 50.24C166.439 50.08 167.046 50 167.633 50ZM167.013 58.64C167.746 58.64 168.346 58.3933 168.813 57.9C169.279 57.3933 169.513 56.7467 169.513 55.96V55.44H169.153C168.113 55.44 167.313 55.4867 166.753 55.58C166.193 55.6733 165.793 55.8333 165.553 56.06C165.313 56.2733 165.193 56.5867 165.193 57C165.193 57.48 165.366 57.8733 165.713 58.18C166.059 58.4867 166.493 58.64 167.013 58.64ZM177.636 60.14C176.276 60.14 175.163 59.86 174.296 59.3C174.056 59.1533 173.883 59 173.776 58.84C173.683 58.68 173.636 58.5 173.636 58.3C173.636 58.0867 173.696 57.9067 173.816 57.76C173.936 57.6133 174.089 57.54 174.276 57.54C174.449 57.54 174.723 57.6467 175.096 57.86C175.496 58.0733 175.883 58.2467 176.256 58.38C176.643 58.5133 177.123 58.58 177.696 58.58C178.336 58.58 178.836 58.4667 179.196 58.24C179.556 58.0133 179.736 57.6933 179.736 57.28C179.736 57.0133 179.663 56.8 179.516 56.64C179.383 56.48 179.143 56.34 178.796 56.22C178.449 56.0867 177.936 55.9467 177.256 55.8C176.083 55.5467 175.236 55.2067 174.716 54.78C174.209 54.34 173.956 53.7467 173.956 53C173.956 52.4267 174.123 51.9133 174.456 51.46C174.789 50.9933 175.249 50.6333 175.836 50.38C176.423 50.1267 177.089 50 177.836 50C178.369 50 178.889 50.0733 179.396 50.22C179.903 50.3533 180.349 50.5533 180.736 50.82C181.176 51.1133 181.396 51.4533 181.396 51.84C181.396 52.0533 181.329 52.2333 181.196 52.38C181.076 52.5267 180.929 52.6 180.756 52.6C180.636 52.6 180.516 52.5733 180.396 52.52C180.276 52.4667 180.116 52.38 179.916 52.26C179.556 52.0467 179.216 51.88 178.896 51.76C178.589 51.64 178.203 51.58 177.736 51.58C177.176 51.58 176.723 51.7 176.376 51.94C176.043 52.18 175.876 52.5067 175.876 52.92C175.876 53.2933 176.029 53.5867 176.336 53.8C176.656 54 177.249 54.1933 178.116 54.38C179.009 54.5667 179.709 54.78 180.216 55.02C180.723 55.26 181.083 55.56 181.296 55.92C181.523 56.2667 181.636 56.7133 181.636 57.26C181.636 58.1267 181.269 58.8267 180.536 59.36C179.816 59.88 178.849 60.14 177.636 60.14ZM188.124 60.14C187.164 60.14 186.318 59.9333 185.584 59.52C184.864 59.1067 184.304 58.52 183.904 57.76C183.518 56.9867 183.324 56.0933 183.324 55.08C183.324 54.0533 183.518 53.16 183.904 52.4C184.304 51.6267 184.864 51.0333 185.584 50.62C186.318 50.2067 187.164 50 188.124 50C189.084 50 189.924 50.2067 190.644 50.62C191.378 51.0333 191.938 51.6267 192.324 52.4C192.724 53.16 192.924 54.0533 192.924 55.08C192.924 56.0933 192.724 56.9867 192.324 57.76C191.938 58.52 191.378 59.1067 190.644 59.52C189.924 59.9333 189.084 60.14 188.124 60.14ZM188.124 58.54C189.018 58.54 189.698 58.2467 190.164 57.66C190.644 57.0733 190.884 56.2133 190.884 55.08C190.884 53.96 190.644 53.1067 190.164 52.52C189.684 51.92 189.004 51.62 188.124 51.62C187.244 51.62 186.564 51.92 186.084 52.52C185.604 53.1067 185.364 53.96 185.364 55.08C185.364 56.2133 185.598 57.0733 186.064 57.66C186.544 58.2467 187.231 58.54 188.124 58.54Z" fill="#38485C"/>
<path d="M67.4492 89H62.2759V79.7197H67.4492V80.6782H63.355V83.668H67.2017V84.6201H63.355V88.0352H67.4492V89ZM74.1143 89V84.4995C74.1143 83.9325 73.9852 83.5093 73.7271 83.23C73.4689 82.9507 73.0648 82.811 72.5146 82.811C71.7868 82.811 71.2536 83.0078 70.915 83.4014C70.5765 83.7949 70.4072 84.4445 70.4072 85.3501V89H69.3535V82.043H70.2104L70.3818 82.9951H70.4326C70.6484 82.6523 70.951 82.3879 71.3403 82.2017C71.7297 82.0112 72.1634 81.916 72.6416 81.916C73.4795 81.916 74.11 82.1191 74.5332 82.5254C74.9564 82.9274 75.168 83.5728 75.168 84.4614V89H74.1143ZM83.6548 89.127C82.6265 89.127 81.814 88.8138 81.2173 88.1875C80.6248 87.5612 80.3286 86.6916 80.3286 85.5786C80.3286 84.4572 80.6037 83.5664 81.1538 82.9062C81.7082 82.2461 82.4508 81.916 83.3818 81.916C84.2536 81.916 84.9434 82.2038 85.4512 82.7793C85.959 83.3506 86.2129 84.106 86.2129 85.0454V85.7119H81.4204C81.4416 86.5286 81.6468 87.1486 82.0361 87.5718C82.4297 87.995 82.9819 88.2065 83.6929 88.2065C84.4419 88.2065 85.1825 88.05 85.9146 87.7368V88.6763C85.5422 88.8371 85.1888 88.9513 84.8545 89.019C84.5244 89.091 84.1245 89.127 83.6548 89.127ZM83.3691 82.7983C82.8105 82.7983 82.3641 82.9803 82.0298 83.3442C81.6997 83.7082 81.505 84.2118 81.4458 84.855H85.083C85.083 84.1906 84.9349 83.6828 84.6387 83.3315C84.3424 82.9761 83.9193 82.7983 83.3691 82.7983ZM92.5034 87.1021C92.5034 87.7495 92.2622 88.2489 91.7798 88.6001C91.2974 88.9513 90.6203 89.127 89.7485 89.127C88.826 89.127 88.1066 88.981 87.5903 88.689V87.7114C87.9246 87.8807 88.2822 88.014 88.6631 88.1113C89.0482 88.2087 89.4185 88.2573 89.7739 88.2573C90.3241 88.2573 90.7472 88.1706 91.0435 87.9971C91.3397 87.8193 91.4878 87.5506 91.4878 87.1909C91.4878 86.9201 91.3693 86.6895 91.1323 86.499C90.8996 86.3044 90.4425 86.0758 89.7612 85.8135C89.1138 85.5723 88.6525 85.3628 88.3774 85.1851C88.1066 85.0031 87.9035 84.7979 87.7681 84.5693C87.6369 84.3408 87.5713 84.0679 87.5713 83.7505C87.5713 83.1834 87.8019 82.737 88.2632 82.4111C88.7244 82.0811 89.3571 81.916 90.1611 81.916C90.9102 81.916 91.6423 82.0684 92.3574 82.373L91.9829 83.23C91.2847 82.9422 90.652 82.7983 90.085 82.7983C89.5856 82.7983 89.209 82.8766 88.9551 83.0332C88.7012 83.1898 88.5742 83.4056 88.5742 83.6807C88.5742 83.8669 88.6208 84.0256 88.7139 84.1567C88.8112 84.2879 88.9657 84.4128 89.1772 84.5312C89.3888 84.6497 89.7951 84.8211 90.396 85.0454C91.2212 85.3459 91.7777 85.6484 92.0654 85.9531C92.3574 86.2578 92.5034 86.6408 92.5034 87.1021ZM96.4707 88.2573C96.6569 88.2573 96.8368 88.2446 97.0103 88.2192C97.1838 88.1896 97.3213 88.16 97.4229 88.1304V88.9365C97.3086 88.9915 97.1393 89.036 96.915 89.0698C96.695 89.1079 96.4961 89.127 96.3184 89.127C94.9727 89.127 94.2998 88.4181 94.2998 87.0005V82.8618H93.3032V82.354L94.2998 81.916L94.7441 80.4307H95.3535V82.043H97.3721V82.8618H95.3535V86.9561C95.3535 87.375 95.453 87.6966 95.6519 87.9209C95.8507 88.1452 96.1237 88.2573 96.4707 88.2573ZM103.098 89L102.888 88.0098H102.837C102.49 88.4456 102.143 88.7419 101.796 88.8984C101.454 89.0508 101.024 89.127 100.508 89.127C99.818 89.127 99.2764 88.9492 98.8828 88.5938C98.4935 88.2383 98.2988 87.7326 98.2988 87.0767C98.2988 85.6717 99.4224 84.9354 101.669 84.8677L102.85 84.8296V84.3979C102.85 83.8521 102.732 83.45 102.495 83.1919C102.262 82.9295 101.887 82.7983 101.371 82.7983C100.791 82.7983 100.135 82.9761 99.4033 83.3315L99.0796 82.5254C99.4224 82.3392 99.7969 82.1932 100.203 82.0874C100.614 81.9816 101.024 81.9287 101.435 81.9287C102.264 81.9287 102.878 82.1128 103.275 82.481C103.677 82.8491 103.878 83.4395 103.878 84.252V89H103.098ZM100.717 88.2573C101.373 88.2573 101.887 88.0775 102.26 87.7178C102.636 87.3581 102.825 86.8545 102.825 86.207V85.5786L101.771 85.623C100.933 85.6527 100.328 85.7839 99.9556 86.0166C99.5874 86.2451 99.4033 86.6027 99.4033 87.0894C99.4033 87.4702 99.5176 87.7601 99.7461 87.959C99.9788 88.1579 100.303 88.2573 100.717 88.2573ZM114.168 88.0669H114.111C113.624 88.7736 112.896 89.127 111.927 89.127C111.017 89.127 110.309 88.8159 109.801 88.1938C109.297 87.5718 109.045 86.6873 109.045 85.5405C109.045 84.3937 109.299 83.5029 109.807 82.8682C110.315 82.2334 111.022 81.916 111.927 81.916C112.871 81.916 113.595 82.2588 114.098 82.9443H114.181L114.136 82.4429L114.111 81.9541V79.123H115.165V89H114.308L114.168 88.0669ZM112.061 88.2446C112.78 88.2446 113.3 88.05 113.622 87.6606C113.948 87.2671 114.111 86.6344 114.111 85.7627V85.5405C114.111 84.5545 113.946 83.8521 113.616 83.4331C113.29 83.0099 112.767 82.7983 112.048 82.7983C111.43 82.7983 110.956 83.0396 110.626 83.522C110.3 84.0002 110.137 84.6772 110.137 85.5532C110.137 86.4419 110.3 87.1126 110.626 87.5654C110.952 88.0182 111.43 88.2446 112.061 88.2446ZM120.344 89.127C119.316 89.127 118.503 88.8138 117.907 88.1875C117.314 87.5612 117.018 86.6916 117.018 85.5786C117.018 84.4572 117.293 83.5664 117.843 82.9062C118.398 82.2461 119.14 81.916 120.071 81.916C120.943 81.916 121.633 82.2038 122.141 82.7793C122.648 83.3506 122.902 84.106 122.902 85.0454V85.7119H118.11C118.131 86.5286 118.336 87.1486 118.726 87.5718C119.119 87.995 119.671 88.2065 120.382 88.2065C121.131 88.2065 121.872 88.05 122.604 87.7368V88.6763C122.232 88.8371 121.878 88.9513 121.544 89.019C121.214 89.091 120.814 89.127 120.344 89.127ZM120.059 82.7983C119.5 82.7983 119.054 82.9803 118.719 83.3442C118.389 83.7082 118.194 84.2118 118.135 84.855H121.772C121.772 84.1906 121.624 83.6828 121.328 83.3315C121.032 82.9761 120.609 82.7983 120.059 82.7983ZM129.193 87.1021C129.193 87.7495 128.952 88.2489 128.469 88.6001C127.987 88.9513 127.31 89.127 126.438 89.127C125.515 89.127 124.796 88.981 124.28 88.689V87.7114C124.614 87.8807 124.972 88.014 125.353 88.1113C125.738 88.2087 126.108 88.2573 126.463 88.2573C127.014 88.2573 127.437 88.1706 127.733 87.9971C128.029 87.8193 128.177 87.5506 128.177 87.1909C128.177 86.9201 128.059 86.6895 127.822 86.499C127.589 86.3044 127.132 86.0758 126.451 85.8135C125.803 85.5723 125.342 85.3628 125.067 85.1851C124.796 85.0031 124.593 84.7979 124.458 84.5693C124.326 84.3408 124.261 84.0679 124.261 83.7505C124.261 83.1834 124.491 82.737 124.953 82.4111C125.414 82.0811 126.047 81.916 126.851 81.916C127.6 81.916 128.332 82.0684 129.047 82.373L128.672 83.23C127.974 82.9422 127.341 82.7983 126.774 82.7983C126.275 82.7983 125.898 82.8766 125.645 83.0332C125.391 83.1898 125.264 83.4056 125.264 83.6807C125.264 83.8669 125.31 84.0256 125.403 84.1567C125.501 84.2879 125.655 84.4128 125.867 84.5312C126.078 84.6497 126.485 84.8211 127.085 85.0454C127.911 85.3459 128.467 85.6484 128.755 85.9531C129.047 86.2578 129.193 86.6408 129.193 87.1021ZM133.693 89.127C132.686 89.127 131.905 88.818 131.351 88.2002C130.801 87.5781 130.526 86.7 130.526 85.5659C130.526 84.4022 130.805 83.5029 131.364 82.8682C131.927 82.2334 132.726 81.916 133.763 81.916C134.097 81.916 134.432 81.952 134.766 82.0239C135.1 82.0959 135.363 82.1805 135.553 82.2778L135.229 83.1729C134.997 83.0798 134.743 83.0036 134.468 82.9443C134.193 82.8809 133.949 82.8491 133.738 82.8491C132.324 82.8491 131.618 83.7505 131.618 85.5532C131.618 86.408 131.789 87.064 132.132 87.521C132.479 87.978 132.991 88.2065 133.668 88.2065C134.248 88.2065 134.842 88.0817 135.452 87.832V88.7651C134.986 89.0063 134.4 89.127 133.693 89.127ZM140.282 81.916C140.591 81.916 140.868 81.9414 141.114 81.9922L140.968 82.9697C140.68 82.9062 140.426 82.8745 140.206 82.8745C139.643 82.8745 139.161 83.103 138.759 83.5601C138.361 84.0171 138.162 84.5863 138.162 85.2676V89H137.108V82.043H137.978L138.099 83.3315H138.149C138.408 82.8787 138.719 82.5296 139.083 82.2842C139.446 82.0387 139.846 81.916 140.282 81.916ZM143.469 89H142.415V82.043H143.469V89ZM142.326 80.1577C142.326 79.9165 142.385 79.7409 142.504 79.6309C142.622 79.5166 142.771 79.4595 142.948 79.4595C143.118 79.4595 143.264 79.5166 143.386 79.6309C143.509 79.7451 143.57 79.9207 143.57 80.1577C143.57 80.3947 143.509 80.5724 143.386 80.6909C143.264 80.8052 143.118 80.8623 142.948 80.8623C142.771 80.8623 142.622 80.8052 142.504 80.6909C142.385 80.5724 142.326 80.3947 142.326 80.1577ZM148.94 89.127C148.488 89.127 148.073 89.0444 147.696 88.8794C147.324 88.7101 147.011 88.452 146.757 88.105H146.681C146.731 88.5112 146.757 88.8963 146.757 89.2603V92.123H145.703V82.043H146.56L146.706 82.9951H146.757C147.028 82.6143 147.343 82.3392 147.703 82.1699C148.062 82.0007 148.475 81.916 148.94 81.916C149.863 81.916 150.574 82.2313 151.073 82.8618C151.577 83.4924 151.829 84.3768 151.829 85.5151C151.829 86.6577 151.573 87.5464 151.061 88.1812C150.553 88.8117 149.846 89.127 148.94 89.127ZM148.788 82.811C148.077 82.811 147.563 83.0078 147.246 83.4014C146.928 83.7949 146.765 84.4212 146.757 85.2803V85.5151C146.757 86.4927 146.92 87.193 147.246 87.6162C147.571 88.0352 148.094 88.2446 148.813 88.2446C149.414 88.2446 149.884 88.0013 150.223 87.5146C150.565 87.028 150.737 86.3573 150.737 85.5024C150.737 84.6349 150.565 83.9705 150.223 83.5093C149.884 83.0438 149.406 82.811 148.788 82.811ZM156.456 89.127C155.449 89.127 154.668 88.818 154.114 88.2002C153.564 87.5781 153.289 86.7 153.289 85.5659C153.289 84.4022 153.568 83.5029 154.126 82.8682C154.689 82.2334 155.489 81.916 156.526 81.916C156.86 81.916 157.194 81.952 157.529 82.0239C157.863 82.0959 158.125 82.1805 158.316 82.2778L157.992 83.1729C157.759 83.0798 157.506 83.0036 157.23 82.9443C156.955 82.8809 156.712 82.8491 156.5 82.8491C155.087 82.8491 154.38 83.7505 154.38 85.5532C154.38 86.408 154.552 87.064 154.895 87.521C155.242 87.978 155.754 88.2065 156.431 88.2065C157.01 88.2065 157.605 88.0817 158.214 87.832V88.7651C157.749 89.0063 157.163 89.127 156.456 89.127ZM160.925 89H159.871V82.043H160.925V89ZM159.782 80.1577C159.782 79.9165 159.841 79.7409 159.96 79.6309C160.078 79.5166 160.227 79.4595 160.404 79.4595C160.574 79.4595 160.72 79.5166 160.842 79.6309C160.965 79.7451 161.026 79.9207 161.026 80.1577C161.026 80.3947 160.965 80.5724 160.842 80.6909C160.72 80.8052 160.574 80.8623 160.404 80.8623C160.227 80.8623 160.078 80.8052 159.96 80.6909C159.841 80.5724 159.782 80.3947 159.782 80.1577ZM169.164 85.5151C169.164 86.6493 168.878 87.5358 168.307 88.1748C167.736 88.8096 166.947 89.127 165.939 89.127C165.317 89.127 164.765 88.981 164.283 88.689C163.8 88.397 163.428 87.978 163.166 87.4321C162.903 86.8862 162.772 86.2472 162.772 85.5151C162.772 84.381 163.056 83.4987 163.623 82.8682C164.19 82.2334 164.977 81.916 165.984 81.916C166.957 81.916 167.729 82.2397 168.301 82.8872C168.876 83.5347 169.164 84.4106 169.164 85.5151ZM163.864 85.5151C163.864 86.4038 164.042 87.0809 164.397 87.5464C164.752 88.0119 165.275 88.2446 165.965 88.2446C166.655 88.2446 167.177 88.014 167.533 87.5527C167.892 87.0872 168.072 86.408 168.072 85.5151C168.072 84.6307 167.892 83.96 167.533 83.5029C167.177 83.0417 166.65 82.811 165.952 82.811C165.262 82.811 164.742 83.0374 164.391 83.4902C164.039 83.943 163.864 84.618 163.864 85.5151ZM165.083 80.9639C165.286 80.7015 165.504 80.3841 165.736 80.0117C165.973 79.6393 166.16 79.3156 166.295 79.0405H167.577V79.1738C167.391 79.4489 167.114 79.7874 166.746 80.1895C166.377 80.5915 166.058 80.9025 165.787 81.1226H165.083V80.9639ZM175.778 89V84.4995C175.778 83.9325 175.649 83.5093 175.391 83.23C175.133 82.9507 174.729 82.811 174.179 82.811C173.451 82.811 172.918 83.0078 172.579 83.4014C172.241 83.7949 172.071 84.4445 172.071 85.3501V89H171.018V82.043H171.875L172.046 82.9951H172.097C172.312 82.6523 172.615 82.3879 173.004 82.2017C173.394 82.0112 173.827 81.916 174.306 81.916C175.144 81.916 175.774 82.1191 176.197 82.5254C176.62 82.9274 176.832 83.5728 176.832 84.4614V89H175.778ZM187.115 88.0669H187.058C186.571 88.7736 185.844 89.127 184.875 89.127C183.965 89.127 183.256 88.8159 182.748 88.1938C182.244 87.5718 181.993 86.6873 181.993 85.5405C181.993 84.3937 182.247 83.5029 182.754 82.8682C183.262 82.2334 183.969 81.916 184.875 81.916C185.818 81.916 186.542 82.2588 187.045 82.9443H187.128L187.083 82.4429L187.058 81.9541V79.123H188.112V89H187.255L187.115 88.0669ZM185.008 88.2446C185.727 88.2446 186.248 88.05 186.569 87.6606C186.895 87.2671 187.058 86.6344 187.058 85.7627V85.5405C187.058 84.5545 186.893 83.8521 186.563 83.4331C186.237 83.0099 185.715 82.7983 184.995 82.7983C184.377 82.7983 183.903 83.0396 183.573 83.522C183.247 84.0002 183.084 84.6772 183.084 85.5532C183.084 86.4419 183.247 87.1126 183.573 87.5654C183.899 88.0182 184.377 88.2446 185.008 88.2446ZM193.292 89.127C192.263 89.127 191.451 88.8138 190.854 88.1875C190.262 87.5612 189.965 86.6916 189.965 85.5786C189.965 84.4572 190.24 83.5664 190.791 82.9062C191.345 82.2461 192.088 81.916 193.019 81.916C193.89 81.916 194.58 82.2038 195.088 82.7793C195.596 83.3506 195.85 84.106 195.85 85.0454V85.7119H191.057C191.078 86.5286 191.284 87.1486 191.673 87.5718C192.066 87.995 192.619 88.2065 193.33 88.2065C194.079 88.2065 194.819 88.05 195.551 87.7368V88.6763C195.179 88.8371 194.826 88.9513 194.491 89.019C194.161 89.091 193.761 89.127 193.292 89.127ZM193.006 82.7983C192.447 82.7983 192.001 82.9803 191.667 83.3442C191.336 83.7082 191.142 84.2118 191.083 84.855H194.72C194.72 84.1906 194.572 83.6828 194.275 83.3315C193.979 82.9761 193.556 82.7983 193.006 82.7983ZM198.706 89H197.652V79.123H198.706V89ZM207.555 89.127C207.102 89.127 206.687 89.0444 206.311 88.8794C205.938 88.7101 205.625 88.452 205.371 88.105H205.295C205.346 88.5112 205.371 88.8963 205.371 89.2603V92.123H204.317V82.043H205.174L205.32 82.9951H205.371C205.642 82.6143 205.957 82.3392 206.317 82.1699C206.677 82.0007 207.089 81.916 207.555 81.916C208.477 81.916 209.188 82.2313 209.688 82.8618C210.191 83.4924 210.443 84.3768 210.443 85.5151C210.443 86.6577 210.187 87.5464 209.675 88.1812C209.167 88.8117 208.46 89.127 207.555 89.127ZM207.402 82.811C206.691 82.811 206.177 83.0078 205.86 83.4014C205.542 83.7949 205.38 84.4212 205.371 85.2803V85.5151C205.371 86.4927 205.534 87.193 205.86 87.6162C206.186 88.0352 206.708 88.2446 207.428 88.2446C208.029 88.2446 208.498 88.0013 208.837 87.5146C209.18 87.028 209.351 86.3573 209.351 85.5024C209.351 84.6349 209.18 83.9705 208.837 83.5093C208.498 83.0438 208.02 82.811 207.402 82.811ZM216.568 89L216.359 88.0098H216.308C215.961 88.4456 215.614 88.7419 215.267 88.8984C214.924 89.0508 214.495 89.127 213.979 89.127C213.289 89.127 212.747 88.9492 212.354 88.5938C211.964 88.2383 211.77 87.7326 211.77 87.0767C211.77 85.6717 212.893 84.9354 215.14 84.8677L216.321 84.8296V84.3979C216.321 83.8521 216.202 83.45 215.965 83.1919C215.733 82.9295 215.358 82.7983 214.842 82.7983C214.262 82.7983 213.606 82.9761 212.874 83.3315L212.55 82.5254C212.893 82.3392 213.268 82.1932 213.674 82.0874C214.084 81.9816 214.495 81.9287 214.905 81.9287C215.735 81.9287 216.348 82.1128 216.746 82.481C217.148 82.8491 217.349 83.4395 217.349 84.252V89H216.568ZM214.188 88.2573C214.844 88.2573 215.358 88.0775 215.73 87.7178C216.107 87.3581 216.295 86.8545 216.295 86.207V85.5786L215.242 85.623C214.404 85.6527 213.799 85.7839 213.426 86.0166C213.058 86.2451 212.874 86.6027 212.874 87.0894C212.874 87.4702 212.988 87.7601 213.217 87.959C213.45 88.1579 213.773 88.2573 214.188 88.2573ZM224.014 87.1021C224.014 87.7495 223.773 88.2489 223.291 88.6001C222.808 88.9513 222.131 89.127 221.259 89.127C220.337 89.127 219.617 88.981 219.101 88.689V87.7114C219.435 87.8807 219.793 88.014 220.174 88.1113C220.559 88.2087 220.929 88.2573 221.285 88.2573C221.835 88.2573 222.258 88.1706 222.554 87.9971C222.85 87.8193 222.999 87.5506 222.999 87.1909C222.999 86.9201 222.88 86.6895 222.643 86.499C222.41 86.3044 221.953 86.0758 221.272 85.8135C220.625 85.5723 220.163 85.3628 219.888 85.1851C219.617 85.0031 219.414 84.7979 219.279 84.5693C219.148 84.3408 219.082 84.0679 219.082 83.7505C219.082 83.1834 219.313 82.737 219.774 82.4111C220.235 82.0811 220.868 81.916 221.672 81.916C222.421 81.916 223.153 82.0684 223.868 82.373L223.494 83.23C222.795 82.9422 222.163 82.7983 221.596 82.7983C221.096 82.7983 220.72 82.8766 220.466 83.0332C220.212 83.1898 220.085 83.4056 220.085 83.6807C220.085 83.8669 220.132 84.0256 220.225 84.1567C220.322 84.2879 220.476 84.4128 220.688 84.5312C220.9 84.6497 221.306 84.8211 221.907 85.0454C222.732 85.3459 223.288 85.6484 223.576 85.9531C223.868 86.2578 224.014 86.6408 224.014 87.1021ZM231.739 85.5151C231.739 86.6493 231.454 87.5358 230.882 88.1748C230.311 88.8096 229.522 89.127 228.515 89.127C227.893 89.127 227.34 88.981 226.858 88.689C226.375 88.397 226.003 87.978 225.741 87.4321C225.478 86.8862 225.347 86.2472 225.347 85.5151C225.347 84.381 225.631 83.4987 226.198 82.8682C226.765 82.2334 227.552 81.916 228.559 81.916C229.532 81.916 230.305 82.2397 230.876 82.8872C231.451 83.5347 231.739 84.4106 231.739 85.5151ZM226.439 85.5151C226.439 86.4038 226.617 87.0809 226.972 87.5464C227.328 88.0119 227.85 88.2446 228.54 88.2446C229.23 88.2446 229.752 88.014 230.108 87.5527C230.468 87.0872 230.647 86.408 230.647 85.5151C230.647 84.6307 230.468 83.96 230.108 83.5029C229.752 83.0417 229.226 82.811 228.527 82.811C227.838 82.811 227.317 83.0374 226.966 83.4902C226.615 83.943 226.439 84.618 226.439 85.5151ZM241.458 87.1021C241.458 87.7495 241.216 88.2489 240.734 88.6001C240.251 88.9513 239.574 89.127 238.703 89.127C237.78 89.127 237.061 88.981 236.544 88.689V87.7114C236.879 87.8807 237.236 88.014 237.617 88.1113C238.002 88.2087 238.373 88.2573 238.728 88.2573C239.278 88.2573 239.701 88.1706 239.998 87.9971C240.294 87.8193 240.442 87.5506 240.442 87.1909C240.442 86.9201 240.323 86.6895 240.086 86.499C239.854 86.3044 239.397 86.0758 238.715 85.8135C238.068 85.5723 237.607 85.3628 237.332 85.1851C237.061 85.0031 236.858 84.7979 236.722 84.5693C236.591 84.3408 236.525 84.0679 236.525 83.7505C236.525 83.1834 236.756 82.737 237.217 82.4111C237.679 82.0811 238.311 81.916 239.115 81.916C239.864 81.916 240.596 82.0684 241.312 82.373L240.937 83.23C240.239 82.9422 239.606 82.7983 239.039 82.7983C238.54 82.7983 238.163 82.8766 237.909 83.0332C237.655 83.1898 237.528 83.4056 237.528 83.6807C237.528 83.8669 237.575 84.0256 237.668 84.1567C237.765 84.2879 237.92 84.4128 238.131 84.5312C238.343 84.6497 238.749 84.8211 239.35 85.0454C240.175 85.3459 240.732 85.6484 241.02 85.9531C241.312 86.2578 241.458 86.6408 241.458 87.1021ZM246.117 89.127C245.088 89.127 244.276 88.8138 243.679 88.1875C243.087 87.5612 242.791 86.6916 242.791 85.5786C242.791 84.4572 243.066 83.5664 243.616 82.9062C244.17 82.2461 244.913 81.916 245.844 81.916C246.715 81.916 247.405 82.2038 247.913 82.7793C248.421 83.3506 248.675 84.106 248.675 85.0454V85.7119H243.882C243.903 86.5286 244.109 87.1486 244.498 87.5718C244.892 87.995 245.444 88.2065 246.155 88.2065C246.904 88.2065 247.644 88.05 248.376 87.7368V88.6763C248.004 88.8371 247.651 88.9513 247.316 89.019C246.986 89.091 246.586 89.127 246.117 89.127ZM245.831 82.7983C245.272 82.7983 244.826 82.9803 244.492 83.3442C244.162 83.7082 243.967 84.2118 243.908 84.855H247.545C247.545 84.1906 247.397 83.6828 247.101 83.3315C246.804 82.9761 246.381 82.7983 245.831 82.7983ZM262.722 89V84.4741C262.722 83.9198 262.604 83.505 262.367 83.23C262.13 82.9507 261.762 82.811 261.262 82.811C260.606 82.811 260.122 82.9993 259.809 83.376C259.495 83.7526 259.339 84.3324 259.339 85.1152V89H258.285V84.4741C258.285 83.9198 258.167 83.505 257.93 83.23C257.693 82.9507 257.322 82.811 256.819 82.811C256.159 82.811 255.674 83.0099 255.365 83.4077C255.061 83.8013 254.908 84.4487 254.908 85.3501V89H253.854V82.043H254.711L254.883 82.9951H254.934C255.132 82.6566 255.412 82.3921 255.771 82.2017C256.135 82.0112 256.542 81.916 256.99 81.916C258.078 81.916 258.789 82.3096 259.123 83.0967H259.174C259.381 82.7327 259.682 82.445 260.075 82.2334C260.469 82.0218 260.917 81.916 261.421 81.916C262.208 81.916 262.796 82.1191 263.186 82.5254C263.579 82.9274 263.776 83.5728 263.776 84.4614V89H262.722ZM266.943 82.043V86.5562C266.943 87.1232 267.072 87.5464 267.331 87.8257C267.589 88.105 267.993 88.2446 268.543 88.2446C269.271 88.2446 269.802 88.0457 270.136 87.6479C270.475 87.2502 270.644 86.6006 270.644 85.6992V82.043H271.698V89H270.828L270.676 88.0669H270.619C270.403 88.4097 270.102 88.672 269.717 88.854C269.336 89.036 268.901 89.127 268.41 89.127C267.563 89.127 266.929 88.9259 266.505 88.5239C266.086 88.1219 265.877 87.4787 265.877 86.5942V82.043H266.943ZM276.877 89.127C275.849 89.127 275.037 88.8138 274.44 88.1875C273.847 87.5612 273.551 86.6916 273.551 85.5786C273.551 84.4572 273.826 83.5664 274.376 82.9062C274.931 82.2461 275.674 81.916 276.604 81.916C277.476 81.916 278.166 82.2038 278.674 82.7793C279.182 83.3506 279.436 84.106 279.436 85.0454V85.7119H274.643C274.664 86.5286 274.869 87.1486 275.259 87.5718C275.652 87.995 276.205 88.2065 276.916 88.2065C277.665 88.2065 278.405 88.05 279.137 87.7368V88.6763C278.765 88.8371 278.411 88.9513 278.077 89.019C277.747 89.091 277.347 89.127 276.877 89.127ZM276.592 82.7983C276.033 82.7983 275.587 82.9803 275.252 83.3442C274.922 83.7082 274.728 84.2118 274.668 84.855H278.306C278.306 84.1906 278.158 83.6828 277.861 83.3315C277.565 82.9761 277.142 82.7983 276.592 82.7983ZM285.726 87.1021C285.726 87.7495 285.485 88.2489 285.002 88.6001C284.52 88.9513 283.843 89.127 282.971 89.127C282.049 89.127 281.329 88.981 280.813 88.689V87.7114C281.147 87.8807 281.505 88.014 281.886 88.1113C282.271 88.2087 282.641 88.2573 282.997 88.2573C283.547 88.2573 283.97 88.1706 284.266 87.9971C284.562 87.8193 284.71 87.5506 284.71 87.1909C284.71 86.9201 284.592 86.6895 284.355 86.499C284.122 86.3044 283.665 86.0758 282.984 85.8135C282.336 85.5723 281.875 85.3628 281.6 85.1851C281.329 85.0031 281.126 84.7979 280.991 84.5693C280.86 84.3408 280.794 84.0679 280.794 83.7505C280.794 83.1834 281.025 82.737 281.486 82.4111C281.947 82.0811 282.58 81.916 283.384 81.916C284.133 81.916 284.865 82.0684 285.58 82.373L285.206 83.23C284.507 82.9422 283.875 82.7983 283.308 82.7983C282.808 82.7983 282.432 82.8766 282.178 83.0332C281.924 83.1898 281.797 83.4056 281.797 83.6807C281.797 83.8669 281.843 84.0256 281.937 84.1567C282.034 84.2879 282.188 84.4128 282.4 84.5312C282.611 84.6497 283.018 84.8211 283.619 85.0454C284.444 85.3459 285 85.6484 285.288 85.9531C285.58 86.2578 285.726 86.6408 285.726 87.1021ZM289.693 88.2573C289.88 88.2573 290.059 88.2446 290.233 88.2192C290.406 88.1896 290.544 88.16 290.646 88.1304V88.9365C290.531 88.9915 290.362 89.036 290.138 89.0698C289.918 89.1079 289.719 89.127 289.541 89.127C288.195 89.127 287.522 88.4181 287.522 87.0005V82.8618H286.526V82.354L287.522 81.916L287.967 80.4307H288.576V82.043H290.595V82.8618H288.576V86.9561C288.576 87.375 288.676 87.6966 288.875 87.9209C289.073 88.1452 289.346 88.2573 289.693 88.2573ZM295.216 81.916C295.525 81.916 295.802 81.9414 296.047 81.9922L295.901 82.9697C295.614 82.9062 295.36 82.8745 295.14 82.8745C294.577 82.8745 294.094 83.103 293.692 83.5601C293.295 84.0171 293.096 84.5863 293.096 85.2676V89H292.042V82.043H292.912L293.032 83.3315H293.083C293.341 82.8787 293.652 82.5296 294.016 82.2842C294.38 82.0387 294.78 81.916 295.216 81.916ZM301.627 89L301.417 88.0098H301.367C301.02 88.4456 300.673 88.7419 300.326 88.8984C299.983 89.0508 299.553 89.127 299.037 89.127C298.347 89.127 297.806 88.9492 297.412 88.5938C297.023 88.2383 296.828 87.7326 296.828 87.0767C296.828 85.6717 297.952 84.9354 300.199 84.8677L301.379 84.8296V84.3979C301.379 83.8521 301.261 83.45 301.024 83.1919C300.791 82.9295 300.417 82.7983 299.9 82.7983C299.321 82.7983 298.665 82.9761 297.933 83.3315L297.609 82.5254C297.952 82.3392 298.326 82.1932 298.732 82.0874C299.143 81.9816 299.553 81.9287 299.964 81.9287C300.793 81.9287 301.407 82.1128 301.805 82.481C302.207 82.8491 302.408 83.4395 302.408 84.252V89H301.627ZM299.247 88.2573C299.903 88.2573 300.417 88.0775 300.789 87.7178C301.166 87.3581 301.354 86.8545 301.354 86.207V85.5786L300.3 85.623C299.462 85.6527 298.857 85.7839 298.485 86.0166C298.117 86.2451 297.933 86.6027 297.933 87.0894C297.933 87.4702 298.047 87.7601 298.275 87.959C298.508 88.1579 298.832 88.2573 299.247 88.2573ZM309.346 89V84.4995C309.346 83.9325 309.217 83.5093 308.958 83.23C308.7 82.9507 308.296 82.811 307.746 82.811C307.018 82.811 306.485 83.0078 306.146 83.4014C305.808 83.7949 305.639 84.4445 305.639 85.3501V89H304.585V82.043H305.442L305.613 82.9951H305.664C305.88 82.6523 306.182 82.3879 306.572 82.2017C306.961 82.0112 307.395 81.916 307.873 81.916C308.711 81.916 309.341 82.1191 309.765 82.5254C310.188 82.9274 310.399 83.5728 310.399 84.4614V89H309.346ZM63.1709 109H62.1172V99.123H63.1709V109ZM71.4102 105.515C71.4102 106.649 71.1245 107.536 70.5532 108.175C69.9819 108.81 69.1927 109.127 68.1855 109.127C67.5635 109.127 67.0112 108.981 66.5288 108.689C66.0464 108.397 65.674 107.978 65.4116 107.432C65.1493 106.886 65.0181 106.247 65.0181 105.515C65.0181 104.381 65.3016 103.499 65.8687 102.868C66.4357 102.233 67.2228 101.916 68.23 101.916C69.2033 101.916 69.9756 102.24 70.5469 102.887C71.1224 103.535 71.4102 104.411 71.4102 105.515ZM66.1099 105.515C66.1099 106.404 66.2876 107.081 66.6431 107.546C66.9985 108.012 67.5212 108.245 68.2109 108.245C68.9007 108.245 69.4233 108.014 69.7788 107.553C70.1385 107.087 70.3184 106.408 70.3184 105.515C70.3184 104.631 70.1385 103.96 69.7788 103.503C69.4233 103.042 68.8965 102.811 68.1982 102.811C67.5085 102.811 66.988 103.037 66.6367 103.49C66.2855 103.943 66.1099 104.618 66.1099 105.515ZM77.7515 107.102C77.7515 107.75 77.5103 108.249 77.0278 108.6C76.5454 108.951 75.8683 109.127 74.9966 109.127C74.0741 109.127 73.3547 108.981 72.8384 108.689V107.711C73.1727 107.881 73.5303 108.014 73.9111 108.111C74.2962 108.209 74.6665 108.257 75.022 108.257C75.5721 108.257 75.9953 108.171 76.2915 107.997C76.5877 107.819 76.7358 107.551 76.7358 107.191C76.7358 106.92 76.6174 106.689 76.3804 106.499C76.1476 106.304 75.6906 106.076 75.0093 105.813C74.3618 105.572 73.9006 105.363 73.6255 105.185C73.3547 105.003 73.1515 104.798 73.0161 104.569C72.8849 104.341 72.8193 104.068 72.8193 103.75C72.8193 103.183 73.05 102.737 73.5112 102.411C73.9725 102.081 74.6051 101.916 75.4092 101.916C76.1582 101.916 76.8903 102.068 77.6055 102.373L77.231 103.23C76.5327 102.942 75.9001 102.798 75.333 102.798C74.8337 102.798 74.457 102.877 74.2031 103.033C73.9492 103.19 73.8223 103.406 73.8223 103.681C73.8223 103.867 73.8688 104.026 73.9619 104.157C74.0592 104.288 74.2137 104.413 74.4253 104.531C74.6369 104.65 75.0431 104.821 75.644 105.045C76.4692 105.346 77.0257 105.648 77.3135 105.953C77.6055 106.258 77.7515 106.641 77.7515 107.102ZM87.584 108.067H87.5269C87.0402 108.774 86.3123 109.127 85.3433 109.127C84.4334 109.127 83.7246 108.816 83.2168 108.194C82.7132 107.572 82.4614 106.687 82.4614 105.541C82.4614 104.394 82.7153 103.503 83.2231 102.868C83.731 102.233 84.4377 101.916 85.3433 101.916C86.2869 101.916 87.0106 102.259 87.5142 102.944H87.5967L87.5522 102.443L87.5269 101.954V99.123H88.5806V109H87.7236L87.584 108.067ZM85.4766 108.245C86.196 108.245 86.7165 108.05 87.0381 107.661C87.3639 107.267 87.5269 106.634 87.5269 105.763V105.541C87.5269 104.555 87.3618 103.852 87.0317 103.433C86.7059 103.01 86.1833 102.798 85.4639 102.798C84.846 102.798 84.3721 103.04 84.042 103.522C83.7161 104 83.5532 104.677 83.5532 105.553C83.5532 106.442 83.7161 107.113 84.042 107.565C84.3678 108.018 84.846 108.245 85.4766 108.245ZM93.7603 109.127C92.7319 109.127 91.9194 108.814 91.3228 108.188C90.7303 107.561 90.4341 106.692 90.4341 105.579C90.4341 104.457 90.7091 103.566 91.2593 102.906C91.8136 102.246 92.5563 101.916 93.4873 101.916C94.359 101.916 95.0488 102.204 95.5566 102.779C96.0645 103.351 96.3184 104.106 96.3184 105.045V105.712H91.5259C91.547 106.529 91.7523 107.149 92.1416 107.572C92.5352 107.995 93.0874 108.207 93.7983 108.207C94.5474 108.207 95.2879 108.05 96.02 107.737V108.676C95.6476 108.837 95.2943 108.951 94.96 109.019C94.6299 109.091 94.23 109.127 93.7603 109.127ZM93.4746 102.798C92.916 102.798 92.4696 102.98 92.1353 103.344C91.8052 103.708 91.6105 104.212 91.5513 104.855H95.1885C95.1885 104.191 95.0404 103.683 94.7441 103.332C94.4479 102.976 94.0247 102.798 93.4746 102.798ZM100.368 108.257C100.554 108.257 100.734 108.245 100.908 108.219C101.081 108.19 101.219 108.16 101.32 108.13V108.937C101.206 108.992 101.037 109.036 100.812 109.07C100.592 109.108 100.394 109.127 100.216 109.127C98.8701 109.127 98.1973 108.418 98.1973 107V102.862H97.2007V102.354L98.1973 101.916L98.6416 100.431H99.251V102.043H101.27V102.862H99.251V106.956C99.251 107.375 99.3504 107.697 99.5493 107.921C99.7482 108.145 100.021 108.257 100.368 108.257ZM106.995 109L106.786 108.01H106.735C106.388 108.446 106.041 108.742 105.694 108.898C105.351 109.051 104.922 109.127 104.405 109.127C103.715 109.127 103.174 108.949 102.78 108.594C102.391 108.238 102.196 107.733 102.196 107.077C102.196 105.672 103.32 104.935 105.567 104.868L106.748 104.83V104.398C106.748 103.852 106.629 103.45 106.392 103.192C106.159 102.93 105.785 102.798 105.269 102.798C104.689 102.798 104.033 102.976 103.301 103.332L102.977 102.525C103.32 102.339 103.694 102.193 104.101 102.087C104.511 101.982 104.922 101.929 105.332 101.929C106.161 101.929 106.775 102.113 107.173 102.481C107.575 102.849 107.776 103.439 107.776 104.252V109H106.995ZM104.615 108.257C105.271 108.257 105.785 108.077 106.157 107.718C106.534 107.358 106.722 106.854 106.722 106.207V105.579L105.668 105.623C104.831 105.653 104.225 105.784 103.853 106.017C103.485 106.245 103.301 106.603 103.301 107.089C103.301 107.47 103.415 107.76 103.644 107.959C103.876 108.158 104.2 108.257 104.615 108.257ZM111.007 109H109.953V99.123H111.007V109ZM114.295 109H113.241V99.123H114.295V109ZM119.468 109.127C118.44 109.127 117.627 108.814 117.031 108.188C116.438 107.561 116.142 106.692 116.142 105.579C116.142 104.457 116.417 103.566 116.967 102.906C117.522 102.246 118.264 101.916 119.195 101.916C120.067 101.916 120.757 102.204 121.265 102.779C121.772 103.351 122.026 104.106 122.026 105.045V105.712H117.234C117.255 106.529 117.46 107.149 117.85 107.572C118.243 107.995 118.795 108.207 119.506 108.207C120.255 108.207 120.996 108.05 121.728 107.737V108.676C121.356 108.837 121.002 108.951 120.668 109.019C120.338 109.091 119.938 109.127 119.468 109.127ZM119.183 102.798C118.624 102.798 118.178 102.98 117.843 103.344C117.513 103.708 117.319 104.212 117.259 104.855H120.896C120.896 104.191 120.748 103.683 120.452 103.332C120.156 102.976 119.733 102.798 119.183 102.798ZM128.317 107.102C128.317 107.75 128.076 108.249 127.593 108.6C127.111 108.951 126.434 109.127 125.562 109.127C124.639 109.127 123.92 108.981 123.404 108.689V107.711C123.738 107.881 124.096 108.014 124.477 108.111C124.862 108.209 125.232 108.257 125.587 108.257C126.138 108.257 126.561 108.171 126.857 107.997C127.153 107.819 127.301 107.551 127.301 107.191C127.301 106.92 127.183 106.689 126.946 106.499C126.713 106.304 126.256 106.076 125.575 105.813C124.927 105.572 124.466 105.363 124.191 105.185C123.92 105.003 123.717 104.798 123.582 104.569C123.45 104.341 123.385 104.068 123.385 103.75C123.385 103.183 123.615 102.737 124.077 102.411C124.538 102.081 125.171 101.916 125.975 101.916C126.724 101.916 127.456 102.068 128.171 102.373L127.796 103.23C127.098 102.942 126.465 102.798 125.898 102.798C125.399 102.798 125.022 102.877 124.769 103.033C124.515 103.19 124.388 103.406 124.388 103.681C124.388 103.867 124.434 104.026 124.527 104.157C124.625 104.288 124.779 104.413 124.991 104.531C125.202 104.65 125.609 104.821 126.209 105.045C127.035 105.346 127.591 105.648 127.879 105.953C128.171 106.258 128.317 106.641 128.317 107.102ZM136.651 109.127C136.199 109.127 135.784 109.044 135.407 108.879C135.035 108.71 134.722 108.452 134.468 108.105H134.392C134.442 108.511 134.468 108.896 134.468 109.26V112.123H133.414V102.043H134.271L134.417 102.995H134.468C134.739 102.614 135.054 102.339 135.414 102.17C135.773 102.001 136.186 101.916 136.651 101.916C137.574 101.916 138.285 102.231 138.784 102.862C139.288 103.492 139.54 104.377 139.54 105.515C139.54 106.658 139.284 107.546 138.771 108.181C138.264 108.812 137.557 109.127 136.651 109.127ZM136.499 102.811C135.788 102.811 135.274 103.008 134.957 103.401C134.639 103.795 134.476 104.421 134.468 105.28V105.515C134.468 106.493 134.631 107.193 134.957 107.616C135.282 108.035 135.805 108.245 136.524 108.245C137.125 108.245 137.595 108.001 137.934 107.515C138.276 107.028 138.448 106.357 138.448 105.502C138.448 104.635 138.276 103.971 137.934 103.509C137.595 103.044 137.117 102.811 136.499 102.811ZM144.561 101.916C144.869 101.916 145.147 101.941 145.392 101.992L145.246 102.97C144.958 102.906 144.704 102.875 144.484 102.875C143.922 102.875 143.439 103.103 143.037 103.56C142.639 104.017 142.44 104.586 142.44 105.268V109H141.387V102.043H142.256L142.377 103.332H142.428C142.686 102.879 142.997 102.53 143.361 102.284C143.725 102.039 144.125 101.916 144.561 101.916ZM147.747 109H146.693V102.043H147.747V109ZM146.604 100.158C146.604 99.9165 146.664 99.7409 146.782 99.6309C146.901 99.5166 147.049 99.4595 147.227 99.4595C147.396 99.4595 147.542 99.5166 147.665 99.6309C147.787 99.7451 147.849 99.9207 147.849 100.158C147.849 100.395 147.787 100.572 147.665 100.691C147.542 100.805 147.396 100.862 147.227 100.862C147.049 100.862 146.901 100.805 146.782 100.691C146.664 100.572 146.604 100.395 146.604 100.158ZM154.742 109V104.5C154.742 103.932 154.613 103.509 154.355 103.23C154.097 102.951 153.693 102.811 153.143 102.811C152.415 102.811 151.882 103.008 151.543 103.401C151.204 103.795 151.035 104.444 151.035 105.35V109H149.981V102.043H150.838L151.01 102.995H151.061C151.276 102.652 151.579 102.388 151.968 102.202C152.358 102.011 152.791 101.916 153.27 101.916C154.107 101.916 154.738 102.119 155.161 102.525C155.584 102.927 155.796 103.573 155.796 104.461V109H154.742ZM160.747 109.127C159.74 109.127 158.959 108.818 158.405 108.2C157.855 107.578 157.58 106.7 157.58 105.566C157.58 104.402 157.859 103.503 158.417 102.868C158.98 102.233 159.78 101.916 160.817 101.916C161.151 101.916 161.486 101.952 161.82 102.024C162.154 102.096 162.417 102.181 162.607 102.278L162.283 103.173C162.05 103.08 161.797 103.004 161.521 102.944C161.246 102.881 161.003 102.849 160.792 102.849C159.378 102.849 158.671 103.75 158.671 105.553C158.671 106.408 158.843 107.064 159.186 107.521C159.533 107.978 160.045 108.207 160.722 108.207C161.301 108.207 161.896 108.082 162.505 107.832V108.765C162.04 109.006 161.454 109.127 160.747 109.127ZM165.216 109H164.162V102.043H165.216V109ZM164.073 100.158C164.073 99.9165 164.132 99.7409 164.251 99.6309C164.369 99.5166 164.518 99.4595 164.695 99.4595C164.865 99.4595 165.011 99.5166 165.133 99.6309C165.256 99.7451 165.317 99.9207 165.317 100.158C165.317 100.395 165.256 100.572 165.133 100.691C165.011 100.805 164.865 100.862 164.695 100.862C164.518 100.862 164.369 100.805 164.251 100.691C164.132 100.572 164.073 100.395 164.073 100.158ZM170.688 109.127C170.235 109.127 169.82 109.044 169.443 108.879C169.071 108.71 168.758 108.452 168.504 108.105H168.428C168.479 108.511 168.504 108.896 168.504 109.26V112.123H167.45V102.043H168.307L168.453 102.995H168.504C168.775 102.614 169.09 102.339 169.45 102.17C169.809 102.001 170.222 101.916 170.688 101.916C171.61 101.916 172.321 102.231 172.82 102.862C173.324 103.492 173.576 104.377 173.576 105.515C173.576 106.658 173.32 107.546 172.808 108.181C172.3 108.812 171.593 109.127 170.688 109.127ZM170.535 102.811C169.824 102.811 169.31 103.008 168.993 103.401C168.675 103.795 168.512 104.421 168.504 105.28V105.515C168.504 106.493 168.667 107.193 168.993 107.616C169.319 108.035 169.841 108.245 170.561 108.245C171.161 108.245 171.631 108.001 171.97 107.515C172.312 107.028 172.484 106.357 172.484 105.502C172.484 104.635 172.312 103.971 171.97 103.509C171.631 103.044 171.153 102.811 170.535 102.811ZM179.701 109L179.492 108.01H179.441C179.094 108.446 178.747 108.742 178.4 108.898C178.057 109.051 177.628 109.127 177.111 109.127C176.422 109.127 175.88 108.949 175.486 108.594C175.097 108.238 174.902 107.733 174.902 107.077C174.902 105.672 176.026 104.935 178.273 104.868L179.454 104.83V104.398C179.454 103.852 179.335 103.45 179.098 103.192C178.865 102.93 178.491 102.798 177.975 102.798C177.395 102.798 176.739 102.976 176.007 103.332L175.683 102.525C176.026 102.339 176.4 102.193 176.807 102.087C177.217 101.982 177.628 101.929 178.038 101.929C178.868 101.929 179.481 102.113 179.879 102.481C180.281 102.849 180.482 103.439 180.482 104.252V109H179.701ZM177.321 108.257C177.977 108.257 178.491 108.077 178.863 107.718C179.24 107.358 179.428 106.854 179.428 106.207V105.579L178.375 105.623C177.537 105.653 176.931 105.784 176.559 106.017C176.191 106.245 176.007 106.603 176.007 107.089C176.007 107.47 176.121 107.76 176.35 107.959C176.582 108.158 176.906 108.257 177.321 108.257ZM183.713 109H182.659V99.123H183.713V109ZM188.886 109.127C187.858 109.127 187.045 108.814 186.449 108.188C185.856 107.561 185.56 106.692 185.56 105.579C185.56 104.457 185.835 103.566 186.385 102.906C186.94 102.246 187.682 101.916 188.613 101.916C189.485 101.916 190.175 102.204 190.683 102.779C191.19 103.351 191.444 104.106 191.444 105.045V105.712H186.652C186.673 106.529 186.878 107.149 187.268 107.572C187.661 107.995 188.213 108.207 188.924 108.207C189.673 108.207 190.414 108.05 191.146 107.737V108.676C190.774 108.837 190.42 108.951 190.086 109.019C189.756 109.091 189.356 109.127 188.886 109.127ZM188.601 102.798C188.042 102.798 187.596 102.98 187.261 103.344C186.931 103.708 186.736 104.212 186.677 104.855H190.314C190.314 104.191 190.166 103.683 189.87 103.332C189.574 102.976 189.151 102.798 188.601 102.798ZM197.735 107.102C197.735 107.75 197.494 108.249 197.011 108.6C196.529 108.951 195.852 109.127 194.98 109.127C194.057 109.127 193.338 108.981 192.822 108.689V107.711C193.156 107.881 193.514 108.014 193.895 108.111C194.28 108.209 194.65 108.257 195.005 108.257C195.556 108.257 195.979 108.171 196.275 107.997C196.571 107.819 196.719 107.551 196.719 107.191C196.719 106.92 196.601 106.689 196.364 106.499C196.131 106.304 195.674 106.076 194.993 105.813C194.345 105.572 193.884 105.363 193.609 105.185C193.338 105.003 193.135 104.798 193 104.569C192.868 104.341 192.803 104.068 192.803 103.75C192.803 103.183 193.033 102.737 193.495 102.411C193.956 102.081 194.589 101.916 195.393 101.916C196.142 101.916 196.874 102.068 197.589 102.373L197.214 103.23C196.516 102.942 195.883 102.798 195.316 102.798C194.817 102.798 194.44 102.877 194.187 103.033C193.933 103.19 193.806 103.406 193.806 103.681C193.806 103.867 193.852 104.026 193.945 104.157C194.043 104.288 194.197 104.413 194.409 104.531C194.62 104.65 195.027 104.821 195.627 105.045C196.453 105.346 197.009 105.648 197.297 105.953C197.589 106.258 197.735 106.641 197.735 107.102ZM207.567 108.067H207.51C207.024 108.774 206.296 109.127 205.327 109.127C204.417 109.127 203.708 108.816 203.2 108.194C202.697 107.572 202.445 106.687 202.445 105.541C202.445 104.394 202.699 103.503 203.207 102.868C203.714 102.233 204.421 101.916 205.327 101.916C206.27 101.916 206.994 102.259 207.498 102.944H207.58L207.536 102.443L207.51 101.954V99.123H208.564V109H207.707L207.567 108.067ZM205.46 108.245C206.179 108.245 206.7 108.05 207.021 107.661C207.347 107.267 207.51 106.634 207.51 105.763V105.541C207.51 104.555 207.345 103.852 207.015 103.433C206.689 103.01 206.167 102.798 205.447 102.798C204.829 102.798 204.355 103.04 204.025 103.522C203.7 104 203.537 104.677 203.537 105.553C203.537 106.442 203.7 107.113 204.025 107.565C204.351 108.018 204.829 108.245 205.46 108.245ZM213.744 109.127C212.715 109.127 211.903 108.814 211.306 108.188C210.714 107.561 210.417 106.692 210.417 105.579C210.417 104.457 210.693 103.566 211.243 102.906C211.797 102.246 212.54 101.916 213.471 101.916C214.342 101.916 215.032 102.204 215.54 102.779C216.048 103.351 216.302 104.106 216.302 105.045V105.712H211.509C211.53 106.529 211.736 107.149 212.125 107.572C212.519 107.995 213.071 108.207 213.782 108.207C214.531 108.207 215.271 108.05 216.003 107.737V108.676C215.631 108.837 215.278 108.951 214.943 109.019C214.613 109.091 214.213 109.127 213.744 109.127ZM213.458 102.798C212.899 102.798 212.453 102.98 212.119 103.344C211.789 103.708 211.594 104.212 211.535 104.855H215.172C215.172 104.191 215.024 103.683 214.728 103.332C214.431 102.976 214.008 102.798 213.458 102.798ZM222.535 109H221.481V99.123H222.535V109ZM229.048 109L228.838 108.01H228.788C228.441 108.446 228.094 108.742 227.747 108.898C227.404 109.051 226.974 109.127 226.458 109.127C225.768 109.127 225.227 108.949 224.833 108.594C224.444 108.238 224.249 107.733 224.249 107.077C224.249 105.672 225.373 104.935 227.62 104.868L228.8 104.83V104.398C228.8 103.852 228.682 103.45 228.445 103.192C228.212 102.93 227.838 102.798 227.321 102.798C226.742 102.798 226.086 102.976 225.354 103.332L225.03 102.525C225.373 102.339 225.747 102.193 226.153 102.087C226.564 101.982 226.974 101.929 227.385 101.929C228.214 101.929 228.828 102.113 229.226 102.481C229.628 102.849 229.829 103.439 229.829 104.252V109H229.048ZM226.667 108.257C227.323 108.257 227.838 108.077 228.21 107.718C228.587 107.358 228.775 106.854 228.775 106.207V105.579L227.721 105.623C226.883 105.653 226.278 105.784 225.906 106.017C225.538 106.245 225.354 106.603 225.354 107.089C225.354 107.47 225.468 107.76 225.696 107.959C225.929 108.158 226.253 108.257 226.667 108.257ZM236.494 107.102C236.494 107.75 236.252 108.249 235.77 108.6C235.288 108.951 234.611 109.127 233.739 109.127C232.816 109.127 232.097 108.981 231.581 108.689V107.711C231.915 107.881 232.272 108.014 232.653 108.111C233.038 108.209 233.409 108.257 233.764 108.257C234.314 108.257 234.737 108.171 235.034 107.997C235.33 107.819 235.478 107.551 235.478 107.191C235.478 106.92 235.36 106.689 235.123 106.499C234.89 106.304 234.433 106.076 233.751 105.813C233.104 105.572 232.643 105.363 232.368 105.185C232.097 105.003 231.894 104.798 231.758 104.569C231.627 104.341 231.562 104.068 231.562 103.75C231.562 103.183 231.792 102.737 232.253 102.411C232.715 102.081 233.347 101.916 234.151 101.916C234.9 101.916 235.632 102.068 236.348 102.373L235.973 103.23C235.275 102.942 234.642 102.798 234.075 102.798C233.576 102.798 233.199 102.877 232.945 103.033C232.691 103.19 232.564 103.406 232.564 103.681C232.564 103.867 232.611 104.026 232.704 104.157C232.801 104.288 232.956 104.413 233.167 104.531C233.379 104.65 233.785 104.821 234.386 105.045C235.211 105.346 235.768 105.648 236.056 105.953C236.348 106.258 236.494 106.641 236.494 107.102ZM245.869 109L245.66 108.01H245.609C245.262 108.446 244.915 108.742 244.568 108.898C244.225 109.051 243.796 109.127 243.279 109.127C242.59 109.127 242.048 108.949 241.654 108.594C241.265 108.238 241.07 107.733 241.07 107.077C241.07 105.672 242.194 104.935 244.441 104.868L245.622 104.83V104.398C245.622 103.852 245.503 103.45 245.266 103.192C245.033 102.93 244.659 102.798 244.143 102.798C243.563 102.798 242.907 102.976 242.175 103.332L241.851 102.525C242.194 102.339 242.568 102.193 242.975 102.087C243.385 101.982 243.796 101.929 244.206 101.929C245.035 101.929 245.649 102.113 246.047 102.481C246.449 102.849 246.65 103.439 246.65 104.252V109H245.869ZM243.489 108.257C244.145 108.257 244.659 108.077 245.031 107.718C245.408 107.358 245.596 106.854 245.596 106.207V105.579L244.542 105.623C243.705 105.653 243.099 105.784 242.727 106.017C242.359 106.245 242.175 106.603 242.175 107.089C242.175 107.47 242.289 107.76 242.518 107.959C242.75 108.158 243.074 108.257 243.489 108.257ZM251.607 109.127C250.6 109.127 249.819 108.818 249.265 108.2C248.715 107.578 248.44 106.7 248.44 105.566C248.44 104.402 248.719 103.503 249.278 102.868C249.841 102.233 250.64 101.916 251.677 101.916C252.012 101.916 252.346 101.952 252.68 102.024C253.014 102.096 253.277 102.181 253.467 102.278L253.144 103.173C252.911 103.08 252.657 103.004 252.382 102.944C252.107 102.881 251.863 102.849 251.652 102.849C250.238 102.849 249.532 103.75 249.532 105.553C249.532 106.408 249.703 107.064 250.046 107.521C250.393 107.978 250.905 108.207 251.582 108.207C252.162 108.207 252.756 108.082 253.366 107.832V108.765C252.9 109.006 252.314 109.127 251.607 109.127ZM257.803 109.127C256.796 109.127 256.015 108.818 255.46 108.2C254.91 107.578 254.635 106.7 254.635 105.566C254.635 104.402 254.915 103.503 255.473 102.868C256.036 102.233 256.836 101.916 257.873 101.916C258.207 101.916 258.541 101.952 258.875 102.024C259.21 102.096 259.472 102.181 259.663 102.278L259.339 103.173C259.106 103.08 258.852 103.004 258.577 102.944C258.302 102.881 258.059 102.849 257.847 102.849C256.434 102.849 255.727 103.75 255.727 105.553C255.727 106.408 255.898 107.064 256.241 107.521C256.588 107.978 257.1 108.207 257.777 108.207C258.357 108.207 258.952 108.082 259.561 107.832V108.765C259.096 109.006 258.509 109.127 257.803 109.127ZM262.271 109H261.218V102.043H262.271V109ZM261.129 100.158C261.129 99.9165 261.188 99.7409 261.307 99.6309C261.425 99.5166 261.573 99.4595 261.751 99.4595C261.92 99.4595 262.066 99.5166 262.189 99.6309C262.312 99.7451 262.373 99.9207 262.373 100.158C262.373 100.395 262.312 100.572 262.189 100.691C262.066 100.805 261.92 100.862 261.751 100.862C261.573 100.862 261.425 100.805 261.307 100.691C261.188 100.572 261.129 100.395 261.129 100.158ZM270.511 105.515C270.511 106.649 270.225 107.536 269.654 108.175C269.083 108.81 268.293 109.127 267.286 109.127C266.664 109.127 266.112 108.981 265.629 108.689C265.147 108.397 264.775 107.978 264.512 107.432C264.25 106.886 264.119 106.247 264.119 105.515C264.119 104.381 264.402 103.499 264.969 102.868C265.536 102.233 266.323 101.916 267.331 101.916C268.304 101.916 269.076 102.24 269.647 102.887C270.223 103.535 270.511 104.411 270.511 105.515ZM265.21 105.515C265.21 106.404 265.388 107.081 265.744 107.546C266.099 108.012 266.622 108.245 267.312 108.245C268.001 108.245 268.524 108.014 268.879 107.553C269.239 107.087 269.419 106.408 269.419 105.515C269.419 104.631 269.239 103.96 268.879 103.503C268.524 103.042 267.997 102.811 267.299 102.811C266.609 102.811 266.089 103.037 265.737 103.49C265.386 103.943 265.21 104.618 265.21 105.515ZM277.125 109V104.5C277.125 103.932 276.996 103.509 276.738 103.23C276.48 102.951 276.076 102.811 275.525 102.811C274.798 102.811 274.264 103.008 273.926 103.401C273.587 103.795 273.418 104.444 273.418 105.35V109H272.364V102.043H273.221L273.393 102.995H273.443C273.659 102.652 273.962 102.388 274.351 102.202C274.74 102.011 275.174 101.916 275.652 101.916C276.49 101.916 277.121 102.119 277.544 102.525C277.967 102.927 278.179 103.573 278.179 104.461V109H277.125ZM283.289 109.127C282.26 109.127 281.448 108.814 280.851 108.188C280.259 107.561 279.962 106.692 279.962 105.579C279.962 104.457 280.237 103.566 280.788 102.906C281.342 102.246 282.085 101.916 283.016 101.916C283.887 101.916 284.577 102.204 285.085 102.779C285.593 103.351 285.847 104.106 285.847 105.045V105.712H281.054C281.075 106.529 281.281 107.149 281.67 107.572C282.063 107.995 282.616 108.207 283.327 108.207C284.076 108.207 284.816 108.05 285.548 107.737V108.676C285.176 108.837 284.823 108.951 284.488 109.019C284.158 109.091 283.758 109.127 283.289 109.127ZM283.003 102.798C282.444 102.798 281.998 102.98 281.664 103.344C281.333 103.708 281.139 104.212 281.08 104.855H284.717C284.717 104.191 284.569 103.683 284.272 103.332C283.976 102.976 283.553 102.798 283.003 102.798ZM292.137 107.102C292.137 107.75 291.896 108.249 291.414 108.6C290.931 108.951 290.254 109.127 289.382 109.127C288.46 109.127 287.74 108.981 287.224 108.689V107.711C287.558 107.881 287.916 108.014 288.297 108.111C288.682 108.209 289.052 108.257 289.408 108.257C289.958 108.257 290.381 108.171 290.677 107.997C290.973 107.819 291.122 107.551 291.122 107.191C291.122 106.92 291.003 106.689 290.766 106.499C290.533 106.304 290.076 106.076 289.395 105.813C288.748 105.572 288.286 105.363 288.011 105.185C287.74 105.003 287.537 104.798 287.402 104.569C287.271 104.341 287.205 104.068 287.205 103.75C287.205 103.183 287.436 102.737 287.897 102.411C288.358 102.081 288.991 101.916 289.795 101.916C290.544 101.916 291.276 102.068 291.991 102.373L291.617 103.23C290.918 102.942 290.286 102.798 289.719 102.798C289.219 102.798 288.843 102.877 288.589 103.033C288.335 103.19 288.208 103.406 288.208 103.681C288.208 103.867 288.255 104.026 288.348 104.157C288.445 104.288 288.599 104.413 288.811 104.531C289.023 104.65 289.429 104.821 290.03 105.045C290.855 105.346 291.411 105.648 291.699 105.953C291.991 106.258 292.137 106.641 292.137 107.102ZM64.7451 128.245C65.4476 128.245 65.9596 128.056 66.2812 127.68C66.6029 127.303 66.7743 126.668 66.7954 125.775V125.541C66.7954 124.567 66.6304 123.867 66.3003 123.439C65.9702 123.012 65.4476 122.798 64.7324 122.798C64.1146 122.798 63.6406 123.04 63.3105 123.522C62.9847 124 62.8218 124.677 62.8218 125.553C62.8218 126.429 62.9826 127.098 63.3042 127.559C63.63 128.016 64.1104 128.245 64.7451 128.245ZM64.5864 129.127C63.6893 129.127 62.9889 128.812 62.4854 128.181C61.9818 127.551 61.73 126.67 61.73 125.541C61.73 124.402 61.9839 123.514 62.4917 122.875C62.9995 122.236 63.7062 121.916 64.6118 121.916C65.564 121.916 66.2961 122.276 66.8081 122.995H66.8652L67.0176 122.043H67.8491V132.123H66.7954V129.146C66.7954 128.723 66.8187 128.363 66.8652 128.067H66.7827C66.2961 128.774 65.564 129.127 64.5864 129.127ZM71.0801 122.043V126.556C71.0801 127.123 71.2091 127.546 71.4673 127.826C71.7254 128.105 72.1296 128.245 72.6797 128.245C73.4076 128.245 73.9386 128.046 74.2729 127.648C74.6115 127.25 74.7808 126.601 74.7808 125.699V122.043H75.8345V129H74.9648L74.8125 128.067H74.7554C74.5396 128.41 74.2391 128.672 73.854 128.854C73.4731 129.036 73.0373 129.127 72.5464 129.127C71.7 129.127 71.0653 128.926 70.6421 128.524C70.2231 128.122 70.0137 127.479 70.0137 126.594V122.043H71.0801ZM81.0142 129.127C79.9858 129.127 79.1733 128.814 78.5767 128.188C77.9842 127.561 77.688 126.692 77.688 125.579C77.688 124.457 77.9631 123.566 78.5132 122.906C79.0675 122.246 79.8102 121.916 80.7412 121.916C81.613 121.916 82.3027 122.204 82.8105 122.779C83.3184 123.351 83.5723 124.106 83.5723 125.045V125.712H78.7798C78.8009 126.529 79.0062 127.149 79.3955 127.572C79.7891 127.995 80.3413 128.207 81.0522 128.207C81.8013 128.207 82.5418 128.05 83.2739 127.737V128.676C82.9015 128.837 82.5482 128.951 82.2139 129.019C81.8838 129.091 81.4839 129.127 81.0142 129.127ZM80.7285 122.798C80.1699 122.798 79.7235 122.98 79.3892 123.344C79.0591 123.708 78.8644 124.212 78.8052 124.855H82.4424C82.4424 124.191 82.2943 123.683 81.998 123.332C81.7018 122.976 81.2786 122.798 80.7285 122.798ZM93.4873 128.067H93.4302C92.9435 128.774 92.2157 129.127 91.2466 129.127C90.3368 129.127 89.6279 128.816 89.1201 128.194C88.6165 127.572 88.3647 126.687 88.3647 125.541C88.3647 124.394 88.6187 123.503 89.1265 122.868C89.6343 122.233 90.341 121.916 91.2466 121.916C92.1903 121.916 92.9139 122.259 93.4175 122.944H93.5L93.4556 122.443L93.4302 121.954V119.123H94.4839V129H93.627L93.4873 128.067ZM91.3799 128.245C92.0993 128.245 92.6198 128.05 92.9414 127.661C93.2673 127.267 93.4302 126.634 93.4302 125.763V125.541C93.4302 124.555 93.2651 123.852 92.9351 123.433C92.6092 123.01 92.0866 122.798 91.3672 122.798C90.7493 122.798 90.2754 123.04 89.9453 123.522C89.6195 124 89.4565 124.677 89.4565 125.553C89.4565 126.442 89.6195 127.113 89.9453 127.565C90.2712 128.018 90.7493 128.245 91.3799 128.245ZM99.6636 129.127C98.6353 129.127 97.8228 128.814 97.2261 128.188C96.6336 127.561 96.3374 126.692 96.3374 125.579C96.3374 124.457 96.6125 123.566 97.1626 122.906C97.717 122.246 98.4596 121.916 99.3906 121.916C100.262 121.916 100.952 122.204 101.46 122.779C101.968 123.351 102.222 124.106 102.222 125.045V125.712H97.4292C97.4504 126.529 97.6556 127.149 98.0449 127.572C98.4385 127.995 98.9907 128.207 99.7017 128.207C100.451 128.207 101.191 128.05 101.923 127.737V128.676C101.551 128.837 101.198 128.951 100.863 129.019C100.533 129.091 100.133 129.127 99.6636 129.127ZM99.3779 122.798C98.8193 122.798 98.3729 122.98 98.0386 123.344C97.7085 123.708 97.5138 124.212 97.4546 124.855H101.092C101.092 124.191 100.944 123.683 100.647 123.332C100.351 122.976 99.9281 122.798 99.3779 122.798ZM107.262 121.929C108.176 121.929 108.885 122.242 109.388 122.868C109.896 123.49 110.15 124.373 110.15 125.515C110.15 126.658 109.894 127.546 109.382 128.181C108.874 128.812 108.167 129.127 107.262 129.127C106.809 129.127 106.394 129.044 106.018 128.879C105.645 128.71 105.332 128.452 105.078 128.105H105.002L104.78 129H104.024V119.123H105.078V121.522C105.078 122.06 105.061 122.542 105.027 122.97H105.078C105.569 122.276 106.297 121.929 107.262 121.929ZM107.109 122.811C106.39 122.811 105.872 123.018 105.554 123.433C105.237 123.844 105.078 124.538 105.078 125.515C105.078 126.493 105.241 127.193 105.567 127.616C105.893 128.035 106.415 128.245 107.135 128.245C107.782 128.245 108.265 128.01 108.582 127.54C108.899 127.066 109.058 126.387 109.058 125.502C109.058 124.597 108.899 123.922 108.582 123.478C108.265 123.033 107.774 122.811 107.109 122.811ZM114.936 129.127C113.908 129.127 113.095 128.814 112.499 128.188C111.906 127.561 111.61 126.692 111.61 125.579C111.61 124.457 111.885 123.566 112.435 122.906C112.989 122.246 113.732 121.916 114.663 121.916C115.535 121.916 116.225 122.204 116.732 122.779C117.24 123.351 117.494 124.106 117.494 125.045V125.712H112.702C112.723 126.529 112.928 127.149 113.317 127.572C113.711 127.995 114.263 128.207 114.974 128.207C115.723 128.207 116.464 128.05 117.196 127.737V128.676C116.823 128.837 116.47 128.951 116.136 129.019C115.806 129.091 115.406 129.127 114.936 129.127ZM114.65 122.798C114.092 122.798 113.645 122.98 113.311 123.344C112.981 123.708 112.786 124.212 112.727 124.855H116.364C116.364 124.191 116.216 123.683 115.92 123.332C115.624 122.976 115.201 122.798 114.65 122.798ZM122.471 121.916C122.78 121.916 123.057 121.941 123.302 121.992L123.156 122.97C122.868 122.906 122.615 122.875 122.395 122.875C121.832 122.875 121.349 123.103 120.947 123.56C120.549 124.017 120.351 124.586 120.351 125.268V129H119.297V122.043H120.167L120.287 123.332H120.338C120.596 122.879 120.907 122.53 121.271 122.284C121.635 122.039 122.035 121.916 122.471 121.916ZM128.882 129L128.672 128.01H128.622C128.275 128.446 127.928 128.742 127.581 128.898C127.238 129.051 126.808 129.127 126.292 129.127C125.602 129.127 125.061 128.949 124.667 128.594C124.278 128.238 124.083 127.733 124.083 127.077C124.083 125.672 125.207 124.935 127.454 124.868L128.634 124.83V124.398C128.634 123.852 128.516 123.45 128.279 123.192C128.046 122.93 127.672 122.798 127.155 122.798C126.576 122.798 125.92 122.976 125.188 123.332L124.864 122.525C125.207 122.339 125.581 122.193 125.987 122.087C126.398 121.982 126.808 121.929 127.219 121.929C128.048 121.929 128.662 122.113 129.06 122.481C129.462 122.849 129.663 123.439 129.663 124.252V129H128.882ZM126.501 128.257C127.157 128.257 127.672 128.077 128.044 127.718C128.421 127.358 128.609 126.854 128.609 126.207V125.579L127.555 125.623C126.717 125.653 126.112 125.784 125.74 126.017C125.372 126.245 125.188 126.603 125.188 127.089C125.188 127.47 125.302 127.76 125.53 127.959C125.763 128.158 126.087 128.257 126.501 128.257ZM126.254 120.964C126.457 120.701 126.675 120.384 126.908 120.012C127.145 119.639 127.331 119.316 127.466 119.041H128.749V119.174C128.562 119.449 128.285 119.787 127.917 120.189C127.549 120.591 127.229 120.903 126.958 121.123H126.254V120.964ZM138.391 121.916C138.7 121.916 138.977 121.941 139.222 121.992L139.076 122.97C138.788 122.906 138.535 122.875 138.314 122.875C137.752 122.875 137.269 123.103 136.867 123.56C136.469 124.017 136.271 124.586 136.271 125.268V129H135.217V122.043H136.086L136.207 123.332H136.258C136.516 122.879 136.827 122.53 137.191 122.284C137.555 122.039 137.955 121.916 138.391 121.916ZM143.462 129.127C142.434 129.127 141.622 128.814 141.025 128.188C140.432 127.561 140.136 126.692 140.136 125.579C140.136 124.457 140.411 123.566 140.961 122.906C141.516 122.246 142.258 121.916 143.189 121.916C144.061 121.916 144.751 122.204 145.259 122.779C145.767 123.351 146.021 124.106 146.021 125.045V125.712H141.228C141.249 126.529 141.454 127.149 141.844 127.572C142.237 127.995 142.79 128.207 143.5 128.207C144.25 128.207 144.99 128.05 145.722 127.737V128.676C145.35 128.837 144.996 128.951 144.662 129.019C144.332 129.091 143.932 129.127 143.462 129.127ZM143.177 122.798C142.618 122.798 142.172 122.98 141.837 123.344C141.507 123.708 141.313 124.212 141.253 124.855H144.891C144.891 124.191 144.743 123.683 144.446 123.332C144.15 122.976 143.727 122.798 143.177 122.798ZM152.102 129L151.892 128.01H151.841C151.494 128.446 151.147 128.742 150.8 128.898C150.458 129.051 150.028 129.127 149.512 129.127C148.822 129.127 148.28 128.949 147.887 128.594C147.497 128.238 147.303 127.733 147.303 127.077C147.303 125.672 148.426 124.935 150.673 124.868L151.854 124.83V124.398C151.854 123.852 151.736 123.45 151.499 123.192C151.266 122.93 150.891 122.798 150.375 122.798C149.795 122.798 149.139 122.976 148.407 123.332L148.083 122.525C148.426 122.339 148.801 122.193 149.207 122.087C149.618 121.982 150.028 121.929 150.438 121.929C151.268 121.929 151.882 122.113 152.279 122.481C152.681 122.849 152.882 123.439 152.882 124.252V129H152.102ZM149.721 128.257C150.377 128.257 150.891 128.077 151.264 127.718C151.64 127.358 151.829 126.854 151.829 126.207V125.579L150.775 125.623C149.937 125.653 149.332 125.784 148.959 126.017C148.591 126.245 148.407 126.603 148.407 127.089C148.407 127.47 148.521 127.76 148.75 127.959C148.983 128.158 149.306 128.257 149.721 128.257ZM156.113 129H155.06V119.123H156.113V129ZM159.401 129H158.348V122.043H159.401V129ZM158.259 120.158C158.259 119.917 158.318 119.741 158.437 119.631C158.555 119.517 158.703 119.459 158.881 119.459C159.05 119.459 159.196 119.517 159.319 119.631C159.442 119.745 159.503 119.921 159.503 120.158C159.503 120.395 159.442 120.572 159.319 120.691C159.196 120.805 159.05 120.862 158.881 120.862C158.703 120.862 158.555 120.805 158.437 120.691C158.318 120.572 158.259 120.395 158.259 120.158ZM166.085 129H161.039V128.283L164.835 122.862H161.274V122.043H165.99V122.862L162.245 128.181H166.085V129ZM171.995 129L171.786 128.01H171.735C171.388 128.446 171.041 128.742 170.694 128.898C170.351 129.051 169.922 129.127 169.405 129.127C168.715 129.127 168.174 128.949 167.78 128.594C167.391 128.238 167.196 127.733 167.196 127.077C167.196 125.672 168.32 124.935 170.567 124.868L171.748 124.83V124.398C171.748 123.852 171.629 123.45 171.392 123.192C171.159 122.93 170.785 122.798 170.269 122.798C169.689 122.798 169.033 122.976 168.301 123.332L167.977 122.525C168.32 122.339 168.694 122.193 169.101 122.087C169.511 121.982 169.922 121.929 170.332 121.929C171.161 121.929 171.775 122.113 172.173 122.481C172.575 122.849 172.776 123.439 172.776 124.252V129H171.995ZM169.615 128.257C170.271 128.257 170.785 128.077 171.157 127.718C171.534 127.358 171.722 126.854 171.722 126.207V125.579L170.668 125.623C169.831 125.653 169.225 125.784 168.853 126.017C168.485 126.245 168.301 126.603 168.301 127.089C168.301 127.47 168.415 127.76 168.644 127.959C168.876 128.158 169.2 128.257 169.615 128.257ZM178.127 121.916C178.436 121.916 178.713 121.941 178.958 121.992L178.812 122.97C178.525 122.906 178.271 122.875 178.051 122.875C177.488 122.875 177.006 123.103 176.604 123.56C176.206 124.017 176.007 124.586 176.007 125.268V129H174.953V122.043H175.823L175.943 123.332H175.994C176.252 122.879 176.563 122.53 176.927 122.284C177.291 122.039 177.691 121.916 178.127 121.916ZM184.69 129H183.637V119.123H184.69V129ZM191.203 129L190.994 128.01H190.943C190.596 128.446 190.249 128.742 189.902 128.898C189.559 129.051 189.13 129.127 188.613 129.127C187.924 129.127 187.382 128.949 186.988 128.594C186.599 128.238 186.404 127.733 186.404 127.077C186.404 125.672 187.528 124.935 189.775 124.868L190.956 124.83V124.398C190.956 123.852 190.837 123.45 190.6 123.192C190.367 122.93 189.993 122.798 189.477 122.798C188.897 122.798 188.241 122.976 187.509 123.332L187.185 122.525C187.528 122.339 187.902 122.193 188.309 122.087C188.719 121.982 189.13 121.929 189.54 121.929C190.369 121.929 190.983 122.113 191.381 122.481C191.783 122.849 191.984 123.439 191.984 124.252V129H191.203ZM188.823 128.257C189.479 128.257 189.993 128.077 190.365 127.718C190.742 127.358 190.93 126.854 190.93 126.207V125.579L189.876 125.623C189.039 125.653 188.433 125.784 188.061 126.017C187.693 126.245 187.509 126.603 187.509 127.089C187.509 127.47 187.623 127.76 187.852 127.959C188.084 128.158 188.408 128.257 188.823 128.257ZM200.775 129.127C200.323 129.127 199.908 129.044 199.531 128.879C199.159 128.71 198.846 128.452 198.592 128.105H198.516C198.566 128.511 198.592 128.896 198.592 129.26V132.123H197.538V122.043H198.395L198.541 122.995H198.592C198.863 122.614 199.178 122.339 199.538 122.17C199.897 122.001 200.31 121.916 200.775 121.916C201.698 121.916 202.409 122.231 202.908 122.862C203.412 123.492 203.664 124.377 203.664 125.515C203.664 126.658 203.408 127.546 202.896 128.181C202.388 128.812 201.681 129.127 200.775 129.127ZM200.623 122.811C199.912 122.811 199.398 123.008 199.081 123.401C198.763 123.795 198.6 124.421 198.592 125.28V125.515C198.592 126.493 198.755 127.193 199.081 127.616C199.406 128.035 199.929 128.245 200.648 128.245C201.249 128.245 201.719 128.001 202.058 127.515C202.4 127.028 202.572 126.357 202.572 125.502C202.572 124.635 202.4 123.971 202.058 123.509C201.719 123.044 201.241 122.811 200.623 122.811ZM208.45 129.127C207.421 129.127 206.609 128.814 206.012 128.188C205.42 127.561 205.124 126.692 205.124 125.579C205.124 124.457 205.399 123.566 205.949 122.906C206.503 122.246 207.246 121.916 208.177 121.916C209.049 121.916 209.738 122.204 210.246 122.779C210.754 123.351 211.008 124.106 211.008 125.045V125.712H206.215C206.236 126.529 206.442 127.149 206.831 127.572C207.225 127.995 207.777 128.207 208.488 128.207C209.237 128.207 209.977 128.05 210.709 127.737V128.676C210.337 128.837 209.984 128.951 209.649 129.019C209.319 129.091 208.919 129.127 208.45 129.127ZM208.164 122.798C207.605 122.798 207.159 122.98 206.825 123.344C206.495 123.708 206.3 124.212 206.241 124.855H209.878C209.878 124.191 209.73 123.683 209.434 123.332C209.137 122.976 208.714 122.798 208.164 122.798ZM215.984 121.916C216.293 121.916 216.57 121.941 216.816 121.992L216.67 122.97C216.382 122.906 216.128 122.875 215.908 122.875C215.345 122.875 214.863 123.103 214.461 123.56C214.063 124.017 213.864 124.586 213.864 125.268V129H212.811V122.043H213.68L213.801 123.332H213.852C214.11 122.879 214.421 122.53 214.785 122.284C215.149 122.039 215.549 121.916 215.984 121.916ZM222.605 127.102C222.605 127.75 222.364 128.249 221.881 128.6C221.399 128.951 220.722 129.127 219.85 129.127C218.928 129.127 218.208 128.981 217.692 128.689V127.711C218.026 127.881 218.384 128.014 218.765 128.111C219.15 128.209 219.52 128.257 219.875 128.257C220.426 128.257 220.849 128.171 221.145 127.997C221.441 127.819 221.589 127.551 221.589 127.191C221.589 126.92 221.471 126.689 221.234 126.499C221.001 126.304 220.544 126.076 219.863 125.813C219.215 125.572 218.754 125.363 218.479 125.185C218.208 125.003 218.005 124.798 217.87 124.569C217.738 124.341 217.673 124.068 217.673 123.75C217.673 123.183 217.903 122.737 218.365 122.411C218.826 122.081 219.459 121.916 220.263 121.916C221.012 121.916 221.744 122.068 222.459 122.373L222.084 123.23C221.386 122.942 220.754 122.798 220.187 122.798C219.687 122.798 219.311 122.877 219.057 123.033C218.803 123.19 218.676 123.406 218.676 123.681C218.676 123.867 218.722 124.026 218.815 124.157C218.913 124.288 219.067 124.413 219.279 124.531C219.49 124.65 219.897 124.821 220.498 125.045C221.323 125.346 221.879 125.648 222.167 125.953C222.459 126.258 222.605 126.641 222.605 127.102ZM230.33 125.515C230.33 126.649 230.044 127.536 229.473 128.175C228.902 128.81 228.113 129.127 227.105 129.127C226.483 129.127 225.931 128.981 225.449 128.689C224.966 128.397 224.594 127.978 224.332 127.432C224.069 126.886 223.938 126.247 223.938 125.515C223.938 124.381 224.222 123.499 224.789 122.868C225.356 122.233 226.143 121.916 227.15 121.916C228.123 121.916 228.896 122.24 229.467 122.887C230.042 123.535 230.33 124.411 230.33 125.515ZM225.03 125.515C225.03 126.404 225.208 127.081 225.563 127.546C225.918 128.012 226.441 128.245 227.131 128.245C227.821 128.245 228.343 128.014 228.699 127.553C229.058 127.087 229.238 126.408 229.238 125.515C229.238 124.631 229.058 123.96 228.699 123.503C228.343 123.042 227.816 122.811 227.118 122.811C226.428 122.811 225.908 123.037 225.557 123.49C225.205 123.943 225.03 124.618 225.03 125.515ZM236.944 129V124.5C236.944 123.932 236.815 123.509 236.557 123.23C236.299 122.951 235.895 122.811 235.345 122.811C234.617 122.811 234.084 123.008 233.745 123.401C233.407 123.795 233.237 124.444 233.237 125.35V129H232.184V122.043H233.041L233.212 122.995H233.263C233.479 122.652 233.781 122.388 234.17 122.202C234.56 122.011 234.993 121.916 235.472 121.916C236.31 121.916 236.94 122.119 237.363 122.525C237.786 122.927 237.998 123.573 237.998 124.461V129H236.944ZM244.447 129L244.238 128.01H244.187C243.84 128.446 243.493 128.742 243.146 128.898C242.803 129.051 242.374 129.127 241.857 129.127C241.168 129.127 240.626 128.949 240.232 128.594C239.843 128.238 239.648 127.733 239.648 127.077C239.648 125.672 240.772 124.935 243.019 124.868L244.2 124.83V124.398C244.2 123.852 244.081 123.45 243.844 123.192C243.611 122.93 243.237 122.798 242.721 122.798C242.141 122.798 241.485 122.976 240.753 123.332L240.429 122.525C240.772 122.339 241.146 122.193 241.553 122.087C241.963 121.982 242.374 121.929 242.784 121.929C243.614 121.929 244.227 122.113 244.625 122.481C245.027 122.849 245.228 123.439 245.228 124.252V129H244.447ZM242.067 128.257C242.723 128.257 243.237 128.077 243.609 127.718C243.986 127.358 244.174 126.854 244.174 126.207V125.579L243.121 125.623C242.283 125.653 241.678 125.784 241.305 126.017C240.937 126.245 240.753 126.603 240.753 127.089C240.753 127.47 240.867 127.76 241.096 127.959C241.328 128.158 241.652 128.257 242.067 128.257ZM251.772 122.043V126.556C251.772 127.123 251.902 127.546 252.16 127.826C252.418 128.105 252.822 128.245 253.372 128.245C254.1 128.245 254.631 128.046 254.965 127.648C255.304 127.25 255.473 126.601 255.473 125.699V122.043H256.527V129H255.657L255.505 128.067H255.448C255.232 128.41 254.931 128.672 254.546 128.854C254.166 129.036 253.73 129.127 253.239 129.127C252.392 129.127 251.758 128.926 251.334 128.524C250.916 128.122 250.706 127.479 250.706 126.594V122.043H251.772ZM263.255 127.102C263.255 127.75 263.014 128.249 262.532 128.6C262.049 128.951 261.372 129.127 260.5 129.127C259.578 129.127 258.859 128.981 258.342 128.689V127.711C258.677 127.881 259.034 128.014 259.415 128.111C259.8 128.209 260.17 128.257 260.526 128.257C261.076 128.257 261.499 128.171 261.795 127.997C262.092 127.819 262.24 127.551 262.24 127.191C262.24 126.92 262.121 126.689 261.884 126.499C261.652 126.304 261.194 126.076 260.513 125.813C259.866 125.572 259.404 125.363 259.129 125.185C258.859 125.003 258.655 124.798 258.52 124.569C258.389 124.341 258.323 124.068 258.323 123.75C258.323 123.183 258.554 122.737 259.015 122.411C259.476 122.081 260.109 121.916 260.913 121.916C261.662 121.916 262.394 122.068 263.109 122.373L262.735 123.23C262.037 122.942 261.404 122.798 260.837 122.798C260.338 122.798 259.961 122.877 259.707 123.033C259.453 123.19 259.326 123.406 259.326 123.681C259.326 123.867 259.373 124.026 259.466 124.157C259.563 124.288 259.718 124.413 259.929 124.531C260.141 124.65 260.547 124.821 261.148 125.045C261.973 125.346 262.53 125.648 262.817 125.953C263.109 126.258 263.255 126.641 263.255 127.102ZM265.966 122.043V126.556C265.966 127.123 266.095 127.546 266.353 127.826C266.611 128.105 267.015 128.245 267.565 128.245C268.293 128.245 268.824 128.046 269.159 127.648C269.497 127.25 269.667 126.601 269.667 125.699V122.043H270.72V129H269.851L269.698 128.067H269.641C269.425 128.41 269.125 128.672 268.74 128.854C268.359 129.036 267.923 129.127 267.432 129.127C266.586 129.127 265.951 128.926 265.528 128.524C265.109 128.122 264.899 127.479 264.899 126.594V122.043H265.966ZM277.239 129L277.03 128.01H276.979C276.632 128.446 276.285 128.742 275.938 128.898C275.595 129.051 275.166 129.127 274.649 129.127C273.96 129.127 273.418 128.949 273.024 128.594C272.635 128.238 272.44 127.733 272.44 127.077C272.44 125.672 273.564 124.935 275.811 124.868L276.992 124.83V124.398C276.992 123.852 276.873 123.45 276.636 123.192C276.403 122.93 276.029 122.798 275.513 122.798C274.933 122.798 274.277 122.976 273.545 123.332L273.221 122.525C273.564 122.339 273.938 122.193 274.345 122.087C274.755 121.982 275.166 121.929 275.576 121.929C276.406 121.929 277.019 122.113 277.417 122.481C277.819 122.849 278.02 123.439 278.02 124.252V129H277.239ZM274.859 128.257C275.515 128.257 276.029 128.077 276.401 127.718C276.778 127.358 276.966 126.854 276.966 126.207V125.579L275.913 125.623C275.075 125.653 274.47 125.784 274.097 126.017C273.729 126.245 273.545 126.603 273.545 127.089C273.545 127.47 273.659 127.76 273.888 127.959C274.12 128.158 274.444 128.257 274.859 128.257ZM283.371 121.916C283.68 121.916 283.957 121.941 284.203 121.992L284.057 122.97C283.769 122.906 283.515 122.875 283.295 122.875C282.732 122.875 282.25 123.103 281.848 123.56C281.45 124.017 281.251 124.586 281.251 125.268V129H280.197V122.043H281.067L281.188 123.332H281.238C281.496 122.879 281.807 122.53 282.171 122.284C282.535 122.039 282.935 121.916 283.371 121.916ZM286.558 129H285.504V122.043H286.558V129ZM285.415 120.158C285.415 119.917 285.474 119.741 285.593 119.631C285.711 119.517 285.859 119.459 286.037 119.459C286.206 119.459 286.352 119.517 286.475 119.631C286.598 119.745 286.659 119.921 286.659 120.158C286.659 120.395 286.598 120.572 286.475 120.691C286.352 120.805 286.206 120.862 286.037 120.862C285.859 120.862 285.711 120.805 285.593 120.691C285.474 120.572 285.415 120.395 285.415 120.158ZM293.07 129L292.861 128.01H292.81C292.463 128.446 292.116 128.742 291.769 128.898C291.426 129.051 290.997 129.127 290.48 129.127C289.791 129.127 289.249 128.949 288.855 128.594C288.466 128.238 288.271 127.733 288.271 127.077C288.271 125.672 289.395 124.935 291.642 124.868L292.823 124.83V124.398C292.823 123.852 292.704 123.45 292.467 123.192C292.235 122.93 291.86 122.798 291.344 122.798C290.764 122.798 290.108 122.976 289.376 123.332L289.052 122.525C289.395 122.339 289.77 122.193 290.176 122.087C290.586 121.982 290.997 121.929 291.407 121.929C292.237 121.929 292.85 122.113 293.248 122.481C293.65 122.849 293.851 123.439 293.851 124.252V129H293.07ZM290.69 128.257C291.346 128.257 291.86 128.077 292.232 127.718C292.609 127.358 292.797 126.854 292.797 126.207V125.579L291.744 125.623C290.906 125.653 290.301 125.784 289.928 126.017C289.56 126.245 289.376 126.603 289.376 127.089C289.376 127.47 289.49 127.76 289.719 127.959C289.951 128.158 290.275 128.257 290.69 128.257ZM65.3545 149.127C64.9017 149.127 64.487 149.044 64.1104 148.879C63.738 148.71 63.4248 148.452 63.1709 148.105H63.0947C63.1455 148.511 63.1709 148.896 63.1709 149.26V152.123H62.1172V142.043H62.9741L63.1201 142.995H63.1709C63.4417 142.614 63.757 142.339 64.1167 142.17C64.4764 142.001 64.889 141.916 65.3545 141.916C66.277 141.916 66.988 142.231 67.4873 142.862C67.9909 143.492 68.2427 144.377 68.2427 145.515C68.2427 146.658 67.9867 147.546 67.4746 148.181C66.9668 148.812 66.2601 149.127 65.3545 149.127ZM65.2021 142.811C64.4912 142.811 63.9771 143.008 63.6597 143.401C63.3423 143.795 63.1794 144.421 63.1709 145.28V145.515C63.1709 146.493 63.3338 147.193 63.6597 147.616C63.9855 148.035 64.5081 148.245 65.2275 148.245C65.8285 148.245 66.2982 148.001 66.6367 147.515C66.9795 147.028 67.1509 146.357 67.1509 145.502C67.1509 144.635 66.9795 143.971 66.6367 143.509C66.2982 143.044 65.82 142.811 65.2021 142.811ZM76.0947 145.515C76.0947 146.649 75.8091 147.536 75.2378 148.175C74.6665 148.81 73.8773 149.127 72.8701 149.127C72.248 149.127 71.6958 148.981 71.2134 148.689C70.731 148.397 70.3586 147.978 70.0962 147.432C69.8338 146.886 69.7026 146.247 69.7026 145.515C69.7026 144.381 69.9862 143.499 70.5532 142.868C71.1203 142.233 71.9074 141.916 72.9146 141.916C73.8879 141.916 74.6602 142.24 75.2314 142.887C75.807 143.535 76.0947 144.411 76.0947 145.515ZM70.7944 145.515C70.7944 146.404 70.9722 147.081 71.3276 147.546C71.6831 148.012 72.2057 148.245 72.8955 148.245C73.5853 148.245 74.1079 148.014 74.4634 147.553C74.8231 147.087 75.0029 146.408 75.0029 145.515C75.0029 144.631 74.8231 143.96 74.4634 143.503C74.1079 143.042 73.5811 142.811 72.8828 142.811C72.193 142.811 71.6725 143.037 71.3213 143.49C70.9701 143.943 70.7944 144.618 70.7944 145.515ZM82.436 147.102C82.436 147.75 82.1948 148.249 81.7124 148.6C81.23 148.951 80.5529 149.127 79.6812 149.127C78.7586 149.127 78.0392 148.981 77.5229 148.689V147.711C77.8573 147.881 78.2148 148.014 78.5957 148.111C78.9808 148.209 79.3511 148.257 79.7065 148.257C80.2567 148.257 80.6799 148.171 80.9761 147.997C81.2723 147.819 81.4204 147.551 81.4204 147.191C81.4204 146.92 81.3019 146.689 81.0649 146.499C80.8322 146.304 80.3752 146.076 79.6938 145.813C79.0464 145.572 78.5851 145.363 78.3101 145.185C78.0392 145.003 77.8361 144.798 77.7007 144.569C77.5695 144.341 77.5039 144.068 77.5039 143.75C77.5039 143.183 77.7345 142.737 78.1958 142.411C78.6571 142.081 79.2897 141.916 80.0938 141.916C80.8428 141.916 81.5749 142.068 82.29 142.373L81.9155 143.23C81.2173 142.942 80.5846 142.798 80.0176 142.798C79.5182 142.798 79.1416 142.877 78.8877 143.033C78.6338 143.19 78.5068 143.406 78.5068 143.681C78.5068 143.867 78.5534 144.026 78.6465 144.157C78.7438 144.288 78.8983 144.413 79.1099 144.531C79.3215 144.65 79.7277 144.821 80.3286 145.045C81.1538 145.346 81.7103 145.648 81.998 145.953C82.29 146.258 82.436 146.641 82.436 147.102ZM86.4033 148.257C86.5895 148.257 86.7694 148.245 86.9429 148.219C87.1164 148.19 87.2539 148.16 87.3555 148.13V148.937C87.2412 148.992 87.0719 149.036 86.8477 149.07C86.6276 149.108 86.4287 149.127 86.251 149.127C84.9053 149.127 84.2324 148.418 84.2324 147V142.862H83.2358V142.354L84.2324 141.916L84.6768 140.431H85.2861V142.043H87.3047V142.862H85.2861V146.956C85.2861 147.375 85.3856 147.697 85.5845 147.921C85.7834 148.145 86.0563 148.257 86.4033 148.257ZM91.6909 149.127C90.6626 149.127 89.8501 148.814 89.2534 148.188C88.661 147.561 88.3647 146.692 88.3647 145.579C88.3647 144.457 88.6398 143.566 89.1899 142.906C89.7443 142.246 90.487 141.916 91.418 141.916C92.2897 141.916 92.9795 142.204 93.4873 142.779C93.9951 143.351 94.249 144.106 94.249 145.045V145.712H89.4565C89.4777 146.529 89.6829 147.149 90.0723 147.572C90.4658 147.995 91.0181 148.207 91.729 148.207C92.478 148.207 93.2186 148.05 93.9507 147.737V148.676C93.5783 148.837 93.2249 148.951 92.8906 149.019C92.5605 149.091 92.1606 149.127 91.6909 149.127ZM91.4053 142.798C90.8467 142.798 90.4002 142.98 90.0659 143.344C89.7358 143.708 89.5412 144.212 89.4819 144.855H93.1191C93.1191 144.191 92.971 143.683 92.6748 143.332C92.3786 142.976 91.9554 142.798 91.4053 142.798ZM99.2256 141.916C99.5345 141.916 99.8117 141.941 100.057 141.992L99.9111 142.97C99.6234 142.906 99.3695 142.875 99.1494 142.875C98.5866 142.875 98.1042 143.103 97.7021 143.56C97.3044 144.017 97.1055 144.586 97.1055 145.268V149H96.0518V142.043H96.9214L97.042 143.332H97.0928C97.3509 142.879 97.6619 142.53 98.0259 142.284C98.3898 142.039 98.7897 141.916 99.2256 141.916ZM102.412 149H101.358V142.043H102.412V149ZM101.27 140.158C101.27 139.917 101.329 139.741 101.447 139.631C101.566 139.517 101.714 139.459 101.892 139.459C102.061 139.459 102.207 139.517 102.33 139.631C102.452 139.745 102.514 139.921 102.514 140.158C102.514 140.395 102.452 140.572 102.33 140.691C102.207 140.805 102.061 140.862 101.892 140.862C101.714 140.862 101.566 140.805 101.447 140.691C101.329 140.572 101.27 140.395 101.27 140.158ZM110.651 145.515C110.651 146.649 110.366 147.536 109.794 148.175C109.223 148.81 108.434 149.127 107.427 149.127C106.805 149.127 106.252 148.981 105.77 148.689C105.288 148.397 104.915 147.978 104.653 147.432C104.39 146.886 104.259 146.247 104.259 145.515C104.259 144.381 104.543 143.499 105.11 142.868C105.677 142.233 106.464 141.916 107.471 141.916C108.444 141.916 109.217 142.24 109.788 142.887C110.364 143.535 110.651 144.411 110.651 145.515ZM105.351 145.515C105.351 146.404 105.529 147.081 105.884 147.546C106.24 148.012 106.762 148.245 107.452 148.245C108.142 148.245 108.665 148.014 109.02 147.553C109.38 147.087 109.56 146.408 109.56 145.515C109.56 144.631 109.38 143.96 109.02 143.503C108.665 143.042 108.138 142.811 107.439 142.811C106.75 142.811 106.229 143.037 105.878 143.49C105.527 143.943 105.351 144.618 105.351 145.515ZM115.679 141.916C115.988 141.916 116.265 141.941 116.51 141.992L116.364 142.97C116.076 142.906 115.823 142.875 115.603 142.875C115.04 142.875 114.557 143.103 114.155 143.56C113.757 144.017 113.559 144.586 113.559 145.268V149H112.505V142.043H113.375L113.495 143.332H113.546C113.804 142.879 114.115 142.53 114.479 142.284C114.843 142.039 115.243 141.916 115.679 141.916ZM126.679 149V144.474C126.679 143.92 126.561 143.505 126.324 143.23C126.087 142.951 125.719 142.811 125.219 142.811C124.563 142.811 124.079 142.999 123.766 143.376C123.452 143.753 123.296 144.332 123.296 145.115V149H122.242V144.474C122.242 143.92 122.124 143.505 121.887 143.23C121.65 142.951 121.279 142.811 120.776 142.811C120.116 142.811 119.631 143.01 119.322 143.408C119.018 143.801 118.865 144.449 118.865 145.35V149H117.812V142.043H118.668L118.84 142.995H118.891C119.09 142.657 119.369 142.392 119.729 142.202C120.092 142.011 120.499 141.916 120.947 141.916C122.035 141.916 122.746 142.31 123.08 143.097H123.131C123.338 142.733 123.639 142.445 124.032 142.233C124.426 142.022 124.874 141.916 125.378 141.916C126.165 141.916 126.753 142.119 127.143 142.525C127.536 142.927 127.733 143.573 127.733 144.461V149H126.679ZM132.849 149.127C131.821 149.127 131.008 148.814 130.412 148.188C129.819 147.561 129.523 146.692 129.523 145.579C129.523 144.457 129.798 143.566 130.348 142.906C130.903 142.246 131.645 141.916 132.576 141.916C133.448 141.916 134.138 142.204 134.646 142.779C135.153 143.351 135.407 144.106 135.407 145.045V145.712H130.615C130.636 146.529 130.841 147.149 131.23 147.572C131.624 147.995 132.176 148.207 132.887 148.207C133.636 148.207 134.377 148.05 135.109 147.737V148.676C134.736 148.837 134.383 148.951 134.049 149.019C133.719 149.091 133.319 149.127 132.849 149.127ZM132.563 142.798C132.005 142.798 131.558 142.98 131.224 143.344C130.894 143.708 130.699 144.212 130.64 144.855H134.277C134.277 144.191 134.129 143.683 133.833 143.332C133.537 142.976 133.114 142.798 132.563 142.798ZM141.971 149V144.5C141.971 143.932 141.842 143.509 141.583 143.23C141.325 142.951 140.921 142.811 140.371 142.811C139.643 142.811 139.11 143.008 138.771 143.401C138.433 143.795 138.264 144.444 138.264 145.35V149H137.21V142.043H138.067L138.238 142.995H138.289C138.505 142.652 138.807 142.388 139.197 142.202C139.586 142.011 140.02 141.916 140.498 141.916C141.336 141.916 141.966 142.119 142.39 142.525C142.813 142.927 143.024 143.573 143.024 144.461V149H141.971ZM147.442 148.257C147.629 148.257 147.808 148.245 147.982 148.219C148.155 148.19 148.293 148.16 148.395 148.13V148.937C148.28 148.992 148.111 149.036 147.887 149.07C147.667 149.108 147.468 149.127 147.29 149.127C145.944 149.127 145.271 148.418 145.271 147V142.862H144.275V142.354L145.271 141.916L145.716 140.431H146.325V142.043H148.344V142.862H146.325V146.956C146.325 147.375 146.425 147.697 146.624 147.921C146.822 148.145 147.095 148.257 147.442 148.257ZM152.73 149.127C151.702 149.127 150.889 148.814 150.292 148.188C149.7 147.561 149.404 146.692 149.404 145.579C149.404 144.457 149.679 143.566 150.229 142.906C150.783 142.246 151.526 141.916 152.457 141.916C153.329 141.916 154.019 142.204 154.526 142.779C155.034 143.351 155.288 144.106 155.288 145.045V145.712H150.496C150.517 146.529 150.722 147.149 151.111 147.572C151.505 147.995 152.057 148.207 152.768 148.207C153.517 148.207 154.258 148.05 154.99 147.737V148.676C154.617 148.837 154.264 148.951 153.93 149.019C153.6 149.091 153.2 149.127 152.73 149.127ZM152.444 142.798C151.886 142.798 151.439 142.98 151.105 143.344C150.775 143.708 150.58 144.212 150.521 144.855H154.158C154.158 144.191 154.01 143.683 153.714 143.332C153.418 142.976 152.994 142.798 152.444 142.798ZM156.938 148.327C156.938 148.044 157.002 147.83 157.129 147.686C157.26 147.538 157.446 147.464 157.688 147.464C157.933 147.464 158.123 147.538 158.259 147.686C158.398 147.83 158.468 148.044 158.468 148.327C158.468 148.602 158.398 148.814 158.259 148.962C158.119 149.11 157.929 149.184 157.688 149.184C157.472 149.184 157.292 149.118 157.148 148.987C157.008 148.852 156.938 148.632 156.938 148.327Z" fill="#38485C"/>
</svg>
