<svg width="340" height="190" viewBox="0 0 340 190" fill="none" xmlns="http://www.w3.org/2000/svg">
<rect width="340" height="190" fill="#F3F6F9"/>
<rect x="32" y="18" width="276" height="154" rx="9" fill="white"/>
<path d="M33 27C33 22.5817 36.5817 19 41 19H299C303.418 19 307 22.5817 307 27V67H33V27Z" fill="#007BC7"/>
<path d="M62.833 49.095C62.453 49.095 62.149 48.9873 61.921 48.772C61.7057 48.544 61.598 48.2463 61.598 47.879V37.619H58.14C57.38 37.619 57 37.2833 57 36.612C57 35.9407 57.38 35.605 58.14 35.605H67.507C68.267 35.605 68.647 35.9407 68.647 36.612C68.647 37.2833 68.267 37.619 67.507 37.619H64.049V47.879C64.049 48.2463 63.935 48.544 63.707 48.772C63.4917 48.9873 63.2003 49.095 62.833 49.095ZM71.0653 49.114C70.7233 49.114 70.4383 49.019 70.2103 48.829C69.995 48.6263 69.8873 48.3413 69.8873 47.974V40.64C69.8873 40.2727 69.995 39.994 70.2103 39.804C70.4383 39.614 70.7233 39.519 71.0653 39.519C71.4073 39.519 71.6923 39.614 71.9203 39.804C72.1483 39.994 72.2623 40.2727 72.2623 40.64V47.974C72.2623 48.3413 72.1483 48.6263 71.9203 48.829C71.6923 49.019 71.4073 49.114 71.0653 49.114ZM71.5403 38.436C71.401 38.5373 71.2617 38.588 71.1223 38.588C70.945 38.588 70.793 38.531 70.6663 38.417C70.5523 38.2903 70.4953 38.1447 70.4953 37.98C70.4953 37.8407 70.546 37.7013 70.6473 37.562L72.4903 35.111C72.7817 34.731 73.1173 34.541 73.4973 34.541C73.776 34.541 74.0103 34.6423 74.2003 34.845C74.403 35.035 74.5043 35.263 74.5043 35.529C74.5043 35.8837 74.3333 36.1877 73.9913 36.441L71.5403 38.436ZM79.5376 47.347C80.1709 47.385 80.4876 47.67 80.4876 48.202C80.4876 48.506 80.3609 48.7403 80.1076 48.905C79.8669 49.057 79.5186 49.1203 79.0626 49.095L78.5496 49.057C76.4216 48.905 75.3576 47.765 75.3576 45.637V41.495H74.4076C74.0656 41.495 73.7996 41.419 73.6096 41.267C73.4322 41.115 73.3436 40.8933 73.3436 40.602C73.3436 40.3107 73.4322 40.089 73.6096 39.937C73.7996 39.785 74.0656 39.709 74.4076 39.709H75.3576V37.961C75.3576 37.619 75.4652 37.3467 75.6806 37.144C75.8959 36.9413 76.1872 36.84 76.5546 36.84C76.9092 36.84 77.1942 36.9413 77.4096 37.144C77.6249 37.3467 77.7326 37.619 77.7326 37.961V39.709H79.3476C79.6896 39.709 79.9492 39.785 80.1266 39.937C80.3166 40.089 80.4116 40.3107 80.4116 40.602C80.4116 40.8933 80.3166 41.115 80.1266 41.267C79.9492 41.419 79.6896 41.495 79.3476 41.495H77.7326V45.808C77.7326 46.7453 78.1632 47.2457 79.0246 47.309L79.5376 47.347ZM89.0592 39.519C89.4266 39.519 89.7179 39.6203 89.9332 39.823C90.1486 40.0257 90.2562 40.298 90.2562 40.64V48.012C90.2562 48.3413 90.1422 48.6073 89.9142 48.81C89.6989 49.0127 89.4139 49.114 89.0592 49.114C88.7172 49.114 88.4449 49.019 88.2422 48.829C88.0396 48.639 87.9382 48.3793 87.9382 48.05V47.575C87.6469 48.0817 87.2542 48.4743 86.7602 48.753C86.2662 49.019 85.7089 49.152 85.0882 49.152C82.8082 49.152 81.6682 47.8727 81.6682 45.314V40.64C81.6682 40.298 81.7759 40.0257 81.9912 39.823C82.2066 39.6203 82.4916 39.519 82.8462 39.519C83.2136 39.519 83.5049 39.6203 83.7202 39.823C83.9356 40.0257 84.0432 40.298 84.0432 40.64V45.333C84.0432 45.9917 84.1762 46.4793 84.4422 46.796C84.7082 47.1127 85.1262 47.271 85.6962 47.271C86.3549 47.271 86.8806 47.0557 87.2732 46.625C87.6786 46.1817 87.8812 45.599 87.8812 44.877V40.64C87.8812 40.298 87.9889 40.0257 88.2042 39.823C88.4196 39.6203 88.7046 39.519 89.0592 39.519ZM93.9062 49.114C93.5642 49.114 93.2792 49.019 93.0512 48.829C92.8358 48.6263 92.7282 48.3413 92.7282 47.974V36.631C92.7282 36.2637 92.8358 35.985 93.0512 35.795C93.2792 35.605 93.5642 35.51 93.9062 35.51C94.2482 35.51 94.5332 35.605 94.7612 35.795C94.9892 35.985 95.1032 36.2637 95.1032 36.631V47.974C95.1032 48.3413 94.9892 48.6263 94.7612 48.829C94.5332 49.019 94.2482 49.114 93.9062 49.114ZM101.789 49.152C100.839 49.152 100.003 48.9557 99.2814 48.563C98.572 48.1703 98.021 47.6067 97.6284 46.872C97.2357 46.1373 97.0394 45.2823 97.0394 44.307C97.0394 43.3317 97.2357 42.483 97.6284 41.761C98.021 41.0263 98.572 40.4627 99.2814 40.07C100.003 39.6773 100.839 39.481 101.789 39.481C102.739 39.481 103.569 39.6773 104.278 40.07C105 40.4627 105.551 41.0263 105.931 41.761C106.324 42.483 106.52 43.3317 106.52 44.307C106.52 45.2823 106.324 46.1373 105.931 46.872C105.551 47.6067 105 48.1703 104.278 48.563C103.569 48.9557 102.739 49.152 101.789 49.152ZM101.77 47.309C102.543 47.309 103.132 47.0557 103.537 46.549C103.943 46.0423 104.145 45.295 104.145 44.307C104.145 43.3317 103.943 42.5907 103.537 42.084C103.132 41.5647 102.549 41.305 101.789 41.305C101.029 41.305 100.44 41.5647 100.022 42.084C99.617 42.5907 99.4144 43.3317 99.4144 44.307C99.4144 45.295 99.617 46.0423 100.022 46.549C100.428 47.0557 101.01 47.309 101.77 47.309Z" fill="white"/>
<g clip-path="url(#clip0_2199_83004)">
<path d="M277 44H265C264.45 44 264 43.55 264 43C264 42.45 264.45 42 265 42H277C277.55 42 278 42.45 278 43C278 43.55 277.55 44 277 44Z" fill="white"/>
</g>
<path d="M64.9375 101H58.5703V89.5781H64.9375V90.7578H59.8984V94.4375H64.6328V95.6094H59.8984V99.8125H64.9375V101ZM72.8047 98.6641C72.8047 99.4609 72.5078 100.076 71.9141 100.508C71.3203 100.94 70.487 101.156 69.4141 101.156C68.2786 101.156 67.3932 100.977 66.7578 100.617V99.4141C67.1693 99.6224 67.6094 99.7865 68.0781 99.9062C68.5521 100.026 69.0078 100.086 69.4453 100.086C70.1224 100.086 70.6432 99.9792 71.0078 99.7656C71.3724 99.5469 71.5547 99.2161 71.5547 98.7734C71.5547 98.4401 71.4089 98.1562 71.1172 97.9219C70.8307 97.6823 70.2682 97.401 69.4297 97.0781C68.6328 96.7812 68.0651 96.5234 67.7266 96.3047C67.3932 96.0807 67.1432 95.8281 66.9766 95.5469C66.8151 95.2656 66.7344 94.9297 66.7344 94.5391C66.7344 93.8411 67.0182 93.2917 67.5859 92.8906C68.1536 92.4844 68.9323 92.2812 69.9219 92.2812C70.8438 92.2812 71.7448 92.4688 72.625 92.8438L72.1641 93.8984C71.3047 93.5443 70.526 93.3672 69.8281 93.3672C69.2135 93.3672 68.75 93.4635 68.4375 93.6562C68.125 93.849 67.9688 94.1146 67.9688 94.4531C67.9688 94.6823 68.026 94.8776 68.1406 95.0391C68.2604 95.2005 68.4505 95.3542 68.7109 95.5C68.9714 95.6458 69.4714 95.8568 70.2109 96.1328C71.2266 96.5026 71.9115 96.875 72.2656 97.25C72.625 97.625 72.8047 98.0964 72.8047 98.6641ZM77.6875 100.086C77.9167 100.086 78.138 100.07 78.3516 100.039C78.5651 100.003 78.7344 99.9661 78.8594 99.9297V100.922C78.7188 100.99 78.5104 101.044 78.2344 101.086C77.9635 101.133 77.7188 101.156 77.5 101.156C75.8438 101.156 75.0156 100.284 75.0156 98.5391V93.4453H73.7891V92.8203L75.0156 92.2812L75.5625 90.4531H76.3125V92.4375H78.7969V93.4453H76.3125V98.4844C76.3125 99 76.4349 99.3958 76.6797 99.6719C76.9245 99.9479 77.2604 100.086 77.6875 100.086ZM85.8438 101L85.5859 99.7812H85.5234C85.0964 100.318 84.6693 100.682 84.2422 100.875C83.8203 101.062 83.2917 101.156 82.6562 101.156C81.8073 101.156 81.1406 100.938 80.6562 100.5C80.1771 100.062 79.9375 99.4401 79.9375 98.6328C79.9375 96.9036 81.3203 95.9974 84.0859 95.9141L85.5391 95.8672V95.3359C85.5391 94.6641 85.3932 94.1693 85.1016 93.8516C84.8151 93.5286 84.3542 93.3672 83.7188 93.3672C83.0052 93.3672 82.1979 93.5859 81.2969 94.0234L80.8984 93.0312C81.3203 92.8021 81.7812 92.6224 82.2812 92.4922C82.7865 92.362 83.2917 92.2969 83.7969 92.2969C84.8177 92.2969 85.5729 92.5234 86.0625 92.9766C86.5573 93.4297 86.8047 94.1562 86.8047 95.1562V101H85.8438ZM82.9141 100.086C83.7214 100.086 84.3542 99.8646 84.8125 99.4219C85.276 98.9792 85.5078 98.3594 85.5078 97.5625V96.7891L84.2109 96.8438C83.1797 96.8802 82.4349 97.0417 81.9766 97.3281C81.5234 97.6094 81.2969 98.0495 81.2969 98.6484C81.2969 99.1172 81.4375 99.474 81.7188 99.7188C82.0052 99.9635 82.4036 100.086 82.9141 100.086ZM97.2578 101.156C95.9922 101.156 94.9922 100.771 94.2578 100C93.5286 99.2292 93.1641 98.1589 93.1641 96.7891C93.1641 95.4089 93.5026 94.3125 94.1797 93.5C94.862 92.6875 95.776 92.2812 96.9219 92.2812C97.9948 92.2812 98.8438 92.6354 99.4688 93.3438C100.094 94.0469 100.406 94.9766 100.406 96.1328V96.9531H94.5078C94.5339 97.9583 94.7865 98.7214 95.2656 99.2422C95.75 99.763 96.4297 100.023 97.3047 100.023C98.2266 100.023 99.138 99.8307 100.039 99.4453V100.602C99.5807 100.799 99.1458 100.94 98.7344 101.023C98.3281 101.112 97.8359 101.156 97.2578 101.156ZM96.9062 93.3672C96.2188 93.3672 95.6693 93.5911 95.2578 94.0391C94.8516 94.487 94.612 95.1068 94.5391 95.8984H99.0156C99.0156 95.0807 98.8333 94.4557 98.4688 94.0234C98.1042 93.5859 97.5833 93.3672 96.9062 93.3672ZM108.148 98.6641C108.148 99.4609 107.852 100.076 107.258 100.508C106.664 100.94 105.831 101.156 104.758 101.156C103.622 101.156 102.737 100.977 102.102 100.617V99.4141C102.513 99.6224 102.953 99.7865 103.422 99.9062C103.896 100.026 104.352 100.086 104.789 100.086C105.466 100.086 105.987 99.9792 106.352 99.7656C106.716 99.5469 106.898 99.2161 106.898 98.7734C106.898 98.4401 106.753 98.1562 106.461 97.9219C106.174 97.6823 105.612 97.401 104.773 97.0781C103.977 96.7812 103.409 96.5234 103.07 96.3047C102.737 96.0807 102.487 95.8281 102.32 95.5469C102.159 95.2656 102.078 94.9297 102.078 94.5391C102.078 93.8411 102.362 93.2917 102.93 92.8906C103.497 92.4844 104.276 92.2812 105.266 92.2812C106.188 92.2812 107.089 92.4688 107.969 92.8438L107.508 93.8984C106.648 93.5443 105.87 93.3672 105.172 93.3672C104.557 93.3672 104.094 93.4635 103.781 93.6562C103.469 93.849 103.312 94.1146 103.312 94.4531C103.312 94.6823 103.37 94.8776 103.484 95.0391C103.604 95.2005 103.794 95.3542 104.055 95.5C104.315 95.6458 104.815 95.8568 105.555 96.1328C106.57 96.5026 107.255 96.875 107.609 97.25C107.969 97.625 108.148 98.0964 108.148 98.6641ZM115.719 101H114.422V88.8438H115.719V101ZM123.734 101L123.477 99.7812H123.414C122.987 100.318 122.56 100.682 122.133 100.875C121.711 101.062 121.182 101.156 120.547 101.156C119.698 101.156 119.031 100.938 118.547 100.5C118.068 100.062 117.828 99.4401 117.828 98.6328C117.828 96.9036 119.211 95.9974 121.977 95.9141L123.43 95.8672V95.3359C123.43 94.6641 123.284 94.1693 122.992 93.8516C122.706 93.5286 122.245 93.3672 121.609 93.3672C120.896 93.3672 120.089 93.5859 119.188 94.0234L118.789 93.0312C119.211 92.8021 119.672 92.6224 120.172 92.4922C120.677 92.362 121.182 92.2969 121.688 92.2969C122.708 92.2969 123.464 92.5234 123.953 92.9766C124.448 93.4297 124.695 94.1562 124.695 95.1562V101H123.734ZM120.805 100.086C121.612 100.086 122.245 99.8646 122.703 99.4219C123.167 98.9792 123.398 98.3594 123.398 97.5625V96.7891L122.102 96.8438C121.07 96.8802 120.326 97.0417 119.867 97.3281C119.414 97.6094 119.188 98.0495 119.188 98.6484C119.188 99.1172 119.328 99.474 119.609 99.7188C119.896 99.9635 120.294 100.086 120.805 100.086ZM137.359 99.8516H137.289C136.69 100.721 135.794 101.156 134.602 101.156C133.482 101.156 132.609 100.773 131.984 100.008C131.365 99.2422 131.055 98.1536 131.055 96.7422C131.055 95.3307 131.367 94.2344 131.992 93.4531C132.617 92.6719 133.487 92.2812 134.602 92.2812C135.763 92.2812 136.654 92.7031 137.273 93.5469H137.375L137.32 92.9297L137.289 92.3281V88.8438H138.586V101H137.531L137.359 99.8516ZM134.766 100.07C135.651 100.07 136.292 99.8307 136.688 99.3516C137.089 98.8672 137.289 98.0885 137.289 97.0156V96.7422C137.289 95.5286 137.086 94.6641 136.68 94.1484C136.279 93.6276 135.635 93.3672 134.75 93.3672C133.99 93.3672 133.406 93.6641 133 94.2578C132.599 94.8464 132.398 95.6797 132.398 96.7578C132.398 97.8516 132.599 98.6771 133 99.2344C133.401 99.7917 133.99 100.07 134.766 100.07ZM144.961 101.156C143.695 101.156 142.695 100.771 141.961 100C141.232 99.2292 140.867 98.1589 140.867 96.7891C140.867 95.4089 141.206 94.3125 141.883 93.5C142.565 92.6875 143.479 92.2812 144.625 92.2812C145.698 92.2812 146.547 92.6354 147.172 93.3438C147.797 94.0469 148.109 94.9766 148.109 96.1328V96.9531H142.211C142.237 97.9583 142.49 98.7214 142.969 99.2422C143.453 99.763 144.133 100.023 145.008 100.023C145.93 100.023 146.841 99.8307 147.742 99.4453V100.602C147.284 100.799 146.849 100.94 146.438 101.023C146.031 101.112 145.539 101.156 144.961 101.156ZM144.609 93.3672C143.922 93.3672 143.372 93.5911 142.961 94.0391C142.555 94.487 142.315 95.1068 142.242 95.8984H146.719C146.719 95.0807 146.536 94.4557 146.172 94.0234C145.807 93.5859 145.286 93.3672 144.609 93.3672ZM155.852 98.6641C155.852 99.4609 155.555 100.076 154.961 100.508C154.367 100.94 153.534 101.156 152.461 101.156C151.326 101.156 150.44 100.977 149.805 100.617V99.4141C150.216 99.6224 150.656 99.7865 151.125 99.9062C151.599 100.026 152.055 100.086 152.492 100.086C153.169 100.086 153.69 99.9792 154.055 99.7656C154.419 99.5469 154.602 99.2161 154.602 98.7734C154.602 98.4401 154.456 98.1562 154.164 97.9219C153.878 97.6823 153.315 97.401 152.477 97.0781C151.68 96.7812 151.112 96.5234 150.773 96.3047C150.44 96.0807 150.19 95.8281 150.023 95.5469C149.862 95.2656 149.781 94.9297 149.781 94.5391C149.781 93.8411 150.065 93.2917 150.633 92.8906C151.201 92.4844 151.979 92.2812 152.969 92.2812C153.891 92.2812 154.792 92.4688 155.672 92.8438L155.211 93.8984C154.352 93.5443 153.573 93.3672 152.875 93.3672C152.26 93.3672 151.797 93.4635 151.484 93.6562C151.172 93.849 151.016 94.1146 151.016 94.4531C151.016 94.6823 151.073 94.8776 151.188 95.0391C151.307 95.2005 151.497 95.3542 151.758 95.5C152.018 95.6458 152.518 95.8568 153.258 96.1328C154.273 96.5026 154.958 96.875 155.312 97.25C155.672 97.625 155.852 98.0964 155.852 98.6641ZM161.391 101.156C160.151 101.156 159.19 100.776 158.508 100.016C157.831 99.25 157.492 98.1693 157.492 96.7734C157.492 95.3411 157.836 94.2344 158.523 93.4531C159.216 92.6719 160.201 92.2812 161.477 92.2812C161.888 92.2812 162.299 92.3255 162.711 92.4141C163.122 92.5026 163.445 92.6068 163.68 92.7266L163.281 93.8281C162.995 93.7135 162.682 93.6198 162.344 93.5469C162.005 93.4688 161.706 93.4297 161.445 93.4297C159.706 93.4297 158.836 94.5391 158.836 96.7578C158.836 97.8099 159.047 98.6172 159.469 99.1797C159.896 99.7422 160.526 100.023 161.359 100.023C162.073 100.023 162.805 99.8698 163.555 99.5625V100.711C162.982 101.008 162.26 101.156 161.391 101.156ZM169.5 92.2812C169.88 92.2812 170.221 92.3125 170.523 92.375L170.344 93.5781C169.99 93.5 169.677 93.4609 169.406 93.4609C168.714 93.4609 168.12 93.7422 167.625 94.3047C167.135 94.8672 166.891 95.5677 166.891 96.4062V101H165.594V92.4375H166.664L166.812 94.0234H166.875C167.193 93.4661 167.576 93.0365 168.023 92.7344C168.471 92.4323 168.964 92.2812 169.5 92.2812ZM173.422 101H172.125V92.4375H173.422V101ZM172.016 90.1172C172.016 89.8203 172.089 89.6042 172.234 89.4688C172.38 89.3281 172.562 89.2578 172.781 89.2578C172.99 89.2578 173.169 89.3281 173.32 89.4688C173.471 89.6094 173.547 89.8255 173.547 90.1172C173.547 90.4089 173.471 90.6276 173.32 90.7734C173.169 90.9141 172.99 90.9844 172.781 90.9844C172.562 90.9844 172.38 90.9141 172.234 90.7734C172.089 90.6276 172.016 90.4089 172.016 90.1172ZM180.156 101.156C179.599 101.156 179.089 101.055 178.625 100.852C178.167 100.643 177.781 100.326 177.469 99.8984H177.375C177.438 100.398 177.469 100.872 177.469 101.32V104.844H176.172V92.4375H177.227L177.406 93.6094H177.469C177.802 93.1406 178.19 92.8021 178.633 92.5938C179.076 92.3854 179.583 92.2812 180.156 92.2812C181.292 92.2812 182.167 92.6693 182.781 93.4453C183.401 94.2214 183.711 95.3099 183.711 96.7109C183.711 98.1172 183.396 99.2109 182.766 99.9922C182.141 100.768 181.271 101.156 180.156 101.156ZM179.969 93.3828C179.094 93.3828 178.461 93.625 178.07 94.1094C177.68 94.5938 177.479 95.3646 177.469 96.4219V96.7109C177.469 97.9141 177.669 98.776 178.07 99.2969C178.471 99.8125 179.115 100.07 180 100.07C180.74 100.07 181.318 99.7708 181.734 99.1719C182.156 98.5729 182.367 97.7474 182.367 96.6953C182.367 95.6276 182.156 94.8099 181.734 94.2422C181.318 93.6693 180.729 93.3828 179.969 93.3828ZM189.406 101.156C188.167 101.156 187.206 100.776 186.523 100.016C185.846 99.25 185.508 98.1693 185.508 96.7734C185.508 95.3411 185.852 94.2344 186.539 93.4531C187.232 92.6719 188.216 92.2812 189.492 92.2812C189.904 92.2812 190.315 92.3255 190.727 92.4141C191.138 92.5026 191.461 92.6068 191.695 92.7266L191.297 93.8281C191.01 93.7135 190.698 93.6198 190.359 93.5469C190.021 93.4688 189.721 93.4297 189.461 93.4297C187.721 93.4297 186.852 94.5391 186.852 96.7578C186.852 97.8099 187.062 98.6172 187.484 99.1797C187.911 99.7422 188.542 100.023 189.375 100.023C190.089 100.023 190.82 99.8698 191.57 99.5625V100.711C190.997 101.008 190.276 101.156 189.406 101.156ZM194.906 101H193.609V92.4375H194.906V101ZM193.5 90.1172C193.5 89.8203 193.573 89.6042 193.719 89.4688C193.865 89.3281 194.047 89.2578 194.266 89.2578C194.474 89.2578 194.654 89.3281 194.805 89.4688C194.956 89.6094 195.031 89.8255 195.031 90.1172C195.031 90.4089 194.956 90.6276 194.805 90.7734C194.654 90.9141 194.474 90.9844 194.266 90.9844C194.047 90.9844 193.865 90.9141 193.719 90.7734C193.573 90.6276 193.5 90.4089 193.5 90.1172ZM205.047 96.7109C205.047 98.1068 204.695 99.1979 203.992 99.9844C203.289 100.766 202.318 101.156 201.078 101.156C200.312 101.156 199.633 100.977 199.039 100.617C198.445 100.258 197.987 99.7422 197.664 99.0703C197.341 98.3984 197.18 97.612 197.18 96.7109C197.18 95.3151 197.529 94.2292 198.227 93.4531C198.924 92.6719 199.893 92.2812 201.133 92.2812C202.331 92.2812 203.281 92.6797 203.984 93.4766C204.693 94.2734 205.047 95.3516 205.047 96.7109ZM198.523 96.7109C198.523 97.8047 198.742 98.638 199.18 99.2109C199.617 99.7839 200.26 100.07 201.109 100.07C201.958 100.07 202.602 99.7865 203.039 99.2188C203.482 98.6458 203.703 97.8099 203.703 96.7109C203.703 95.6224 203.482 94.7969 203.039 94.2344C202.602 93.6667 201.953 93.3828 201.094 93.3828C200.245 93.3828 199.604 93.6615 199.172 94.2188C198.74 94.776 198.523 95.6068 198.523 96.7109ZM200.023 91.1094C200.273 90.7865 200.542 90.3958 200.828 89.9375C201.12 89.4792 201.349 89.0807 201.516 88.7422H203.094V88.9062C202.865 89.2448 202.523 89.6615 202.07 90.1562C201.617 90.651 201.224 91.0339 200.891 91.3047H200.023V91.1094ZM213.188 101V95.4609C213.188 94.763 213.029 94.2422 212.711 93.8984C212.393 93.5547 211.896 93.3828 211.219 93.3828C210.323 93.3828 209.667 93.625 209.25 94.1094C208.833 94.5938 208.625 95.3932 208.625 96.5078V101H207.328V92.4375H208.383L208.594 93.6094H208.656C208.922 93.1875 209.294 92.862 209.773 92.6328C210.253 92.3984 210.786 92.2812 211.375 92.2812C212.406 92.2812 213.182 92.5312 213.703 93.0312C214.224 93.526 214.484 94.3203 214.484 95.4141V101H213.188ZM224.547 100.07C225.411 100.07 226.042 99.8385 226.438 99.375C226.833 98.9115 227.044 98.1302 227.07 97.0312V96.7422C227.07 95.5443 226.867 94.6823 226.461 94.1562C226.055 93.6302 225.411 93.3672 224.531 93.3672C223.771 93.3672 223.188 93.6641 222.781 94.2578C222.38 94.8464 222.18 95.6797 222.18 96.7578C222.18 97.8359 222.378 98.6589 222.773 99.2266C223.174 99.7891 223.766 100.07 224.547 100.07ZM224.352 101.156C223.247 101.156 222.385 100.768 221.766 99.9922C221.146 99.2161 220.836 98.1328 220.836 96.7422C220.836 95.3411 221.148 94.2474 221.773 93.4609C222.398 92.6745 223.268 92.2812 224.383 92.2812C225.555 92.2812 226.456 92.724 227.086 93.6094H227.156L227.344 92.4375H228.367V104.844H227.07V101.18C227.07 100.659 227.099 100.216 227.156 99.8516H227.055C226.456 100.721 225.555 101.156 224.352 101.156ZM232.344 92.4375V97.9922C232.344 98.6901 232.503 99.2109 232.82 99.5547C233.138 99.8984 233.635 100.07 234.312 100.07C235.208 100.07 235.862 99.8255 236.273 99.3359C236.69 98.8464 236.898 98.0469 236.898 96.9375V92.4375H238.195V101H237.125L236.938 99.8516H236.867C236.602 100.273 236.232 100.596 235.758 100.82C235.289 101.044 234.753 101.156 234.148 101.156C233.107 101.156 232.326 100.909 231.805 100.414C231.289 99.9193 231.031 99.1276 231.031 98.0391V92.4375H232.344ZM244.57 101.156C243.305 101.156 242.305 100.771 241.57 100C240.841 99.2292 240.477 98.1589 240.477 96.7891C240.477 95.4089 240.815 94.3125 241.492 93.5C242.174 92.6875 243.089 92.2812 244.234 92.2812C245.307 92.2812 246.156 92.6354 246.781 93.3438C247.406 94.0469 247.719 94.9766 247.719 96.1328V96.9531H241.82C241.846 97.9583 242.099 98.7214 242.578 99.2422C243.062 99.763 243.742 100.023 244.617 100.023C245.539 100.023 246.451 99.8307 247.352 99.4453V100.602C246.893 100.799 246.458 100.94 246.047 101.023C245.641 101.112 245.148 101.156 244.57 101.156ZM244.219 93.3672C243.531 93.3672 242.982 93.5911 242.57 94.0391C242.164 94.487 241.924 95.1068 241.852 95.8984H246.328C246.328 95.0807 246.146 94.4557 245.781 94.0234C245.417 93.5859 244.896 93.3672 244.219 93.3672ZM259.617 98.6641C259.617 99.4609 259.32 100.076 258.727 100.508C258.133 100.94 257.299 101.156 256.227 101.156C255.091 101.156 254.206 100.977 253.57 100.617V99.4141C253.982 99.6224 254.422 99.7865 254.891 99.9062C255.365 100.026 255.82 100.086 256.258 100.086C256.935 100.086 257.456 99.9792 257.82 99.7656C258.185 99.5469 258.367 99.2161 258.367 98.7734C258.367 98.4401 258.221 98.1562 257.93 97.9219C257.643 97.6823 257.081 97.401 256.242 97.0781C255.445 96.7812 254.878 96.5234 254.539 96.3047C254.206 96.0807 253.956 95.8281 253.789 95.5469C253.628 95.2656 253.547 94.9297 253.547 94.5391C253.547 93.8411 253.831 93.2917 254.398 92.8906C254.966 92.4844 255.745 92.2812 256.734 92.2812C257.656 92.2812 258.557 92.4688 259.438 92.8438L258.977 93.8984C258.117 93.5443 257.339 93.3672 256.641 93.3672C256.026 93.3672 255.562 93.4635 255.25 93.6562C254.938 93.849 254.781 94.1146 254.781 94.4531C254.781 94.6823 254.839 94.8776 254.953 95.0391C255.073 95.2005 255.263 95.3542 255.523 95.5C255.784 95.6458 256.284 95.8568 257.023 96.1328C258.039 96.5026 258.724 96.875 259.078 97.25C259.438 97.625 259.617 98.0964 259.617 98.6641ZM265.352 101.156C264.086 101.156 263.086 100.771 262.352 100C261.622 99.2292 261.258 98.1589 261.258 96.7891C261.258 95.4089 261.596 94.3125 262.273 93.5C262.956 92.6875 263.87 92.2812 265.016 92.2812C266.089 92.2812 266.938 92.6354 267.562 93.3438C268.188 94.0469 268.5 94.9766 268.5 96.1328V96.9531H262.602C262.628 97.9583 262.88 98.7214 263.359 99.2422C263.844 99.763 264.523 100.023 265.398 100.023C266.32 100.023 267.232 99.8307 268.133 99.4453V100.602C267.674 100.799 267.24 100.94 266.828 101.023C266.422 101.112 265.93 101.156 265.352 101.156ZM265 93.3672C264.312 93.3672 263.763 93.5911 263.352 94.0391C262.945 94.487 262.706 95.1068 262.633 95.8984H267.109C267.109 95.0807 266.927 94.4557 266.562 94.0234C266.198 93.5859 265.677 93.3672 265 93.3672ZM61.9922 125.156C60.7266 125.156 59.7266 124.771 58.9922 124C58.263 123.229 57.8984 122.159 57.8984 120.789C57.8984 119.409 58.237 118.312 58.9141 117.5C59.5964 116.688 60.5104 116.281 61.6562 116.281C62.7292 116.281 63.5781 116.635 64.2031 117.344C64.8281 118.047 65.1406 118.977 65.1406 120.133V120.953H59.2422C59.2682 121.958 59.5208 122.721 60 123.242C60.4844 123.763 61.1641 124.023 62.0391 124.023C62.9609 124.023 63.8724 123.831 64.7734 123.445V124.602C64.3151 124.799 63.8802 124.94 63.4688 125.023C63.0625 125.112 62.5703 125.156 61.9922 125.156ZM61.6406 117.367C60.9531 117.367 60.4036 117.591 59.9922 118.039C59.5859 118.487 59.3464 119.107 59.2734 119.898H63.75C63.75 119.081 63.5677 118.456 63.2031 118.023C62.8385 117.586 62.3177 117.367 61.6406 117.367ZM73.2188 125V119.461C73.2188 118.763 73.0599 118.242 72.7422 117.898C72.4245 117.555 71.9271 117.383 71.25 117.383C70.3542 117.383 69.6979 117.625 69.2812 118.109C68.8646 118.594 68.6562 119.393 68.6562 120.508V125H67.3594V116.438H68.4141L68.625 117.609H68.6875C68.9531 117.188 69.3255 116.862 69.8047 116.633C70.2839 116.398 70.8177 116.281 71.4062 116.281C72.4375 116.281 73.2135 116.531 73.7344 117.031C74.2552 117.526 74.5156 118.32 74.5156 119.414V125H73.2188ZM80.6094 125.156C79.3698 125.156 78.4089 124.776 77.7266 124.016C77.0495 123.25 76.7109 122.169 76.7109 120.773C76.7109 119.341 77.0547 118.234 77.7422 117.453C78.4349 116.672 79.4193 116.281 80.6953 116.281C81.1068 116.281 81.5182 116.326 81.9297 116.414C82.3411 116.503 82.6641 116.607 82.8984 116.727L82.5 117.828C82.2135 117.714 81.901 117.62 81.5625 117.547C81.224 117.469 80.9245 117.43 80.6641 117.43C78.9245 117.43 78.0547 118.539 78.0547 120.758C78.0547 121.81 78.2656 122.617 78.6875 123.18C79.1146 123.742 79.7448 124.023 80.5781 124.023C81.2917 124.023 82.0234 123.87 82.7734 123.562V124.711C82.2005 125.008 81.4792 125.156 80.6094 125.156ZM86.0312 116.438V121.992C86.0312 122.69 86.1901 123.211 86.5078 123.555C86.8255 123.898 87.3229 124.07 88 124.07C88.8958 124.07 89.5495 123.826 89.9609 123.336C90.3776 122.846 90.5859 122.047 90.5859 120.938V116.438H91.8828V125H90.8125L90.625 123.852H90.5547C90.2891 124.273 89.9193 124.596 89.4453 124.82C88.9766 125.044 88.4401 125.156 87.8359 125.156C86.7943 125.156 86.013 124.909 85.4922 124.414C84.9766 123.919 84.7188 123.128 84.7188 122.039V116.438H86.0312ZM98.2578 125.156C96.9922 125.156 95.9922 124.771 95.2578 124C94.5286 123.229 94.1641 122.159 94.1641 120.789C94.1641 119.409 94.5026 118.312 95.1797 117.5C95.862 116.688 96.776 116.281 97.9219 116.281C98.9948 116.281 99.8438 116.635 100.469 117.344C101.094 118.047 101.406 118.977 101.406 120.133V120.953H95.5078C95.5339 121.958 95.7865 122.721 96.2656 123.242C96.75 123.763 97.4297 124.023 98.3047 124.023C99.2266 124.023 100.138 123.831 101.039 123.445V124.602C100.581 124.799 100.146 124.94 99.7344 125.023C99.3281 125.112 98.8359 125.156 98.2578 125.156ZM97.9062 117.367C97.2188 117.367 96.6693 117.591 96.2578 118.039C95.8516 118.487 95.612 119.107 95.5391 119.898H100.016C100.016 119.081 99.8333 118.456 99.4688 118.023C99.1042 117.586 98.5833 117.367 97.9062 117.367ZM109.484 125V119.461C109.484 118.763 109.326 118.242 109.008 117.898C108.69 117.555 108.193 117.383 107.516 117.383C106.62 117.383 105.964 117.625 105.547 118.109C105.13 118.594 104.922 119.393 104.922 120.508V125H103.625V116.438H104.68L104.891 117.609H104.953C105.219 117.188 105.591 116.862 106.07 116.633C106.549 116.398 107.083 116.281 107.672 116.281C108.703 116.281 109.479 116.531 110 117.031C110.521 117.526 110.781 118.32 110.781 119.414V125H109.484ZM116.219 124.086C116.448 124.086 116.669 124.07 116.883 124.039C117.096 124.003 117.266 123.966 117.391 123.93V124.922C117.25 124.99 117.042 125.044 116.766 125.086C116.495 125.133 116.25 125.156 116.031 125.156C114.375 125.156 113.547 124.284 113.547 122.539V117.445H112.32V116.82L113.547 116.281L114.094 114.453H114.844V116.438H117.328V117.445H114.844V122.484C114.844 123 114.966 123.396 115.211 123.672C115.456 123.948 115.792 124.086 116.219 124.086ZM123.016 116.281C123.396 116.281 123.737 116.312 124.039 116.375L123.859 117.578C123.505 117.5 123.193 117.461 122.922 117.461C122.229 117.461 121.635 117.742 121.141 118.305C120.651 118.867 120.406 119.568 120.406 120.406V125H119.109V116.438H120.18L120.328 118.023H120.391C120.708 117.466 121.091 117.036 121.539 116.734C121.987 116.432 122.479 116.281 123.016 116.281ZM130.906 125L130.648 123.781H130.586C130.159 124.318 129.732 124.682 129.305 124.875C128.883 125.062 128.354 125.156 127.719 125.156C126.87 125.156 126.203 124.938 125.719 124.5C125.24 124.062 125 123.44 125 122.633C125 120.904 126.383 119.997 129.148 119.914L130.602 119.867V119.336C130.602 118.664 130.456 118.169 130.164 117.852C129.878 117.529 129.417 117.367 128.781 117.367C128.068 117.367 127.26 117.586 126.359 118.023L125.961 117.031C126.383 116.802 126.844 116.622 127.344 116.492C127.849 116.362 128.354 116.297 128.859 116.297C129.88 116.297 130.635 116.523 131.125 116.977C131.62 117.43 131.867 118.156 131.867 119.156V125H130.906ZM127.977 124.086C128.784 124.086 129.417 123.865 129.875 123.422C130.339 122.979 130.57 122.359 130.57 121.562V120.789L129.273 120.844C128.242 120.88 127.497 121.042 127.039 121.328C126.586 121.609 126.359 122.049 126.359 122.648C126.359 123.117 126.5 123.474 126.781 123.719C127.068 123.964 127.466 124.086 127.977 124.086ZM144.531 123.852H144.461C143.862 124.721 142.966 125.156 141.773 125.156C140.654 125.156 139.781 124.773 139.156 124.008C138.536 123.242 138.227 122.154 138.227 120.742C138.227 119.331 138.539 118.234 139.164 117.453C139.789 116.672 140.659 116.281 141.773 116.281C142.935 116.281 143.826 116.703 144.445 117.547H144.547L144.492 116.93L144.461 116.328V112.844H145.758V125H144.703L144.531 123.852ZM141.938 124.07C142.823 124.07 143.464 123.831 143.859 123.352C144.26 122.867 144.461 122.089 144.461 121.016V120.742C144.461 119.529 144.258 118.664 143.852 118.148C143.451 117.628 142.807 117.367 141.922 117.367C141.161 117.367 140.578 117.664 140.172 118.258C139.771 118.846 139.57 119.68 139.57 120.758C139.57 121.852 139.771 122.677 140.172 123.234C140.573 123.792 141.161 124.07 141.938 124.07ZM152.133 125.156C150.867 125.156 149.867 124.771 149.133 124C148.404 123.229 148.039 122.159 148.039 120.789C148.039 119.409 148.378 118.312 149.055 117.5C149.737 116.688 150.651 116.281 151.797 116.281C152.87 116.281 153.719 116.635 154.344 117.344C154.969 118.047 155.281 118.977 155.281 120.133V120.953H149.383C149.409 121.958 149.661 122.721 150.141 123.242C150.625 123.763 151.305 124.023 152.18 124.023C153.102 124.023 154.013 123.831 154.914 123.445V124.602C154.456 124.799 154.021 124.94 153.609 125.023C153.203 125.112 152.711 125.156 152.133 125.156ZM151.781 117.367C151.094 117.367 150.544 117.591 150.133 118.039C149.727 118.487 149.487 119.107 149.414 119.898H153.891C153.891 119.081 153.708 118.456 153.344 118.023C152.979 117.586 152.458 117.367 151.781 117.367ZM163.359 125V119.461C163.359 118.763 163.201 118.242 162.883 117.898C162.565 117.555 162.068 117.383 161.391 117.383C160.495 117.383 159.839 117.625 159.422 118.109C159.005 118.594 158.797 119.393 158.797 120.508V125H157.5V116.438H158.555L158.766 117.609H158.828C159.094 117.188 159.466 116.862 159.945 116.633C160.424 116.398 160.958 116.281 161.547 116.281C162.578 116.281 163.354 116.531 163.875 117.031C164.396 117.526 164.656 118.32 164.656 119.414V125H163.359ZM170.094 124.086C170.323 124.086 170.544 124.07 170.758 124.039C170.971 124.003 171.141 123.966 171.266 123.93V124.922C171.125 124.99 170.917 125.044 170.641 125.086C170.37 125.133 170.125 125.156 169.906 125.156C168.25 125.156 167.422 124.284 167.422 122.539V117.445H166.195V116.82L167.422 116.281L167.969 114.453H168.719V116.438H171.203V117.445H168.719V122.484C168.719 123 168.841 123.396 169.086 123.672C169.331 123.948 169.667 124.086 170.094 124.086ZM176.891 116.281C177.271 116.281 177.612 116.312 177.914 116.375L177.734 117.578C177.38 117.5 177.068 117.461 176.797 117.461C176.104 117.461 175.51 117.742 175.016 118.305C174.526 118.867 174.281 119.568 174.281 120.406V125H172.984V116.438H174.055L174.203 118.023H174.266C174.583 117.466 174.966 117.036 175.414 116.734C175.862 116.432 176.354 116.281 176.891 116.281ZM186.906 120.711C186.906 122.107 186.555 123.198 185.852 123.984C185.148 124.766 184.177 125.156 182.938 125.156C182.172 125.156 181.492 124.977 180.898 124.617C180.305 124.258 179.846 123.742 179.523 123.07C179.201 122.398 179.039 121.612 179.039 120.711C179.039 119.315 179.388 118.229 180.086 117.453C180.784 116.672 181.753 116.281 182.992 116.281C184.19 116.281 185.141 116.68 185.844 117.477C186.552 118.273 186.906 119.352 186.906 120.711ZM180.383 120.711C180.383 121.805 180.602 122.638 181.039 123.211C181.477 123.784 182.12 124.07 182.969 124.07C183.818 124.07 184.461 123.786 184.898 123.219C185.341 122.646 185.562 121.81 185.562 120.711C185.562 119.622 185.341 118.797 184.898 118.234C184.461 117.667 183.812 117.383 182.953 117.383C182.104 117.383 181.464 117.661 181.031 118.219C180.599 118.776 180.383 119.607 180.383 120.711ZM199.172 123.852H199.102C198.503 124.721 197.607 125.156 196.414 125.156C195.294 125.156 194.422 124.773 193.797 124.008C193.177 123.242 192.867 122.154 192.867 120.742C192.867 119.331 193.18 118.234 193.805 117.453C194.43 116.672 195.299 116.281 196.414 116.281C197.576 116.281 198.466 116.703 199.086 117.547H199.188L199.133 116.93L199.102 116.328V112.844H200.398V125H199.344L199.172 123.852ZM196.578 124.07C197.464 124.07 198.104 123.831 198.5 123.352C198.901 122.867 199.102 122.089 199.102 121.016V120.742C199.102 119.529 198.898 118.664 198.492 118.148C198.091 117.628 197.448 117.367 196.562 117.367C195.802 117.367 195.219 117.664 194.812 118.258C194.411 118.846 194.211 119.68 194.211 120.758C194.211 121.852 194.411 122.677 194.812 123.234C195.214 123.792 195.802 124.07 196.578 124.07ZM206.773 125.156C205.508 125.156 204.508 124.771 203.773 124C203.044 123.229 202.68 122.159 202.68 120.789C202.68 119.409 203.018 118.312 203.695 117.5C204.378 116.688 205.292 116.281 206.438 116.281C207.51 116.281 208.359 116.635 208.984 117.344C209.609 118.047 209.922 118.977 209.922 120.133V120.953H204.023C204.049 121.958 204.302 122.721 204.781 123.242C205.266 123.763 205.945 124.023 206.82 124.023C207.742 124.023 208.654 123.831 209.555 123.445V124.602C209.096 124.799 208.661 124.94 208.25 125.023C207.844 125.112 207.352 125.156 206.773 125.156ZM206.422 117.367C205.734 117.367 205.185 117.591 204.773 118.039C204.367 118.487 204.128 119.107 204.055 119.898H208.531C208.531 119.081 208.349 118.456 207.984 118.023C207.62 117.586 207.099 117.367 206.422 117.367ZM217.516 116.438V121.992C217.516 122.69 217.674 123.211 217.992 123.555C218.31 123.898 218.807 124.07 219.484 124.07C220.38 124.07 221.034 123.826 221.445 123.336C221.862 122.846 222.07 122.047 222.07 120.938V116.438H223.367V125H222.297L222.109 123.852H222.039C221.773 124.273 221.404 124.596 220.93 124.82C220.461 125.044 219.924 125.156 219.32 125.156C218.279 125.156 217.497 124.909 216.977 124.414C216.461 123.919 216.203 123.128 216.203 122.039V116.438H217.516ZM231.984 125V119.461C231.984 118.763 231.826 118.242 231.508 117.898C231.19 117.555 230.693 117.383 230.016 117.383C229.12 117.383 228.464 117.625 228.047 118.109C227.63 118.594 227.422 119.393 227.422 120.508V125H226.125V116.438H227.18L227.391 117.609H227.453C227.719 117.188 228.091 116.862 228.57 116.633C229.049 116.398 229.583 116.281 230.172 116.281C231.203 116.281 231.979 116.531 232.5 117.031C233.021 117.526 233.281 118.32 233.281 119.414V125H231.984ZM61.7969 149.156C60.5573 149.156 59.5964 148.776 58.9141 148.016C58.237 147.25 57.8984 146.169 57.8984 144.773C57.8984 143.341 58.2422 142.234 58.9297 141.453C59.6224 140.672 60.6068 140.281 61.8828 140.281C62.2943 140.281 62.7057 140.326 63.1172 140.414C63.5286 140.503 63.8516 140.607 64.0859 140.727L63.6875 141.828C63.401 141.714 63.0885 141.62 62.75 141.547C62.4115 141.469 62.112 141.43 61.8516 141.43C60.112 141.43 59.2422 142.539 59.2422 144.758C59.2422 145.81 59.4531 146.617 59.875 147.18C60.3021 147.742 60.9323 148.023 61.7656 148.023C62.4792 148.023 63.2109 147.87 63.9609 147.562V148.711C63.388 149.008 62.6667 149.156 61.7969 149.156ZM73.3906 144.711C73.3906 146.107 73.0391 147.198 72.3359 147.984C71.6328 148.766 70.6615 149.156 69.4219 149.156C68.6562 149.156 67.9766 148.977 67.3828 148.617C66.7891 148.258 66.3307 147.742 66.0078 147.07C65.6849 146.398 65.5234 145.612 65.5234 144.711C65.5234 143.315 65.8724 142.229 66.5703 141.453C67.2682 140.672 68.237 140.281 69.4766 140.281C70.6745 140.281 71.625 140.68 72.3281 141.477C73.0365 142.273 73.3906 143.352 73.3906 144.711ZM66.8672 144.711C66.8672 145.805 67.0859 146.638 67.5234 147.211C67.9609 147.784 68.6042 148.07 69.4531 148.07C70.3021 148.07 70.9453 147.786 71.3828 147.219C71.8255 146.646 72.0469 145.81 72.0469 144.711C72.0469 143.622 71.8255 142.797 71.3828 142.234C70.9453 141.667 70.2969 141.383 69.4375 141.383C68.5885 141.383 67.9479 141.661 67.5156 142.219C67.0833 142.776 66.8672 143.607 66.8672 144.711ZM76.9688 149H75.6719V136.844H76.9688V149ZM84.9844 149L84.7266 147.781H84.6641C84.237 148.318 83.8099 148.682 83.3828 148.875C82.9609 149.062 82.4323 149.156 81.7969 149.156C80.9479 149.156 80.2812 148.938 79.7969 148.5C79.3177 148.062 79.0781 147.44 79.0781 146.633C79.0781 144.904 80.4609 143.997 83.2266 143.914L84.6797 143.867V143.336C84.6797 142.664 84.5339 142.169 84.2422 141.852C83.9557 141.529 83.4948 141.367 82.8594 141.367C82.1458 141.367 81.3385 141.586 80.4375 142.023L80.0391 141.031C80.4609 140.802 80.9219 140.622 81.4219 140.492C81.9271 140.362 82.4323 140.297 82.9375 140.297C83.9583 140.297 84.7135 140.523 85.2031 140.977C85.6979 141.43 85.9453 142.156 85.9453 143.156V149H84.9844ZM82.0547 148.086C82.862 148.086 83.4948 147.865 83.9531 147.422C84.4167 146.979 84.6484 146.359 84.6484 145.562V144.789L83.3516 144.844C82.3203 144.88 81.5755 145.042 81.1172 145.328C80.6641 145.609 80.4375 146.049 80.4375 146.648C80.4375 147.117 80.5781 147.474 80.8594 147.719C81.1458 147.964 81.5443 148.086 82.0547 148.086ZM92.6094 149.156C92.0521 149.156 91.5417 149.055 91.0781 148.852C90.6198 148.643 90.2344 148.326 89.9219 147.898H89.8281C89.8906 148.398 89.9219 148.872 89.9219 149.32V152.844H88.625V140.438H89.6797L89.8594 141.609H89.9219C90.2552 141.141 90.6432 140.802 91.0859 140.594C91.5286 140.385 92.0365 140.281 92.6094 140.281C93.7448 140.281 94.6198 140.669 95.2344 141.445C95.8542 142.221 96.1641 143.31 96.1641 144.711C96.1641 146.117 95.849 147.211 95.2188 147.992C94.5938 148.768 93.724 149.156 92.6094 149.156ZM92.4219 141.383C91.5469 141.383 90.9141 141.625 90.5234 142.109C90.1328 142.594 89.9323 143.365 89.9219 144.422V144.711C89.9219 145.914 90.1224 146.776 90.5234 147.297C90.9245 147.812 91.5677 148.07 92.4531 148.07C93.1927 148.07 93.7708 147.771 94.1875 147.172C94.6094 146.573 94.8203 145.747 94.8203 144.695C94.8203 143.628 94.6094 142.81 94.1875 142.242C93.7708 141.669 93.1823 141.383 92.4219 141.383ZM103.961 146.664C103.961 147.461 103.664 148.076 103.07 148.508C102.477 148.94 101.643 149.156 100.57 149.156C99.4349 149.156 98.5495 148.977 97.9141 148.617V147.414C98.3255 147.622 98.7656 147.786 99.2344 147.906C99.7083 148.026 100.164 148.086 100.602 148.086C101.279 148.086 101.799 147.979 102.164 147.766C102.529 147.547 102.711 147.216 102.711 146.773C102.711 146.44 102.565 146.156 102.273 145.922C101.987 145.682 101.424 145.401 100.586 145.078C99.7891 144.781 99.2214 144.523 98.8828 144.305C98.5495 144.081 98.2995 143.828 98.1328 143.547C97.9714 143.266 97.8906 142.93 97.8906 142.539C97.8906 141.841 98.1745 141.292 98.7422 140.891C99.3099 140.484 100.089 140.281 101.078 140.281C102 140.281 102.901 140.469 103.781 140.844L103.32 141.898C102.461 141.544 101.682 141.367 100.984 141.367C100.37 141.367 99.9062 141.464 99.5938 141.656C99.2812 141.849 99.125 142.115 99.125 142.453C99.125 142.682 99.1823 142.878 99.2969 143.039C99.4167 143.201 99.6068 143.354 99.8672 143.5C100.128 143.646 100.628 143.857 101.367 144.133C102.383 144.503 103.068 144.875 103.422 145.25C103.781 145.625 103.961 146.096 103.961 146.664ZM111.344 149L111.086 147.781H111.023C110.596 148.318 110.169 148.682 109.742 148.875C109.32 149.062 108.792 149.156 108.156 149.156C107.307 149.156 106.641 148.938 106.156 148.5C105.677 148.062 105.438 147.44 105.438 146.633C105.438 144.904 106.82 143.997 109.586 143.914L111.039 143.867V143.336C111.039 142.664 110.893 142.169 110.602 141.852C110.315 141.529 109.854 141.367 109.219 141.367C108.505 141.367 107.698 141.586 106.797 142.023L106.398 141.031C106.82 140.802 107.281 140.622 107.781 140.492C108.286 140.362 108.792 140.297 109.297 140.297C110.318 140.297 111.073 140.523 111.562 140.977C112.057 141.43 112.305 142.156 112.305 143.156V149H111.344ZM108.414 148.086C109.221 148.086 109.854 147.865 110.312 147.422C110.776 146.979 111.008 146.359 111.008 145.562V144.789L109.711 144.844C108.68 144.88 107.935 145.042 107.477 145.328C107.023 145.609 106.797 146.049 106.797 146.648C106.797 147.117 106.938 147.474 107.219 147.719C107.505 147.964 107.904 148.086 108.414 148.086ZM118.969 140.297C120.094 140.297 120.966 140.682 121.586 141.453C122.211 142.219 122.523 143.305 122.523 144.711C122.523 146.117 122.208 147.211 121.578 147.992C120.953 148.768 120.083 149.156 118.969 149.156C118.411 149.156 117.901 149.055 117.438 148.852C116.979 148.643 116.594 148.326 116.281 147.898H116.188L115.914 149H114.984V136.844H116.281V139.797C116.281 140.458 116.26 141.052 116.219 141.578H116.281C116.885 140.724 117.781 140.297 118.969 140.297ZM118.781 141.383C117.896 141.383 117.258 141.638 116.867 142.148C116.477 142.654 116.281 143.508 116.281 144.711C116.281 145.914 116.482 146.776 116.883 147.297C117.284 147.812 117.927 148.07 118.812 148.07C119.609 148.07 120.203 147.781 120.594 147.203C120.984 146.62 121.18 145.784 121.18 144.695C121.18 143.581 120.984 142.75 120.594 142.203C120.203 141.656 119.599 141.383 118.781 141.383ZM126.094 149H124.797V136.844H126.094V149ZM132.461 149.156C131.195 149.156 130.195 148.771 129.461 148C128.732 147.229 128.367 146.159 128.367 144.789C128.367 143.409 128.706 142.312 129.383 141.5C130.065 140.688 130.979 140.281 132.125 140.281C133.198 140.281 134.047 140.635 134.672 141.344C135.297 142.047 135.609 142.977 135.609 144.133V144.953H129.711C129.737 145.958 129.99 146.721 130.469 147.242C130.953 147.763 131.633 148.023 132.508 148.023C133.43 148.023 134.341 147.831 135.242 147.445V148.602C134.784 148.799 134.349 148.94 133.938 149.023C133.531 149.112 133.039 149.156 132.461 149.156ZM132.109 141.367C131.422 141.367 130.872 141.591 130.461 142.039C130.055 142.487 129.815 143.107 129.742 143.898H134.219C134.219 143.081 134.036 142.456 133.672 142.023C133.307 141.586 132.786 141.367 132.109 141.367ZM137.641 148.172C137.641 147.823 137.719 147.56 137.875 147.383C138.036 147.201 138.266 147.109 138.562 147.109C138.865 147.109 139.099 147.201 139.266 147.383C139.438 147.56 139.523 147.823 139.523 148.172C139.523 148.51 139.438 148.771 139.266 148.953C139.094 149.135 138.859 149.227 138.562 149.227C138.297 149.227 138.076 149.146 137.898 148.984C137.727 148.818 137.641 148.547 137.641 148.172Z" fill="#38485C"/>
<rect x="32" y="18" width="276" height="154" rx="9" stroke="#E6EBF0" stroke-width="2"/>
<defs>
<clipPath id="clip0_2199_83004">
<rect width="24" height="24" fill="white" transform="translate(259 31)"/>
</clipPath>
</defs>
</svg>
