<svg width="340" height="190" viewBox="0 0 340 190" fill="none" xmlns="http://www.w3.org/2000/svg">
<rect width="340" height="190" fill="#F3F6F9"/>
<rect x="42" y="24" width="133" height="34" rx="8" fill="#007BC7"/>
<path d="M52.064 46C51.8613 46 51.696 45.9413 51.568 45.824C51.4507 45.7067 51.392 45.552 51.392 45.36V35.36C51.392 35.168 51.4507 35.0133 51.568 34.896C51.696 34.7787 51.8613 34.72 52.064 34.72H55.184C56.9867 34.72 58.3787 35.2107 59.36 36.192C60.352 37.1627 60.848 38.5493 60.848 40.352C60.848 42.1547 60.352 43.5467 59.36 44.528C58.368 45.5093 56.976 46 55.184 46H52.064ZM55.104 44.88C58.0267 44.88 59.488 43.3707 59.488 40.352C59.488 37.344 58.0267 35.84 55.104 35.84H52.704V44.88H55.104ZM69.0601 44.192C69.1775 44.192 69.2788 44.24 69.3641 44.336C69.4495 44.432 69.4921 44.5547 69.4921 44.704C69.4921 44.9707 69.3055 45.216 68.9321 45.44C68.5481 45.664 68.1428 45.8347 67.7161 45.952C67.2895 46.0587 66.8735 46.112 66.4681 46.112C65.2628 46.112 64.3081 45.7547 63.6041 45.04C62.9108 44.3253 62.5641 43.3387 62.5641 42.08C62.5641 41.28 62.7188 40.576 63.0281 39.968C63.3375 39.3493 63.7695 38.8693 64.3241 38.528C64.8895 38.1867 65.5295 38.016 66.2441 38.016C67.2575 38.016 68.0628 38.3467 68.6601 39.008C69.2575 39.6693 69.5561 40.5653 69.5561 41.696C69.5561 41.9093 69.5135 42.064 69.4281 42.16C69.3428 42.256 69.2041 42.304 69.0121 42.304H63.8601C63.9561 44.1387 64.8255 45.056 66.4681 45.056C66.8841 45.056 67.2415 45.0027 67.5401 44.896C67.8388 44.7787 68.1588 44.624 68.5001 44.432C68.7775 44.272 68.9641 44.192 69.0601 44.192ZM66.2601 39.024C65.5775 39.024 65.0281 39.2373 64.6121 39.664C64.2068 40.0907 63.9668 40.6933 63.8921 41.472H68.4201C68.3988 40.6827 68.2015 40.08 67.8281 39.664C67.4548 39.2373 66.9321 39.024 66.2601 39.024ZM74.0896 46.112C73.599 46.112 73.1296 46.0533 72.6816 45.936C72.2443 45.8187 71.855 45.6533 71.5136 45.44C71.3216 45.312 71.183 45.1947 71.0976 45.088C71.023 44.9707 70.9856 44.832 70.9856 44.672C70.9856 44.5333 71.023 44.4213 71.0976 44.336C71.183 44.24 71.2896 44.192 71.4176 44.192C71.5456 44.192 71.7323 44.272 71.9776 44.432C72.2976 44.624 72.6123 44.7787 72.9216 44.896C73.2416 45.0027 73.6363 45.056 74.1056 45.056C74.6816 45.056 75.1296 44.9547 75.4496 44.752C75.7696 44.5493 75.9296 44.256 75.9296 43.872C75.9296 43.6373 75.871 43.4507 75.7536 43.312C75.6363 43.1627 75.4336 43.0347 75.1456 42.928C74.8576 42.8107 74.4363 42.6933 73.8816 42.576C72.943 42.3733 72.271 42.1013 71.8656 41.76C71.4603 41.4187 71.2576 40.9547 71.2576 40.368C71.2576 39.9093 71.3856 39.504 71.6416 39.152C71.8976 38.8 72.2496 38.5227 72.6976 38.32C73.1563 38.1173 73.6736 38.016 74.2496 38.016C74.6656 38.016 75.0656 38.0747 75.4496 38.192C75.8443 38.2987 76.191 38.4533 76.4896 38.656C76.8523 38.912 77.0336 39.1787 77.0336 39.456C77.0336 39.5947 76.991 39.712 76.9056 39.808C76.8203 39.904 76.719 39.952 76.6016 39.952C76.4736 39.952 76.2816 39.8613 76.0256 39.68C75.727 39.488 75.4443 39.3387 75.1776 39.232C74.911 39.1253 74.5803 39.072 74.1856 39.072C73.6843 39.072 73.279 39.184 72.9696 39.408C72.671 39.632 72.5216 39.9307 72.5216 40.304C72.5216 40.5387 72.575 40.7307 72.6816 40.88C72.799 41.0187 72.9856 41.1467 73.2416 41.264C73.5083 41.3707 73.887 41.4773 74.3776 41.584C75.103 41.744 75.663 41.92 76.0576 42.112C76.463 42.304 76.751 42.5387 76.9216 42.816C77.0923 43.0933 77.1776 43.4453 77.1776 43.872C77.1776 44.544 76.895 45.088 76.3296 45.504C75.7643 45.9093 75.0176 46.112 74.0896 46.112ZM83.0731 38.016C83.7558 38.016 84.3585 38.1867 84.8811 38.528C85.4038 38.8693 85.8091 39.3493 86.0971 39.968C86.3851 40.576 86.5291 41.2853 86.5291 42.096C86.5291 42.9067 86.3851 43.616 86.0971 44.224C85.8091 44.8213 85.4038 45.2853 84.8811 45.616C84.3691 45.9467 83.7665 46.112 83.0731 46.112C82.4651 46.112 81.9318 45.9787 81.4731 45.712C81.0251 45.4453 80.6838 45.0667 80.4491 44.576V48.336C80.4491 48.528 80.3905 48.6773 80.2731 48.784C80.1665 48.9013 80.0118 48.96 79.8091 48.96C79.6065 48.96 79.4465 48.9013 79.3291 48.784C79.2118 48.6667 79.1531 48.5173 79.1531 48.336V38.688C79.1531 38.496 79.2118 38.3413 79.3291 38.224C79.4465 38.1067 79.6065 38.048 79.8091 38.048C80.0118 38.048 80.1665 38.1067 80.2731 38.224C80.3905 38.3413 80.4491 38.496 80.4491 38.688V39.552C80.6838 39.0613 81.0251 38.6827 81.4731 38.416C81.9318 38.1493 82.4651 38.016 83.0731 38.016ZM82.8171 45.04C83.5745 45.04 84.1611 44.784 84.5771 44.272C84.9931 43.76 85.2011 43.0347 85.2011 42.096C85.2011 41.1573 84.9931 40.4267 84.5771 39.904C84.1611 39.3707 83.5745 39.104 82.8171 39.104C82.0598 39.104 81.4731 39.36 81.0571 39.872C80.6518 40.384 80.4491 41.1147 80.4491 42.064C80.4491 43.0133 80.6518 43.7493 81.0571 44.272C81.4731 44.784 82.0598 45.04 82.8171 45.04ZM89.1216 46.08C88.9296 46.08 88.7696 46.0267 88.6416 45.92C88.5243 45.8027 88.4656 45.6427 88.4656 45.44V35.28C88.4656 35.0773 88.5243 34.9227 88.6416 34.816C88.7696 34.6987 88.9296 34.64 89.1216 34.64C89.303 34.64 89.4523 34.6987 89.5696 34.816C89.6976 34.9227 89.7616 35.0773 89.7616 35.28V45.44C89.7616 45.6427 89.6976 45.8027 89.5696 45.92C89.4523 46.0267 89.303 46.08 89.1216 46.08ZM98.2164 44.192C98.3337 44.192 98.435 44.24 98.5204 44.336C98.6057 44.432 98.6484 44.5547 98.6484 44.704C98.6484 44.9707 98.4617 45.216 98.0884 45.44C97.7044 45.664 97.299 45.8347 96.8724 45.952C96.4457 46.0587 96.0297 46.112 95.6244 46.112C94.419 46.112 93.4644 45.7547 92.7604 45.04C92.067 44.3253 91.7204 43.3387 91.7204 42.08C91.7204 41.28 91.875 40.576 92.1844 39.968C92.4937 39.3493 92.9257 38.8693 93.4804 38.528C94.0457 38.1867 94.6857 38.016 95.4004 38.016C96.4137 38.016 97.219 38.3467 97.8164 39.008C98.4137 39.6693 98.7124 40.5653 98.7124 41.696C98.7124 41.9093 98.6697 42.064 98.5844 42.16C98.499 42.256 98.3604 42.304 98.1684 42.304H93.0164C93.1124 44.1387 93.9817 45.056 95.6244 45.056C96.0404 45.056 96.3977 45.0027 96.6964 44.896C96.995 44.7787 97.315 44.624 97.6564 44.432C97.9337 44.272 98.1204 44.192 98.2164 44.192ZM95.4164 39.024C94.7337 39.024 94.1844 39.2373 93.7684 39.664C93.363 40.0907 93.123 40.6933 93.0484 41.472H97.5764C97.555 40.6827 97.3577 40.08 96.9844 39.664C96.611 39.2373 96.0884 39.024 95.4164 39.024ZM106.942 38.048C107.145 38.048 107.305 38.1067 107.422 38.224C107.539 38.3413 107.598 38.496 107.598 38.688V45.472C107.598 46.6347 107.299 47.5093 106.702 48.096C106.105 48.6933 105.219 48.992 104.046 48.992C102.905 48.992 101.955 48.768 101.198 48.32C100.814 48.1067 100.622 47.8613 100.622 47.584C100.622 47.4347 100.659 47.312 100.734 47.216C100.819 47.12 100.926 47.072 101.054 47.072C101.161 47.072 101.353 47.1467 101.63 47.296C102.003 47.488 102.371 47.6427 102.734 47.76C103.097 47.8773 103.529 47.936 104.03 47.936C104.787 47.936 105.358 47.7333 105.742 47.328C106.126 46.9333 106.318 46.352 106.318 45.584V44.208C106.094 44.7093 105.747 45.0933 105.278 45.36C104.819 45.6267 104.275 45.76 103.646 45.76C102.963 45.76 102.355 45.6 101.822 45.28C101.299 44.96 100.889 44.5067 100.59 43.92C100.302 43.3333 100.158 42.656 100.158 41.888C100.158 41.12 100.302 40.4427 100.59 39.856C100.889 39.2693 101.299 38.816 101.822 38.496C102.355 38.176 102.963 38.016 103.646 38.016C104.265 38.016 104.803 38.1493 105.262 38.416C105.721 38.6827 106.067 39.0613 106.302 39.552V38.688C106.302 38.496 106.355 38.3413 106.462 38.224C106.579 38.1067 106.739 38.048 106.942 38.048ZM103.902 44.688C104.649 44.688 105.235 44.4427 105.662 43.952C106.089 43.4507 106.302 42.7627 106.302 41.888C106.302 41.024 106.089 40.3467 105.662 39.856C105.246 39.3547 104.659 39.104 103.902 39.104C103.145 39.104 102.547 39.3547 102.11 39.856C101.683 40.3467 101.47 41.024 101.47 41.888C101.47 42.7627 101.683 43.4507 102.11 43.952C102.547 44.4427 103.145 44.688 103.902 44.688ZM113.181 38.016C115.133 38.016 116.109 39.04 116.109 41.088V45.44C116.109 45.632 116.05 45.7867 115.933 45.904C115.826 46.0213 115.677 46.08 115.485 46.08C115.293 46.08 115.138 46.0213 115.021 45.904C114.904 45.7867 114.845 45.632 114.845 45.44V44.672C114.642 45.1307 114.333 45.488 113.917 45.744C113.501 45.9893 113.021 46.112 112.477 46.112C111.976 46.112 111.512 46.0107 111.085 45.808C110.669 45.6053 110.338 45.3227 110.093 44.96C109.848 44.5973 109.725 44.1973 109.725 43.76C109.725 43.1733 109.874 42.72 110.173 42.4C110.472 42.0693 110.962 41.8347 111.645 41.696C112.328 41.5467 113.277 41.472 114.493 41.472H114.845V40.944C114.845 40.304 114.712 39.8347 114.445 39.536C114.189 39.2373 113.768 39.088 113.181 39.088C112.456 39.088 111.72 39.2853 110.973 39.68C110.685 39.8613 110.482 39.952 110.365 39.952C110.237 39.952 110.13 39.904 110.045 39.808C109.96 39.712 109.917 39.5893 109.917 39.44C109.917 39.2907 109.96 39.1627 110.045 39.056C110.141 38.9387 110.29 38.8213 110.493 38.704C110.866 38.4907 111.288 38.3253 111.757 38.208C112.237 38.08 112.712 38.016 113.181 38.016ZM112.653 45.088C113.293 45.088 113.816 44.8747 114.221 44.448C114.637 44.0107 114.845 43.4507 114.845 42.768V42.304H114.557C113.618 42.304 112.904 42.3467 112.413 42.432C111.922 42.5067 111.57 42.64 111.357 42.832C111.154 43.0133 111.053 43.2853 111.053 43.648C111.053 44.064 111.202 44.4107 111.501 44.688C111.81 44.9547 112.194 45.088 112.653 45.088ZM122.401 38.016C123.084 38.016 123.687 38.1813 124.209 38.512C124.732 38.8427 125.137 39.312 125.425 39.92C125.713 40.528 125.857 41.232 125.857 42.032C125.857 42.8427 125.713 43.5573 125.425 44.176C125.137 44.784 124.732 45.2587 124.209 45.6C123.687 45.9413 123.084 46.112 122.401 46.112C121.793 46.112 121.26 45.9787 120.801 45.712C120.353 45.4453 120.012 45.0667 119.777 44.576V45.44C119.777 45.632 119.719 45.7867 119.601 45.904C119.495 46.0213 119.34 46.08 119.137 46.08C118.935 46.08 118.775 46.0213 118.657 45.904C118.54 45.7867 118.481 45.632 118.481 45.44V35.264C118.481 35.0827 118.54 34.9333 118.657 34.816C118.775 34.6987 118.935 34.64 119.137 34.64C119.34 34.64 119.495 34.6987 119.601 34.816C119.719 34.9227 119.777 35.072 119.777 35.264V39.552C120.012 39.0613 120.353 38.6827 120.801 38.416C121.26 38.1493 121.793 38.016 122.401 38.016ZM122.145 45.04C122.903 45.04 123.489 44.7787 123.905 44.256C124.321 43.7227 124.529 42.9813 124.529 42.032C124.529 41.104 124.321 40.384 123.905 39.872C123.489 39.36 122.903 39.104 122.145 39.104C121.388 39.104 120.801 39.36 120.385 39.872C119.98 40.384 119.777 41.1147 119.777 42.064C119.777 43.0133 119.98 43.7493 120.385 44.272C120.801 44.784 121.388 45.04 122.145 45.04ZM128.45 46.08C128.258 46.08 128.098 46.0267 127.97 45.92C127.852 45.8027 127.794 45.6427 127.794 45.44V35.28C127.794 35.0773 127.852 34.9227 127.97 34.816C128.098 34.6987 128.258 34.64 128.45 34.64C128.631 34.64 128.78 34.6987 128.898 34.816C129.026 34.9227 129.09 35.0773 129.09 35.28V45.44C129.09 45.6427 129.026 45.8027 128.898 45.92C128.78 46.0267 128.631 46.08 128.45 46.08ZM137.545 44.192C137.662 44.192 137.763 44.24 137.849 44.336C137.934 44.432 137.977 44.5547 137.977 44.704C137.977 44.9707 137.79 45.216 137.417 45.44C137.033 45.664 136.627 45.8347 136.201 45.952C135.774 46.0587 135.358 46.112 134.953 46.112C133.747 46.112 132.793 45.7547 132.089 45.04C131.395 44.3253 131.049 43.3387 131.049 42.08C131.049 41.28 131.203 40.576 131.513 39.968C131.822 39.3493 132.254 38.8693 132.809 38.528C133.374 38.1867 134.014 38.016 134.729 38.016C135.742 38.016 136.547 38.3467 137.145 39.008C137.742 39.6693 138.041 40.5653 138.041 41.696C138.041 41.9093 137.998 42.064 137.913 42.16C137.827 42.256 137.689 42.304 137.497 42.304H132.345C132.441 44.1387 133.31 45.056 134.953 45.056C135.369 45.056 135.726 45.0027 136.025 44.896C136.323 44.7787 136.643 44.624 136.985 44.432C137.262 44.272 137.449 44.192 137.545 44.192ZM134.745 39.024C134.062 39.024 133.513 39.2373 133.097 39.664C132.691 40.0907 132.451 40.6933 132.377 41.472H136.905C136.883 40.6827 136.686 40.08 136.313 39.664C135.939 39.2373 135.417 39.024 134.745 39.024Z" fill="white"/>
<g clip-path="url(#clip0_2199_82912)">
<path d="M151.12 38.2886L155 42.1686L158.88 38.2886C159.27 37.8986 159.9 37.8986 160.29 38.2886C160.68 38.6786 160.68 39.3086 160.29 39.6986L155.7 44.2886C155.31 44.6786 154.68 44.6786 154.29 44.2886L149.7 39.6986C149.31 39.3086 149.31 38.6786 149.7 38.2886C150.09 37.9086 150.73 37.8986 151.12 38.2886Z" fill="white"/>
</g>
<rect x="41.5" y="65.5" width="259" height="105" rx="8.5" fill="white"/>
<path d="M42 74C42 69.5817 45.5817 66 50 66H282C286.418 66 290 69.5817 290 74V108C290 112.418 286.418 116 282 116H50C45.5817 116 42 112.418 42 108V74Z" fill="white"/>
<g clip-path="url(#clip1_2199_82912)">
<path d="M72 98H60C59.45 98 59 97.55 59 97V85C59 84.45 59.45 84 60 84H72C72.55 84 73 84.45 73 85V97C73 97.55 72.55 98 72 98ZM73 82H59C57.9 82 57 82.9 57 84V98C57 99.1 57.9 100 59 100H73C74.1 100 75 99.1 75 98V84C75 82.9 74.1 82 73 82Z" fill="#38485C"/>
</g>
<path d="M101.469 91.2734C101.469 92.1536 101.357 92.9557 101.133 93.6797C100.909 94.3984 100.576 95.0182 100.133 95.5391C99.6953 96.0547 99.151 96.4531 98.5 96.7344C97.849 97.0156 97.0938 97.1562 96.2344 97.1562C95.349 97.1562 94.5755 97.0156 93.9141 96.7344C93.2578 96.4531 92.7109 96.0521 92.2734 95.5312C91.8411 95.0104 91.5156 94.388 91.2969 93.6641C91.0833 92.9401 90.9766 92.138 90.9766 91.2578C90.9766 90.0911 91.1693 89.0677 91.5547 88.1875C91.9401 87.3073 92.5234 86.6224 93.3047 86.1328C94.0911 85.6432 95.0755 85.3984 96.2578 85.3984C97.388 85.3984 98.3385 85.6406 99.1094 86.125C99.8854 86.6094 100.471 87.2917 100.867 88.1719C101.268 89.0469 101.469 90.0807 101.469 91.2734ZM92.375 91.2734C92.375 92.2422 92.513 93.0807 92.7891 93.7891C93.0651 94.4974 93.487 95.0443 94.0547 95.4297C94.6276 95.8151 95.3542 96.0078 96.2344 96.0078C97.1198 96.0078 97.8438 95.8151 98.4062 95.4297C98.974 95.0443 99.3932 94.4974 99.6641 93.7891C99.9349 93.0807 100.07 92.2422 100.07 91.2734C100.07 89.7995 99.7604 88.6484 99.1406 87.8203C98.526 86.987 97.5651 86.5703 96.2578 86.5703C95.3724 86.5703 94.6432 86.7604 94.0703 87.1406C93.4974 87.5208 93.0703 88.0625 92.7891 88.7656C92.513 89.4635 92.375 90.2995 92.375 91.2734ZM107.684 88.2812C108.751 88.2812 109.603 88.6484 110.238 89.3828C110.874 90.1172 111.192 91.2214 111.192 92.6953C111.192 93.6693 111.046 94.487 110.754 95.1484C110.462 95.8099 110.051 96.3099 109.52 96.6484C108.994 96.987 108.371 97.1562 107.653 97.1562C107.199 97.1562 106.801 97.0964 106.457 96.9766C106.113 96.8568 105.819 96.6953 105.574 96.4922C105.33 96.2891 105.126 96.0677 104.965 95.8281H104.871C104.887 96.0312 104.905 96.276 104.926 96.5625C104.952 96.849 104.965 97.099 104.965 97.3125V100.828H103.66V88.4375H104.731L104.903 89.7031H104.965C105.132 89.4427 105.335 89.2057 105.574 88.9922C105.814 88.7734 106.106 88.6016 106.449 88.4766C106.798 88.3464 107.21 88.2812 107.684 88.2812ZM107.457 89.375C106.863 89.375 106.384 89.4896 106.02 89.7188C105.66 89.9479 105.397 90.2917 105.231 90.75C105.064 91.2031 104.975 91.7734 104.965 92.4609V92.7109C104.965 93.4349 105.043 94.0469 105.199 94.5469C105.361 95.0469 105.624 95.4271 105.988 95.6875C106.358 95.9479 106.853 96.0781 107.473 96.0781C108.004 96.0781 108.447 95.9349 108.801 95.6484C109.155 95.362 109.418 94.9635 109.59 94.4531C109.767 93.9375 109.856 93.3464 109.856 92.6797C109.856 91.6693 109.658 90.8672 109.262 90.2734C108.871 89.6745 108.27 89.375 107.457 89.375ZM116.727 97.1562C115.956 97.1562 115.276 96.9974 114.688 96.6797C114.099 96.362 113.641 95.8776 113.313 95.2266C112.985 94.5755 112.821 93.7552 112.821 92.7656C112.821 91.7292 112.993 90.8828 113.336 90.2266C113.685 89.5651 114.164 89.0755 114.774 88.7578C115.383 88.4401 116.076 88.2812 116.852 88.2812C117.279 88.2812 117.69 88.3255 118.086 88.4141C118.487 88.4974 118.815 88.6042 119.071 88.7344L118.68 89.8203C118.42 89.7161 118.118 89.6224 117.774 89.5391C117.435 89.4557 117.118 89.4141 116.821 89.4141C116.227 89.4141 115.732 89.5417 115.336 89.7969C114.946 90.0521 114.651 90.4271 114.453 90.9219C114.261 91.4167 114.164 92.026 114.164 92.75C114.164 93.4427 114.258 94.0339 114.446 94.5234C114.638 95.013 114.922 95.388 115.297 95.6484C115.677 95.9036 116.151 96.0312 116.719 96.0312C117.172 96.0312 117.581 95.9844 117.946 95.8906C118.31 95.7917 118.641 95.6771 118.938 95.5469V96.7031C118.651 96.849 118.331 96.9609 117.977 97.0391C117.628 97.1172 117.211 97.1562 116.727 97.1562ZM122.106 88.4375V97H120.809V88.4375H122.106ZM121.473 85.2344C121.687 85.2344 121.869 85.3047 122.02 85.4453C122.176 85.5807 122.254 85.7943 122.254 86.0859C122.254 86.3724 122.176 86.5859 122.02 86.7266C121.869 86.8672 121.687 86.9375 121.473 86.9375C121.249 86.9375 121.062 86.8672 120.911 86.7266C120.765 86.5859 120.692 86.3724 120.692 86.0859C120.692 85.7943 120.765 85.5807 120.911 85.4453C121.062 85.3047 121.249 85.2344 121.473 85.2344ZM132.079 92.7031C132.079 93.4062 131.988 94.0339 131.805 94.5859C131.623 95.138 131.36 95.6042 131.016 95.9844C130.673 96.3646 130.256 96.6562 129.766 96.8594C129.282 97.0573 128.732 97.1562 128.118 97.1562C127.545 97.1562 127.019 97.0573 126.54 96.8594C126.066 96.6562 125.654 96.3646 125.305 95.9844C124.962 95.6042 124.693 95.138 124.501 94.5859C124.313 94.0339 124.219 93.4062 124.219 92.7031C124.219 91.7656 124.378 90.9688 124.696 90.3125C125.014 89.651 125.467 89.1484 126.055 88.8047C126.649 88.4557 127.355 88.2812 128.173 88.2812C128.954 88.2812 129.636 88.4557 130.219 88.8047C130.808 89.1536 131.264 89.6589 131.587 90.3203C131.915 90.9766 132.079 91.7708 132.079 92.7031ZM125.563 92.7031C125.563 93.3906 125.654 93.987 125.837 94.4922C126.019 94.9974 126.3 95.388 126.68 95.6641C127.061 95.9401 127.55 96.0781 128.149 96.0781C128.743 96.0781 129.23 95.9401 129.61 95.6641C129.995 95.388 130.279 94.9974 130.462 94.4922C130.644 93.987 130.735 93.3906 130.735 92.7031C130.735 92.0208 130.644 91.4323 130.462 90.9375C130.279 90.4375 129.998 90.0521 129.618 89.7812C129.238 89.5104 128.745 89.375 128.141 89.375C127.251 89.375 126.597 89.6693 126.18 90.2578C125.769 90.8464 125.563 91.6615 125.563 92.7031ZM130.415 84.7422V84.8984C130.311 85.0495 130.167 85.2318 129.985 85.4453C129.808 85.6536 129.61 85.875 129.391 86.1094C129.173 86.3385 128.951 86.5573 128.727 86.7656C128.508 86.974 128.305 87.1536 128.118 87.3047H127.251V87.1172C127.417 86.9193 127.6 86.6823 127.798 86.4062C127.995 86.125 128.188 85.8385 128.376 85.5469C128.563 85.25 128.719 84.9818 128.844 84.7422H130.415ZM138.216 88.2812C139.231 88.2812 139.999 88.5312 140.52 89.0312C141.041 89.526 141.302 90.3229 141.302 91.4219V97H140.02V91.5078C140.02 90.7943 139.856 90.2604 139.528 89.9062C139.205 89.5521 138.708 89.375 138.036 89.375C137.088 89.375 136.421 89.6432 136.036 90.1797C135.651 90.7161 135.458 91.4948 135.458 92.5156V97H134.161V88.4375H135.208L135.403 89.6719H135.473C135.656 89.3698 135.888 89.1172 136.169 88.9141C136.45 88.7057 136.765 88.5495 137.114 88.4453C137.463 88.3359 137.83 88.2812 138.216 88.2812ZM151.239 97.1562C150.469 97.1562 149.789 96.9974 149.2 96.6797C148.612 96.362 148.153 95.8776 147.825 95.2266C147.497 94.5755 147.333 93.7552 147.333 92.7656C147.333 91.7292 147.505 90.8828 147.849 90.2266C148.198 89.5651 148.677 89.0755 149.286 88.7578C149.896 88.4401 150.588 88.2812 151.364 88.2812C151.791 88.2812 152.203 88.3255 152.599 88.4141C153 88.4974 153.328 88.6042 153.583 88.7344L153.193 89.8203C152.932 89.7161 152.63 89.6224 152.286 89.5391C151.948 89.4557 151.63 89.4141 151.333 89.4141C150.739 89.4141 150.245 89.5417 149.849 89.7969C149.458 90.0521 149.164 90.4271 148.966 90.9219C148.773 91.4167 148.677 92.026 148.677 92.75C148.677 93.4427 148.771 94.0339 148.958 94.5234C149.151 95.013 149.435 95.388 149.81 95.6484C150.19 95.9036 150.664 96.0312 151.232 96.0312C151.685 96.0312 152.094 95.9844 152.458 95.8906C152.823 95.7917 153.153 95.6771 153.45 95.5469V96.7031C153.164 96.849 152.844 96.9609 152.489 97.0391C152.14 97.1172 151.724 97.1562 151.239 97.1562ZM158.525 88.2969C159.546 88.2969 160.303 88.526 160.798 88.9844C161.293 89.4427 161.54 90.1745 161.54 91.1797V97H160.595L160.345 95.7344H160.283C160.043 96.0469 159.793 96.3099 159.533 96.5234C159.272 96.7318 158.97 96.8906 158.626 97C158.288 97.1042 157.871 97.1562 157.376 97.1562C156.855 97.1562 156.392 97.0651 155.986 96.8828C155.585 96.7005 155.267 96.4245 155.033 96.0547C154.803 95.6849 154.689 95.2161 154.689 94.6484C154.689 93.7943 155.027 93.138 155.704 92.6797C156.381 92.2214 157.413 91.9714 158.798 91.9297L160.275 91.8672V91.3438C160.275 90.6042 160.116 90.0859 159.798 89.7891C159.48 89.4922 159.033 89.3438 158.454 89.3438C158.006 89.3438 157.579 89.4089 157.173 89.5391C156.767 89.6693 156.381 89.8229 156.017 90L155.618 89.0156C156.004 88.8177 156.447 88.6484 156.947 88.5078C157.447 88.3672 157.973 88.2969 158.525 88.2969ZM160.259 92.7812L158.954 92.8359C157.887 92.8776 157.134 93.0521 156.697 93.3594C156.259 93.6667 156.04 94.1016 156.04 94.6641C156.04 95.1536 156.189 95.5156 156.486 95.75C156.783 95.9844 157.176 96.1016 157.665 96.1016C158.426 96.1016 159.048 95.8906 159.533 95.4688C160.017 95.0469 160.259 94.4141 160.259 93.5703V92.7812ZM163.021 100.844C162.755 100.844 162.524 100.823 162.326 100.781C162.128 100.745 161.956 100.701 161.81 100.648V99.5938C161.971 99.6458 162.136 99.6849 162.302 99.7109C162.469 99.7422 162.656 99.7578 162.865 99.7578C163.219 99.7578 163.505 99.6589 163.724 99.4609C163.943 99.263 164.052 98.9036 164.052 98.3828V88.4375H165.349V98.3516C165.349 98.8724 165.266 99.3177 165.099 99.6875C164.932 100.062 164.677 100.349 164.333 100.547C163.99 100.745 163.552 100.844 163.021 100.844ZM163.935 86.0859C163.935 85.7943 164.008 85.5807 164.154 85.4453C164.305 85.3047 164.492 85.2344 164.716 85.2344C164.93 85.2344 165.112 85.3047 165.263 85.4453C165.419 85.5807 165.497 85.7943 165.497 86.0859C165.497 86.3724 165.419 86.5859 165.263 86.7266C165.112 86.8672 164.93 86.9375 164.716 86.9375C164.492 86.9375 164.305 86.8672 164.154 86.7266C164.008 86.5859 163.935 86.3724 163.935 86.0859ZM171.142 88.2969C172.163 88.2969 172.921 88.526 173.416 88.9844C173.91 89.4427 174.158 90.1745 174.158 91.1797V97H173.213L172.963 95.7344H172.9C172.66 96.0469 172.41 96.3099 172.15 96.5234C171.89 96.7318 171.588 96.8906 171.244 97C170.905 97.1042 170.489 97.1562 169.994 97.1562C169.473 97.1562 169.009 97.0651 168.603 96.8828C168.202 96.7005 167.884 96.4245 167.65 96.0547C167.421 95.6849 167.306 95.2161 167.306 94.6484C167.306 93.7943 167.645 93.138 168.322 92.6797C168.999 92.2214 170.03 91.9714 171.416 91.9297L172.892 91.8672V91.3438C172.892 90.6042 172.733 90.0859 172.416 89.7891C172.098 89.4922 171.65 89.3438 171.072 89.3438C170.624 89.3438 170.197 89.4089 169.791 89.5391C169.384 89.6693 168.999 89.8229 168.634 90L168.236 89.0156C168.621 88.8177 169.064 88.6484 169.564 88.5078C170.064 88.3672 170.59 88.2969 171.142 88.2969ZM172.877 92.7812L171.572 92.8359C170.504 92.8776 169.752 93.0521 169.314 93.3594C168.877 93.6667 168.658 94.1016 168.658 94.6641C168.658 95.1536 168.806 95.5156 169.103 95.75C169.4 95.9844 169.793 96.1016 170.283 96.1016C171.043 96.1016 171.666 95.8906 172.15 95.4688C172.634 95.0469 172.877 94.4141 172.877 93.5703V92.7812ZM186.205 94.6562C186.205 95.2031 186.067 95.6641 185.791 96.0391C185.52 96.4089 185.129 96.6875 184.619 96.875C184.114 97.0625 183.51 97.1562 182.807 97.1562C182.208 97.1562 181.689 97.1094 181.252 97.0156C180.814 96.9219 180.432 96.7891 180.103 96.6172V95.4219C180.452 95.5938 180.869 95.75 181.353 95.8906C181.838 96.0312 182.333 96.1016 182.838 96.1016C183.577 96.1016 184.114 95.9818 184.447 95.7422C184.781 95.5026 184.947 95.1771 184.947 94.7656C184.947 94.5312 184.879 94.3255 184.744 94.1484C184.614 93.9661 184.393 93.7917 184.08 93.625C183.768 93.4531 183.335 93.2656 182.783 93.0625C182.236 92.8542 181.762 92.6484 181.361 92.4453C180.965 92.237 180.658 91.9844 180.439 91.6875C180.226 91.3906 180.119 91.0052 180.119 90.5312C180.119 89.8073 180.411 89.2526 180.994 88.8672C181.583 88.4766 182.353 88.2812 183.307 88.2812C183.822 88.2812 184.304 88.3333 184.752 88.4375C185.205 88.5365 185.627 88.6719 186.018 88.8438L185.58 89.8828C185.226 89.7318 184.848 89.6042 184.447 89.5C184.046 89.3958 183.637 89.3438 183.221 89.3438C182.622 89.3438 182.161 89.4427 181.838 89.6406C181.52 89.8385 181.361 90.1094 181.361 90.4531C181.361 90.7188 181.434 90.9375 181.58 91.1094C181.731 91.2812 181.971 91.4427 182.299 91.5938C182.627 91.7448 183.059 91.9219 183.596 92.125C184.132 92.3229 184.596 92.5286 184.986 92.7422C185.377 92.9505 185.676 93.2057 185.885 93.5078C186.098 93.8047 186.205 94.1875 186.205 94.6562ZM191.428 88.2812C192.157 88.2812 192.782 88.4427 193.303 88.7656C193.824 89.0885 194.222 89.5417 194.498 90.125C194.774 90.7031 194.912 91.3802 194.912 92.1562V92.9609H188.998C189.014 93.9661 189.264 94.7318 189.748 95.2578C190.232 95.7839 190.915 96.0469 191.795 96.0469C192.337 96.0469 192.816 95.9974 193.232 95.8984C193.649 95.7995 194.081 95.6536 194.529 95.4609V96.6016C194.097 96.7943 193.667 96.9349 193.24 97.0234C192.818 97.112 192.318 97.1562 191.74 97.1562C190.917 97.1562 190.199 96.9896 189.584 96.6562C188.975 96.3177 188.501 95.8229 188.162 95.1719C187.824 94.5208 187.654 93.724 187.654 92.7812C187.654 91.8594 187.808 91.0625 188.115 90.3906C188.428 89.7135 188.865 89.1927 189.428 88.8281C189.996 88.4635 190.662 88.2812 191.428 88.2812ZM191.412 89.3438C190.719 89.3438 190.167 89.5703 189.756 90.0234C189.344 90.4766 189.1 91.1094 189.022 91.9219H193.553C193.548 91.4115 193.467 90.9635 193.311 90.5781C193.16 90.1875 192.928 89.8854 192.615 89.6719C192.303 89.4531 191.902 89.3438 191.412 89.3438ZM198.26 97H196.955V84.8438H198.26V97ZM204.139 88.2812C204.868 88.2812 205.493 88.4427 206.014 88.7656C206.535 89.0885 206.933 89.5417 207.209 90.125C207.485 90.7031 207.623 91.3802 207.623 92.1562V92.9609H201.709C201.725 93.9661 201.975 94.7318 202.459 95.2578C202.944 95.7839 203.626 96.0469 204.506 96.0469C205.048 96.0469 205.527 95.9974 205.944 95.8984C206.36 95.7995 206.793 95.6536 207.241 95.4609V96.6016C206.808 96.7943 206.379 96.9349 205.952 97.0234C205.53 97.112 205.03 97.1562 204.452 97.1562C203.629 97.1562 202.91 96.9896 202.295 96.6562C201.686 96.3177 201.212 95.8229 200.873 95.1719C200.535 94.5208 200.366 93.724 200.366 92.7812C200.366 91.8594 200.519 91.0625 200.827 90.3906C201.139 89.7135 201.577 89.1927 202.139 88.8281C202.707 88.4635 203.373 88.2812 204.139 88.2812ZM204.123 89.3438C203.431 89.3438 202.879 89.5703 202.467 90.0234C202.056 90.4766 201.811 91.1094 201.733 91.9219H206.264C206.259 91.4115 206.178 90.9635 206.022 90.5781C205.871 90.1875 205.639 89.8854 205.327 89.6719C205.014 89.4531 204.613 89.3438 204.123 89.3438ZM213.096 97.1562C212.325 97.1562 211.646 96.9974 211.057 96.6797C210.469 96.362 210.01 95.8776 209.682 95.2266C209.354 94.5755 209.19 93.7552 209.19 92.7656C209.19 91.7292 209.362 90.8828 209.706 90.2266C210.055 89.5651 210.534 89.0755 211.143 88.7578C211.753 88.4401 212.445 88.2812 213.221 88.2812C213.648 88.2812 214.06 88.3255 214.456 88.4141C214.857 88.4974 215.185 88.6042 215.44 88.7344L215.049 89.8203C214.789 89.7161 214.487 89.6224 214.143 89.5391C213.805 89.4557 213.487 89.4141 213.19 89.4141C212.596 89.4141 212.101 89.5417 211.706 89.7969C211.315 90.0521 211.021 90.4271 210.823 90.9219C210.63 91.4167 210.534 92.026 210.534 92.75C210.534 93.4427 210.628 94.0339 210.815 94.5234C211.008 95.013 211.292 95.388 211.667 95.6484C212.047 95.9036 212.521 96.0312 213.088 96.0312C213.542 96.0312 213.95 95.9844 214.315 95.8906C214.68 95.7917 215.01 95.6771 215.307 95.5469V96.7031C215.021 96.849 214.7 96.9609 214.346 97.0391C213.997 97.1172 213.581 97.1562 213.096 97.1562ZM220.608 97.1562C219.837 97.1562 219.158 96.9974 218.569 96.6797C217.981 96.362 217.522 95.8776 217.194 95.2266C216.866 94.5755 216.702 93.7552 216.702 92.7656C216.702 91.7292 216.874 90.8828 217.217 90.2266C217.566 89.5651 218.046 89.0755 218.655 88.7578C219.264 88.4401 219.957 88.2812 220.733 88.2812C221.16 88.2812 221.572 88.3255 221.967 88.4141C222.369 88.4974 222.697 88.6042 222.952 88.7344L222.561 89.8203C222.301 89.7161 221.999 89.6224 221.655 89.5391C221.316 89.4557 220.999 89.4141 220.702 89.4141C220.108 89.4141 219.613 89.5417 219.217 89.7969C218.827 90.0521 218.533 90.4271 218.335 90.9219C218.142 91.4167 218.046 92.026 218.046 92.75C218.046 93.4427 218.139 94.0339 218.327 94.5234C218.52 95.013 218.803 95.388 219.178 95.6484C219.559 95.9036 220.033 96.0312 220.6 96.0312C221.053 96.0312 221.462 95.9844 221.827 95.8906C222.191 95.7917 222.522 95.6771 222.819 95.5469V96.7031C222.533 96.849 222.212 96.9609 221.858 97.0391C221.509 97.1172 221.092 97.1562 220.608 97.1562ZM225.987 88.4375V97H224.69V88.4375H225.987ZM225.354 85.2344C225.568 85.2344 225.75 85.3047 225.901 85.4453C226.057 85.5807 226.136 85.7943 226.136 86.0859C226.136 86.3724 226.057 86.5859 225.901 86.7266C225.75 86.8672 225.568 86.9375 225.354 86.9375C225.13 86.9375 224.943 86.8672 224.792 86.7266C224.646 86.5859 224.573 86.3724 224.573 86.0859C224.573 85.7943 224.646 85.5807 224.792 85.4453C224.943 85.3047 225.13 85.2344 225.354 85.2344ZM235.96 92.7031C235.96 93.4062 235.869 94.0339 235.687 94.5859C235.504 95.138 235.241 95.6042 234.898 95.9844C234.554 96.3646 234.137 96.6562 233.648 96.8594C233.163 97.0573 232.614 97.1562 231.999 97.1562C231.426 97.1562 230.9 97.0573 230.421 96.8594C229.947 96.6562 229.536 96.3646 229.187 95.9844C228.843 95.6042 228.575 95.138 228.382 94.5859C228.194 94.0339 228.101 93.4062 228.101 92.7031C228.101 91.7656 228.259 90.9688 228.577 90.3125C228.895 89.651 229.348 89.1484 229.937 88.8047C230.53 88.4557 231.236 88.2812 232.054 88.2812C232.835 88.2812 233.517 88.4557 234.101 88.8047C234.689 89.1536 235.145 89.6589 235.468 90.3203C235.796 90.9766 235.96 91.7708 235.96 92.7031ZM229.444 92.7031C229.444 93.3906 229.536 93.987 229.718 94.4922C229.9 94.9974 230.181 95.388 230.562 95.6641C230.942 95.9401 231.431 96.0781 232.03 96.0781C232.624 96.0781 233.111 95.9401 233.491 95.6641C233.877 95.388 234.161 94.9974 234.343 94.4922C234.525 93.987 234.616 93.3906 234.616 92.7031C234.616 92.0208 234.525 91.4323 234.343 90.9375C234.161 90.4375 233.879 90.0521 233.499 89.7812C233.119 89.5104 232.627 89.375 232.023 89.375C231.132 89.375 230.478 89.6693 230.062 90.2578C229.65 90.8464 229.444 91.6615 229.444 92.7031ZM242.097 88.2812C243.113 88.2812 243.881 88.5312 244.402 89.0312C244.922 89.526 245.183 90.3229 245.183 91.4219V97H243.902V91.5078C243.902 90.7943 243.738 90.2604 243.409 89.9062C243.086 89.5521 242.589 89.375 241.917 89.375C240.969 89.375 240.303 89.6432 239.917 90.1797C239.532 90.7161 239.339 91.4948 239.339 92.5156V97H238.042V88.4375H239.089L239.284 89.6719H239.355C239.537 89.3698 239.769 89.1172 240.05 88.9141C240.331 88.7057 240.646 88.5495 240.995 88.4453C241.344 88.3359 241.711 88.2812 242.097 88.2812ZM250.898 88.2969C251.919 88.2969 252.676 88.526 253.171 88.9844C253.666 89.4427 253.913 90.1745 253.913 91.1797V97H252.968L252.718 95.7344H252.656C252.416 96.0469 252.166 96.3099 251.906 96.5234C251.645 96.7318 251.343 96.8906 250.999 97C250.661 97.1042 250.244 97.1562 249.749 97.1562C249.229 97.1562 248.765 97.0651 248.359 96.8828C247.958 96.7005 247.64 96.4245 247.406 96.0547C247.176 95.6849 247.062 95.2161 247.062 94.6484C247.062 93.7943 247.4 93.138 248.077 92.6797C248.755 92.2214 249.786 91.9714 251.171 91.9297L252.648 91.8672V91.3438C252.648 90.6042 252.489 90.0859 252.171 89.7891C251.854 89.4922 251.406 89.3438 250.827 89.3438C250.38 89.3438 249.952 89.4089 249.546 89.5391C249.14 89.6693 248.755 89.8229 248.39 90L247.992 89.0156C248.377 88.8177 248.82 88.6484 249.32 88.5078C249.82 88.3672 250.346 88.2969 250.898 88.2969ZM252.632 92.7812L251.327 92.8359C250.26 92.8776 249.507 93.0521 249.07 93.3594C248.632 93.6667 248.413 94.1016 248.413 94.6641C248.413 95.1536 248.562 95.5156 248.859 95.75C249.156 95.9844 249.549 96.1016 250.038 96.1016C250.799 96.1016 251.421 95.8906 251.906 95.4688C252.39 95.0469 252.632 94.4141 252.632 93.5703V92.7812ZM257.722 84.8438V87.8828C257.722 88.2318 257.712 88.5703 257.691 88.8984C257.675 89.2266 257.662 89.4818 257.652 89.6641H257.722C257.957 89.2786 258.295 88.9531 258.738 88.6875C259.181 88.4219 259.746 88.2891 260.433 88.2891C261.506 88.2891 262.36 88.6615 262.996 89.4062C263.636 90.1458 263.957 91.2474 263.957 92.7109C263.957 93.6745 263.811 94.487 263.519 95.1484C263.227 95.8099 262.816 96.3099 262.285 96.6484C261.753 96.987 261.126 97.1562 260.402 97.1562C259.725 97.1562 259.167 97.0312 258.73 96.7812C258.298 96.526 257.964 96.2161 257.73 95.8516H257.628L257.363 97H256.425V84.8438H257.722ZM260.222 89.375C259.602 89.375 259.11 89.4974 258.746 89.7422C258.381 89.9818 258.118 90.3464 257.957 90.8359C257.8 91.3203 257.722 91.9349 257.722 92.6797V92.75C257.722 93.8281 257.902 94.6536 258.261 95.2266C258.621 95.7943 259.274 96.0781 260.222 96.0781C261.019 96.0781 261.615 95.7865 262.011 95.2031C262.412 94.6198 262.613 93.7865 262.613 92.7031C262.613 91.599 262.415 90.7682 262.019 90.2109C261.628 89.6536 261.029 89.375 260.222 89.375ZM267.367 97H266.062V84.8438H267.367V97ZM273.246 88.2812C273.975 88.2812 274.6 88.4427 275.121 88.7656C275.642 89.0885 276.04 89.5417 276.316 90.125C276.592 90.7031 276.73 91.3802 276.73 92.1562V92.9609H270.816C270.832 93.9661 271.082 94.7318 271.566 95.2578C272.051 95.7839 272.733 96.0469 273.613 96.0469C274.155 96.0469 274.634 95.9974 275.051 95.8984C275.467 95.7995 275.9 95.6536 276.348 95.4609V96.6016C275.915 96.7943 275.486 96.9349 275.058 97.0234C274.637 97.112 274.137 97.1562 273.558 97.1562C272.736 97.1562 272.017 96.9896 271.402 96.6562C270.793 96.3177 270.319 95.8229 269.98 95.1719C269.642 94.5208 269.473 93.724 269.473 92.7812C269.473 91.8594 269.626 91.0625 269.933 90.3906C270.246 89.7135 270.683 89.1927 271.246 88.8281C271.814 88.4635 272.48 88.2812 273.246 88.2812ZM273.23 89.3438C272.538 89.3438 271.986 89.5703 271.574 90.0234C271.163 90.4766 270.918 91.1094 270.84 91.9219H275.371C275.366 91.4115 275.285 90.9635 275.129 90.5781C274.978 90.1875 274.746 89.8854 274.433 89.6719C274.121 89.4531 273.72 89.3438 273.23 89.3438Z" fill="#38485C"/>
<path d="M42 128C42 123.582 45.5817 120 50 120H282C286.418 120 290 123.582 290 128V162C290 166.418 286.418 170 282 170H50C45.5817 170 42 166.418 42 162V128Z" fill="white"/>
<g clip-path="url(#clip2_2199_82912)">
<path d="M72 152H60C59.45 152 59 151.55 59 151V139C59 138.45 59.45 138 60 138H72C72.55 138 73 138.45 73 139V151C73 151.55 72.55 152 72 152ZM73 136H59C57.9 136 57 136.9 57 138V152C57 153.1 57.9 154 59 154H73C74.1 154 75 153.1 75 152V138C75 136.9 74.1 136 73 136Z" fill="#38485C"/>
</g>
<path d="M101.469 145.273C101.469 146.154 101.357 146.956 101.133 147.68C100.909 148.398 100.576 149.018 100.133 149.539C99.6953 150.055 99.151 150.453 98.5 150.734C97.849 151.016 97.0938 151.156 96.2344 151.156C95.349 151.156 94.5755 151.016 93.9141 150.734C93.2578 150.453 92.7109 150.052 92.2734 149.531C91.8411 149.01 91.5156 148.388 91.2969 147.664C91.0833 146.94 90.9766 146.138 90.9766 145.258C90.9766 144.091 91.1693 143.068 91.5547 142.188C91.9401 141.307 92.5234 140.622 93.3047 140.133C94.0911 139.643 95.0755 139.398 96.2578 139.398C97.388 139.398 98.3385 139.641 99.1094 140.125C99.8854 140.609 100.471 141.292 100.867 142.172C101.268 143.047 101.469 144.081 101.469 145.273ZM92.375 145.273C92.375 146.242 92.513 147.081 92.7891 147.789C93.0651 148.497 93.487 149.044 94.0547 149.43C94.6276 149.815 95.3542 150.008 96.2344 150.008C97.1198 150.008 97.8438 149.815 98.4062 149.43C98.974 149.044 99.3932 148.497 99.6641 147.789C99.9349 147.081 100.07 146.242 100.07 145.273C100.07 143.799 99.7604 142.648 99.1406 141.82C98.526 140.987 97.5651 140.57 96.2578 140.57C95.3724 140.57 94.6432 140.76 94.0703 141.141C93.4974 141.521 93.0703 142.062 92.7891 142.766C92.513 143.464 92.375 144.299 92.375 145.273ZM107.684 142.281C108.751 142.281 109.603 142.648 110.238 143.383C110.874 144.117 111.192 145.221 111.192 146.695C111.192 147.669 111.046 148.487 110.754 149.148C110.462 149.81 110.051 150.31 109.52 150.648C108.994 150.987 108.371 151.156 107.653 151.156C107.199 151.156 106.801 151.096 106.457 150.977C106.113 150.857 105.819 150.695 105.574 150.492C105.33 150.289 105.126 150.068 104.965 149.828H104.871C104.887 150.031 104.905 150.276 104.926 150.562C104.952 150.849 104.965 151.099 104.965 151.312V154.828H103.66V142.438H104.731L104.903 143.703H104.965C105.132 143.443 105.335 143.206 105.574 142.992C105.814 142.773 106.106 142.602 106.449 142.477C106.798 142.346 107.21 142.281 107.684 142.281ZM107.457 143.375C106.863 143.375 106.384 143.49 106.02 143.719C105.66 143.948 105.397 144.292 105.231 144.75C105.064 145.203 104.975 145.773 104.965 146.461V146.711C104.965 147.435 105.043 148.047 105.199 148.547C105.361 149.047 105.624 149.427 105.988 149.688C106.358 149.948 106.853 150.078 107.473 150.078C108.004 150.078 108.447 149.935 108.801 149.648C109.155 149.362 109.418 148.964 109.59 148.453C109.767 147.938 109.856 147.346 109.856 146.68C109.856 145.669 109.658 144.867 109.262 144.273C108.871 143.674 108.27 143.375 107.457 143.375ZM116.727 151.156C115.956 151.156 115.276 150.997 114.688 150.68C114.099 150.362 113.641 149.878 113.313 149.227C112.985 148.576 112.821 147.755 112.821 146.766C112.821 145.729 112.993 144.883 113.336 144.227C113.685 143.565 114.164 143.076 114.774 142.758C115.383 142.44 116.076 142.281 116.852 142.281C117.279 142.281 117.69 142.326 118.086 142.414C118.487 142.497 118.815 142.604 119.071 142.734L118.68 143.82C118.42 143.716 118.118 143.622 117.774 143.539C117.435 143.456 117.118 143.414 116.821 143.414C116.227 143.414 115.732 143.542 115.336 143.797C114.946 144.052 114.651 144.427 114.453 144.922C114.261 145.417 114.164 146.026 114.164 146.75C114.164 147.443 114.258 148.034 114.446 148.523C114.638 149.013 114.922 149.388 115.297 149.648C115.677 149.904 116.151 150.031 116.719 150.031C117.172 150.031 117.581 149.984 117.946 149.891C118.31 149.792 118.641 149.677 118.938 149.547V150.703C118.651 150.849 118.331 150.961 117.977 151.039C117.628 151.117 117.211 151.156 116.727 151.156ZM122.106 142.438V151H120.809V142.438H122.106ZM121.473 139.234C121.687 139.234 121.869 139.305 122.02 139.445C122.176 139.581 122.254 139.794 122.254 140.086C122.254 140.372 122.176 140.586 122.02 140.727C121.869 140.867 121.687 140.938 121.473 140.938C121.249 140.938 121.062 140.867 120.911 140.727C120.765 140.586 120.692 140.372 120.692 140.086C120.692 139.794 120.765 139.581 120.911 139.445C121.062 139.305 121.249 139.234 121.473 139.234ZM132.079 146.703C132.079 147.406 131.988 148.034 131.805 148.586C131.623 149.138 131.36 149.604 131.016 149.984C130.673 150.365 130.256 150.656 129.766 150.859C129.282 151.057 128.732 151.156 128.118 151.156C127.545 151.156 127.019 151.057 126.54 150.859C126.066 150.656 125.654 150.365 125.305 149.984C124.962 149.604 124.693 149.138 124.501 148.586C124.313 148.034 124.219 147.406 124.219 146.703C124.219 145.766 124.378 144.969 124.696 144.312C125.014 143.651 125.467 143.148 126.055 142.805C126.649 142.456 127.355 142.281 128.173 142.281C128.954 142.281 129.636 142.456 130.219 142.805C130.808 143.154 131.264 143.659 131.587 144.32C131.915 144.977 132.079 145.771 132.079 146.703ZM125.563 146.703C125.563 147.391 125.654 147.987 125.837 148.492C126.019 148.997 126.3 149.388 126.68 149.664C127.061 149.94 127.55 150.078 128.149 150.078C128.743 150.078 129.23 149.94 129.61 149.664C129.995 149.388 130.279 148.997 130.462 148.492C130.644 147.987 130.735 147.391 130.735 146.703C130.735 146.021 130.644 145.432 130.462 144.938C130.279 144.438 129.998 144.052 129.618 143.781C129.238 143.51 128.745 143.375 128.141 143.375C127.251 143.375 126.597 143.669 126.18 144.258C125.769 144.846 125.563 145.661 125.563 146.703ZM130.415 138.742V138.898C130.311 139.049 130.167 139.232 129.985 139.445C129.808 139.654 129.61 139.875 129.391 140.109C129.173 140.339 128.951 140.557 128.727 140.766C128.508 140.974 128.305 141.154 128.118 141.305H127.251V141.117C127.417 140.919 127.6 140.682 127.798 140.406C127.995 140.125 128.188 139.839 128.376 139.547C128.563 139.25 128.719 138.982 128.844 138.742H130.415ZM138.216 142.281C139.231 142.281 139.999 142.531 140.52 143.031C141.041 143.526 141.302 144.323 141.302 145.422V151H140.02V145.508C140.02 144.794 139.856 144.26 139.528 143.906C139.205 143.552 138.708 143.375 138.036 143.375C137.088 143.375 136.421 143.643 136.036 144.18C135.651 144.716 135.458 145.495 135.458 146.516V151H134.161V142.438H135.208L135.403 143.672H135.473C135.656 143.37 135.888 143.117 136.169 142.914C136.45 142.706 136.765 142.549 137.114 142.445C137.463 142.336 137.83 142.281 138.216 142.281ZM151.239 151.156C150.469 151.156 149.789 150.997 149.2 150.68C148.612 150.362 148.153 149.878 147.825 149.227C147.497 148.576 147.333 147.755 147.333 146.766C147.333 145.729 147.505 144.883 147.849 144.227C148.198 143.565 148.677 143.076 149.286 142.758C149.896 142.44 150.588 142.281 151.364 142.281C151.791 142.281 152.203 142.326 152.599 142.414C153 142.497 153.328 142.604 153.583 142.734L153.193 143.82C152.932 143.716 152.63 143.622 152.286 143.539C151.948 143.456 151.63 143.414 151.333 143.414C150.739 143.414 150.245 143.542 149.849 143.797C149.458 144.052 149.164 144.427 148.966 144.922C148.773 145.417 148.677 146.026 148.677 146.75C148.677 147.443 148.771 148.034 148.958 148.523C149.151 149.013 149.435 149.388 149.81 149.648C150.19 149.904 150.664 150.031 151.232 150.031C151.685 150.031 152.094 149.984 152.458 149.891C152.823 149.792 153.153 149.677 153.45 149.547V150.703C153.164 150.849 152.844 150.961 152.489 151.039C152.14 151.117 151.724 151.156 151.239 151.156ZM158.525 142.297C159.546 142.297 160.303 142.526 160.798 142.984C161.293 143.443 161.54 144.174 161.54 145.18V151H160.595L160.345 149.734H160.283C160.043 150.047 159.793 150.31 159.533 150.523C159.272 150.732 158.97 150.891 158.626 151C158.288 151.104 157.871 151.156 157.376 151.156C156.855 151.156 156.392 151.065 155.986 150.883C155.585 150.701 155.267 150.424 155.033 150.055C154.803 149.685 154.689 149.216 154.689 148.648C154.689 147.794 155.027 147.138 155.704 146.68C156.381 146.221 157.413 145.971 158.798 145.93L160.275 145.867V145.344C160.275 144.604 160.116 144.086 159.798 143.789C159.48 143.492 159.033 143.344 158.454 143.344C158.006 143.344 157.579 143.409 157.173 143.539C156.767 143.669 156.381 143.823 156.017 144L155.618 143.016C156.004 142.818 156.447 142.648 156.947 142.508C157.447 142.367 157.973 142.297 158.525 142.297ZM160.259 146.781L158.954 146.836C157.887 146.878 157.134 147.052 156.697 147.359C156.259 147.667 156.04 148.102 156.04 148.664C156.04 149.154 156.189 149.516 156.486 149.75C156.783 149.984 157.176 150.102 157.665 150.102C158.426 150.102 159.048 149.891 159.533 149.469C160.017 149.047 160.259 148.414 160.259 147.57V146.781ZM163.021 154.844C162.755 154.844 162.524 154.823 162.326 154.781C162.128 154.745 161.956 154.701 161.81 154.648V153.594C161.971 153.646 162.136 153.685 162.302 153.711C162.469 153.742 162.656 153.758 162.865 153.758C163.219 153.758 163.505 153.659 163.724 153.461C163.943 153.263 164.052 152.904 164.052 152.383V142.438H165.349V152.352C165.349 152.872 165.266 153.318 165.099 153.688C164.932 154.062 164.677 154.349 164.333 154.547C163.99 154.745 163.552 154.844 163.021 154.844ZM163.935 140.086C163.935 139.794 164.008 139.581 164.154 139.445C164.305 139.305 164.492 139.234 164.716 139.234C164.93 139.234 165.112 139.305 165.263 139.445C165.419 139.581 165.497 139.794 165.497 140.086C165.497 140.372 165.419 140.586 165.263 140.727C165.112 140.867 164.93 140.938 164.716 140.938C164.492 140.938 164.305 140.867 164.154 140.727C164.008 140.586 163.935 140.372 163.935 140.086ZM171.142 142.297C172.163 142.297 172.921 142.526 173.416 142.984C173.91 143.443 174.158 144.174 174.158 145.18V151H173.213L172.963 149.734H172.9C172.66 150.047 172.41 150.31 172.15 150.523C171.89 150.732 171.588 150.891 171.244 151C170.905 151.104 170.489 151.156 169.994 151.156C169.473 151.156 169.009 151.065 168.603 150.883C168.202 150.701 167.884 150.424 167.65 150.055C167.421 149.685 167.306 149.216 167.306 148.648C167.306 147.794 167.645 147.138 168.322 146.68C168.999 146.221 170.03 145.971 171.416 145.93L172.892 145.867V145.344C172.892 144.604 172.733 144.086 172.416 143.789C172.098 143.492 171.65 143.344 171.072 143.344C170.624 143.344 170.197 143.409 169.791 143.539C169.384 143.669 168.999 143.823 168.634 144L168.236 143.016C168.621 142.818 169.064 142.648 169.564 142.508C170.064 142.367 170.59 142.297 171.142 142.297ZM172.877 146.781L171.572 146.836C170.504 146.878 169.752 147.052 169.314 147.359C168.877 147.667 168.658 148.102 168.658 148.664C168.658 149.154 168.806 149.516 169.103 149.75C169.4 149.984 169.793 150.102 170.283 150.102C171.043 150.102 171.666 149.891 172.15 149.469C172.634 149.047 172.877 148.414 172.877 147.57V146.781ZM186.205 148.656C186.205 149.203 186.067 149.664 185.791 150.039C185.52 150.409 185.129 150.688 184.619 150.875C184.114 151.062 183.51 151.156 182.807 151.156C182.208 151.156 181.689 151.109 181.252 151.016C180.814 150.922 180.432 150.789 180.103 150.617V149.422C180.452 149.594 180.869 149.75 181.353 149.891C181.838 150.031 182.333 150.102 182.838 150.102C183.577 150.102 184.114 149.982 184.447 149.742C184.781 149.503 184.947 149.177 184.947 148.766C184.947 148.531 184.879 148.326 184.744 148.148C184.614 147.966 184.393 147.792 184.08 147.625C183.768 147.453 183.335 147.266 182.783 147.062C182.236 146.854 181.762 146.648 181.361 146.445C180.965 146.237 180.658 145.984 180.439 145.688C180.226 145.391 180.119 145.005 180.119 144.531C180.119 143.807 180.411 143.253 180.994 142.867C181.583 142.477 182.353 142.281 183.307 142.281C183.822 142.281 184.304 142.333 184.752 142.438C185.205 142.536 185.627 142.672 186.018 142.844L185.58 143.883C185.226 143.732 184.848 143.604 184.447 143.5C184.046 143.396 183.637 143.344 183.221 143.344C182.622 143.344 182.161 143.443 181.838 143.641C181.52 143.839 181.361 144.109 181.361 144.453C181.361 144.719 181.434 144.938 181.58 145.109C181.731 145.281 181.971 145.443 182.299 145.594C182.627 145.745 183.059 145.922 183.596 146.125C184.132 146.323 184.596 146.529 184.986 146.742C185.377 146.951 185.676 147.206 185.885 147.508C186.098 147.805 186.205 148.188 186.205 148.656ZM191.428 142.281C192.157 142.281 192.782 142.443 193.303 142.766C193.824 143.089 194.222 143.542 194.498 144.125C194.774 144.703 194.912 145.38 194.912 146.156V146.961H188.998C189.014 147.966 189.264 148.732 189.748 149.258C190.232 149.784 190.915 150.047 191.795 150.047C192.337 150.047 192.816 149.997 193.232 149.898C193.649 149.799 194.081 149.654 194.529 149.461V150.602C194.097 150.794 193.667 150.935 193.24 151.023C192.818 151.112 192.318 151.156 191.74 151.156C190.917 151.156 190.199 150.99 189.584 150.656C188.975 150.318 188.501 149.823 188.162 149.172C187.824 148.521 187.654 147.724 187.654 146.781C187.654 145.859 187.808 145.062 188.115 144.391C188.428 143.714 188.865 143.193 189.428 142.828C189.996 142.464 190.662 142.281 191.428 142.281ZM191.412 143.344C190.719 143.344 190.167 143.57 189.756 144.023C189.344 144.477 189.1 145.109 189.022 145.922H193.553C193.548 145.411 193.467 144.964 193.311 144.578C193.16 144.188 192.928 143.885 192.615 143.672C192.303 143.453 191.902 143.344 191.412 143.344ZM198.26 151H196.955V138.844H198.26V151ZM204.139 142.281C204.868 142.281 205.493 142.443 206.014 142.766C206.535 143.089 206.933 143.542 207.209 144.125C207.485 144.703 207.623 145.38 207.623 146.156V146.961H201.709C201.725 147.966 201.975 148.732 202.459 149.258C202.944 149.784 203.626 150.047 204.506 150.047C205.048 150.047 205.527 149.997 205.944 149.898C206.36 149.799 206.793 149.654 207.241 149.461V150.602C206.808 150.794 206.379 150.935 205.952 151.023C205.53 151.112 205.03 151.156 204.452 151.156C203.629 151.156 202.91 150.99 202.295 150.656C201.686 150.318 201.212 149.823 200.873 149.172C200.535 148.521 200.366 147.724 200.366 146.781C200.366 145.859 200.519 145.062 200.827 144.391C201.139 143.714 201.577 143.193 202.139 142.828C202.707 142.464 203.373 142.281 204.139 142.281ZM204.123 143.344C203.431 143.344 202.879 143.57 202.467 144.023C202.056 144.477 201.811 145.109 201.733 145.922H206.264C206.259 145.411 206.178 144.964 206.022 144.578C205.871 144.188 205.639 143.885 205.327 143.672C205.014 143.453 204.613 143.344 204.123 143.344ZM213.096 151.156C212.325 151.156 211.646 150.997 211.057 150.68C210.469 150.362 210.01 149.878 209.682 149.227C209.354 148.576 209.19 147.755 209.19 146.766C209.19 145.729 209.362 144.883 209.706 144.227C210.055 143.565 210.534 143.076 211.143 142.758C211.753 142.44 212.445 142.281 213.221 142.281C213.648 142.281 214.06 142.326 214.456 142.414C214.857 142.497 215.185 142.604 215.44 142.734L215.049 143.82C214.789 143.716 214.487 143.622 214.143 143.539C213.805 143.456 213.487 143.414 213.19 143.414C212.596 143.414 212.101 143.542 211.706 143.797C211.315 144.052 211.021 144.427 210.823 144.922C210.63 145.417 210.534 146.026 210.534 146.75C210.534 147.443 210.628 148.034 210.815 148.523C211.008 149.013 211.292 149.388 211.667 149.648C212.047 149.904 212.521 150.031 213.088 150.031C213.542 150.031 213.95 149.984 214.315 149.891C214.68 149.792 215.01 149.677 215.307 149.547V150.703C215.021 150.849 214.7 150.961 214.346 151.039C213.997 151.117 213.581 151.156 213.096 151.156ZM220.608 151.156C219.837 151.156 219.158 150.997 218.569 150.68C217.981 150.362 217.522 149.878 217.194 149.227C216.866 148.576 216.702 147.755 216.702 146.766C216.702 145.729 216.874 144.883 217.217 144.227C217.566 143.565 218.046 143.076 218.655 142.758C219.264 142.44 219.957 142.281 220.733 142.281C221.16 142.281 221.572 142.326 221.967 142.414C222.369 142.497 222.697 142.604 222.952 142.734L222.561 143.82C222.301 143.716 221.999 143.622 221.655 143.539C221.316 143.456 220.999 143.414 220.702 143.414C220.108 143.414 219.613 143.542 219.217 143.797C218.827 144.052 218.533 144.427 218.335 144.922C218.142 145.417 218.046 146.026 218.046 146.75C218.046 147.443 218.139 148.034 218.327 148.523C218.52 149.013 218.803 149.388 219.178 149.648C219.559 149.904 220.033 150.031 220.6 150.031C221.053 150.031 221.462 149.984 221.827 149.891C222.191 149.792 222.522 149.677 222.819 149.547V150.703C222.533 150.849 222.212 150.961 221.858 151.039C221.509 151.117 221.092 151.156 220.608 151.156ZM225.987 142.438V151H224.69V142.438H225.987ZM225.354 139.234C225.568 139.234 225.75 139.305 225.901 139.445C226.057 139.581 226.136 139.794 226.136 140.086C226.136 140.372 226.057 140.586 225.901 140.727C225.75 140.867 225.568 140.938 225.354 140.938C225.13 140.938 224.943 140.867 224.792 140.727C224.646 140.586 224.573 140.372 224.573 140.086C224.573 139.794 224.646 139.581 224.792 139.445C224.943 139.305 225.13 139.234 225.354 139.234ZM235.96 146.703C235.96 147.406 235.869 148.034 235.687 148.586C235.504 149.138 235.241 149.604 234.898 149.984C234.554 150.365 234.137 150.656 233.648 150.859C233.163 151.057 232.614 151.156 231.999 151.156C231.426 151.156 230.9 151.057 230.421 150.859C229.947 150.656 229.536 150.365 229.187 149.984C228.843 149.604 228.575 149.138 228.382 148.586C228.194 148.034 228.101 147.406 228.101 146.703C228.101 145.766 228.259 144.969 228.577 144.312C228.895 143.651 229.348 143.148 229.937 142.805C230.53 142.456 231.236 142.281 232.054 142.281C232.835 142.281 233.517 142.456 234.101 142.805C234.689 143.154 235.145 143.659 235.468 144.32C235.796 144.977 235.96 145.771 235.96 146.703ZM229.444 146.703C229.444 147.391 229.536 147.987 229.718 148.492C229.9 148.997 230.181 149.388 230.562 149.664C230.942 149.94 231.431 150.078 232.03 150.078C232.624 150.078 233.111 149.94 233.491 149.664C233.877 149.388 234.161 148.997 234.343 148.492C234.525 147.987 234.616 147.391 234.616 146.703C234.616 146.021 234.525 145.432 234.343 144.938C234.161 144.438 233.879 144.052 233.499 143.781C233.119 143.51 232.627 143.375 232.023 143.375C231.132 143.375 230.478 143.669 230.062 144.258C229.65 144.846 229.444 145.661 229.444 146.703ZM242.097 142.281C243.113 142.281 243.881 142.531 244.402 143.031C244.922 143.526 245.183 144.323 245.183 145.422V151H243.902V145.508C243.902 144.794 243.738 144.26 243.409 143.906C243.086 143.552 242.589 143.375 241.917 143.375C240.969 143.375 240.303 143.643 239.917 144.18C239.532 144.716 239.339 145.495 239.339 146.516V151H238.042V142.438H239.089L239.284 143.672H239.355C239.537 143.37 239.769 143.117 240.05 142.914C240.331 142.706 240.646 142.549 240.995 142.445C241.344 142.336 241.711 142.281 242.097 142.281ZM250.898 142.297C251.919 142.297 252.676 142.526 253.171 142.984C253.666 143.443 253.913 144.174 253.913 145.18V151H252.968L252.718 149.734H252.656C252.416 150.047 252.166 150.31 251.906 150.523C251.645 150.732 251.343 150.891 250.999 151C250.661 151.104 250.244 151.156 249.749 151.156C249.229 151.156 248.765 151.065 248.359 150.883C247.958 150.701 247.64 150.424 247.406 150.055C247.176 149.685 247.062 149.216 247.062 148.648C247.062 147.794 247.4 147.138 248.077 146.68C248.755 146.221 249.786 145.971 251.171 145.93L252.648 145.867V145.344C252.648 144.604 252.489 144.086 252.171 143.789C251.854 143.492 251.406 143.344 250.827 143.344C250.38 143.344 249.952 143.409 249.546 143.539C249.14 143.669 248.755 143.823 248.39 144L247.992 143.016C248.377 142.818 248.82 142.648 249.32 142.508C249.82 142.367 250.346 142.297 250.898 142.297ZM252.632 146.781L251.327 146.836C250.26 146.878 249.507 147.052 249.07 147.359C248.632 147.667 248.413 148.102 248.413 148.664C248.413 149.154 248.562 149.516 248.859 149.75C249.156 149.984 249.549 150.102 250.038 150.102C250.799 150.102 251.421 149.891 251.906 149.469C252.39 149.047 252.632 148.414 252.632 147.57V146.781ZM257.722 138.844V141.883C257.722 142.232 257.712 142.57 257.691 142.898C257.675 143.227 257.662 143.482 257.652 143.664H257.722C257.957 143.279 258.295 142.953 258.738 142.688C259.181 142.422 259.746 142.289 260.433 142.289C261.506 142.289 262.36 142.661 262.996 143.406C263.636 144.146 263.957 145.247 263.957 146.711C263.957 147.674 263.811 148.487 263.519 149.148C263.227 149.81 262.816 150.31 262.285 150.648C261.753 150.987 261.126 151.156 260.402 151.156C259.725 151.156 259.167 151.031 258.73 150.781C258.298 150.526 257.964 150.216 257.73 149.852H257.628L257.363 151H256.425V138.844H257.722ZM260.222 143.375C259.602 143.375 259.11 143.497 258.746 143.742C258.381 143.982 258.118 144.346 257.957 144.836C257.8 145.32 257.722 145.935 257.722 146.68V146.75C257.722 147.828 257.902 148.654 258.261 149.227C258.621 149.794 259.274 150.078 260.222 150.078C261.019 150.078 261.615 149.786 262.011 149.203C262.412 148.62 262.613 147.786 262.613 146.703C262.613 145.599 262.415 144.768 262.019 144.211C261.628 143.654 261.029 143.375 260.222 143.375ZM267.367 151H266.062V138.844H267.367V151ZM273.246 142.281C273.975 142.281 274.6 142.443 275.121 142.766C275.642 143.089 276.04 143.542 276.316 144.125C276.592 144.703 276.73 145.38 276.73 146.156V146.961H270.816C270.832 147.966 271.082 148.732 271.566 149.258C272.051 149.784 272.733 150.047 273.613 150.047C274.155 150.047 274.634 149.997 275.051 149.898C275.467 149.799 275.9 149.654 276.348 149.461V150.602C275.915 150.794 275.486 150.935 275.058 151.023C274.637 151.112 274.137 151.156 273.558 151.156C272.736 151.156 272.017 150.99 271.402 150.656C270.793 150.318 270.319 149.823 269.98 149.172C269.642 148.521 269.473 147.724 269.473 146.781C269.473 145.859 269.626 145.062 269.933 144.391C270.246 143.714 270.683 143.193 271.246 142.828C271.814 142.464 272.48 142.281 273.246 142.281ZM273.23 143.344C272.538 143.344 271.986 143.57 271.574 144.023C271.163 144.477 270.918 145.109 270.84 145.922H275.371C275.366 145.411 275.285 144.964 275.129 144.578C274.978 144.188 274.746 143.885 274.433 143.672C274.121 143.453 273.72 143.344 273.23 143.344Z" fill="#38485C"/>
<rect x="41.5" y="65.5" width="259" height="105" rx="8.5" stroke="#E6EBF0"/>
<defs>
<clipPath id="clip0_2199_82912">
<rect width="24" height="24" fill="white" transform="translate(143 29)"/>
</clipPath>
<clipPath id="clip1_2199_82912">
<rect width="24" height="24" fill="white" transform="translate(54 79)"/>
</clipPath>
<clipPath id="clip2_2199_82912">
<rect width="24" height="24" fill="white" transform="translate(54 133)"/>
</clipPath>
</defs>
</svg>
