<svg width="340" height="190" viewBox="0 0 340 190" fill="none" xmlns="http://www.w3.org/2000/svg">
<rect width="340" height="190" fill="#F3F6F9"/>
<path d="M115.04 27.06C115.301 27.06 115.507 27.144 115.656 27.312C115.815 27.4707 115.894 27.6853 115.894 27.956V36.174C115.894 36.4447 115.815 36.664 115.656 36.832C115.497 37 115.292 37.084 115.04 37.084C114.741 37.084 114.513 36.9767 114.354 36.762L109.244 30.112V36.174C109.244 36.4447 109.169 36.664 109.02 36.832C108.871 37 108.665 37.084 108.404 37.084C108.143 37.084 107.937 37 107.788 36.832C107.639 36.664 107.564 36.4447 107.564 36.174V27.956C107.564 27.6853 107.643 27.4707 107.802 27.312C107.961 27.144 108.171 27.06 108.432 27.06C108.721 27.06 108.945 27.1673 109.104 27.382L114.2 34.004V27.956C114.2 27.6853 114.275 27.4707 114.424 27.312C114.583 27.144 114.788 27.06 115.04 27.06ZM120.991 37.112C120.291 37.112 119.675 36.9673 119.143 36.678C118.62 36.3887 118.214 35.9733 117.925 35.432C117.636 34.8907 117.491 34.2607 117.491 33.542C117.491 32.8233 117.636 32.198 117.925 31.666C118.214 31.1247 118.62 30.7093 119.143 30.42C119.675 30.1307 120.291 29.986 120.991 29.986C121.691 29.986 122.302 30.1307 122.825 30.42C123.357 30.7093 123.763 31.1247 124.043 31.666C124.332 32.198 124.477 32.8233 124.477 33.542C124.477 34.2607 124.332 34.8907 124.043 35.432C123.763 35.9733 123.357 36.3887 122.825 36.678C122.302 36.9673 121.691 37.112 120.991 37.112ZM120.977 35.754C121.546 35.754 121.98 35.5673 122.279 35.194C122.578 34.8207 122.727 34.27 122.727 33.542C122.727 32.8233 122.578 32.2773 122.279 31.904C121.98 31.5213 121.551 31.33 120.991 31.33C120.431 31.33 119.997 31.5213 119.689 31.904C119.39 32.2773 119.241 32.8233 119.241 33.542C119.241 34.27 119.39 34.8207 119.689 35.194C119.988 35.5673 120.417 35.754 120.977 35.754ZM134.056 29.986C134.802 29.986 135.372 30.21 135.764 30.658C136.165 31.0967 136.366 31.8107 136.366 32.8V36.244C136.366 36.5147 136.282 36.7247 136.114 36.874C135.955 37.014 135.745 37.084 135.484 37.084C135.232 37.084 135.022 37.014 134.854 36.874C134.695 36.7247 134.616 36.5147 134.616 36.244V32.8C134.616 32.2867 134.522 31.9227 134.336 31.708C134.158 31.484 133.883 31.372 133.51 31.372C133.052 31.372 132.688 31.5307 132.418 31.848C132.147 32.156 132.012 32.5807 132.012 33.122V36.244C132.012 36.5147 131.928 36.7247 131.76 36.874C131.601 37.014 131.396 37.084 131.144 37.084C130.892 37.084 130.682 37.014 130.514 36.874C130.346 36.7247 130.262 36.5147 130.262 36.244V32.8C130.262 32.2867 130.168 31.9227 129.982 31.708C129.804 31.484 129.529 31.372 129.156 31.372C128.698 31.372 128.334 31.5307 128.064 31.848C127.802 32.156 127.672 32.5807 127.672 33.122V36.244C127.672 36.5147 127.588 36.7247 127.42 36.874C127.252 37.014 127.042 37.084 126.79 37.084C126.538 37.084 126.328 37.014 126.16 36.874C126.001 36.7247 125.922 36.5147 125.922 36.244V30.826C125.922 30.5647 126.006 30.364 126.174 30.224C126.342 30.084 126.552 30.014 126.804 30.014C127.046 30.014 127.242 30.084 127.392 30.224C127.55 30.3547 127.63 30.546 127.63 30.798V31.134C127.844 30.7607 128.129 30.476 128.484 30.28C128.848 30.084 129.263 29.986 129.73 29.986C130.756 29.986 131.442 30.4153 131.788 31.274C131.993 30.882 132.296 30.5693 132.698 30.336C133.099 30.1027 133.552 29.986 134.056 29.986ZM142.078 29.986C142.676 29.986 143.203 30.1307 143.66 30.42C144.118 30.7093 144.472 31.12 144.724 31.652C144.986 32.184 145.116 32.8047 145.116 33.514C145.116 34.2233 144.986 34.8533 144.724 35.404C144.472 35.9453 144.113 36.3653 143.646 36.664C143.189 36.9627 142.666 37.112 142.078 37.112C141.584 37.112 141.14 37.0047 140.748 36.79C140.366 36.5753 140.072 36.2767 139.866 35.894V36.244C139.866 36.496 139.787 36.6967 139.628 36.846C139.47 36.9953 139.26 37.07 138.998 37.07C138.737 37.07 138.527 36.9953 138.368 36.846C138.219 36.6967 138.144 36.496 138.144 36.244V27.872C138.144 27.6293 138.224 27.4333 138.382 27.284C138.55 27.1347 138.765 27.06 139.026 27.06C139.288 27.06 139.498 27.13 139.656 27.27C139.815 27.41 139.894 27.6013 139.894 27.844V31.148C140.1 30.7747 140.394 30.49 140.776 30.294C141.159 30.0887 141.593 29.986 142.078 29.986ZM141.616 35.754C142.167 35.754 142.596 35.558 142.904 35.166C143.212 34.774 143.366 34.2233 143.366 33.514C143.366 32.814 143.212 32.2773 142.904 31.904C142.606 31.5307 142.176 31.344 141.616 31.344C141.056 31.344 140.622 31.5353 140.314 31.918C140.016 32.2913 139.866 32.8327 139.866 33.542C139.866 34.2513 140.016 34.7973 140.314 35.18C140.622 35.5627 141.056 35.754 141.616 35.754ZM150.375 30.014C150.617 29.9953 150.809 30.0467 150.949 30.168C151.089 30.2893 151.159 30.4713 151.159 30.714C151.159 30.966 151.098 31.1527 150.977 31.274C150.855 31.3953 150.636 31.4747 150.319 31.512L149.899 31.554C149.348 31.61 148.942 31.7967 148.681 32.114C148.429 32.4313 148.303 32.828 148.303 33.304V36.244C148.303 36.5147 148.219 36.7247 148.051 36.874C147.883 37.014 147.673 37.084 147.421 37.084C147.169 37.084 146.959 37.014 146.791 36.874C146.632 36.7247 146.553 36.5147 146.553 36.244V30.826C146.553 30.5647 146.632 30.364 146.791 30.224C146.959 30.084 147.164 30.014 147.407 30.014C147.649 30.014 147.845 30.084 147.995 30.224C148.144 30.3547 148.219 30.546 148.219 30.798V31.358C148.396 30.9473 148.657 30.63 149.003 30.406C149.357 30.182 149.749 30.056 150.179 30.028L150.375 30.014ZM157.193 35.124C157.352 35.124 157.478 35.1847 157.571 35.306C157.674 35.4273 157.725 35.5907 157.725 35.796C157.725 36.0853 157.553 36.328 157.207 36.524C156.89 36.7013 156.531 36.846 156.129 36.958C155.728 37.0607 155.345 37.112 154.981 37.112C153.88 37.112 153.007 36.7947 152.363 36.16C151.719 35.5253 151.397 34.6573 151.397 33.556C151.397 32.856 151.537 32.2353 151.817 31.694C152.097 31.1527 152.489 30.7327 152.993 30.434C153.507 30.1353 154.085 29.986 154.729 29.986C155.345 29.986 155.882 30.1213 156.339 30.392C156.797 30.6627 157.151 31.0453 157.403 31.54C157.655 32.0347 157.781 32.618 157.781 33.29C157.781 33.6913 157.604 33.892 157.249 33.892H153.119C153.175 34.536 153.357 35.012 153.665 35.32C153.973 35.6187 154.421 35.768 155.009 35.768C155.308 35.768 155.569 35.7307 155.793 35.656C156.027 35.5813 156.288 35.4787 156.577 35.348C156.857 35.1987 157.063 35.124 157.193 35.124ZM154.771 31.218C154.295 31.218 153.913 31.3673 153.623 31.666C153.343 31.9647 153.175 32.394 153.119 32.954H156.283C156.265 32.3847 156.125 31.9553 155.863 31.666C155.602 31.3673 155.238 31.218 154.771 31.218ZM168.726 27.06C168.987 27.06 169.202 27.1347 169.37 27.284C169.538 27.4333 169.622 27.6293 169.622 27.872V36.244C169.622 36.496 169.542 36.6967 169.384 36.846C169.225 36.9953 169.015 37.07 168.754 37.07C168.492 37.07 168.282 36.9953 168.124 36.846C167.965 36.6967 167.886 36.496 167.886 36.244V35.894C167.68 36.2767 167.382 36.5753 166.99 36.79C166.607 37.0047 166.168 37.112 165.674 37.112C165.086 37.112 164.558 36.9627 164.092 36.664C163.634 36.3653 163.275 35.9453 163.014 35.404C162.762 34.8533 162.636 34.2233 162.636 33.514C162.636 32.8047 162.762 32.184 163.014 31.652C163.275 31.12 163.634 30.7093 164.092 30.42C164.549 30.1307 165.076 29.986 165.674 29.986C166.168 29.986 166.607 30.0887 166.99 30.294C167.372 30.4993 167.666 30.7887 167.872 31.162V27.844C167.872 27.6107 167.946 27.424 168.096 27.284C168.254 27.1347 168.464 27.06 168.726 27.06ZM166.136 35.754C166.696 35.754 167.125 35.5627 167.424 35.18C167.732 34.7973 167.886 34.2513 167.886 33.542C167.886 32.8327 167.732 32.2913 167.424 31.918C167.125 31.5353 166.7 31.344 166.15 31.344C165.59 31.344 165.156 31.5307 164.848 31.904C164.54 32.2773 164.386 32.814 164.386 33.514C164.386 34.2233 164.54 34.774 164.848 35.166C165.156 35.558 165.585 35.754 166.136 35.754ZM176.84 35.124C176.998 35.124 177.124 35.1847 177.218 35.306C177.32 35.4273 177.372 35.5907 177.372 35.796C177.372 36.0853 177.199 36.328 176.854 36.524C176.536 36.7013 176.177 36.846 175.776 36.958C175.374 37.0607 174.992 37.112 174.628 37.112C173.526 37.112 172.654 36.7947 172.01 36.16C171.366 35.5253 171.044 34.6573 171.044 33.556C171.044 32.856 171.184 32.2353 171.464 31.694C171.744 31.1527 172.136 30.7327 172.64 30.434C173.153 30.1353 173.732 29.986 174.376 29.986C174.992 29.986 175.528 30.1213 175.986 30.392C176.443 30.6627 176.798 31.0453 177.05 31.54C177.302 32.0347 177.428 32.618 177.428 33.29C177.428 33.6913 177.25 33.892 176.896 33.892H172.766C172.822 34.536 173.004 35.012 173.312 35.32C173.62 35.6187 174.068 35.768 174.656 35.768C174.954 35.768 175.216 35.7307 175.44 35.656C175.673 35.5813 175.934 35.4787 176.224 35.348C176.504 35.1987 176.709 35.124 176.84 35.124ZM174.418 31.218C173.942 31.218 173.559 31.3673 173.27 31.666C172.99 31.9647 172.822 32.394 172.766 32.954H175.93C175.911 32.3847 175.771 31.9553 175.51 31.666C175.248 31.3673 174.884 31.218 174.418 31.218ZM185.628 29.986C186.58 29.986 187.285 30.224 187.742 30.7C188.209 31.1667 188.442 31.8807 188.442 32.842V36.258C188.442 36.51 188.367 36.7107 188.218 36.86C188.069 37 187.863 37.07 187.602 37.07C187.359 37.07 187.159 36.9953 187 36.846C186.851 36.6967 186.776 36.5007 186.776 36.258V35.95C186.617 36.314 186.365 36.5987 186.02 36.804C185.684 37.0093 185.292 37.112 184.844 37.112C184.387 37.112 183.971 37.0187 183.598 36.832C183.225 36.6453 182.931 36.3887 182.716 36.062C182.501 35.7353 182.394 35.3713 182.394 34.97C182.394 34.466 182.52 34.0693 182.772 33.78C183.033 33.4907 183.453 33.2807 184.032 33.15C184.611 33.0193 185.409 32.954 186.426 32.954H186.776V32.632C186.776 32.1747 186.678 31.8433 186.482 31.638C186.286 31.4233 185.969 31.316 185.53 31.316C185.259 31.316 184.984 31.358 184.704 31.442C184.424 31.5167 184.093 31.6287 183.71 31.778C183.467 31.8993 183.29 31.96 183.178 31.96C183.01 31.96 182.87 31.8993 182.758 31.778C182.655 31.6567 182.604 31.498 182.604 31.302C182.604 31.1433 182.641 31.008 182.716 30.896C182.8 30.7747 182.935 30.6627 183.122 30.56C183.449 30.3827 183.836 30.2427 184.284 30.14C184.741 30.0373 185.189 29.986 185.628 29.986ZM185.194 35.852C185.661 35.852 186.039 35.698 186.328 35.39C186.627 35.0727 186.776 34.6667 186.776 34.172V33.878H186.524C185.899 33.878 185.413 33.906 185.068 33.962C184.723 34.018 184.475 34.116 184.326 34.256C184.177 34.396 184.102 34.5873 184.102 34.83C184.102 35.1287 184.205 35.376 184.41 35.572C184.625 35.7587 184.886 35.852 185.194 35.852ZM194.043 30.014C194.285 29.9953 194.477 30.0467 194.617 30.168C194.757 30.2893 194.827 30.4713 194.827 30.714C194.827 30.966 194.766 31.1527 194.645 31.274C194.523 31.3953 194.304 31.4747 193.987 31.512L193.567 31.554C193.016 31.61 192.61 31.7967 192.349 32.114C192.097 32.4313 191.971 32.828 191.971 33.304V36.244C191.971 36.5147 191.887 36.7247 191.719 36.874C191.551 37.014 191.341 37.084 191.089 37.084C190.837 37.084 190.627 37.014 190.459 36.874C190.3 36.7247 190.221 36.5147 190.221 36.244V30.826C190.221 30.5647 190.3 30.364 190.459 30.224C190.627 30.084 190.832 30.014 191.075 30.014C191.317 30.014 191.513 30.084 191.663 30.224C191.812 30.3547 191.887 30.546 191.887 30.798V31.358C192.064 30.9473 192.325 30.63 192.671 30.406C193.025 30.182 193.417 30.056 193.847 30.028L194.043 30.014ZM198.481 37.112C197.8 37.112 197.198 36.9673 196.675 36.678C196.162 36.3887 195.765 35.978 195.485 35.446C195.205 34.914 195.065 34.2933 195.065 33.584C195.065 32.8747 195.21 32.2493 195.499 31.708C195.798 31.1573 196.213 30.7327 196.745 30.434C197.277 30.1353 197.889 29.986 198.579 29.986C198.943 29.986 199.307 30.0373 199.671 30.14C200.045 30.2427 200.371 30.3827 200.651 30.56C200.95 30.756 201.099 31.0033 201.099 31.302C201.099 31.5073 201.048 31.6753 200.945 31.806C200.852 31.9273 200.726 31.988 200.567 31.988C200.465 31.988 200.357 31.9647 200.245 31.918C200.133 31.8713 200.021 31.8153 199.909 31.75C199.704 31.6287 199.508 31.5353 199.321 31.47C199.135 31.3953 198.92 31.358 198.677 31.358C198.099 31.358 197.651 31.5493 197.333 31.932C197.025 32.3053 196.871 32.8467 196.871 33.556C196.871 34.256 197.025 34.7973 197.333 35.18C197.651 35.5533 198.099 35.74 198.677 35.74C198.911 35.74 199.116 35.7073 199.293 35.642C199.48 35.5673 199.685 35.4693 199.909 35.348C200.049 35.264 200.171 35.2033 200.273 35.166C200.376 35.1193 200.479 35.096 200.581 35.096C200.731 35.096 200.857 35.1613 200.959 35.292C201.062 35.4227 201.113 35.586 201.113 35.782C201.113 35.9407 201.076 36.0807 201.001 36.202C200.936 36.314 200.824 36.4167 200.665 36.51C200.376 36.6967 200.04 36.846 199.657 36.958C199.275 37.0607 198.883 37.112 198.481 37.112ZM206.283 29.986C207.888 29.986 208.691 30.924 208.691 32.8V36.244C208.691 36.5053 208.612 36.7107 208.453 36.86C208.304 37.0093 208.094 37.084 207.823 37.084C207.552 37.084 207.338 37.0093 207.179 36.86C207.02 36.7107 206.941 36.5053 206.941 36.244V32.8C206.941 32.3053 206.838 31.946 206.633 31.722C206.437 31.4887 206.124 31.372 205.695 31.372C205.191 31.372 204.785 31.5307 204.477 31.848C204.178 32.1653 204.029 32.59 204.029 33.122V36.244C204.029 36.5053 203.95 36.7107 203.791 36.86C203.632 37.0093 203.418 37.084 203.147 37.084C202.876 37.084 202.662 37.0093 202.503 36.86C202.354 36.7107 202.279 36.5053 202.279 36.244V27.872C202.279 27.6293 202.358 27.4333 202.517 27.284C202.685 27.1347 202.9 27.06 203.161 27.06C203.422 27.06 203.632 27.13 203.791 27.27C203.95 27.41 204.029 27.6013 204.029 27.844V31.106C204.262 30.742 204.57 30.4667 204.953 30.28C205.345 30.084 205.788 29.986 206.283 29.986ZM211.337 37.084C211.085 37.084 210.875 37.014 210.707 36.874C210.548 36.7247 210.469 36.5147 210.469 36.244V30.84C210.469 30.5693 210.548 30.364 210.707 30.224C210.875 30.084 211.085 30.014 211.337 30.014C211.589 30.014 211.799 30.084 211.967 30.224C212.135 30.364 212.219 30.5693 212.219 30.84V36.244C212.219 36.5147 212.135 36.7247 211.967 36.874C211.799 37.014 211.589 37.084 211.337 37.084ZM211.337 28.768C211.019 28.768 210.767 28.684 210.581 28.516C210.394 28.3387 210.301 28.11 210.301 27.83C210.301 27.55 210.394 27.326 210.581 27.158C210.767 26.99 211.019 26.906 211.337 26.906C211.645 26.906 211.892 26.99 212.079 27.158C212.275 27.326 212.373 27.55 212.373 27.83C212.373 28.11 212.279 28.3387 212.093 28.516C211.906 28.684 211.654 28.768 211.337 28.768ZM218.797 30.518C218.872 30.35 218.97 30.224 219.091 30.14C219.222 30.056 219.362 30.014 219.511 30.014C219.726 30.014 219.917 30.0887 220.085 30.238C220.263 30.378 220.351 30.5553 220.351 30.77C220.351 30.882 220.323 30.994 220.267 31.106L217.677 36.524C217.593 36.7013 217.472 36.8367 217.313 36.93C217.164 37.0233 216.996 37.07 216.809 37.07C216.632 37.07 216.459 37.0233 216.291 36.93C216.133 36.8367 216.011 36.7013 215.927 36.524L213.323 31.106C213.277 31.0127 213.253 30.9053 213.253 30.784C213.253 30.5693 213.342 30.3873 213.519 30.238C213.706 30.0887 213.916 30.014 214.149 30.014C214.485 30.014 214.733 30.1773 214.891 30.504L216.851 34.83L218.797 30.518ZM224.405 37.112C223.705 37.112 223.089 36.9673 222.557 36.678C222.034 36.3887 221.628 35.9733 221.339 35.432C221.05 34.8907 220.905 34.2607 220.905 33.542C220.905 32.8233 221.05 32.198 221.339 31.666C221.628 31.1247 222.034 30.7093 222.557 30.42C223.089 30.1307 223.705 29.986 224.405 29.986C225.105 29.986 225.716 30.1307 226.239 30.42C226.771 30.7093 227.177 31.1247 227.457 31.666C227.746 32.198 227.891 32.8233 227.891 33.542C227.891 34.2607 227.746 34.8907 227.457 35.432C227.177 35.9733 226.771 36.3887 226.239 36.678C225.716 36.9673 225.105 37.112 224.405 37.112ZM224.391 35.754C224.96 35.754 225.394 35.5673 225.693 35.194C225.992 34.8207 226.141 34.27 226.141 33.542C226.141 32.8233 225.992 32.2773 225.693 31.904C225.394 31.5213 224.965 31.33 224.405 31.33C223.845 31.33 223.411 31.5213 223.103 31.904C222.804 32.2773 222.655 32.8233 222.655 33.542C222.655 34.27 222.804 34.8207 223.103 35.194C223.402 35.5673 223.831 35.754 224.391 35.754Z" fill="#38485C"/>
<g clip-path="url(#clip0_2199_70577)">
<path d="M116.177 48.25H115.25V45.3333C115.25 45.0125 114.987 44.75 114.667 44.75H112.333C112.012 44.75 111.75 45.0125 111.75 45.3333V48.25H110.822C110.303 48.25 110.041 48.88 110.408 49.2475L113.086 51.925C113.313 52.1525 113.681 52.1525 113.908 51.925L116.586 49.2475C116.953 48.88 116.697 48.25 116.177 48.25ZM109.417 54.0833C109.417 54.4042 109.679 54.6667 110 54.6667H117C117.321 54.6667 117.583 54.4042 117.583 54.0833C117.583 53.7625 117.321 53.5 117 53.5H110C109.679 53.5 109.417 53.7625 109.417 54.0833Z" fill="#007BC7"/>
</g>
<path d="M132.441 55H127.672V46.4336H132.441V47.3125H128.668V50.084H132.225V50.9512H128.668V54.1211H132.441V55ZM137.234 48.4609C137.996 48.4609 138.572 48.6484 138.963 49.0234C139.354 49.3945 139.549 49.9922 139.549 50.8164V55H138.588V50.8809C138.588 50.3457 138.465 49.9453 138.219 49.6797C137.977 49.4141 137.604 49.2812 137.1 49.2812C136.389 49.2812 135.889 49.4824 135.6 49.8848C135.311 50.2871 135.166 50.8711 135.166 51.6367V55H134.193V48.5781H134.979L135.125 49.5039H135.178C135.314 49.2773 135.488 49.0879 135.699 48.9355C135.91 48.7793 136.146 48.6621 136.408 48.584C136.67 48.502 136.945 48.4609 137.234 48.4609ZM142.531 55H141.553V45.8828H142.531V55ZM146.99 48.4727C147.756 48.4727 148.324 48.6445 148.695 48.9883C149.066 49.332 149.252 49.8809 149.252 50.6348V55H148.543L148.355 54.0508H148.309C148.129 54.2852 147.941 54.4824 147.746 54.6426C147.551 54.7988 147.324 54.918 147.066 55C146.812 55.0781 146.5 55.1172 146.129 55.1172C145.738 55.1172 145.391 55.0488 145.086 54.9121C144.785 54.7754 144.547 54.5684 144.371 54.291C144.199 54.0137 144.113 53.6621 144.113 53.2363C144.113 52.5957 144.367 52.1035 144.875 51.7598C145.383 51.416 146.156 51.2285 147.195 51.1973L148.303 51.1504V50.7578C148.303 50.2031 148.184 49.8145 147.945 49.5918C147.707 49.3691 147.371 49.2578 146.938 49.2578C146.602 49.2578 146.281 49.3066 145.977 49.4043C145.672 49.502 145.383 49.6172 145.109 49.75L144.811 49.0117C145.1 48.8633 145.432 48.7363 145.807 48.6309C146.182 48.5254 146.576 48.4727 146.99 48.4727ZM148.291 51.8359L147.312 51.877C146.512 51.9082 145.947 52.0391 145.619 52.2695C145.291 52.5 145.127 52.8262 145.127 53.248C145.127 53.6152 145.238 53.8867 145.461 54.0625C145.684 54.2383 145.979 54.3262 146.346 54.3262C146.916 54.3262 147.383 54.168 147.746 53.8516C148.109 53.5352 148.291 53.0605 148.291 52.4277V51.8359ZM153.828 55.1172C153.25 55.1172 152.74 54.998 152.299 54.7598C151.857 54.5215 151.514 54.1582 151.268 53.6699C151.021 53.1816 150.898 52.5664 150.898 51.8242C150.898 51.0469 151.027 50.4121 151.285 49.9199C151.547 49.4238 151.906 49.0566 152.363 48.8184C152.82 48.5801 153.34 48.4609 153.922 48.4609C154.242 48.4609 154.551 48.4941 154.848 48.5605C155.148 48.623 155.395 48.7031 155.586 48.8008L155.293 49.6152C155.098 49.5371 154.871 49.4668 154.613 49.4043C154.359 49.3418 154.121 49.3105 153.898 49.3105C153.453 49.3105 153.082 49.4062 152.785 49.5977C152.492 49.7891 152.271 50.0703 152.123 50.4414C151.979 50.8125 151.906 51.2695 151.906 51.8125C151.906 52.332 151.977 52.7754 152.117 53.1426C152.262 53.5098 152.475 53.791 152.756 53.9863C153.041 54.1777 153.396 54.2734 153.822 54.2734C154.162 54.2734 154.469 54.2383 154.742 54.168C155.016 54.0938 155.264 54.0078 155.486 53.9102V54.7773C155.271 54.8867 155.031 54.9707 154.766 55.0293C154.504 55.0879 154.191 55.1172 153.828 55.1172ZM159.482 48.4609C160.029 48.4609 160.498 48.582 160.889 48.8242C161.279 49.0664 161.578 49.4062 161.785 49.8438C161.992 50.2773 162.096 50.7852 162.096 51.3672V51.9707H157.66C157.672 52.7246 157.859 53.2988 158.223 53.6934C158.586 54.0879 159.098 54.2852 159.758 54.2852C160.164 54.2852 160.523 54.248 160.836 54.1738C161.148 54.0996 161.473 53.9902 161.809 53.8457V54.7012C161.484 54.8457 161.162 54.9512 160.842 55.0176C160.525 55.084 160.15 55.1172 159.717 55.1172C159.1 55.1172 158.561 54.9922 158.1 54.7422C157.643 54.4883 157.287 54.1172 157.033 53.6289C156.779 53.1406 156.652 52.543 156.652 51.8359C156.652 51.1445 156.768 50.5469 156.998 50.043C157.232 49.5352 157.561 49.1445 157.982 48.8711C158.408 48.5977 158.908 48.4609 159.482 48.4609ZM159.471 49.2578C158.951 49.2578 158.537 49.4277 158.229 49.7676C157.92 50.1074 157.736 50.582 157.678 51.1914H161.076C161.072 50.8086 161.012 50.4727 160.895 50.1836C160.781 49.8906 160.607 49.6641 160.373 49.5039C160.139 49.3398 159.838 49.2578 159.471 49.2578Z" fill="#007BC7"/>
<path d="M126.5 55.7324H162.723V56.0254H126.5V55.7324Z" fill="#007BC7"/>
<path d="M115.04 81.06C115.301 81.06 115.507 81.144 115.656 81.312C115.815 81.4707 115.894 81.6853 115.894 81.956V90.174C115.894 90.4447 115.815 90.664 115.656 90.832C115.497 91 115.292 91.084 115.04 91.084C114.741 91.084 114.513 90.9767 114.354 90.762L109.244 84.112V90.174C109.244 90.4447 109.169 90.664 109.02 90.832C108.871 91 108.665 91.084 108.404 91.084C108.143 91.084 107.937 91 107.788 90.832C107.639 90.664 107.564 90.4447 107.564 90.174V81.956C107.564 81.6853 107.643 81.4707 107.802 81.312C107.961 81.144 108.171 81.06 108.432 81.06C108.721 81.06 108.945 81.1673 109.104 81.382L114.2 88.004V81.956C114.2 81.6853 114.275 81.4707 114.424 81.312C114.583 81.144 114.788 81.06 115.04 81.06ZM120.991 91.112C120.291 91.112 119.675 90.9673 119.143 90.678C118.62 90.3887 118.214 89.9733 117.925 89.432C117.636 88.8907 117.491 88.2607 117.491 87.542C117.491 86.8233 117.636 86.198 117.925 85.666C118.214 85.1247 118.62 84.7093 119.143 84.42C119.675 84.1307 120.291 83.986 120.991 83.986C121.691 83.986 122.302 84.1307 122.825 84.42C123.357 84.7093 123.763 85.1247 124.043 85.666C124.332 86.198 124.477 86.8233 124.477 87.542C124.477 88.2607 124.332 88.8907 124.043 89.432C123.763 89.9733 123.357 90.3887 122.825 90.678C122.302 90.9673 121.691 91.112 120.991 91.112ZM120.977 89.754C121.546 89.754 121.98 89.5673 122.279 89.194C122.578 88.8207 122.727 88.27 122.727 87.542C122.727 86.8233 122.578 86.2773 122.279 85.904C121.98 85.5213 121.551 85.33 120.991 85.33C120.431 85.33 119.997 85.5213 119.689 85.904C119.39 86.2773 119.241 86.8233 119.241 87.542C119.241 88.27 119.39 88.8207 119.689 89.194C119.988 89.5673 120.417 89.754 120.977 89.754ZM134.056 83.986C134.802 83.986 135.372 84.21 135.764 84.658C136.165 85.0967 136.366 85.8107 136.366 86.8V90.244C136.366 90.5147 136.282 90.7247 136.114 90.874C135.955 91.014 135.745 91.084 135.484 91.084C135.232 91.084 135.022 91.014 134.854 90.874C134.695 90.7247 134.616 90.5147 134.616 90.244V86.8C134.616 86.2867 134.522 85.9227 134.336 85.708C134.158 85.484 133.883 85.372 133.51 85.372C133.052 85.372 132.688 85.5307 132.418 85.848C132.147 86.156 132.012 86.5807 132.012 87.122V90.244C132.012 90.5147 131.928 90.7247 131.76 90.874C131.601 91.014 131.396 91.084 131.144 91.084C130.892 91.084 130.682 91.014 130.514 90.874C130.346 90.7247 130.262 90.5147 130.262 90.244V86.8C130.262 86.2867 130.168 85.9227 129.982 85.708C129.804 85.484 129.529 85.372 129.156 85.372C128.698 85.372 128.334 85.5307 128.064 85.848C127.802 86.156 127.672 86.5807 127.672 87.122V90.244C127.672 90.5147 127.588 90.7247 127.42 90.874C127.252 91.014 127.042 91.084 126.79 91.084C126.538 91.084 126.328 91.014 126.16 90.874C126.001 90.7247 125.922 90.5147 125.922 90.244V84.826C125.922 84.5647 126.006 84.364 126.174 84.224C126.342 84.084 126.552 84.014 126.804 84.014C127.046 84.014 127.242 84.084 127.392 84.224C127.55 84.3547 127.63 84.546 127.63 84.798V85.134C127.844 84.7607 128.129 84.476 128.484 84.28C128.848 84.084 129.263 83.986 129.73 83.986C130.756 83.986 131.442 84.4153 131.788 85.274C131.993 84.882 132.296 84.5693 132.698 84.336C133.099 84.1027 133.552 83.986 134.056 83.986ZM142.078 83.986C142.676 83.986 143.203 84.1307 143.66 84.42C144.118 84.7093 144.472 85.12 144.724 85.652C144.986 86.184 145.116 86.8047 145.116 87.514C145.116 88.2233 144.986 88.8533 144.724 89.404C144.472 89.9453 144.113 90.3653 143.646 90.664C143.189 90.9627 142.666 91.112 142.078 91.112C141.584 91.112 141.14 91.0047 140.748 90.79C140.366 90.5753 140.072 90.2767 139.866 89.894V90.244C139.866 90.496 139.787 90.6967 139.628 90.846C139.47 90.9953 139.26 91.07 138.998 91.07C138.737 91.07 138.527 90.9953 138.368 90.846C138.219 90.6967 138.144 90.496 138.144 90.244V81.872C138.144 81.6293 138.224 81.4333 138.382 81.284C138.55 81.1347 138.765 81.06 139.026 81.06C139.288 81.06 139.498 81.13 139.656 81.27C139.815 81.41 139.894 81.6013 139.894 81.844V85.148C140.1 84.7747 140.394 84.49 140.776 84.294C141.159 84.0887 141.593 83.986 142.078 83.986ZM141.616 89.754C142.167 89.754 142.596 89.558 142.904 89.166C143.212 88.774 143.366 88.2233 143.366 87.514C143.366 86.814 143.212 86.2773 142.904 85.904C142.606 85.5307 142.176 85.344 141.616 85.344C141.056 85.344 140.622 85.5353 140.314 85.918C140.016 86.2913 139.866 86.8327 139.866 87.542C139.866 88.2513 140.016 88.7973 140.314 89.18C140.622 89.5627 141.056 89.754 141.616 89.754ZM150.375 84.014C150.617 83.9953 150.809 84.0467 150.949 84.168C151.089 84.2893 151.159 84.4713 151.159 84.714C151.159 84.966 151.098 85.1527 150.977 85.274C150.855 85.3953 150.636 85.4747 150.319 85.512L149.899 85.554C149.348 85.61 148.942 85.7967 148.681 86.114C148.429 86.4313 148.303 86.828 148.303 87.304V90.244C148.303 90.5147 148.219 90.7247 148.051 90.874C147.883 91.014 147.673 91.084 147.421 91.084C147.169 91.084 146.959 91.014 146.791 90.874C146.632 90.7247 146.553 90.5147 146.553 90.244V84.826C146.553 84.5647 146.632 84.364 146.791 84.224C146.959 84.084 147.164 84.014 147.407 84.014C147.649 84.014 147.845 84.084 147.995 84.224C148.144 84.3547 148.219 84.546 148.219 84.798V85.358C148.396 84.9473 148.657 84.63 149.003 84.406C149.357 84.182 149.749 84.056 150.179 84.028L150.375 84.014ZM157.193 89.124C157.352 89.124 157.478 89.1847 157.571 89.306C157.674 89.4273 157.725 89.5907 157.725 89.796C157.725 90.0853 157.553 90.328 157.207 90.524C156.89 90.7013 156.531 90.846 156.129 90.958C155.728 91.0607 155.345 91.112 154.981 91.112C153.88 91.112 153.007 90.7947 152.363 90.16C151.719 89.5253 151.397 88.6573 151.397 87.556C151.397 86.856 151.537 86.2353 151.817 85.694C152.097 85.1527 152.489 84.7327 152.993 84.434C153.507 84.1353 154.085 83.986 154.729 83.986C155.345 83.986 155.882 84.1213 156.339 84.392C156.797 84.6627 157.151 85.0453 157.403 85.54C157.655 86.0347 157.781 86.618 157.781 87.29C157.781 87.6913 157.604 87.892 157.249 87.892H153.119C153.175 88.536 153.357 89.012 153.665 89.32C153.973 89.6187 154.421 89.768 155.009 89.768C155.308 89.768 155.569 89.7307 155.793 89.656C156.027 89.5813 156.288 89.4787 156.577 89.348C156.857 89.1987 157.063 89.124 157.193 89.124ZM154.771 85.218C154.295 85.218 153.913 85.3673 153.623 85.666C153.343 85.9647 153.175 86.394 153.119 86.954H156.283C156.265 86.3847 156.125 85.9553 155.863 85.666C155.602 85.3673 155.238 85.218 154.771 85.218ZM168.726 81.06C168.987 81.06 169.202 81.1347 169.37 81.284C169.538 81.4333 169.622 81.6293 169.622 81.872V90.244C169.622 90.496 169.542 90.6967 169.384 90.846C169.225 90.9953 169.015 91.07 168.754 91.07C168.492 91.07 168.282 90.9953 168.124 90.846C167.965 90.6967 167.886 90.496 167.886 90.244V89.894C167.68 90.2767 167.382 90.5753 166.99 90.79C166.607 91.0047 166.168 91.112 165.674 91.112C165.086 91.112 164.558 90.9627 164.092 90.664C163.634 90.3653 163.275 89.9453 163.014 89.404C162.762 88.8533 162.636 88.2233 162.636 87.514C162.636 86.8047 162.762 86.184 163.014 85.652C163.275 85.12 163.634 84.7093 164.092 84.42C164.549 84.1307 165.076 83.986 165.674 83.986C166.168 83.986 166.607 84.0887 166.99 84.294C167.372 84.4993 167.666 84.7887 167.872 85.162V81.844C167.872 81.6107 167.946 81.424 168.096 81.284C168.254 81.1347 168.464 81.06 168.726 81.06ZM166.136 89.754C166.696 89.754 167.125 89.5627 167.424 89.18C167.732 88.7973 167.886 88.2513 167.886 87.542C167.886 86.8327 167.732 86.2913 167.424 85.918C167.125 85.5353 166.7 85.344 166.15 85.344C165.59 85.344 165.156 85.5307 164.848 85.904C164.54 86.2773 164.386 86.814 164.386 87.514C164.386 88.2233 164.54 88.774 164.848 89.166C165.156 89.558 165.585 89.754 166.136 89.754ZM176.84 89.124C176.998 89.124 177.124 89.1847 177.218 89.306C177.32 89.4273 177.372 89.5907 177.372 89.796C177.372 90.0853 177.199 90.328 176.854 90.524C176.536 90.7013 176.177 90.846 175.776 90.958C175.374 91.0607 174.992 91.112 174.628 91.112C173.526 91.112 172.654 90.7947 172.01 90.16C171.366 89.5253 171.044 88.6573 171.044 87.556C171.044 86.856 171.184 86.2353 171.464 85.694C171.744 85.1527 172.136 84.7327 172.64 84.434C173.153 84.1353 173.732 83.986 174.376 83.986C174.992 83.986 175.528 84.1213 175.986 84.392C176.443 84.6627 176.798 85.0453 177.05 85.54C177.302 86.0347 177.428 86.618 177.428 87.29C177.428 87.6913 177.25 87.892 176.896 87.892H172.766C172.822 88.536 173.004 89.012 173.312 89.32C173.62 89.6187 174.068 89.768 174.656 89.768C174.954 89.768 175.216 89.7307 175.44 89.656C175.673 89.5813 175.934 89.4787 176.224 89.348C176.504 89.1987 176.709 89.124 176.84 89.124ZM174.418 85.218C173.942 85.218 173.559 85.3673 173.27 85.666C172.99 85.9647 172.822 86.394 172.766 86.954H175.93C175.911 86.3847 175.771 85.9553 175.51 85.666C175.248 85.3673 174.884 85.218 174.418 85.218ZM185.628 83.986C186.58 83.986 187.285 84.224 187.742 84.7C188.209 85.1667 188.442 85.8807 188.442 86.842V90.258C188.442 90.51 188.367 90.7107 188.218 90.86C188.069 91 187.863 91.07 187.602 91.07C187.359 91.07 187.159 90.9953 187 90.846C186.851 90.6967 186.776 90.5007 186.776 90.258V89.95C186.617 90.314 186.365 90.5987 186.02 90.804C185.684 91.0093 185.292 91.112 184.844 91.112C184.387 91.112 183.971 91.0187 183.598 90.832C183.225 90.6453 182.931 90.3887 182.716 90.062C182.501 89.7353 182.394 89.3713 182.394 88.97C182.394 88.466 182.52 88.0693 182.772 87.78C183.033 87.4907 183.453 87.2807 184.032 87.15C184.611 87.0193 185.409 86.954 186.426 86.954H186.776V86.632C186.776 86.1747 186.678 85.8433 186.482 85.638C186.286 85.4233 185.969 85.316 185.53 85.316C185.259 85.316 184.984 85.358 184.704 85.442C184.424 85.5167 184.093 85.6287 183.71 85.778C183.467 85.8993 183.29 85.96 183.178 85.96C183.01 85.96 182.87 85.8993 182.758 85.778C182.655 85.6567 182.604 85.498 182.604 85.302C182.604 85.1433 182.641 85.008 182.716 84.896C182.8 84.7747 182.935 84.6627 183.122 84.56C183.449 84.3827 183.836 84.2427 184.284 84.14C184.741 84.0373 185.189 83.986 185.628 83.986ZM185.194 89.852C185.661 89.852 186.039 89.698 186.328 89.39C186.627 89.0727 186.776 88.6667 186.776 88.172V87.878H186.524C185.899 87.878 185.413 87.906 185.068 87.962C184.723 88.018 184.475 88.116 184.326 88.256C184.177 88.396 184.102 88.5873 184.102 88.83C184.102 89.1287 184.205 89.376 184.41 89.572C184.625 89.7587 184.886 89.852 185.194 89.852ZM194.043 84.014C194.285 83.9953 194.477 84.0467 194.617 84.168C194.757 84.2893 194.827 84.4713 194.827 84.714C194.827 84.966 194.766 85.1527 194.645 85.274C194.523 85.3953 194.304 85.4747 193.987 85.512L193.567 85.554C193.016 85.61 192.61 85.7967 192.349 86.114C192.097 86.4313 191.971 86.828 191.971 87.304V90.244C191.971 90.5147 191.887 90.7247 191.719 90.874C191.551 91.014 191.341 91.084 191.089 91.084C190.837 91.084 190.627 91.014 190.459 90.874C190.3 90.7247 190.221 90.5147 190.221 90.244V84.826C190.221 84.5647 190.3 84.364 190.459 84.224C190.627 84.084 190.832 84.014 191.075 84.014C191.317 84.014 191.513 84.084 191.663 84.224C191.812 84.3547 191.887 84.546 191.887 84.798V85.358C192.064 84.9473 192.325 84.63 192.671 84.406C193.025 84.182 193.417 84.056 193.847 84.028L194.043 84.014ZM198.481 91.112C197.8 91.112 197.198 90.9673 196.675 90.678C196.162 90.3887 195.765 89.978 195.485 89.446C195.205 88.914 195.065 88.2933 195.065 87.584C195.065 86.8747 195.21 86.2493 195.499 85.708C195.798 85.1573 196.213 84.7327 196.745 84.434C197.277 84.1353 197.889 83.986 198.579 83.986C198.943 83.986 199.307 84.0373 199.671 84.14C200.045 84.2427 200.371 84.3827 200.651 84.56C200.95 84.756 201.099 85.0033 201.099 85.302C201.099 85.5073 201.048 85.6753 200.945 85.806C200.852 85.9273 200.726 85.988 200.567 85.988C200.465 85.988 200.357 85.9647 200.245 85.918C200.133 85.8713 200.021 85.8153 199.909 85.75C199.704 85.6287 199.508 85.5353 199.321 85.47C199.135 85.3953 198.92 85.358 198.677 85.358C198.099 85.358 197.651 85.5493 197.333 85.932C197.025 86.3053 196.871 86.8467 196.871 87.556C196.871 88.256 197.025 88.7973 197.333 89.18C197.651 89.5533 198.099 89.74 198.677 89.74C198.911 89.74 199.116 89.7073 199.293 89.642C199.48 89.5673 199.685 89.4693 199.909 89.348C200.049 89.264 200.171 89.2033 200.273 89.166C200.376 89.1193 200.479 89.096 200.581 89.096C200.731 89.096 200.857 89.1613 200.959 89.292C201.062 89.4227 201.113 89.586 201.113 89.782C201.113 89.9407 201.076 90.0807 201.001 90.202C200.936 90.314 200.824 90.4167 200.665 90.51C200.376 90.6967 200.04 90.846 199.657 90.958C199.275 91.0607 198.883 91.112 198.481 91.112ZM206.283 83.986C207.888 83.986 208.691 84.924 208.691 86.8V90.244C208.691 90.5053 208.612 90.7107 208.453 90.86C208.304 91.0093 208.094 91.084 207.823 91.084C207.552 91.084 207.338 91.0093 207.179 90.86C207.02 90.7107 206.941 90.5053 206.941 90.244V86.8C206.941 86.3053 206.838 85.946 206.633 85.722C206.437 85.4887 206.124 85.372 205.695 85.372C205.191 85.372 204.785 85.5307 204.477 85.848C204.178 86.1653 204.029 86.59 204.029 87.122V90.244C204.029 90.5053 203.95 90.7107 203.791 90.86C203.632 91.0093 203.418 91.084 203.147 91.084C202.876 91.084 202.662 91.0093 202.503 90.86C202.354 90.7107 202.279 90.5053 202.279 90.244V81.872C202.279 81.6293 202.358 81.4333 202.517 81.284C202.685 81.1347 202.9 81.06 203.161 81.06C203.422 81.06 203.632 81.13 203.791 81.27C203.95 81.41 204.029 81.6013 204.029 81.844V85.106C204.262 84.742 204.57 84.4667 204.953 84.28C205.345 84.084 205.788 83.986 206.283 83.986ZM211.337 91.084C211.085 91.084 210.875 91.014 210.707 90.874C210.548 90.7247 210.469 90.5147 210.469 90.244V84.84C210.469 84.5693 210.548 84.364 210.707 84.224C210.875 84.084 211.085 84.014 211.337 84.014C211.589 84.014 211.799 84.084 211.967 84.224C212.135 84.364 212.219 84.5693 212.219 84.84V90.244C212.219 90.5147 212.135 90.7247 211.967 90.874C211.799 91.014 211.589 91.084 211.337 91.084ZM211.337 82.768C211.019 82.768 210.767 82.684 210.581 82.516C210.394 82.3387 210.301 82.11 210.301 81.83C210.301 81.55 210.394 81.326 210.581 81.158C210.767 80.99 211.019 80.906 211.337 80.906C211.645 80.906 211.892 80.99 212.079 81.158C212.275 81.326 212.373 81.55 212.373 81.83C212.373 82.11 212.279 82.3387 212.093 82.516C211.906 82.684 211.654 82.768 211.337 82.768ZM218.797 84.518C218.872 84.35 218.97 84.224 219.091 84.14C219.222 84.056 219.362 84.014 219.511 84.014C219.726 84.014 219.917 84.0887 220.085 84.238C220.263 84.378 220.351 84.5553 220.351 84.77C220.351 84.882 220.323 84.994 220.267 85.106L217.677 90.524C217.593 90.7013 217.472 90.8367 217.313 90.93C217.164 91.0233 216.996 91.07 216.809 91.07C216.632 91.07 216.459 91.0233 216.291 90.93C216.133 90.8367 216.011 90.7013 215.927 90.524L213.323 85.106C213.277 85.0127 213.253 84.9053 213.253 84.784C213.253 84.5693 213.342 84.3873 213.519 84.238C213.706 84.0887 213.916 84.014 214.149 84.014C214.485 84.014 214.733 84.1773 214.891 84.504L216.851 88.83L218.797 84.518ZM224.405 91.112C223.705 91.112 223.089 90.9673 222.557 90.678C222.034 90.3887 221.628 89.9733 221.339 89.432C221.05 88.8907 220.905 88.2607 220.905 87.542C220.905 86.8233 221.05 86.198 221.339 85.666C221.628 85.1247 222.034 84.7093 222.557 84.42C223.089 84.1307 223.705 83.986 224.405 83.986C225.105 83.986 225.716 84.1307 226.239 84.42C226.771 84.7093 227.177 85.1247 227.457 85.666C227.746 86.198 227.891 86.8233 227.891 87.542C227.891 88.2607 227.746 88.8907 227.457 89.432C227.177 89.9733 226.771 90.3887 226.239 90.678C225.716 90.9673 225.105 91.112 224.405 91.112ZM224.391 89.754C224.96 89.754 225.394 89.5673 225.693 89.194C225.992 88.8207 226.141 88.27 226.141 87.542C226.141 86.8233 225.992 86.2773 225.693 85.904C225.394 85.5213 224.965 85.33 224.405 85.33C223.845 85.33 223.411 85.5213 223.103 85.904C222.804 86.2773 222.655 86.8233 222.655 87.542C222.655 88.27 222.804 88.8207 223.103 89.194C223.402 89.5673 223.831 89.754 224.391 89.754Z" fill="#38485C"/>
<g clip-path="url(#clip1_2199_70577)">
<path d="M116.177 102.25H115.25V99.3333C115.25 99.0125 114.987 98.75 114.667 98.75H112.333C112.012 98.75 111.75 99.0125 111.75 99.3333V102.25H110.822C110.303 102.25 110.041 102.88 110.408 103.248L113.086 105.925C113.313 106.153 113.681 106.153 113.908 105.925L116.586 103.248C116.953 102.88 116.697 102.25 116.177 102.25ZM109.417 108.083C109.417 108.404 109.679 108.667 110 108.667H117C117.321 108.667 117.583 108.404 117.583 108.083C117.583 107.763 117.321 107.5 117 107.5H110C109.679 107.5 109.417 107.763 109.417 108.083Z" fill="#007BC7"/>
</g>
<path d="M132.453 109H127.678V100.434H132.453V101.318H128.674V104.078H132.225V104.957H128.674V108.109H132.453V109ZM138.605 109V104.846C138.605 104.322 138.486 103.932 138.248 103.674C138.01 103.416 137.637 103.287 137.129 103.287C136.457 103.287 135.965 103.469 135.652 103.832C135.34 104.195 135.184 104.795 135.184 105.631V109H134.211V102.578H135.002L135.16 103.457H135.207C135.406 103.141 135.686 102.896 136.045 102.725C136.404 102.549 136.805 102.461 137.246 102.461C138.02 102.461 138.602 102.648 138.992 103.023C139.383 103.395 139.578 103.99 139.578 104.811V109H138.605ZM142.555 109H141.582V99.8828H142.555V109ZM148.566 109L148.373 108.086H148.326C148.006 108.488 147.686 108.762 147.365 108.906C147.049 109.047 146.652 109.117 146.176 109.117C145.539 109.117 145.039 108.953 144.676 108.625C144.316 108.297 144.137 107.83 144.137 107.225C144.137 105.928 145.174 105.248 147.248 105.186L148.338 105.15V104.752C148.338 104.248 148.229 103.877 148.01 103.639C147.795 103.396 147.449 103.275 146.973 103.275C146.438 103.275 145.832 103.439 145.156 103.768L144.857 103.023C145.174 102.852 145.52 102.717 145.895 102.619C146.273 102.521 146.652 102.473 147.031 102.473C147.797 102.473 148.363 102.643 148.73 102.982C149.102 103.322 149.287 103.867 149.287 104.617V109H148.566ZM146.369 108.314C146.975 108.314 147.449 108.148 147.793 107.816C148.141 107.484 148.314 107.02 148.314 106.422V105.842L147.342 105.883C146.568 105.91 146.01 106.031 145.666 106.246C145.326 106.457 145.156 106.787 145.156 107.236C145.156 107.588 145.262 107.855 145.473 108.039C145.688 108.223 145.986 108.314 146.369 108.314ZM153.863 109.117C152.934 109.117 152.213 108.832 151.701 108.262C151.193 107.688 150.939 106.877 150.939 105.83C150.939 104.756 151.197 103.926 151.713 103.34C152.232 102.754 152.971 102.461 153.928 102.461C154.236 102.461 154.545 102.494 154.854 102.561C155.162 102.627 155.404 102.705 155.58 102.795L155.281 103.621C155.066 103.535 154.832 103.465 154.578 103.41C154.324 103.352 154.1 103.322 153.904 103.322C152.6 103.322 151.947 104.154 151.947 105.818C151.947 106.607 152.105 107.213 152.422 107.635C152.742 108.057 153.215 108.268 153.84 108.268C154.375 108.268 154.924 108.152 155.486 107.922V108.783C155.057 109.006 154.516 109.117 153.863 109.117ZM159.729 109.117C158.779 109.117 158.029 108.828 157.479 108.25C156.932 107.672 156.658 106.869 156.658 105.842C156.658 104.807 156.912 103.984 157.42 103.375C157.932 102.766 158.617 102.461 159.477 102.461C160.281 102.461 160.918 102.727 161.387 103.258C161.855 103.785 162.09 104.482 162.09 105.35V105.965H157.666C157.686 106.719 157.875 107.291 158.234 107.682C158.598 108.072 159.107 108.268 159.764 108.268C160.455 108.268 161.139 108.123 161.814 107.834V108.701C161.471 108.85 161.145 108.955 160.836 109.018C160.531 109.084 160.162 109.117 159.729 109.117ZM159.465 103.275C158.949 103.275 158.537 103.443 158.229 103.779C157.924 104.115 157.744 104.58 157.689 105.174H161.047C161.047 104.561 160.91 104.092 160.637 103.768C160.363 103.439 159.973 103.275 159.465 103.275Z" fill="#007BC7"/>
<path d="M126.5 110.201H162.717V110.799H126.5V110.201Z" fill="#007BC7"/>
<path d="M115.04 135.06C115.301 135.06 115.507 135.144 115.656 135.312C115.815 135.471 115.894 135.685 115.894 135.956V144.174C115.894 144.445 115.815 144.664 115.656 144.832C115.497 145 115.292 145.084 115.04 145.084C114.741 145.084 114.513 144.977 114.354 144.762L109.244 138.112V144.174C109.244 144.445 109.169 144.664 109.02 144.832C108.871 145 108.665 145.084 108.404 145.084C108.143 145.084 107.937 145 107.788 144.832C107.639 144.664 107.564 144.445 107.564 144.174V135.956C107.564 135.685 107.643 135.471 107.802 135.312C107.961 135.144 108.171 135.06 108.432 135.06C108.721 135.06 108.945 135.167 109.104 135.382L114.2 142.004V135.956C114.2 135.685 114.275 135.471 114.424 135.312C114.583 135.144 114.788 135.06 115.04 135.06ZM120.991 145.112C120.291 145.112 119.675 144.967 119.143 144.678C118.62 144.389 118.214 143.973 117.925 143.432C117.636 142.891 117.491 142.261 117.491 141.542C117.491 140.823 117.636 140.198 117.925 139.666C118.214 139.125 118.62 138.709 119.143 138.42C119.675 138.131 120.291 137.986 120.991 137.986C121.691 137.986 122.302 138.131 122.825 138.42C123.357 138.709 123.763 139.125 124.043 139.666C124.332 140.198 124.477 140.823 124.477 141.542C124.477 142.261 124.332 142.891 124.043 143.432C123.763 143.973 123.357 144.389 122.825 144.678C122.302 144.967 121.691 145.112 120.991 145.112ZM120.977 143.754C121.546 143.754 121.98 143.567 122.279 143.194C122.578 142.821 122.727 142.27 122.727 141.542C122.727 140.823 122.578 140.277 122.279 139.904C121.98 139.521 121.551 139.33 120.991 139.33C120.431 139.33 119.997 139.521 119.689 139.904C119.39 140.277 119.241 140.823 119.241 141.542C119.241 142.27 119.39 142.821 119.689 143.194C119.988 143.567 120.417 143.754 120.977 143.754ZM134.056 137.986C134.802 137.986 135.372 138.21 135.764 138.658C136.165 139.097 136.366 139.811 136.366 140.8V144.244C136.366 144.515 136.282 144.725 136.114 144.874C135.955 145.014 135.745 145.084 135.484 145.084C135.232 145.084 135.022 145.014 134.854 144.874C134.695 144.725 134.616 144.515 134.616 144.244V140.8C134.616 140.287 134.522 139.923 134.336 139.708C134.158 139.484 133.883 139.372 133.51 139.372C133.052 139.372 132.688 139.531 132.418 139.848C132.147 140.156 132.012 140.581 132.012 141.122V144.244C132.012 144.515 131.928 144.725 131.76 144.874C131.601 145.014 131.396 145.084 131.144 145.084C130.892 145.084 130.682 145.014 130.514 144.874C130.346 144.725 130.262 144.515 130.262 144.244V140.8C130.262 140.287 130.168 139.923 129.982 139.708C129.804 139.484 129.529 139.372 129.156 139.372C128.698 139.372 128.334 139.531 128.064 139.848C127.802 140.156 127.672 140.581 127.672 141.122V144.244C127.672 144.515 127.588 144.725 127.42 144.874C127.252 145.014 127.042 145.084 126.79 145.084C126.538 145.084 126.328 145.014 126.16 144.874C126.001 144.725 125.922 144.515 125.922 144.244V138.826C125.922 138.565 126.006 138.364 126.174 138.224C126.342 138.084 126.552 138.014 126.804 138.014C127.046 138.014 127.242 138.084 127.392 138.224C127.55 138.355 127.63 138.546 127.63 138.798V139.134C127.844 138.761 128.129 138.476 128.484 138.28C128.848 138.084 129.263 137.986 129.73 137.986C130.756 137.986 131.442 138.415 131.788 139.274C131.993 138.882 132.296 138.569 132.698 138.336C133.099 138.103 133.552 137.986 134.056 137.986ZM142.078 137.986C142.676 137.986 143.203 138.131 143.66 138.42C144.118 138.709 144.472 139.12 144.724 139.652C144.986 140.184 145.116 140.805 145.116 141.514C145.116 142.223 144.986 142.853 144.724 143.404C144.472 143.945 144.113 144.365 143.646 144.664C143.189 144.963 142.666 145.112 142.078 145.112C141.584 145.112 141.14 145.005 140.748 144.79C140.366 144.575 140.072 144.277 139.866 143.894V144.244C139.866 144.496 139.787 144.697 139.628 144.846C139.47 144.995 139.26 145.07 138.998 145.07C138.737 145.07 138.527 144.995 138.368 144.846C138.219 144.697 138.144 144.496 138.144 144.244V135.872C138.144 135.629 138.224 135.433 138.382 135.284C138.55 135.135 138.765 135.06 139.026 135.06C139.288 135.06 139.498 135.13 139.656 135.27C139.815 135.41 139.894 135.601 139.894 135.844V139.148C140.1 138.775 140.394 138.49 140.776 138.294C141.159 138.089 141.593 137.986 142.078 137.986ZM141.616 143.754C142.167 143.754 142.596 143.558 142.904 143.166C143.212 142.774 143.366 142.223 143.366 141.514C143.366 140.814 143.212 140.277 142.904 139.904C142.606 139.531 142.176 139.344 141.616 139.344C141.056 139.344 140.622 139.535 140.314 139.918C140.016 140.291 139.866 140.833 139.866 141.542C139.866 142.251 140.016 142.797 140.314 143.18C140.622 143.563 141.056 143.754 141.616 143.754ZM150.375 138.014C150.617 137.995 150.809 138.047 150.949 138.168C151.089 138.289 151.159 138.471 151.159 138.714C151.159 138.966 151.098 139.153 150.977 139.274C150.855 139.395 150.636 139.475 150.319 139.512L149.899 139.554C149.348 139.61 148.942 139.797 148.681 140.114C148.429 140.431 148.303 140.828 148.303 141.304V144.244C148.303 144.515 148.219 144.725 148.051 144.874C147.883 145.014 147.673 145.084 147.421 145.084C147.169 145.084 146.959 145.014 146.791 144.874C146.632 144.725 146.553 144.515 146.553 144.244V138.826C146.553 138.565 146.632 138.364 146.791 138.224C146.959 138.084 147.164 138.014 147.407 138.014C147.649 138.014 147.845 138.084 147.995 138.224C148.144 138.355 148.219 138.546 148.219 138.798V139.358C148.396 138.947 148.657 138.63 149.003 138.406C149.357 138.182 149.749 138.056 150.179 138.028L150.375 138.014ZM157.193 143.124C157.352 143.124 157.478 143.185 157.571 143.306C157.674 143.427 157.725 143.591 157.725 143.796C157.725 144.085 157.553 144.328 157.207 144.524C156.89 144.701 156.531 144.846 156.129 144.958C155.728 145.061 155.345 145.112 154.981 145.112C153.88 145.112 153.007 144.795 152.363 144.16C151.719 143.525 151.397 142.657 151.397 141.556C151.397 140.856 151.537 140.235 151.817 139.694C152.097 139.153 152.489 138.733 152.993 138.434C153.507 138.135 154.085 137.986 154.729 137.986C155.345 137.986 155.882 138.121 156.339 138.392C156.797 138.663 157.151 139.045 157.403 139.54C157.655 140.035 157.781 140.618 157.781 141.29C157.781 141.691 157.604 141.892 157.249 141.892H153.119C153.175 142.536 153.357 143.012 153.665 143.32C153.973 143.619 154.421 143.768 155.009 143.768C155.308 143.768 155.569 143.731 155.793 143.656C156.027 143.581 156.288 143.479 156.577 143.348C156.857 143.199 157.063 143.124 157.193 143.124ZM154.771 139.218C154.295 139.218 153.913 139.367 153.623 139.666C153.343 139.965 153.175 140.394 153.119 140.954H156.283C156.265 140.385 156.125 139.955 155.863 139.666C155.602 139.367 155.238 139.218 154.771 139.218ZM168.726 135.06C168.987 135.06 169.202 135.135 169.37 135.284C169.538 135.433 169.622 135.629 169.622 135.872V144.244C169.622 144.496 169.542 144.697 169.384 144.846C169.225 144.995 169.015 145.07 168.754 145.07C168.492 145.07 168.282 144.995 168.124 144.846C167.965 144.697 167.886 144.496 167.886 144.244V143.894C167.68 144.277 167.382 144.575 166.99 144.79C166.607 145.005 166.168 145.112 165.674 145.112C165.086 145.112 164.558 144.963 164.092 144.664C163.634 144.365 163.275 143.945 163.014 143.404C162.762 142.853 162.636 142.223 162.636 141.514C162.636 140.805 162.762 140.184 163.014 139.652C163.275 139.12 163.634 138.709 164.092 138.42C164.549 138.131 165.076 137.986 165.674 137.986C166.168 137.986 166.607 138.089 166.99 138.294C167.372 138.499 167.666 138.789 167.872 139.162V135.844C167.872 135.611 167.946 135.424 168.096 135.284C168.254 135.135 168.464 135.06 168.726 135.06ZM166.136 143.754C166.696 143.754 167.125 143.563 167.424 143.18C167.732 142.797 167.886 142.251 167.886 141.542C167.886 140.833 167.732 140.291 167.424 139.918C167.125 139.535 166.7 139.344 166.15 139.344C165.59 139.344 165.156 139.531 164.848 139.904C164.54 140.277 164.386 140.814 164.386 141.514C164.386 142.223 164.54 142.774 164.848 143.166C165.156 143.558 165.585 143.754 166.136 143.754ZM176.84 143.124C176.998 143.124 177.124 143.185 177.218 143.306C177.32 143.427 177.372 143.591 177.372 143.796C177.372 144.085 177.199 144.328 176.854 144.524C176.536 144.701 176.177 144.846 175.776 144.958C175.374 145.061 174.992 145.112 174.628 145.112C173.526 145.112 172.654 144.795 172.01 144.16C171.366 143.525 171.044 142.657 171.044 141.556C171.044 140.856 171.184 140.235 171.464 139.694C171.744 139.153 172.136 138.733 172.64 138.434C173.153 138.135 173.732 137.986 174.376 137.986C174.992 137.986 175.528 138.121 175.986 138.392C176.443 138.663 176.798 139.045 177.05 139.54C177.302 140.035 177.428 140.618 177.428 141.29C177.428 141.691 177.25 141.892 176.896 141.892H172.766C172.822 142.536 173.004 143.012 173.312 143.32C173.62 143.619 174.068 143.768 174.656 143.768C174.954 143.768 175.216 143.731 175.44 143.656C175.673 143.581 175.934 143.479 176.224 143.348C176.504 143.199 176.709 143.124 176.84 143.124ZM174.418 139.218C173.942 139.218 173.559 139.367 173.27 139.666C172.99 139.965 172.822 140.394 172.766 140.954H175.93C175.911 140.385 175.771 139.955 175.51 139.666C175.248 139.367 174.884 139.218 174.418 139.218ZM185.628 137.986C186.58 137.986 187.285 138.224 187.742 138.7C188.209 139.167 188.442 139.881 188.442 140.842V144.258C188.442 144.51 188.367 144.711 188.218 144.86C188.069 145 187.863 145.07 187.602 145.07C187.359 145.07 187.159 144.995 187 144.846C186.851 144.697 186.776 144.501 186.776 144.258V143.95C186.617 144.314 186.365 144.599 186.02 144.804C185.684 145.009 185.292 145.112 184.844 145.112C184.387 145.112 183.971 145.019 183.598 144.832C183.225 144.645 182.931 144.389 182.716 144.062C182.501 143.735 182.394 143.371 182.394 142.97C182.394 142.466 182.52 142.069 182.772 141.78C183.033 141.491 183.453 141.281 184.032 141.15C184.611 141.019 185.409 140.954 186.426 140.954H186.776V140.632C186.776 140.175 186.678 139.843 186.482 139.638C186.286 139.423 185.969 139.316 185.53 139.316C185.259 139.316 184.984 139.358 184.704 139.442C184.424 139.517 184.093 139.629 183.71 139.778C183.467 139.899 183.29 139.96 183.178 139.96C183.01 139.96 182.87 139.899 182.758 139.778C182.655 139.657 182.604 139.498 182.604 139.302C182.604 139.143 182.641 139.008 182.716 138.896C182.8 138.775 182.935 138.663 183.122 138.56C183.449 138.383 183.836 138.243 184.284 138.14C184.741 138.037 185.189 137.986 185.628 137.986ZM185.194 143.852C185.661 143.852 186.039 143.698 186.328 143.39C186.627 143.073 186.776 142.667 186.776 142.172V141.878H186.524C185.899 141.878 185.413 141.906 185.068 141.962C184.723 142.018 184.475 142.116 184.326 142.256C184.177 142.396 184.102 142.587 184.102 142.83C184.102 143.129 184.205 143.376 184.41 143.572C184.625 143.759 184.886 143.852 185.194 143.852ZM194.043 138.014C194.285 137.995 194.477 138.047 194.617 138.168C194.757 138.289 194.827 138.471 194.827 138.714C194.827 138.966 194.766 139.153 194.645 139.274C194.523 139.395 194.304 139.475 193.987 139.512L193.567 139.554C193.016 139.61 192.61 139.797 192.349 140.114C192.097 140.431 191.971 140.828 191.971 141.304V144.244C191.971 144.515 191.887 144.725 191.719 144.874C191.551 145.014 191.341 145.084 191.089 145.084C190.837 145.084 190.627 145.014 190.459 144.874C190.3 144.725 190.221 144.515 190.221 144.244V138.826C190.221 138.565 190.3 138.364 190.459 138.224C190.627 138.084 190.832 138.014 191.075 138.014C191.317 138.014 191.513 138.084 191.663 138.224C191.812 138.355 191.887 138.546 191.887 138.798V139.358C192.064 138.947 192.325 138.63 192.671 138.406C193.025 138.182 193.417 138.056 193.847 138.028L194.043 138.014ZM198.481 145.112C197.8 145.112 197.198 144.967 196.675 144.678C196.162 144.389 195.765 143.978 195.485 143.446C195.205 142.914 195.065 142.293 195.065 141.584C195.065 140.875 195.21 140.249 195.499 139.708C195.798 139.157 196.213 138.733 196.745 138.434C197.277 138.135 197.889 137.986 198.579 137.986C198.943 137.986 199.307 138.037 199.671 138.14C200.045 138.243 200.371 138.383 200.651 138.56C200.95 138.756 201.099 139.003 201.099 139.302C201.099 139.507 201.048 139.675 200.945 139.806C200.852 139.927 200.726 139.988 200.567 139.988C200.465 139.988 200.357 139.965 200.245 139.918C200.133 139.871 200.021 139.815 199.909 139.75C199.704 139.629 199.508 139.535 199.321 139.47C199.135 139.395 198.92 139.358 198.677 139.358C198.099 139.358 197.651 139.549 197.333 139.932C197.025 140.305 196.871 140.847 196.871 141.556C196.871 142.256 197.025 142.797 197.333 143.18C197.651 143.553 198.099 143.74 198.677 143.74C198.911 143.74 199.116 143.707 199.293 143.642C199.48 143.567 199.685 143.469 199.909 143.348C200.049 143.264 200.171 143.203 200.273 143.166C200.376 143.119 200.479 143.096 200.581 143.096C200.731 143.096 200.857 143.161 200.959 143.292C201.062 143.423 201.113 143.586 201.113 143.782C201.113 143.941 201.076 144.081 201.001 144.202C200.936 144.314 200.824 144.417 200.665 144.51C200.376 144.697 200.04 144.846 199.657 144.958C199.275 145.061 198.883 145.112 198.481 145.112ZM206.283 137.986C207.888 137.986 208.691 138.924 208.691 140.8V144.244C208.691 144.505 208.612 144.711 208.453 144.86C208.304 145.009 208.094 145.084 207.823 145.084C207.552 145.084 207.338 145.009 207.179 144.86C207.02 144.711 206.941 144.505 206.941 144.244V140.8C206.941 140.305 206.838 139.946 206.633 139.722C206.437 139.489 206.124 139.372 205.695 139.372C205.191 139.372 204.785 139.531 204.477 139.848C204.178 140.165 204.029 140.59 204.029 141.122V144.244C204.029 144.505 203.95 144.711 203.791 144.86C203.632 145.009 203.418 145.084 203.147 145.084C202.876 145.084 202.662 145.009 202.503 144.86C202.354 144.711 202.279 144.505 202.279 144.244V135.872C202.279 135.629 202.358 135.433 202.517 135.284C202.685 135.135 202.9 135.06 203.161 135.06C203.422 135.06 203.632 135.13 203.791 135.27C203.95 135.41 204.029 135.601 204.029 135.844V139.106C204.262 138.742 204.57 138.467 204.953 138.28C205.345 138.084 205.788 137.986 206.283 137.986ZM211.337 145.084C211.085 145.084 210.875 145.014 210.707 144.874C210.548 144.725 210.469 144.515 210.469 144.244V138.84C210.469 138.569 210.548 138.364 210.707 138.224C210.875 138.084 211.085 138.014 211.337 138.014C211.589 138.014 211.799 138.084 211.967 138.224C212.135 138.364 212.219 138.569 212.219 138.84V144.244C212.219 144.515 212.135 144.725 211.967 144.874C211.799 145.014 211.589 145.084 211.337 145.084ZM211.337 136.768C211.019 136.768 210.767 136.684 210.581 136.516C210.394 136.339 210.301 136.11 210.301 135.83C210.301 135.55 210.394 135.326 210.581 135.158C210.767 134.99 211.019 134.906 211.337 134.906C211.645 134.906 211.892 134.99 212.079 135.158C212.275 135.326 212.373 135.55 212.373 135.83C212.373 136.11 212.279 136.339 212.093 136.516C211.906 136.684 211.654 136.768 211.337 136.768ZM218.797 138.518C218.872 138.35 218.97 138.224 219.091 138.14C219.222 138.056 219.362 138.014 219.511 138.014C219.726 138.014 219.917 138.089 220.085 138.238C220.263 138.378 220.351 138.555 220.351 138.77C220.351 138.882 220.323 138.994 220.267 139.106L217.677 144.524C217.593 144.701 217.472 144.837 217.313 144.93C217.164 145.023 216.996 145.07 216.809 145.07C216.632 145.07 216.459 145.023 216.291 144.93C216.133 144.837 216.011 144.701 215.927 144.524L213.323 139.106C213.277 139.013 213.253 138.905 213.253 138.784C213.253 138.569 213.342 138.387 213.519 138.238C213.706 138.089 213.916 138.014 214.149 138.014C214.485 138.014 214.733 138.177 214.891 138.504L216.851 142.83L218.797 138.518ZM224.405 145.112C223.705 145.112 223.089 144.967 222.557 144.678C222.034 144.389 221.628 143.973 221.339 143.432C221.05 142.891 220.905 142.261 220.905 141.542C220.905 140.823 221.05 140.198 221.339 139.666C221.628 139.125 222.034 138.709 222.557 138.42C223.089 138.131 223.705 137.986 224.405 137.986C225.105 137.986 225.716 138.131 226.239 138.42C226.771 138.709 227.177 139.125 227.457 139.666C227.746 140.198 227.891 140.823 227.891 141.542C227.891 142.261 227.746 142.891 227.457 143.432C227.177 143.973 226.771 144.389 226.239 144.678C225.716 144.967 225.105 145.112 224.405 145.112ZM224.391 143.754C224.96 143.754 225.394 143.567 225.693 143.194C225.992 142.821 226.141 142.27 226.141 141.542C226.141 140.823 225.992 140.277 225.693 139.904C225.394 139.521 224.965 139.33 224.405 139.33C223.845 139.33 223.411 139.521 223.103 139.904C222.804 140.277 222.655 140.823 222.655 141.542C222.655 142.27 222.804 142.821 223.103 143.194C223.402 143.567 223.831 143.754 224.391 143.754Z" fill="#38485C"/>
<g clip-path="url(#clip2_2199_70577)">
<path d="M116.177 156.25H115.25V153.333C115.25 153.013 114.987 152.75 114.667 152.75H112.333C112.012 152.75 111.75 153.013 111.75 153.333V156.25H110.822C110.303 156.25 110.041 156.88 110.408 157.248L113.086 159.925C113.313 160.153 113.681 160.153 113.908 159.925L116.586 157.248C116.953 156.88 116.697 156.25 116.177 156.25ZM109.417 162.083C109.417 162.404 109.679 162.667 110 162.667H117C117.321 162.667 117.583 162.404 117.583 162.083C117.583 161.763 117.321 161.5 117 161.5H110C109.679 161.5 109.417 161.763 109.417 162.083Z" fill="#007BC7"/>
</g>
<path d="M132.453 163H127.678V154.434H132.453V155.318H128.674V158.078H132.225V158.957H128.674V162.109H132.453V163ZM138.605 163V158.846C138.605 158.322 138.486 157.932 138.248 157.674C138.01 157.416 137.637 157.287 137.129 157.287C136.457 157.287 135.965 157.469 135.652 157.832C135.34 158.195 135.184 158.795 135.184 159.631V163H134.211V156.578H135.002L135.16 157.457H135.207C135.406 157.141 135.686 156.896 136.045 156.725C136.404 156.549 136.805 156.461 137.246 156.461C138.02 156.461 138.602 156.648 138.992 157.023C139.383 157.395 139.578 157.99 139.578 158.811V163H138.605ZM142.555 163H141.582V153.883H142.555V163ZM148.566 163L148.373 162.086H148.326C148.006 162.488 147.686 162.762 147.365 162.906C147.049 163.047 146.652 163.117 146.176 163.117C145.539 163.117 145.039 162.953 144.676 162.625C144.316 162.297 144.137 161.83 144.137 161.225C144.137 159.928 145.174 159.248 147.248 159.186L148.338 159.15V158.752C148.338 158.248 148.229 157.877 148.01 157.639C147.795 157.396 147.449 157.275 146.973 157.275C146.438 157.275 145.832 157.439 145.156 157.768L144.857 157.023C145.174 156.852 145.52 156.717 145.895 156.619C146.273 156.521 146.652 156.473 147.031 156.473C147.797 156.473 148.363 156.643 148.73 156.982C149.102 157.322 149.287 157.867 149.287 158.617V163H148.566ZM146.369 162.314C146.975 162.314 147.449 162.148 147.793 161.816C148.141 161.484 148.314 161.02 148.314 160.422V159.842L147.342 159.883C146.568 159.91 146.01 160.031 145.666 160.246C145.326 160.457 145.156 160.787 145.156 161.236C145.156 161.588 145.262 161.855 145.473 162.039C145.688 162.223 145.986 162.314 146.369 162.314ZM153.863 163.117C152.934 163.117 152.213 162.832 151.701 162.262C151.193 161.688 150.939 160.877 150.939 159.83C150.939 158.756 151.197 157.926 151.713 157.34C152.232 156.754 152.971 156.461 153.928 156.461C154.236 156.461 154.545 156.494 154.854 156.561C155.162 156.627 155.404 156.705 155.58 156.795L155.281 157.621C155.066 157.535 154.832 157.465 154.578 157.41C154.324 157.352 154.1 157.322 153.904 157.322C152.6 157.322 151.947 158.154 151.947 159.818C151.947 160.607 152.105 161.213 152.422 161.635C152.742 162.057 153.215 162.268 153.84 162.268C154.375 162.268 154.924 162.152 155.486 161.922V162.783C155.057 163.006 154.516 163.117 153.863 163.117ZM159.729 163.117C158.779 163.117 158.029 162.828 157.479 162.25C156.932 161.672 156.658 160.869 156.658 159.842C156.658 158.807 156.912 157.984 157.42 157.375C157.932 156.766 158.617 156.461 159.477 156.461C160.281 156.461 160.918 156.727 161.387 157.258C161.855 157.785 162.09 158.482 162.09 159.35V159.965H157.666C157.686 160.719 157.875 161.291 158.234 161.682C158.598 162.072 159.107 162.268 159.764 162.268C160.455 162.268 161.139 162.123 161.814 161.834V162.701C161.471 162.85 161.145 162.955 160.836 163.018C160.531 163.084 160.162 163.117 159.729 163.117ZM159.465 157.275C158.949 157.275 158.537 157.443 158.229 157.779C157.924 158.115 157.744 158.58 157.689 159.174H161.047C161.047 158.561 160.91 158.092 160.637 157.768C160.363 157.439 159.973 157.275 159.465 157.275Z" fill="#007BC7"/>
<path d="M126.5 164.201H162.717V164.799H126.5V164.201Z" fill="#007BC7"/>
<defs>
<clipPath id="clip0_2199_70577">
<rect width="14" height="14" fill="white" transform="translate(106.5 43)"/>
</clipPath>
<clipPath id="clip1_2199_70577">
<rect width="14" height="14" fill="white" transform="translate(106.5 97)"/>
</clipPath>
<clipPath id="clip2_2199_70577">
<rect width="14" height="14" fill="white" transform="translate(106.5 151)"/>
</clipPath>
</defs>
</svg>
