<svg width="340" height="190" viewBox="0 0 340 190" fill="none" xmlns="http://www.w3.org/2000/svg">
<rect width="340" height="190" fill="#F3F6F9"/>
<path d="M76.0703 101V89.5781H77.3984V101H76.0703ZM86.2031 101V95.4609C86.2031 94.763 86.0443 94.2422 85.7266 93.8984C85.4089 93.5547 84.9115 93.3828 84.2344 93.3828C83.3385 93.3828 82.6823 93.625 82.2656 94.1094C81.849 94.5938 81.6406 95.3932 81.6406 96.5078V101H80.3438V92.4375H81.3984L81.6094 93.6094H81.6719C81.9375 93.1875 82.3099 92.862 82.7891 92.6328C83.2682 92.3984 83.8021 92.2812 84.3906 92.2812C85.4219 92.2812 86.1979 92.5312 86.7188 93.0312C87.2396 93.526 87.5 94.3203 87.5 95.4141V101H86.2031ZM91.4688 101H90.1719V92.4375H91.4688V101ZM90.0625 90.1172C90.0625 89.8203 90.1354 89.6042 90.2812 89.4688C90.4271 89.3281 90.6094 89.2578 90.8281 89.2578C91.0365 89.2578 91.2161 89.3281 91.3672 89.4688C91.5182 89.6094 91.5938 89.8255 91.5938 90.1172C91.5938 90.4089 91.5182 90.6276 91.3672 90.7734C91.2161 90.9141 91.0365 90.9844 90.8281 90.9844C90.6094 90.9844 90.4271 90.9141 90.2812 90.7734C90.1354 90.6276 90.0625 90.4089 90.0625 90.1172ZM97.6406 101.156C96.401 101.156 95.4401 100.776 94.7578 100.016C94.0807 99.25 93.7422 98.1693 93.7422 96.7734C93.7422 95.3411 94.0859 94.2344 94.7734 93.4531C95.4661 92.6719 96.4505 92.2812 97.7266 92.2812C98.138 92.2812 98.5495 92.3255 98.9609 92.4141C99.3724 92.5026 99.6953 92.6068 99.9297 92.7266L99.5312 93.8281C99.2448 93.7135 98.9323 93.6198 98.5938 93.5469C98.2552 93.4688 97.9557 93.4297 97.6953 93.4297C95.9557 93.4297 95.0859 94.5391 95.0859 96.7578C95.0859 97.8099 95.2969 98.6172 95.7188 99.1797C96.1458 99.7422 96.776 100.023 97.6094 100.023C98.3229 100.023 99.0547 99.8698 99.8047 99.5625V100.711C99.2318 101.008 98.5104 101.156 97.6406 101.156ZM103.141 101H101.844V92.4375H103.141V101ZM101.734 90.1172C101.734 89.8203 101.807 89.6042 101.953 89.4688C102.099 89.3281 102.281 89.2578 102.5 89.2578C102.708 89.2578 102.888 89.3281 103.039 89.4688C103.19 89.6094 103.266 89.8255 103.266 90.1172C103.266 90.4089 103.19 90.6276 103.039 90.7734C102.888 90.9141 102.708 90.9844 102.5 90.9844C102.281 90.9844 102.099 90.9141 101.953 90.7734C101.807 90.6276 101.734 90.4089 101.734 90.1172ZM113.281 96.7109C113.281 98.1068 112.93 99.1979 112.227 99.9844C111.523 100.766 110.552 101.156 109.312 101.156C108.547 101.156 107.867 100.977 107.273 100.617C106.68 100.258 106.221 99.7422 105.898 99.0703C105.576 98.3984 105.414 97.612 105.414 96.7109C105.414 95.3151 105.763 94.2292 106.461 93.4531C107.159 92.6719 108.128 92.2812 109.367 92.2812C110.565 92.2812 111.516 92.6797 112.219 93.4766C112.927 94.2734 113.281 95.3516 113.281 96.7109ZM106.758 96.7109C106.758 97.8047 106.977 98.638 107.414 99.2109C107.852 99.7839 108.495 100.07 109.344 100.07C110.193 100.07 110.836 99.7865 111.273 99.2188C111.716 98.6458 111.938 97.8099 111.938 96.7109C111.938 95.6224 111.716 94.7969 111.273 94.2344C110.836 93.6667 110.188 93.3828 109.328 93.3828C108.479 93.3828 107.839 93.6615 107.406 94.2188C106.974 94.776 106.758 95.6068 106.758 96.7109Z" fill="#007BC7"/>
<path d="M74.5 102.602H114.18V103.398H74.5V102.602Z" fill="#007BC7"/>
<g clip-path="url(#clip0_2193_22935)">
<path d="M131.79 98.8805L135.67 95.0005L131.79 91.1205C131.4 90.7305 131.4 90.1005 131.79 89.7105C132.18 89.3205 132.81 89.3205 133.2 89.7105L137.79 94.3005C138.18 94.6905 138.18 95.3205 137.79 95.7105L133.2 100.3C132.81 100.69 132.18 100.69 131.79 100.3C131.41 99.9105 131.4 99.2705 131.79 98.8805Z" fill="#38485C"/>
</g>
<path d="M159.312 92.9062C159.312 94.0625 158.917 94.9531 158.125 95.5781C157.339 96.1979 156.211 96.5078 154.742 96.5078H153.398V101H152.07V89.5781H155.031C157.885 89.5781 159.312 90.6875 159.312 92.9062ZM153.398 95.3672H154.594C155.771 95.3672 156.622 95.1771 157.148 94.7969C157.674 94.4167 157.938 93.8073 157.938 92.9688C157.938 92.2135 157.69 91.651 157.195 91.2812C156.701 90.9115 155.93 90.7266 154.883 90.7266H153.398V95.3672ZM166.781 101L166.523 99.7812H166.461C166.034 100.318 165.607 100.682 165.18 100.875C164.758 101.062 164.229 101.156 163.594 101.156C162.745 101.156 162.078 100.938 161.594 100.5C161.115 100.062 160.875 99.4401 160.875 98.6328C160.875 96.9036 162.258 95.9974 165.023 95.9141L166.477 95.8672V95.3359C166.477 94.6641 166.331 94.1693 166.039 93.8516C165.753 93.5286 165.292 93.3672 164.656 93.3672C163.943 93.3672 163.135 93.5859 162.234 94.0234L161.836 93.0312C162.258 92.8021 162.719 92.6224 163.219 92.4922C163.724 92.362 164.229 92.2969 164.734 92.2969C165.755 92.2969 166.51 92.5234 167 92.9766C167.495 93.4297 167.742 94.1562 167.742 95.1562V101H166.781ZM163.852 100.086C164.659 100.086 165.292 99.8646 165.75 99.4219C166.214 98.9792 166.445 98.3594 166.445 97.5625V96.7891L165.148 96.8438C164.117 96.8802 163.372 97.0417 162.914 97.3281C162.461 97.6094 162.234 98.0495 162.234 98.6484C162.234 99.1172 162.375 99.474 162.656 99.7188C162.943 99.9635 163.341 100.086 163.852 100.086ZM163.547 91.1094C163.797 90.7865 164.065 90.3958 164.352 89.9375C164.643 89.4792 164.872 89.0807 165.039 88.7422H166.617V88.9062C166.388 89.2448 166.047 89.6615 165.594 90.1562C165.141 90.651 164.747 91.0339 164.414 91.3047H163.547V91.1094ZM177.43 92.4375V93.2578L175.844 93.4453C175.99 93.6276 176.12 93.8672 176.234 94.1641C176.349 94.4557 176.406 94.7865 176.406 95.1562C176.406 95.9948 176.12 96.6641 175.547 97.1641C174.974 97.6641 174.188 97.9141 173.188 97.9141C172.932 97.9141 172.693 97.8932 172.469 97.8516C171.917 98.1432 171.641 98.5104 171.641 98.9531C171.641 99.1875 171.737 99.362 171.93 99.4766C172.122 99.5859 172.453 99.6406 172.922 99.6406H174.438C175.365 99.6406 176.076 99.8359 176.57 100.227C177.07 100.617 177.32 101.185 177.32 101.93C177.32 102.878 176.94 103.599 176.18 104.094C175.419 104.594 174.31 104.844 172.852 104.844C171.732 104.844 170.867 104.635 170.258 104.219C169.654 103.802 169.352 103.214 169.352 102.453C169.352 101.932 169.518 101.482 169.852 101.102C170.185 100.721 170.654 100.464 171.258 100.328C171.039 100.229 170.854 100.076 170.703 99.8672C170.557 99.6589 170.484 99.4167 170.484 99.1406C170.484 98.8281 170.568 98.5547 170.734 98.3203C170.901 98.0859 171.164 97.8594 171.523 97.6406C171.081 97.4583 170.719 97.1484 170.438 96.7109C170.161 96.2734 170.023 95.7734 170.023 95.2109C170.023 94.2734 170.305 93.5521 170.867 93.0469C171.43 92.5365 172.227 92.2812 173.258 92.2812C173.706 92.2812 174.109 92.3333 174.469 92.4375H177.43ZM170.602 102.438C170.602 102.901 170.797 103.253 171.188 103.492C171.578 103.732 172.138 103.852 172.867 103.852C173.956 103.852 174.76 103.688 175.281 103.359C175.807 103.036 176.07 102.596 176.07 102.039C176.07 101.576 175.927 101.253 175.641 101.07C175.354 100.893 174.815 100.805 174.023 100.805H172.469C171.88 100.805 171.422 100.945 171.094 101.227C170.766 101.508 170.602 101.911 170.602 102.438ZM171.305 95.1797C171.305 95.7786 171.474 96.2318 171.812 96.5391C172.151 96.8464 172.622 97 173.227 97C174.492 97 175.125 96.3854 175.125 95.1562C175.125 93.8698 174.484 93.2266 173.203 93.2266C172.594 93.2266 172.125 93.3906 171.797 93.7188C171.469 94.0469 171.305 94.5339 171.305 95.1797ZM180.484 101H179.188V92.4375H180.484V101ZM179.078 90.1172C179.078 89.8203 179.151 89.6042 179.297 89.4688C179.443 89.3281 179.625 89.2578 179.844 89.2578C180.052 89.2578 180.232 89.3281 180.383 89.4688C180.534 89.6094 180.609 89.8255 180.609 90.1172C180.609 90.4089 180.534 90.6276 180.383 90.7734C180.232 90.9141 180.052 90.9844 179.844 90.9844C179.625 90.9844 179.443 90.9141 179.297 90.7734C179.151 90.6276 179.078 90.4089 179.078 90.1172ZM189.094 101V95.4609C189.094 94.763 188.935 94.2422 188.617 93.8984C188.299 93.5547 187.802 93.3828 187.125 93.3828C186.229 93.3828 185.573 93.625 185.156 94.1094C184.74 94.5938 184.531 95.3932 184.531 96.5078V101H183.234V92.4375H184.289L184.5 93.6094H184.562C184.828 93.1875 185.201 92.862 185.68 92.6328C186.159 92.3984 186.693 92.2812 187.281 92.2812C188.312 92.2812 189.089 92.5312 189.609 93.0312C190.13 93.526 190.391 94.3203 190.391 95.4141V101H189.094ZM198.328 101L198.07 99.7812H198.008C197.581 100.318 197.154 100.682 196.727 100.875C196.305 101.062 195.776 101.156 195.141 101.156C194.292 101.156 193.625 100.938 193.141 100.5C192.661 100.062 192.422 99.4401 192.422 98.6328C192.422 96.9036 193.805 95.9974 196.57 95.9141L198.023 95.8672V95.3359C198.023 94.6641 197.878 94.1693 197.586 93.8516C197.299 93.5286 196.839 93.3672 196.203 93.3672C195.49 93.3672 194.682 93.5859 193.781 94.0234L193.383 93.0312C193.805 92.8021 194.266 92.6224 194.766 92.4922C195.271 92.362 195.776 92.2969 196.281 92.2969C197.302 92.2969 198.057 92.5234 198.547 92.9766C199.042 93.4297 199.289 94.1562 199.289 95.1562V101H198.328ZM195.398 100.086C196.206 100.086 196.839 99.8646 197.297 99.4219C197.76 98.9792 197.992 98.3594 197.992 97.5625V96.7891L196.695 96.8438C195.664 96.8802 194.919 97.0417 194.461 97.3281C194.008 97.6094 193.781 98.0495 193.781 98.6484C193.781 99.1172 193.922 99.474 194.203 99.7188C194.49 99.9635 194.888 100.086 195.398 100.086ZM211.391 101L211.133 99.7812H211.07C210.643 100.318 210.216 100.682 209.789 100.875C209.367 101.062 208.839 101.156 208.203 101.156C207.354 101.156 206.688 100.938 206.203 100.5C205.724 100.062 205.484 99.4401 205.484 98.6328C205.484 96.9036 206.867 95.9974 209.633 95.9141L211.086 95.8672V95.3359C211.086 94.6641 210.94 94.1693 210.648 93.8516C210.362 93.5286 209.901 93.3672 209.266 93.3672C208.552 93.3672 207.745 93.5859 206.844 94.0234L206.445 93.0312C206.867 92.8021 207.328 92.6224 207.828 92.4922C208.333 92.362 208.839 92.2969 209.344 92.2969C210.365 92.2969 211.12 92.5234 211.609 92.9766C212.104 93.4297 212.352 94.1562 212.352 95.1562V101H211.391ZM208.461 100.086C209.268 100.086 209.901 99.8646 210.359 99.4219C210.823 98.9792 211.055 98.3594 211.055 97.5625V96.7891L209.758 96.8438C208.727 96.8802 207.982 97.0417 207.523 97.3281C207.07 97.6094 206.844 98.0495 206.844 98.6484C206.844 99.1172 206.984 99.474 207.266 99.7188C207.552 99.9635 207.951 100.086 208.461 100.086ZM220.891 101V95.4609C220.891 94.763 220.732 94.2422 220.414 93.8984C220.096 93.5547 219.599 93.3828 218.922 93.3828C218.026 93.3828 217.37 93.625 216.953 94.1094C216.536 94.5938 216.328 95.3932 216.328 96.5078V101H215.031V92.4375H216.086L216.297 93.6094H216.359C216.625 93.1875 216.997 92.862 217.477 92.6328C217.956 92.3984 218.49 92.2812 219.078 92.2812C220.109 92.2812 220.885 92.5312 221.406 93.0312C221.927 93.526 222.188 94.3203 222.188 95.4141V101H220.891ZM227.625 100.086C227.854 100.086 228.076 100.07 228.289 100.039C228.503 100.003 228.672 99.9661 228.797 99.9297V100.922C228.656 100.99 228.448 101.044 228.172 101.086C227.901 101.133 227.656 101.156 227.438 101.156C225.781 101.156 224.953 100.284 224.953 98.5391V93.4453H223.727V92.8203L224.953 92.2812L225.5 90.4531H226.25V92.4375H228.734V93.4453H226.25V98.4844C226.25 99 226.372 99.3958 226.617 99.6719C226.862 99.9479 227.198 100.086 227.625 100.086ZM234.133 101.156C232.867 101.156 231.867 100.771 231.133 100C230.404 99.2292 230.039 98.1589 230.039 96.7891C230.039 95.4089 230.378 94.3125 231.055 93.5C231.737 92.6875 232.651 92.2812 233.797 92.2812C234.87 92.2812 235.719 92.6354 236.344 93.3438C236.969 94.0469 237.281 94.9766 237.281 96.1328V96.9531H231.383C231.409 97.9583 231.661 98.7214 232.141 99.2422C232.625 99.763 233.305 100.023 234.18 100.023C235.102 100.023 236.013 99.8307 236.914 99.4453V100.602C236.456 100.799 236.021 100.94 235.609 101.023C235.203 101.112 234.711 101.156 234.133 101.156ZM233.781 93.3672C233.094 93.3672 232.544 93.5911 232.133 94.0391C231.727 94.487 231.487 95.1068 231.414 95.8984H235.891C235.891 95.0807 235.708 94.4557 235.344 94.0234C234.979 93.5859 234.458 93.3672 233.781 93.3672ZM243.406 92.2812C243.786 92.2812 244.128 92.3125 244.43 92.375L244.25 93.5781C243.896 93.5 243.583 93.4609 243.312 93.4609C242.62 93.4609 242.026 93.7422 241.531 94.3047C241.042 94.8672 240.797 95.5677 240.797 96.4062V101H239.5V92.4375H240.57L240.719 94.0234H240.781C241.099 93.4661 241.482 93.0365 241.93 92.7344C242.378 92.4323 242.87 92.2812 243.406 92.2812ZM247.328 101H246.031V92.4375H247.328V101ZM245.922 90.1172C245.922 89.8203 245.995 89.6042 246.141 89.4688C246.286 89.3281 246.469 89.2578 246.688 89.2578C246.896 89.2578 247.076 89.3281 247.227 89.4688C247.378 89.6094 247.453 89.8255 247.453 90.1172C247.453 90.4089 247.378 90.6276 247.227 90.7734C247.076 90.9141 246.896 90.9844 246.688 90.9844C246.469 90.9844 246.286 90.9141 246.141 90.7734C245.995 90.6276 245.922 90.4089 245.922 90.1172ZM257.469 96.7109C257.469 98.1068 257.117 99.1979 256.414 99.9844C255.711 100.766 254.74 101.156 253.5 101.156C252.734 101.156 252.055 100.977 251.461 100.617C250.867 100.258 250.409 99.7422 250.086 99.0703C249.763 98.3984 249.602 97.612 249.602 96.7109C249.602 95.3151 249.951 94.2292 250.648 93.4531C251.346 92.6719 252.315 92.2812 253.555 92.2812C254.753 92.2812 255.703 92.6797 256.406 93.4766C257.115 94.2734 257.469 95.3516 257.469 96.7109ZM250.945 96.7109C250.945 97.8047 251.164 98.638 251.602 99.2109C252.039 99.7839 252.682 100.07 253.531 100.07C254.38 100.07 255.023 99.7865 255.461 99.2188C255.904 98.6458 256.125 97.8099 256.125 96.7109C256.125 95.6224 255.904 94.7969 255.461 94.2344C255.023 93.6667 254.375 93.3828 253.516 93.3828C252.667 93.3828 252.026 93.6615 251.594 94.2188C251.161 94.776 250.945 95.6068 250.945 96.7109ZM263.656 92.2812C264.036 92.2812 264.378 92.3125 264.68 92.375L264.5 93.5781C264.146 93.5 263.833 93.4609 263.562 93.4609C262.87 93.4609 262.276 93.7422 261.781 94.3047C261.292 94.8672 261.047 95.5677 261.047 96.4062V101H259.75V92.4375H260.82L260.969 94.0234H261.031C261.349 93.4661 261.732 93.0365 262.18 92.7344C262.628 92.4323 263.12 92.2812 263.656 92.2812Z" fill="#007BC7"/>
<path d="M150.5 102.602H264.906V103.398H150.5V102.602Z" fill="#007BC7"/>
<defs>
<clipPath id="clip0_2193_22935">
<rect width="24" height="24" fill="white" transform="translate(122.5 83)"/>
</clipPath>
</defs>
</svg>
