<svg width="340" height="190" viewBox="0 0 340 190" fill="none" xmlns="http://www.w3.org/2000/svg">
<rect width="340" height="190" fill="#F3F6F9"/>
<rect x="61.5" y="32.5" width="217" height="125" rx="5" fill="white"/>
<path d="M76.294 57.5C76.0427 57.5 75.8433 57.4307 75.696 57.292C75.5573 57.1533 75.488 56.9583 75.488 56.707V49.128C75.488 48.8767 75.5573 48.6817 75.696 48.543C75.8433 48.4043 76.0427 48.335 76.294 48.335H80.987C81.2383 48.335 81.4333 48.3913 81.572 48.504C81.7107 48.6167 81.78 48.777 81.78 48.985C81.78 49.2017 81.7107 49.3707 81.572 49.492C81.4333 49.6047 81.2383 49.661 80.987 49.661H77.126V52.183H80.727C80.9783 52.183 81.1733 52.2393 81.312 52.352C81.4507 52.4647 81.52 52.6293 81.52 52.846C81.52 53.054 81.4507 53.2143 81.312 53.327C81.1733 53.4397 80.9783 53.496 80.727 53.496H77.126V56.174H80.987C81.2383 56.174 81.4333 56.2347 81.572 56.356C81.7107 56.4687 81.78 56.6333 81.78 56.85C81.78 57.058 81.7107 57.2183 81.572 57.331C81.4333 57.4437 81.2383 57.5 80.987 57.5H76.294ZM85.3013 57.604C84.3566 57.604 83.5939 57.4177 83.0133 57.045C82.7359 56.8803 82.5973 56.6463 82.5973 56.343C82.5973 56.1697 82.6449 56.031 82.7403 55.927C82.8356 55.8143 82.9526 55.758 83.0913 55.758C83.2386 55.758 83.4423 55.8273 83.7023 55.966C83.9796 56.096 84.2309 56.1957 84.4563 56.265C84.6903 56.3343 84.9849 56.369 85.3403 56.369C85.7043 56.369 85.9859 56.3083 86.1853 56.187C86.3933 56.0657 86.4973 55.8967 86.4973 55.68C86.4973 55.5327 86.4539 55.4157 86.3673 55.329C86.2893 55.2423 86.1419 55.1643 85.9253 55.095C85.7173 55.017 85.3966 54.9303 84.9633 54.835C84.1919 54.679 83.6373 54.458 83.2993 54.172C82.9699 53.886 82.8053 53.4917 82.8053 52.989C82.8053 52.6077 82.9179 52.2653 83.1433 51.962C83.3686 51.65 83.6763 51.4117 84.0663 51.247C84.4649 51.0737 84.9156 50.987 85.4183 50.987C85.7823 50.987 86.1333 51.0347 86.4713 51.13C86.8093 51.2167 87.1126 51.3467 87.3813 51.52C87.6586 51.6933 87.7973 51.923 87.7973 52.209C87.7973 52.3823 87.7496 52.5297 87.6543 52.651C87.5589 52.7637 87.4419 52.82 87.3033 52.82C87.2079 52.82 87.1126 52.8027 87.0173 52.768C86.9306 52.7247 86.8179 52.664 86.6793 52.586C86.4279 52.456 86.2113 52.3607 86.0293 52.3C85.8473 52.2307 85.6219 52.196 85.3533 52.196C85.0326 52.196 84.7769 52.261 84.5863 52.391C84.4043 52.521 84.3133 52.6987 84.3133 52.924C84.3133 53.1407 84.4086 53.3053 84.5993 53.418C84.7899 53.5307 85.1583 53.6433 85.7043 53.756C86.2849 53.8773 86.7399 54.016 87.0693 54.172C87.3986 54.328 87.6326 54.523 87.7713 54.757C87.9186 54.991 87.9923 55.29 87.9923 55.654C87.9923 56.2433 87.7453 56.7157 87.2513 57.071C86.7659 57.4263 86.1159 57.604 85.3013 57.604ZM92.5484 56.369C92.9817 56.395 93.1984 56.59 93.1984 56.954C93.1984 57.162 93.1117 57.3223 92.9384 57.435C92.7737 57.539 92.5354 57.5823 92.2234 57.565L91.8724 57.539C90.4164 57.435 89.6884 56.655 89.6884 55.199V52.365H89.0384C88.8044 52.365 88.6224 52.313 88.4924 52.209C88.371 52.105 88.3104 51.9533 88.3104 51.754C88.3104 51.5547 88.371 51.403 88.4924 51.299C88.6224 51.195 88.8044 51.143 89.0384 51.143H89.6884V49.947C89.6884 49.713 89.762 49.5267 89.9094 49.388C90.0567 49.2493 90.256 49.18 90.5074 49.18C90.75 49.18 90.945 49.2493 91.0924 49.388C91.2397 49.5267 91.3134 49.713 91.3134 49.947V51.143H92.4184C92.6524 51.143 92.83 51.195 92.9514 51.299C93.0814 51.403 93.1464 51.5547 93.1464 51.754C93.1464 51.9533 93.0814 52.105 92.9514 52.209C92.83 52.313 92.6524 52.365 92.4184 52.365H91.3134V55.316C91.3134 55.9573 91.608 56.2997 92.1974 56.343L92.5484 56.369ZM99.0762 55.758C99.2235 55.758 99.3405 55.8143 99.4272 55.927C99.5225 56.0397 99.5702 56.1913 99.5702 56.382C99.5702 56.6507 99.4099 56.876 99.0892 57.058C98.7945 57.2227 98.4609 57.357 98.0882 57.461C97.7155 57.5563 97.3602 57.604 97.0222 57.604C95.9995 57.604 95.1892 57.3093 94.5912 56.72C93.9932 56.1307 93.6942 55.3247 93.6942 54.302C93.6942 53.652 93.8242 53.0757 94.0842 52.573C94.3442 52.0703 94.7082 51.6803 95.1762 51.403C95.6529 51.1257 96.1902 50.987 96.7882 50.987C97.3602 50.987 97.8585 51.1127 98.2832 51.364C98.7079 51.6153 99.0372 51.9707 99.2712 52.43C99.5052 52.8893 99.6222 53.431 99.6222 54.055C99.6222 54.4277 99.4575 54.614 99.1282 54.614H95.2932C95.3452 55.212 95.5142 55.654 95.8002 55.94C96.0862 56.2173 96.5022 56.356 97.0482 56.356C97.3255 56.356 97.5682 56.3213 97.7762 56.252C97.9929 56.1827 98.2355 56.0873 98.5042 55.966C98.7642 55.8273 98.9549 55.758 99.0762 55.758ZM96.8272 52.131C96.3852 52.131 96.0299 52.2697 95.7612 52.547C95.5012 52.8243 95.3452 53.223 95.2932 53.743H98.2312C98.2139 53.2143 98.0839 52.8157 97.8412 52.547C97.5985 52.2697 97.2605 52.131 96.8272 52.131ZM109.512 55.758C109.659 55.758 109.776 55.8143 109.863 55.927C109.958 56.0397 110.006 56.1913 110.006 56.382C110.006 56.6507 109.845 56.876 109.525 57.058C109.23 57.2227 108.896 57.357 108.524 57.461C108.151 57.5563 107.796 57.604 107.458 57.604C106.435 57.604 105.625 57.3093 105.027 56.72C104.429 56.1307 104.13 55.3247 104.13 54.302C104.13 53.652 104.26 53.0757 104.52 52.573C104.78 52.0703 105.144 51.6803 105.612 51.403C106.088 51.1257 106.626 50.987 107.224 50.987C107.796 50.987 108.294 51.1127 108.719 51.364C109.143 51.6153 109.473 51.9707 109.707 52.43C109.941 52.8893 110.058 53.431 110.058 54.055C110.058 54.4277 109.893 54.614 109.564 54.614H105.729C105.781 55.212 105.95 55.654 106.236 55.94C106.522 56.2173 106.938 56.356 107.484 56.356C107.761 56.356 108.004 56.3213 108.212 56.252C108.428 56.1827 108.671 56.0873 108.94 55.966C109.2 55.8273 109.39 55.758 109.512 55.758ZM107.263 52.131C106.821 52.131 106.465 52.2697 106.197 52.547C105.937 52.8243 105.781 53.223 105.729 53.743H108.667C108.649 53.2143 108.519 52.8157 108.277 52.547C108.034 52.2697 107.696 52.131 107.263 52.131ZM113.688 57.604C112.743 57.604 111.981 57.4177 111.4 57.045C111.123 56.8803 110.984 56.6463 110.984 56.343C110.984 56.1697 111.032 56.031 111.127 55.927C111.222 55.8143 111.339 55.758 111.478 55.758C111.625 55.758 111.829 55.8273 112.089 55.966C112.366 56.096 112.618 56.1957 112.843 56.265C113.077 56.3343 113.372 56.369 113.727 56.369C114.091 56.369 114.373 56.3083 114.572 56.187C114.78 56.0657 114.884 55.8967 114.884 55.68C114.884 55.5327 114.841 55.4157 114.754 55.329C114.676 55.2423 114.529 55.1643 114.312 55.095C114.104 55.017 113.783 54.9303 113.35 54.835C112.579 54.679 112.024 54.458 111.686 54.172C111.357 53.886 111.192 53.4917 111.192 52.989C111.192 52.6077 111.305 52.2653 111.53 51.962C111.755 51.65 112.063 51.4117 112.453 51.247C112.852 51.0737 113.302 50.987 113.805 50.987C114.169 50.987 114.52 51.0347 114.858 51.13C115.196 51.2167 115.499 51.3467 115.768 51.52C116.045 51.6933 116.184 51.923 116.184 52.209C116.184 52.3823 116.136 52.5297 116.041 52.651C115.946 52.7637 115.829 52.82 115.69 52.82C115.595 52.82 115.499 52.8027 115.404 52.768C115.317 52.7247 115.205 52.664 115.066 52.586C114.815 52.456 114.598 52.3607 114.416 52.3C114.234 52.2307 114.009 52.196 113.74 52.196C113.419 52.196 113.164 52.261 112.973 52.391C112.791 52.521 112.7 52.6987 112.7 52.924C112.7 53.1407 112.795 53.3053 112.986 53.418C113.177 53.5307 113.545 53.6433 114.091 53.756C114.672 53.8773 115.127 54.016 115.456 54.172C115.785 54.328 116.019 54.523 116.158 54.757C116.305 54.991 116.379 55.29 116.379 55.654C116.379 56.2433 116.132 56.7157 115.638 57.071C115.153 57.4263 114.503 57.604 113.688 57.604ZM126.244 51.013C126.495 51.013 126.695 51.0823 126.842 51.221C126.989 51.3597 127.063 51.546 127.063 51.78V56.824C127.063 57.0493 126.985 57.2313 126.829 57.37C126.682 57.5087 126.487 57.578 126.244 57.578C126.01 57.578 125.824 57.513 125.685 57.383C125.546 57.253 125.477 57.0753 125.477 56.85V56.525C125.278 56.8717 125.009 57.1403 124.671 57.331C124.333 57.513 123.952 57.604 123.527 57.604C121.967 57.604 121.187 56.7287 121.187 54.978V51.78C121.187 51.546 121.261 51.3597 121.408 51.221C121.555 51.0823 121.75 51.013 121.993 51.013C122.244 51.013 122.444 51.0823 122.591 51.221C122.738 51.3597 122.812 51.546 122.812 51.78V54.991C122.812 55.4417 122.903 55.7753 123.085 55.992C123.267 56.2087 123.553 56.317 123.943 56.317C124.394 56.317 124.753 56.1697 125.022 55.875C125.299 55.5717 125.438 55.173 125.438 54.679V51.78C125.438 51.546 125.512 51.3597 125.659 51.221C125.806 51.0823 126.001 51.013 126.244 51.013ZM132.446 50.987C133.209 50.987 133.777 51.2037 134.149 51.637C134.522 52.0703 134.708 52.7247 134.708 53.6V56.798C134.708 57.0407 134.635 57.2313 134.487 57.37C134.349 57.5087 134.154 57.578 133.902 57.578C133.651 57.578 133.452 57.5087 133.304 57.37C133.157 57.2313 133.083 57.0407 133.083 56.798V53.691C133.083 53.197 132.988 52.8373 132.797 52.612C132.615 52.3867 132.325 52.274 131.926 52.274C131.458 52.274 131.081 52.4213 130.795 52.716C130.518 53.0107 130.379 53.405 130.379 53.899V56.798C130.379 57.0407 130.306 57.2313 130.158 57.37C130.011 57.5087 129.812 57.578 129.56 57.578C129.309 57.578 129.11 57.5087 128.962 57.37C128.824 57.2313 128.754 57.0407 128.754 56.798V51.767C128.754 51.5417 128.828 51.3597 128.975 51.221C129.123 51.0823 129.322 51.013 129.573 51.013C129.799 51.013 129.981 51.0823 130.119 51.221C130.267 51.351 130.34 51.5243 130.34 51.741V52.092C130.557 51.7367 130.847 51.4637 131.211 51.273C131.575 51.0823 131.987 50.987 132.446 50.987ZM143.19 56.369C143.623 56.395 143.84 56.59 143.84 56.954C143.84 57.162 143.753 57.3223 143.58 57.435C143.415 57.539 143.177 57.5823 142.865 57.565L142.514 57.539C141.058 57.435 140.33 56.655 140.33 55.199V52.365H139.68C139.446 52.365 139.264 52.313 139.134 52.209C139.013 52.105 138.952 51.9533 138.952 51.754C138.952 51.5547 139.013 51.403 139.134 51.299C139.264 51.195 139.446 51.143 139.68 51.143H140.33V49.947C140.33 49.713 140.404 49.5267 140.551 49.388C140.698 49.2493 140.898 49.18 141.149 49.18C141.392 49.18 141.587 49.2493 141.734 49.388C141.881 49.5267 141.955 49.713 141.955 49.947V51.143H143.06C143.294 51.143 143.472 51.195 143.593 51.299C143.723 51.403 143.788 51.5547 143.788 51.754C143.788 51.9533 143.723 52.105 143.593 52.209C143.472 52.313 143.294 52.365 143.06 52.365H141.955V55.316C141.955 55.9573 142.25 56.2997 142.839 56.343L143.19 56.369ZM145.493 57.578C145.259 57.578 145.064 57.513 144.908 57.383C144.76 57.2443 144.687 57.0493 144.687 56.798V51.78C144.687 51.5287 144.76 51.338 144.908 51.208C145.064 51.078 145.259 51.013 145.493 51.013C145.727 51.013 145.922 51.078 146.078 51.208C146.234 51.338 146.312 51.5287 146.312 51.78V56.798C146.312 57.0493 146.234 57.2443 146.078 57.383C145.922 57.513 145.727 57.578 145.493 57.578ZM145.818 50.272C145.722 50.3413 145.627 50.376 145.532 50.376C145.41 50.376 145.306 50.337 145.22 50.259C145.142 50.1723 145.103 50.0727 145.103 49.96C145.103 49.8647 145.137 49.7693 145.207 49.674L146.468 47.997C146.667 47.737 146.897 47.607 147.157 47.607C147.347 47.607 147.508 47.6763 147.638 47.815C147.776 47.945 147.846 48.101 147.846 48.283C147.846 48.5257 147.729 48.7337 147.495 48.907L145.818 50.272ZM151.29 56.369C151.723 56.395 151.94 56.59 151.94 56.954C151.94 57.162 151.853 57.3223 151.68 57.435C151.515 57.539 151.277 57.5823 150.965 57.565L150.614 57.539C149.158 57.435 148.43 56.655 148.43 55.199V52.365H147.78C147.546 52.365 147.364 52.313 147.234 52.209C147.112 52.105 147.052 51.9533 147.052 51.754C147.052 51.5547 147.112 51.403 147.234 51.299C147.364 51.195 147.546 51.143 147.78 51.143H148.43V49.947C148.43 49.713 148.503 49.5267 148.651 49.388C148.798 49.2493 148.997 49.18 149.249 49.18C149.491 49.18 149.686 49.2493 149.834 49.388C149.981 49.5267 150.055 49.713 150.055 49.947V51.143H151.16C151.394 51.143 151.571 51.195 151.693 51.299C151.823 51.403 151.888 51.5547 151.888 51.754C151.888 51.9533 151.823 52.105 151.693 52.209C151.571 52.313 151.394 52.365 151.16 52.365H150.055V55.316C150.055 55.9573 150.349 56.2997 150.939 56.343L151.29 56.369ZM157.804 51.013C158.056 51.013 158.255 51.0823 158.402 51.221C158.55 51.3597 158.623 51.546 158.623 51.78V56.824C158.623 57.0493 158.545 57.2313 158.389 57.37C158.242 57.5087 158.047 57.578 157.804 57.578C157.57 57.578 157.384 57.513 157.245 57.383C157.107 57.253 157.037 57.0753 157.037 56.85V56.525C156.838 56.8717 156.569 57.1403 156.231 57.331C155.893 57.513 155.512 57.604 155.087 57.604C153.527 57.604 152.747 56.7287 152.747 54.978V51.78C152.747 51.546 152.821 51.3597 152.968 51.221C153.116 51.0823 153.311 51.013 153.553 51.013C153.805 51.013 154.004 51.0823 154.151 51.221C154.299 51.3597 154.372 51.546 154.372 51.78V54.991C154.372 55.4417 154.463 55.7753 154.645 55.992C154.827 56.2087 155.113 56.317 155.503 56.317C155.954 56.317 156.314 56.1697 156.582 55.875C156.86 55.5717 156.998 55.173 156.998 54.679V51.78C156.998 51.546 157.072 51.3597 157.219 51.221C157.367 51.0823 157.562 51.013 157.804 51.013ZM161.121 57.578C160.887 57.578 160.692 57.513 160.536 57.383C160.388 57.2443 160.315 57.0493 160.315 56.798V49.037C160.315 48.7857 160.388 48.595 160.536 48.465C160.692 48.335 160.887 48.27 161.121 48.27C161.355 48.27 161.55 48.335 161.706 48.465C161.862 48.595 161.94 48.7857 161.94 49.037V56.798C161.94 57.0493 161.862 57.2443 161.706 57.383C161.55 57.513 161.355 57.578 161.121 57.578ZM166.515 57.604C165.865 57.604 165.293 57.4697 164.799 57.201C164.313 56.9323 163.936 56.5467 163.668 56.044C163.399 55.5413 163.265 54.9563 163.265 54.289C163.265 53.6217 163.399 53.041 163.668 52.547C163.936 52.0443 164.313 51.6587 164.799 51.39C165.293 51.1213 165.865 50.987 166.515 50.987C167.165 50.987 167.732 51.1213 168.218 51.39C168.712 51.6587 169.089 52.0443 169.349 52.547C169.617 53.041 169.752 53.6217 169.752 54.289C169.752 54.9563 169.617 55.5413 169.349 56.044C169.089 56.5467 168.712 56.9323 168.218 57.201C167.732 57.4697 167.165 57.604 166.515 57.604ZM166.502 56.343C167.03 56.343 167.433 56.1697 167.711 55.823C167.988 55.4763 168.127 54.965 168.127 54.289C168.127 53.6217 167.988 53.1147 167.711 52.768C167.433 52.4127 167.035 52.235 166.515 52.235C165.995 52.235 165.592 52.4127 165.306 52.768C165.028 53.1147 164.89 53.6217 164.89 54.289C164.89 54.965 165.028 55.4763 165.306 55.823C165.583 56.1697 165.982 56.343 166.502 56.343ZM179.926 48.27C180.169 48.27 180.368 48.3393 180.524 48.478C180.68 48.6167 180.758 48.7987 180.758 49.024V56.798C180.758 57.032 180.685 57.2183 180.537 57.357C180.39 57.4957 180.195 57.565 179.952 57.565C179.71 57.565 179.515 57.4957 179.367 57.357C179.22 57.2183 179.146 57.032 179.146 56.798V56.473C178.956 56.8283 178.678 57.1057 178.314 57.305C177.959 57.5043 177.552 57.604 177.092 57.604C176.546 57.604 176.057 57.4653 175.623 57.188C175.199 56.9107 174.865 56.5207 174.622 56.018C174.388 55.5067 174.271 54.9217 174.271 54.263C174.271 53.6043 174.388 53.028 174.622 52.534C174.865 52.04 175.199 51.6587 175.623 51.39C176.048 51.1213 176.538 50.987 177.092 50.987C177.552 50.987 177.959 51.0823 178.314 51.273C178.67 51.4637 178.943 51.7323 179.133 52.079V48.998C179.133 48.7813 179.203 48.608 179.341 48.478C179.489 48.3393 179.684 48.27 179.926 48.27ZM177.521 56.343C178.041 56.343 178.44 56.1653 178.717 55.81C179.003 55.4547 179.146 54.9477 179.146 54.289C179.146 53.6303 179.003 53.1277 178.717 52.781C178.44 52.4257 178.046 52.248 177.534 52.248C177.014 52.248 176.611 52.4213 176.325 52.768C176.039 53.1147 175.896 53.613 175.896 54.263C175.896 54.9217 176.039 55.433 176.325 55.797C176.611 56.161 177.01 56.343 177.521 56.343ZM187.461 55.758C187.608 55.758 187.725 55.8143 187.812 55.927C187.907 56.0397 187.955 56.1913 187.955 56.382C187.955 56.6507 187.795 56.876 187.474 57.058C187.179 57.2227 186.846 57.357 186.473 57.461C186.1 57.5563 185.745 57.604 185.407 57.604C184.384 57.604 183.574 57.3093 182.976 56.72C182.378 56.1307 182.079 55.3247 182.079 54.302C182.079 53.652 182.209 53.0757 182.469 52.573C182.729 52.0703 183.093 51.6803 183.561 51.403C184.038 51.1257 184.575 50.987 185.173 50.987C185.745 50.987 186.243 51.1127 186.668 51.364C187.093 51.6153 187.422 51.9707 187.656 52.43C187.89 52.8893 188.007 53.431 188.007 54.055C188.007 54.4277 187.842 54.614 187.513 54.614H183.678C183.73 55.212 183.899 55.654 184.185 55.94C184.471 56.2173 184.887 56.356 185.433 56.356C185.71 56.356 185.953 56.3213 186.161 56.252C186.378 56.1827 186.62 56.0873 186.889 55.966C187.149 55.8273 187.34 55.758 187.461 55.758ZM185.212 52.131C184.77 52.131 184.415 52.2697 184.146 52.547C183.886 52.8243 183.73 53.223 183.678 53.743H186.616C186.599 53.2143 186.469 52.8157 186.226 52.547C185.983 52.2697 185.645 52.131 185.212 52.131ZM197.884 51.013C198.135 51.013 198.334 51.0823 198.482 51.221C198.629 51.3597 198.703 51.546 198.703 51.78V56.824C198.703 57.0493 198.625 57.2313 198.469 57.37C198.321 57.5087 198.126 57.578 197.884 57.578C197.65 57.578 197.463 57.513 197.325 57.383C197.186 57.253 197.117 57.0753 197.117 56.85V56.525C196.917 56.8717 196.649 57.1403 196.311 57.331C195.973 57.513 195.591 57.604 195.167 57.604C193.607 57.604 192.827 56.7287 192.827 54.978V51.78C192.827 51.546 192.9 51.3597 193.048 51.221C193.195 51.0823 193.39 51.013 193.633 51.013C193.884 51.013 194.083 51.0823 194.231 51.221C194.378 51.3597 194.452 51.546 194.452 51.78V54.991C194.452 55.4417 194.543 55.7753 194.725 55.992C194.907 56.2087 195.193 56.317 195.583 56.317C196.033 56.317 196.393 56.1697 196.662 55.875C196.939 55.5717 197.078 55.173 197.078 54.679V51.78C197.078 51.546 197.151 51.3597 197.299 51.221C197.446 51.0823 197.641 51.013 197.884 51.013ZM204.086 50.987C204.848 50.987 205.416 51.2037 205.789 51.637C206.161 52.0703 206.348 52.7247 206.348 53.6V56.798C206.348 57.0407 206.274 57.2313 206.127 57.37C205.988 57.5087 205.793 57.578 205.542 57.578C205.29 57.578 205.091 57.5087 204.944 57.37C204.796 57.2313 204.723 57.0407 204.723 56.798V53.691C204.723 53.197 204.627 52.8373 204.437 52.612C204.255 52.3867 203.964 52.274 203.566 52.274C203.098 52.274 202.721 52.4213 202.435 52.716C202.157 53.0107 202.019 53.405 202.019 53.899V56.798C202.019 57.0407 201.945 57.2313 201.798 57.37C201.65 57.5087 201.451 57.578 201.2 57.578C200.948 57.578 200.749 57.5087 200.602 57.37C200.463 57.2313 200.394 57.0407 200.394 56.798V51.767C200.394 51.5417 200.467 51.3597 200.615 51.221C200.762 51.0823 200.961 51.013 201.213 51.013C201.438 51.013 201.62 51.0823 201.759 51.221C201.906 51.351 201.98 51.5243 201.98 51.741V52.092C202.196 51.7367 202.487 51.4637 202.851 51.273C203.215 51.0823 203.626 50.987 204.086 50.987ZM219.081 50.987C219.774 50.987 220.303 51.195 220.667 51.611C221.039 52.0183 221.226 52.6813 221.226 53.6V56.798C221.226 57.0493 221.148 57.2443 220.992 57.383C220.844 57.513 220.649 57.578 220.407 57.578C220.173 57.578 219.978 57.513 219.822 57.383C219.674 57.2443 219.601 57.0493 219.601 56.798V53.6C219.601 53.1233 219.514 52.7853 219.341 52.586C219.176 52.378 218.92 52.274 218.574 52.274C218.149 52.274 217.811 52.4213 217.56 52.716C217.308 53.002 217.183 53.3963 217.183 53.899V56.798C217.183 57.0493 217.105 57.2443 216.949 57.383C216.801 57.513 216.611 57.578 216.377 57.578C216.143 57.578 215.948 57.513 215.792 57.383C215.636 57.2443 215.558 57.0493 215.558 56.798V53.6C215.558 53.1233 215.471 52.7853 215.298 52.586C215.133 52.378 214.877 52.274 214.531 52.274C214.106 52.274 213.768 52.4213 213.517 52.716C213.274 53.002 213.153 53.3963 213.153 53.899V56.798C213.153 57.0493 213.075 57.2443 212.919 57.383C212.763 57.513 212.568 57.578 212.334 57.578C212.1 57.578 211.905 57.513 211.749 57.383C211.601 57.2443 211.528 57.0493 211.528 56.798V51.767C211.528 51.5243 211.606 51.338 211.762 51.208C211.918 51.078 212.113 51.013 212.347 51.013C212.572 51.013 212.754 51.078 212.893 51.208C213.04 51.3293 213.114 51.507 213.114 51.741V52.053C213.313 51.7063 213.577 51.442 213.907 51.26C214.245 51.078 214.63 50.987 215.064 50.987C216.017 50.987 216.654 51.3857 216.975 52.183C217.165 51.819 217.447 51.5287 217.82 51.312C218.192 51.0953 218.613 50.987 219.081 50.987ZM225.776 57.604C225.126 57.604 224.554 57.4697 224.06 57.201C223.575 56.9323 223.198 56.5467 222.929 56.044C222.661 55.5413 222.526 54.9563 222.526 54.289C222.526 53.6217 222.661 53.041 222.929 52.547C223.198 52.0443 223.575 51.6587 224.06 51.39C224.554 51.1213 225.126 50.987 225.776 50.987C226.426 50.987 226.994 51.1213 227.479 51.39C227.973 51.6587 228.35 52.0443 228.61 52.547C228.879 53.041 229.013 53.6217 229.013 54.289C229.013 54.9563 228.879 55.5413 228.61 56.044C228.35 56.5467 227.973 56.9323 227.479 57.201C226.994 57.4697 226.426 57.604 225.776 57.604ZM225.763 56.343C226.292 56.343 226.695 56.1697 226.972 55.823C227.25 55.4763 227.388 54.965 227.388 54.289C227.388 53.6217 227.25 53.1147 226.972 52.768C226.695 52.4127 226.296 52.235 225.776 52.235C225.256 52.235 224.853 52.4127 224.567 52.768C224.29 53.1147 224.151 53.6217 224.151 54.289C224.151 54.965 224.29 55.4763 224.567 55.823C224.845 56.1697 225.243 56.343 225.763 56.343ZM235.659 48.27C235.901 48.27 236.101 48.3393 236.257 48.478C236.413 48.6167 236.491 48.7987 236.491 49.024V56.798C236.491 57.032 236.417 57.2183 236.27 57.357C236.122 57.4957 235.927 57.565 235.685 57.565C235.442 57.565 235.247 57.4957 235.1 57.357C234.952 57.2183 234.879 57.032 234.879 56.798V56.473C234.688 56.8283 234.411 57.1057 234.047 57.305C233.691 57.5043 233.284 57.604 232.825 57.604C232.279 57.604 231.789 57.4653 231.356 57.188C230.931 56.9107 230.597 56.5207 230.355 56.018C230.121 55.5067 230.004 54.9217 230.004 54.263C230.004 53.6043 230.121 53.028 230.355 52.534C230.597 52.04 230.931 51.6587 231.356 51.39C231.78 51.1213 232.27 50.987 232.825 50.987C233.284 50.987 233.691 51.0823 234.047 51.273C234.402 51.4637 234.675 51.7323 234.866 52.079V48.998C234.866 48.7813 234.935 48.608 235.074 48.478C235.221 48.3393 235.416 48.27 235.659 48.27ZM233.254 56.343C233.774 56.343 234.172 56.1653 234.45 55.81C234.736 55.4547 234.879 54.9477 234.879 54.289C234.879 53.6303 234.736 53.1277 234.45 52.781C234.172 52.4257 233.778 52.248 233.267 52.248C232.747 52.248 232.344 52.4213 232.058 52.768C231.772 53.1147 231.629 53.613 231.629 54.263C231.629 54.9217 231.772 55.433 232.058 55.797C232.344 56.161 232.742 56.343 233.254 56.343ZM240.918 50.987C241.802 50.987 242.457 51.208 242.881 51.65C243.315 52.0833 243.531 52.7463 243.531 53.639V56.811C243.531 57.045 243.462 57.2313 243.323 57.37C243.185 57.5 242.994 57.565 242.751 57.565C242.526 57.565 242.34 57.4957 242.192 57.357C242.054 57.2183 241.984 57.0363 241.984 56.811V56.525C241.837 56.863 241.603 57.1273 241.282 57.318C240.97 57.5087 240.606 57.604 240.19 57.604C239.766 57.604 239.38 57.5173 239.033 57.344C238.687 57.1707 238.414 56.9323 238.214 56.629C238.015 56.3257 237.915 55.9877 237.915 55.615C237.915 55.147 238.032 54.7787 238.266 54.51C238.509 54.2413 238.899 54.0463 239.436 53.925C239.974 53.8037 240.715 53.743 241.659 53.743H241.984V53.444C241.984 53.0193 241.893 52.7117 241.711 52.521C241.529 52.3217 241.235 52.222 240.827 52.222C240.576 52.222 240.32 52.261 240.06 52.339C239.8 52.4083 239.493 52.5123 239.137 52.651C238.912 52.7637 238.747 52.82 238.643 52.82C238.487 52.82 238.357 52.7637 238.253 52.651C238.158 52.5383 238.11 52.391 238.11 52.209C238.11 52.0617 238.145 51.936 238.214 51.832C238.292 51.7193 238.418 51.6153 238.591 51.52C238.895 51.3553 239.254 51.2253 239.67 51.13C240.095 51.0347 240.511 50.987 240.918 50.987ZM240.515 56.434C240.949 56.434 241.3 56.291 241.568 56.005C241.846 55.7103 241.984 55.3333 241.984 54.874V54.601H241.75C241.17 54.601 240.719 54.627 240.398 54.679C240.078 54.731 239.848 54.822 239.709 54.952C239.571 55.082 239.501 55.2597 239.501 55.485C239.501 55.7623 239.597 55.992 239.787 56.174C239.987 56.3473 240.229 56.434 240.515 56.434ZM245.989 57.578C245.755 57.578 245.56 57.513 245.404 57.383C245.257 57.2443 245.183 57.0493 245.183 56.798V49.037C245.183 48.7857 245.257 48.595 245.404 48.465C245.56 48.335 245.755 48.27 245.989 48.27C246.223 48.27 246.418 48.335 246.574 48.465C246.73 48.595 246.808 48.7857 246.808 49.037V56.798C246.808 57.0493 246.73 57.2443 246.574 57.383C246.418 57.513 246.223 57.578 245.989 57.578ZM78.166 73.604C77.5333 73.604 76.9743 73.4697 76.489 73.201C76.0123 72.9323 75.644 72.551 75.384 72.057C75.124 71.563 74.994 70.9867 74.994 70.328C74.994 69.6693 75.1283 69.0887 75.397 68.586C75.6743 68.0747 76.06 67.6803 76.554 67.403C77.048 67.1257 77.6157 66.987 78.257 66.987C78.595 66.987 78.933 67.0347 79.271 67.13C79.6177 67.2253 79.921 67.3553 80.181 67.52C80.4583 67.702 80.597 67.9317 80.597 68.209C80.597 68.3997 80.5493 68.5557 80.454 68.677C80.3673 68.7897 80.2503 68.846 80.103 68.846C80.0077 68.846 79.908 68.8243 79.804 68.781C79.7 68.7377 79.596 68.6857 79.492 68.625C79.3013 68.5123 79.1193 68.4257 78.946 68.365C78.7727 68.2957 78.5733 68.261 78.348 68.261C77.8107 68.261 77.3947 68.4387 77.1 68.794C76.814 69.1407 76.671 69.6433 76.671 70.302C76.671 70.952 76.814 71.4547 77.1 71.81C77.3947 72.1567 77.8107 72.33 78.348 72.33C78.5647 72.33 78.7553 72.2997 78.92 72.239C79.0933 72.1697 79.284 72.0787 79.492 71.966C79.622 71.888 79.7347 71.8317 79.83 71.797C79.9253 71.7537 80.0207 71.732 80.116 71.732C80.2547 71.732 80.3717 71.7927 80.467 71.914C80.5623 72.0353 80.61 72.187 80.61 72.369C80.61 72.5163 80.5753 72.6463 80.506 72.759C80.4453 72.863 80.3413 72.9583 80.194 73.045C79.9253 73.2183 79.6133 73.357 79.258 73.461C78.9027 73.5563 78.5387 73.604 78.166 73.604ZM84.5917 73.604C83.9417 73.604 83.3697 73.4697 82.8757 73.201C82.3903 72.9323 82.0133 72.5467 81.7447 72.044C81.476 71.5413 81.3417 70.9563 81.3417 70.289C81.3417 69.6217 81.476 69.041 81.7447 68.547C82.0133 68.0443 82.3903 67.6587 82.8757 67.39C83.3697 67.1213 83.9417 66.987 84.5917 66.987C85.2417 66.987 85.8093 67.1213 86.2947 67.39C86.7887 67.6587 87.1657 68.0443 87.4257 68.547C87.6943 69.041 87.8287 69.6217 87.8287 70.289C87.8287 70.9563 87.6943 71.5413 87.4257 72.044C87.1657 72.5467 86.7887 72.9323 86.2947 73.201C85.8093 73.4697 85.2417 73.604 84.5917 73.604ZM84.5787 72.343C85.1073 72.343 85.5103 72.1697 85.7877 71.823C86.065 71.4763 86.2037 70.965 86.2037 70.289C86.2037 69.6217 86.065 69.1147 85.7877 68.768C85.5103 68.4127 85.1117 68.235 84.5917 68.235C84.0717 68.235 83.6687 68.4127 83.3827 68.768C83.1053 69.1147 82.9667 69.6217 82.9667 70.289C82.9667 70.965 83.1053 71.4763 83.3827 71.823C83.66 72.1697 84.0587 72.343 84.5787 72.343ZM92.8622 66.987C93.6249 66.987 94.1925 67.2037 94.5652 67.637C94.9379 68.0703 95.1242 68.7247 95.1242 69.6V72.798C95.1242 73.0407 95.0505 73.2313 94.9032 73.37C94.7645 73.5087 94.5695 73.578 94.3182 73.578C94.0669 73.578 93.8675 73.5087 93.7202 73.37C93.5729 73.2313 93.4992 73.0407 93.4992 72.798V69.691C93.4992 69.197 93.4039 68.8373 93.2132 68.612C93.0312 68.3867 92.7409 68.274 92.3422 68.274C91.8742 68.274 91.4972 68.4213 91.2112 68.716C90.9339 69.0107 90.7952 69.405 90.7952 69.899V72.798C90.7952 73.0407 90.7215 73.2313 90.5742 73.37C90.4269 73.5087 90.2275 73.578 89.9762 73.578C89.7249 73.578 89.5255 73.5087 89.3782 73.37C89.2395 73.2313 89.1702 73.0407 89.1702 72.798V67.767C89.1702 67.5417 89.2439 67.3597 89.3912 67.221C89.5385 67.0823 89.7379 67.013 89.9892 67.013C90.2145 67.013 90.3965 67.0823 90.5352 67.221C90.6825 67.351 90.7562 67.5243 90.7562 67.741V68.092C90.9729 67.7367 91.2632 67.4637 91.6272 67.273C91.9912 67.0823 92.4029 66.987 92.8622 66.987ZM105.608 64.27C105.851 64.27 106.05 64.3393 106.206 64.478C106.362 64.6167 106.44 64.7987 106.44 65.024V72.798C106.44 73.032 106.366 73.2183 106.219 73.357C106.072 73.4957 105.877 73.565 105.634 73.565C105.391 73.565 105.196 73.4957 105.049 73.357C104.902 73.2183 104.828 73.032 104.828 72.798V72.473C104.637 72.8283 104.36 73.1057 103.996 73.305C103.641 73.5043 103.233 73.604 102.774 73.604C102.228 73.604 101.738 73.4653 101.305 73.188C100.88 72.9107 100.547 72.5207 100.304 72.018C100.07 71.5067 99.953 70.9217 99.953 70.263C99.953 69.6043 100.07 69.028 100.304 68.534C100.547 68.04 100.88 67.6587 101.305 67.39C101.73 67.1213 102.219 66.987 102.774 66.987C103.233 66.987 103.641 67.0823 103.996 67.273C104.351 67.4637 104.624 67.7323 104.815 68.079V64.998C104.815 64.7813 104.884 64.608 105.023 64.478C105.17 64.3393 105.365 64.27 105.608 64.27ZM103.203 72.343C103.723 72.343 104.122 72.1653 104.399 71.81C104.685 71.4547 104.828 70.9477 104.828 70.289C104.828 69.6303 104.685 69.1277 104.399 68.781C104.122 68.4257 103.727 68.248 103.216 68.248C102.696 68.248 102.293 68.4213 102.007 68.768C101.721 69.1147 101.578 69.613 101.578 70.263C101.578 70.9217 101.721 71.433 102.007 71.797C102.293 72.161 102.692 72.343 103.203 72.343ZM111.011 73.604C110.361 73.604 109.789 73.4697 109.295 73.201C108.809 72.9323 108.432 72.5467 108.164 72.044C107.895 71.5413 107.761 70.9563 107.761 70.289C107.761 69.6217 107.895 69.041 108.164 68.547C108.432 68.0443 108.809 67.6587 109.295 67.39C109.789 67.1213 110.361 66.987 111.011 66.987C111.661 66.987 112.228 67.1213 112.714 67.39C113.208 67.6587 113.585 68.0443 113.845 68.547C114.113 69.041 114.248 69.6217 114.248 70.289C114.248 70.9563 114.113 71.5413 113.845 72.044C113.585 72.5467 113.208 72.9323 112.714 73.201C112.228 73.4697 111.661 73.604 111.011 73.604ZM110.998 72.343C111.526 72.343 111.929 72.1697 112.207 71.823C112.484 71.4763 112.623 70.965 112.623 70.289C112.623 69.6217 112.484 69.1147 112.207 68.768C111.929 68.4127 111.531 68.235 111.011 68.235C110.491 68.235 110.088 68.4127 109.802 68.768C109.524 69.1147 109.386 69.6217 109.386 70.289C109.386 70.965 109.524 71.4763 109.802 71.823C110.079 72.1697 110.478 72.343 110.998 72.343ZM117.89 73.604C116.945 73.604 116.183 73.4177 115.602 73.045C115.325 72.8803 115.186 72.6463 115.186 72.343C115.186 72.1697 115.234 72.031 115.329 71.927C115.424 71.8143 115.541 71.758 115.68 71.758C115.827 71.758 116.031 71.8273 116.291 71.966C116.568 72.096 116.82 72.1957 117.045 72.265C117.279 72.3343 117.574 72.369 117.929 72.369C118.293 72.369 118.575 72.3083 118.774 72.187C118.982 72.0657 119.086 71.8967 119.086 71.68C119.086 71.5327 119.043 71.4157 118.956 71.329C118.878 71.2423 118.731 71.1643 118.514 71.095C118.306 71.017 117.985 70.9303 117.552 70.835C116.781 70.679 116.226 70.458 115.888 70.172C115.559 69.886 115.394 69.4917 115.394 68.989C115.394 68.6077 115.507 68.2653 115.732 67.962C115.957 67.65 116.265 67.4117 116.655 67.247C117.054 67.0737 117.504 66.987 118.007 66.987C118.371 66.987 118.722 67.0347 119.06 67.13C119.398 67.2167 119.701 67.3467 119.97 67.52C120.247 67.6933 120.386 67.923 120.386 68.209C120.386 68.3823 120.338 68.5297 120.243 68.651C120.148 68.7637 120.031 68.82 119.892 68.82C119.797 68.82 119.701 68.8027 119.606 68.768C119.519 68.7247 119.407 68.664 119.268 68.586C119.017 68.456 118.8 68.3607 118.618 68.3C118.436 68.2307 118.211 68.196 117.942 68.196C117.621 68.196 117.366 68.261 117.175 68.391C116.993 68.521 116.902 68.6987 116.902 68.924C116.902 69.1407 116.997 69.3053 117.188 69.418C117.379 69.5307 117.747 69.6433 118.293 69.756C118.874 69.8773 119.329 70.016 119.658 70.172C119.987 70.328 120.221 70.523 120.36 70.757C120.507 70.991 120.581 71.29 120.581 71.654C120.581 72.2433 120.334 72.7157 119.84 73.071C119.355 73.4263 118.705 73.604 117.89 73.604ZM126.234 73.578C126 73.578 125.805 73.513 125.649 73.383C125.502 73.2443 125.428 73.0493 125.428 72.798V65.037C125.428 64.7857 125.502 64.595 125.649 64.465C125.805 64.335 126 64.27 126.234 64.27C126.468 64.27 126.663 64.335 126.819 64.465C126.975 64.595 127.053 64.7857 127.053 65.037V72.798C127.053 73.0493 126.975 73.2443 126.819 73.383C126.663 73.513 126.468 73.578 126.234 73.578ZM129.535 73.578C129.301 73.578 129.106 73.513 128.95 73.383C128.802 73.2443 128.729 73.0493 128.729 72.798V67.78C128.729 67.5287 128.802 67.338 128.95 67.208C129.106 67.078 129.301 67.013 129.535 67.013C129.769 67.013 129.964 67.078 130.12 67.208C130.276 67.338 130.354 67.5287 130.354 67.78V72.798C130.354 73.0493 130.276 73.2443 130.12 73.383C129.964 73.513 129.769 73.578 129.535 73.578ZM129.86 66.272C129.764 66.3413 129.669 66.376 129.574 66.376C129.452 66.376 129.348 66.337 129.262 66.259C129.184 66.1723 129.145 66.0727 129.145 65.96C129.145 65.8647 129.179 65.7693 129.249 65.674L130.51 63.997C130.709 63.737 130.939 63.607 131.199 63.607C131.389 63.607 131.55 63.6763 131.68 63.815C131.818 63.945 131.888 64.101 131.888 64.283C131.888 64.5257 131.771 64.7337 131.537 64.907L129.86 66.272ZM135.722 66.987C136.484 66.987 137.052 67.2037 137.425 67.637C137.797 68.0703 137.984 68.7247 137.984 69.6V72.798C137.984 73.0407 137.91 73.2313 137.763 73.37C137.624 73.5087 137.429 73.578 137.178 73.578C136.926 73.578 136.727 73.5087 136.58 73.37C136.432 73.2313 136.359 73.0407 136.359 72.798V69.691C136.359 69.197 136.263 68.8373 136.073 68.612C135.891 68.3867 135.6 68.274 135.202 68.274C134.734 68.274 134.357 68.4213 134.071 68.716C133.793 69.0107 133.655 69.405 133.655 69.899V72.798C133.655 73.0407 133.581 73.2313 133.434 73.37C133.286 73.5087 133.087 73.578 132.836 73.578C132.584 73.578 132.385 73.5087 132.238 73.37C132.099 73.2313 132.03 73.0407 132.03 72.798V67.767C132.03 67.5417 132.103 67.3597 132.251 67.221C132.398 67.0823 132.597 67.013 132.849 67.013C133.074 67.013 133.256 67.0823 133.395 67.221C133.542 67.351 133.616 67.5243 133.616 67.741V68.092C133.832 67.7367 134.123 67.4637 134.487 67.273C134.851 67.0823 135.262 66.987 135.722 66.987ZM144.665 71.758C144.812 71.758 144.929 71.8143 145.016 71.927C145.111 72.0397 145.159 72.1913 145.159 72.382C145.159 72.6507 144.999 72.876 144.678 73.058C144.383 73.2227 144.05 73.357 143.677 73.461C143.304 73.5563 142.949 73.604 142.611 73.604C141.588 73.604 140.778 73.3093 140.18 72.72C139.582 72.1307 139.283 71.3247 139.283 70.302C139.283 69.652 139.413 69.0757 139.673 68.573C139.933 68.0703 140.297 67.6803 140.765 67.403C141.242 67.1257 141.779 66.987 142.377 66.987C142.949 66.987 143.447 67.1127 143.872 67.364C144.297 67.6153 144.626 67.9707 144.86 68.43C145.094 68.8893 145.211 69.431 145.211 70.055C145.211 70.4277 145.046 70.614 144.717 70.614H140.882C140.934 71.212 141.103 71.654 141.389 71.94C141.675 72.2173 142.091 72.356 142.637 72.356C142.914 72.356 143.157 72.3213 143.365 72.252C143.582 72.1827 143.824 72.0873 144.093 71.966C144.353 71.8273 144.544 71.758 144.665 71.758ZM142.416 68.131C141.974 68.131 141.619 68.2697 141.35 68.547C141.09 68.8243 140.934 69.223 140.882 69.743H143.82C143.803 69.2143 143.673 68.8157 143.43 68.547C143.187 68.2697 142.849 68.131 142.416 68.131ZM149.296 66.987C150.18 66.987 150.835 67.208 151.259 67.65C151.693 68.0833 151.909 68.7463 151.909 69.639V72.811C151.909 73.045 151.84 73.2313 151.701 73.37C151.563 73.5 151.372 73.565 151.129 73.565C150.904 73.565 150.718 73.4957 150.57 73.357C150.432 73.2183 150.362 73.0363 150.362 72.811V72.525C150.215 72.863 149.981 73.1273 149.66 73.318C149.348 73.5087 148.984 73.604 148.568 73.604C148.144 73.604 147.758 73.5173 147.411 73.344C147.065 73.1707 146.792 72.9323 146.592 72.629C146.393 72.3257 146.293 71.9877 146.293 71.615C146.293 71.147 146.41 70.7787 146.644 70.51C146.887 70.2413 147.277 70.0463 147.814 69.925C148.352 69.8037 149.093 69.743 150.037 69.743H150.362V69.444C150.362 69.0193 150.271 68.7117 150.089 68.521C149.907 68.3217 149.613 68.222 149.205 68.222C148.954 68.222 148.698 68.261 148.438 68.339C148.178 68.4083 147.871 68.5123 147.515 68.651C147.29 68.7637 147.125 68.82 147.021 68.82C146.865 68.82 146.735 68.7637 146.631 68.651C146.536 68.5383 146.488 68.391 146.488 68.209C146.488 68.0617 146.523 67.936 146.592 67.832C146.67 67.7193 146.796 67.6153 146.969 67.52C147.273 67.3553 147.632 67.2253 148.048 67.13C148.473 67.0347 148.889 66.987 149.296 66.987ZM148.893 72.434C149.327 72.434 149.678 72.291 149.946 72.005C150.224 71.7103 150.362 71.3333 150.362 70.874V70.601H150.128C149.548 70.601 149.097 70.627 148.776 70.679C148.456 70.731 148.226 70.822 148.087 70.952C147.949 71.082 147.879 71.2597 147.879 71.485C147.879 71.7623 147.975 71.992 148.165 72.174C148.365 72.3473 148.607 72.434 148.893 72.434ZM155.862 73.604C154.917 73.604 154.154 73.4177 153.574 73.045C153.296 72.8803 153.158 72.6463 153.158 72.343C153.158 72.1697 153.205 72.031 153.301 71.927C153.396 71.8143 153.513 71.758 153.652 71.758C153.799 71.758 154.003 71.8273 154.263 71.966C154.54 72.096 154.791 72.1957 155.017 72.265C155.251 72.3343 155.545 72.369 155.901 72.369C156.265 72.369 156.546 72.3083 156.746 72.187C156.954 72.0657 157.058 71.8967 157.058 71.68C157.058 71.5327 157.014 71.4157 156.928 71.329C156.85 71.2423 156.702 71.1643 156.486 71.095C156.278 71.017 155.957 70.9303 155.524 70.835C154.752 70.679 154.198 70.458 153.86 70.172C153.53 69.886 153.366 69.4917 153.366 68.989C153.366 68.6077 153.478 68.2653 153.704 67.962C153.929 67.65 154.237 67.4117 154.627 67.247C155.025 67.0737 155.476 66.987 155.979 66.987C156.343 66.987 156.694 67.0347 157.032 67.13C157.37 67.2167 157.673 67.3467 157.942 67.52C158.219 67.6933 158.358 67.923 158.358 68.209C158.358 68.3823 158.31 68.5297 158.215 68.651C158.119 68.7637 158.002 68.82 157.864 68.82C157.768 68.82 157.673 68.8027 157.578 68.768C157.491 68.7247 157.378 68.664 157.24 68.586C156.988 68.456 156.772 68.3607 156.59 68.3C156.408 68.2307 156.182 68.196 155.914 68.196C155.593 68.196 155.337 68.261 155.147 68.391C154.965 68.521 154.874 68.6987 154.874 68.924C154.874 69.1407 154.969 69.3053 155.16 69.418C155.35 69.5307 155.719 69.6433 156.265 69.756C156.845 69.8773 157.3 70.016 157.63 70.172C157.959 70.328 158.193 70.523 158.332 70.757C158.479 70.991 158.553 71.29 158.553 71.654C158.553 72.2433 158.306 72.7157 157.812 73.071C157.326 73.4263 156.676 73.604 155.862 73.604ZM168.704 64.27C168.946 64.27 169.146 64.3393 169.302 64.478C169.458 64.6167 169.536 64.7987 169.536 65.024V72.798C169.536 73.032 169.462 73.2183 169.315 73.357C169.167 73.4957 168.972 73.565 168.73 73.565C168.487 73.565 168.292 73.4957 168.145 73.357C167.997 73.2183 167.924 73.032 167.924 72.798V72.473C167.733 72.8283 167.456 73.1057 167.092 73.305C166.736 73.5043 166.329 73.604 165.87 73.604C165.324 73.604 164.834 73.4653 164.401 73.188C163.976 72.9107 163.642 72.5207 163.4 72.018C163.166 71.5067 163.049 70.9217 163.049 70.263C163.049 69.6043 163.166 69.028 163.4 68.534C163.642 68.04 163.976 67.6587 164.401 67.39C164.825 67.1213 165.315 66.987 165.87 66.987C166.329 66.987 166.736 67.0823 167.092 67.273C167.447 67.4637 167.72 67.7323 167.911 68.079V64.998C167.911 64.7813 167.98 64.608 168.119 64.478C168.266 64.3393 168.461 64.27 168.704 64.27ZM166.299 72.343C166.819 72.343 167.217 72.1653 167.495 71.81C167.781 71.4547 167.924 70.9477 167.924 70.289C167.924 69.6303 167.781 69.1277 167.495 68.781C167.217 68.4257 166.823 68.248 166.312 68.248C165.792 68.248 165.389 68.4213 165.103 68.768C164.817 69.1147 164.674 69.613 164.674 70.263C164.674 70.9217 164.817 71.433 165.103 71.797C165.389 72.161 165.787 72.343 166.299 72.343ZM176.238 71.758C176.386 71.758 176.503 71.8143 176.589 71.927C176.685 72.0397 176.732 72.1913 176.732 72.382C176.732 72.6507 176.572 72.876 176.251 73.058C175.957 73.2227 175.623 73.357 175.25 73.461C174.878 73.5563 174.522 73.604 174.184 73.604C173.162 73.604 172.351 73.3093 171.753 72.72C171.155 72.1307 170.856 71.3247 170.856 70.302C170.856 69.652 170.986 69.0757 171.246 68.573C171.506 68.0703 171.87 67.6803 172.338 67.403C172.815 67.1257 173.352 66.987 173.95 66.987C174.522 66.987 175.021 67.1127 175.445 67.364C175.87 67.6153 176.199 67.9707 176.433 68.43C176.667 68.8893 176.784 69.431 176.784 70.055C176.784 70.4277 176.62 70.614 176.29 70.614H172.455C172.507 71.212 172.676 71.654 172.962 71.94C173.248 72.2173 173.664 72.356 174.21 72.356C174.488 72.356 174.73 72.3213 174.938 72.252C175.155 72.1827 175.398 72.0873 175.666 71.966C175.926 71.8273 176.117 71.758 176.238 71.758ZM173.989 68.131C173.547 68.131 173.192 68.2697 172.923 68.547C172.663 68.8243 172.507 69.223 172.455 69.743H175.393C175.376 69.2143 175.246 68.8157 175.003 68.547C174.761 68.2697 174.423 68.131 173.989 68.131ZM186.674 71.758C186.821 71.758 186.938 71.8143 187.025 71.927C187.12 72.0397 187.168 72.1913 187.168 72.382C187.168 72.6507 187.008 72.876 186.687 73.058C186.392 73.2227 186.059 73.357 185.686 73.461C185.313 73.5563 184.958 73.604 184.62 73.604C183.597 73.604 182.787 73.3093 182.189 72.72C181.591 72.1307 181.292 71.3247 181.292 70.302C181.292 69.652 181.422 69.0757 181.682 68.573C181.942 68.0703 182.306 67.6803 182.774 67.403C183.251 67.1257 183.788 66.987 184.386 66.987C184.958 66.987 185.456 67.1127 185.881 67.364C186.306 67.6153 186.635 67.9707 186.869 68.43C187.103 68.8893 187.22 69.431 187.22 70.055C187.22 70.4277 187.055 70.614 186.726 70.614H182.891C182.943 71.212 183.112 71.654 183.398 71.94C183.684 72.2173 184.1 72.356 184.646 72.356C184.923 72.356 185.166 72.3213 185.374 72.252C185.591 72.1827 185.833 72.0873 186.102 71.966C186.362 71.8273 186.553 71.758 186.674 71.758ZM184.425 68.131C183.983 68.131 183.628 68.2697 183.359 68.547C183.099 68.8243 182.943 69.223 182.891 69.743H185.829C185.812 69.2143 185.682 68.8157 185.439 68.547C185.196 68.2697 184.858 68.131 184.425 68.131ZM187.639 75.866C187.327 75.8833 187.089 75.84 186.924 75.736C186.751 75.632 186.664 75.4717 186.664 75.255C186.664 74.8997 186.881 74.7047 187.314 74.67L187.665 74.644C187.96 74.6267 188.181 74.5357 188.328 74.371C188.475 74.2063 188.549 73.955 188.549 73.617V67.78C188.549 67.5287 188.623 67.338 188.77 67.208C188.926 67.078 189.121 67.013 189.355 67.013C189.589 67.013 189.784 67.078 189.94 67.208C190.096 67.338 190.174 67.5287 190.174 67.78V73.5C190.174 74.956 189.446 75.736 187.99 75.84L187.639 75.866ZM189.342 65.856C189.047 65.856 188.813 65.778 188.64 65.622C188.467 65.4573 188.38 65.245 188.38 64.985C188.38 64.725 188.467 64.517 188.64 64.361C188.813 64.205 189.047 64.127 189.342 64.127C189.628 64.127 189.858 64.205 190.031 64.361C190.213 64.517 190.304 64.725 190.304 64.985C190.304 65.245 190.217 65.4573 190.044 65.622C189.871 65.778 189.637 65.856 189.342 65.856ZM196.881 71.758C197.028 71.758 197.145 71.8143 197.232 71.927C197.327 72.0397 197.375 72.1913 197.375 72.382C197.375 72.6507 197.215 72.876 196.894 73.058C196.599 73.2227 196.266 73.357 195.893 73.461C195.52 73.5563 195.165 73.604 194.827 73.604C193.804 73.604 192.994 73.3093 192.396 72.72C191.798 72.1307 191.499 71.3247 191.499 70.302C191.499 69.652 191.629 69.0757 191.889 68.573C192.149 68.0703 192.513 67.6803 192.981 67.403C193.458 67.1257 193.995 66.987 194.593 66.987C195.165 66.987 195.663 67.1127 196.088 67.364C196.513 67.6153 196.842 67.9707 197.076 68.43C197.31 68.8893 197.427 69.431 197.427 70.055C197.427 70.4277 197.262 70.614 196.933 70.614H193.098C193.15 71.212 193.319 71.654 193.605 71.94C193.891 72.2173 194.307 72.356 194.853 72.356C195.13 72.356 195.373 72.3213 195.581 72.252C195.798 72.1827 196.04 72.0873 196.309 71.966C196.569 71.8273 196.76 71.758 196.881 71.758ZM194.632 68.131C194.19 68.131 193.835 68.2697 193.566 68.547C193.306 68.8243 193.15 69.223 193.098 69.743H196.036C196.019 69.2143 195.889 68.8157 195.646 68.547C195.403 68.2697 195.065 68.131 194.632 68.131ZM206.309 66.987C207.002 66.987 207.531 67.195 207.895 67.611C208.268 68.0183 208.454 68.6813 208.454 69.6V72.798C208.454 73.0493 208.376 73.2443 208.22 73.383C208.073 73.513 207.878 73.578 207.635 73.578C207.401 73.578 207.206 73.513 207.05 73.383C206.903 73.2443 206.829 73.0493 206.829 72.798V69.6C206.829 69.1233 206.742 68.7853 206.569 68.586C206.404 68.378 206.149 68.274 205.802 68.274C205.377 68.274 205.039 68.4213 204.788 68.716C204.537 69.002 204.411 69.3963 204.411 69.899V72.798C204.411 73.0493 204.333 73.2443 204.177 73.383C204.03 73.513 203.839 73.578 203.605 73.578C203.371 73.578 203.176 73.513 203.02 73.383C202.864 73.2443 202.786 73.0493 202.786 72.798V69.6C202.786 69.1233 202.699 68.7853 202.526 68.586C202.361 68.378 202.106 68.274 201.759 68.274C201.334 68.274 200.996 68.4213 200.745 68.716C200.502 69.002 200.381 69.3963 200.381 69.899V72.798C200.381 73.0493 200.303 73.2443 200.147 73.383C199.991 73.513 199.796 73.578 199.562 73.578C199.328 73.578 199.133 73.513 198.977 73.383C198.83 73.2443 198.756 73.0493 198.756 72.798V67.767C198.756 67.5243 198.834 67.338 198.99 67.208C199.146 67.078 199.341 67.013 199.575 67.013C199.8 67.013 199.982 67.078 200.121 67.208C200.268 67.3293 200.342 67.507 200.342 67.741V68.053C200.541 67.7063 200.806 67.442 201.135 67.26C201.473 67.078 201.859 66.987 202.292 66.987C203.245 66.987 203.882 67.3857 204.203 68.183C204.394 67.819 204.675 67.5287 205.048 67.312C205.421 67.0953 205.841 66.987 206.309 66.987ZM213.759 66.987C214.305 66.987 214.79 67.1257 215.215 67.403C215.648 67.6803 215.982 68.0747 216.216 68.586C216.458 69.0887 216.58 69.6693 216.58 70.328C216.58 70.9867 216.458 71.563 216.216 72.057C215.982 72.551 215.652 72.9323 215.228 73.201C214.803 73.4697 214.313 73.604 213.759 73.604C213.308 73.604 212.905 73.5087 212.55 73.318C212.194 73.1273 211.921 72.863 211.731 72.525V75.177C211.731 75.4023 211.657 75.58 211.51 75.71C211.362 75.84 211.167 75.905 210.925 75.905C210.682 75.905 210.483 75.8357 210.327 75.697C210.179 75.5583 210.106 75.3763 210.106 75.151V67.78C210.106 67.546 210.175 67.3597 210.314 67.221C210.461 67.0823 210.656 67.013 210.899 67.013C211.141 67.013 211.336 67.0823 211.484 67.221C211.631 67.3597 211.705 67.546 211.705 67.78V68.105C211.895 67.7497 212.168 67.4767 212.524 67.286C212.888 67.0867 213.299 66.987 213.759 66.987ZM213.33 72.343C213.841 72.343 214.24 72.1697 214.526 71.823C214.812 71.4677 214.955 70.9693 214.955 70.328C214.955 69.6693 214.812 69.158 214.526 68.794C214.24 68.43 213.841 68.248 213.33 68.248C212.81 68.248 212.407 68.4257 212.121 68.781C211.843 69.1363 211.705 69.6433 211.705 70.302C211.705 70.952 211.843 71.4547 212.121 71.81C212.407 72.1653 212.81 72.343 213.33 72.343ZM218.719 73.578C218.485 73.578 218.29 73.513 218.134 73.383C217.987 73.2443 217.913 73.0493 217.913 72.798V65.037C217.913 64.7857 217.987 64.595 218.134 64.465C218.29 64.335 218.485 64.27 218.719 64.27C218.953 64.27 219.148 64.335 219.304 64.465C219.46 64.595 219.538 64.7857 219.538 65.037V72.798C219.538 73.0493 219.46 73.2443 219.304 73.383C219.148 73.513 218.953 73.578 218.719 73.578ZM224.113 73.604C223.463 73.604 222.891 73.4697 222.397 73.201C221.912 72.9323 221.535 72.5467 221.266 72.044C220.997 71.5413 220.863 70.9563 220.863 70.289C220.863 69.6217 220.997 69.041 221.266 68.547C221.535 68.0443 221.912 67.6587 222.397 67.39C222.891 67.1213 223.463 66.987 224.113 66.987C224.763 66.987 225.331 67.1213 225.816 67.39C226.31 67.6587 226.687 68.0443 226.947 68.547C227.216 69.041 227.35 69.6217 227.35 70.289C227.35 70.9563 227.216 71.5413 226.947 72.044C226.687 72.5467 226.31 72.9323 225.816 73.201C225.331 73.4697 224.763 73.604 224.113 73.604ZM224.1 72.343C224.629 72.343 225.032 72.1697 225.309 71.823C225.586 71.4763 225.725 70.965 225.725 70.289C225.725 69.6217 225.586 69.1147 225.309 68.768C225.032 68.4127 224.633 68.235 224.113 68.235C223.593 68.235 223.19 68.4127 222.904 68.768C222.627 69.1147 222.488 69.6217 222.488 70.289C222.488 70.965 222.627 71.4763 222.904 71.823C223.181 72.1697 223.58 72.343 224.1 72.343Z" fill="#38485C"/>
<line x1="74.5" y1="81" x2="265.5" y2="81" stroke="#E6EBF0"/>
<path d="M79.957 96.5H75.5796V88.6475H79.957V89.4585H76.4927V91.9883H79.7476V92.7939H76.4927V95.6836H79.957V96.5ZM85.3657 94.894C85.3657 95.4419 85.1616 95.8644 84.7534 96.1616C84.3452 96.4588 83.7723 96.6074 83.0347 96.6074C82.2541 96.6074 81.6453 96.4839 81.2085 96.2368V95.4097C81.4914 95.5529 81.7939 95.6657 82.1162 95.748C82.4421 95.8304 82.7554 95.8716 83.0562 95.8716C83.5216 95.8716 83.8797 95.7982 84.1304 95.6514C84.381 95.501 84.5063 95.2736 84.5063 94.9692C84.5063 94.7401 84.4061 94.5449 84.2056 94.3838C84.0086 94.2191 83.6219 94.0257 83.0454 93.8037C82.4976 93.5996 82.1073 93.4224 81.8745 93.272C81.6453 93.118 81.4735 92.9443 81.3589 92.751C81.2479 92.5576 81.1924 92.3267 81.1924 92.0581C81.1924 91.5783 81.3875 91.2005 81.7778 90.9248C82.1681 90.6455 82.7035 90.5059 83.3838 90.5059C84.0176 90.5059 84.637 90.6348 85.2422 90.8926L84.9253 91.6177C84.3345 91.3742 83.7992 91.2524 83.3193 91.2524C82.8968 91.2524 82.5781 91.3187 82.3633 91.4512C82.1484 91.5837 82.041 91.7663 82.041 91.999C82.041 92.1566 82.0804 92.2909 82.1592 92.4019C82.2415 92.5129 82.3722 92.6185 82.5513 92.7188C82.7303 92.819 83.0741 92.964 83.5825 93.1538C84.2808 93.408 84.7516 93.6641 84.9951 93.9219C85.2422 94.1797 85.3657 94.5037 85.3657 94.894ZM88.7227 95.8716C88.8802 95.8716 89.0324 95.8608 89.1792 95.8394C89.326 95.8143 89.4424 95.7892 89.5283 95.7642V96.4463C89.4316 96.4928 89.2884 96.5304 89.0986 96.5591C88.9124 96.5913 88.7441 96.6074 88.5938 96.6074C87.4551 96.6074 86.8857 96.0076 86.8857 94.8081V91.3062H86.0425V90.8765L86.8857 90.5059L87.2617 89.249H87.7773V90.6133H89.4854V91.3062H87.7773V94.7705C87.7773 95.125 87.8615 95.3971 88.0298 95.5869C88.1981 95.7767 88.429 95.8716 88.7227 95.8716ZM94.3301 96.5L94.1528 95.6621H94.1099C93.8162 96.0309 93.5226 96.2816 93.229 96.4141C92.939 96.543 92.5755 96.6074 92.1387 96.6074C91.555 96.6074 91.0967 96.457 90.7637 96.1562C90.4342 95.8555 90.2695 95.4276 90.2695 94.8726C90.2695 93.6838 91.2202 93.0607 93.1216 93.0034L94.1206 92.9712V92.606C94.1206 92.144 94.0203 91.8039 93.8198 91.5854C93.6229 91.3634 93.306 91.2524 92.8691 91.2524C92.3786 91.2524 91.8236 91.4028 91.2041 91.7036L90.9302 91.0215C91.2202 90.8639 91.5371 90.7404 91.8809 90.6509C92.2282 90.5614 92.5755 90.5166 92.9229 90.5166C93.6247 90.5166 94.1439 90.6724 94.4805 90.9839C94.8206 91.2954 94.9907 91.7949 94.9907 92.4824V96.5H94.3301ZM92.3159 95.8716C92.8709 95.8716 93.306 95.7194 93.6211 95.415C93.9398 95.1107 94.0991 94.6846 94.0991 94.1367V93.605L93.2075 93.6426C92.4985 93.6676 91.9865 93.7786 91.6714 93.9756C91.3599 94.1689 91.2041 94.4715 91.2041 94.8833C91.2041 95.2056 91.3008 95.4508 91.4941 95.6191C91.6911 95.7874 91.965 95.8716 92.3159 95.8716ZM102.177 96.6074C101.307 96.6074 100.62 96.3424 100.115 95.8125C99.6134 95.2826 99.3628 94.5467 99.3628 93.605C99.3628 92.6561 99.5955 91.9023 100.061 91.3438C100.53 90.7852 101.159 90.5059 101.946 90.5059C102.684 90.5059 103.268 90.7493 103.697 91.2363C104.127 91.7197 104.342 92.3589 104.342 93.1538V93.7178H100.287C100.305 94.4089 100.478 94.9334 100.808 95.2915C101.141 95.6496 101.608 95.8286 102.209 95.8286C102.843 95.8286 103.47 95.6961 104.089 95.4312V96.2261C103.774 96.3621 103.475 96.4588 103.192 96.5161C102.913 96.577 102.575 96.6074 102.177 96.6074ZM101.936 91.2524C101.463 91.2524 101.085 91.4064 100.802 91.7144C100.523 92.0223 100.358 92.4484 100.308 92.9927H103.386C103.386 92.4305 103.26 92.0008 103.01 91.7036C102.759 91.4028 102.401 91.2524 101.936 91.2524ZM109.665 94.894C109.665 95.4419 109.46 95.8644 109.052 96.1616C108.644 96.4588 108.071 96.6074 107.333 96.6074C106.553 96.6074 105.944 96.4839 105.507 96.2368V95.4097C105.79 95.5529 106.093 95.6657 106.415 95.748C106.741 95.8304 107.054 95.8716 107.355 95.8716C107.82 95.8716 108.179 95.7982 108.429 95.6514C108.68 95.501 108.805 95.2736 108.805 94.9692C108.805 94.7401 108.705 94.5449 108.504 94.3838C108.307 94.2191 107.921 94.0257 107.344 93.8037C106.796 93.5996 106.406 93.4224 106.173 93.272C105.944 93.118 105.772 92.9443 105.658 92.751C105.547 92.5576 105.491 92.3267 105.491 92.0581C105.491 91.5783 105.686 91.2005 106.077 90.9248C106.467 90.6455 107.002 90.5059 107.683 90.5059C108.316 90.5059 108.936 90.6348 109.541 90.8926L109.224 91.6177C108.633 91.3742 108.098 91.2524 107.618 91.2524C107.196 91.2524 106.877 91.3187 106.662 91.4512C106.447 91.5837 106.34 91.7663 106.34 91.999C106.34 92.1566 106.379 92.2909 106.458 92.4019C106.54 92.5129 106.671 92.6185 106.85 92.7188C107.029 92.819 107.373 92.964 107.881 93.1538C108.58 93.408 109.05 93.6641 109.294 93.9219C109.541 94.1797 109.665 94.5037 109.665 94.894ZM114.869 96.5H113.978V88.1426H114.869V96.5ZM120.38 96.5L120.203 95.6621H120.16C119.866 96.0309 119.572 96.2816 119.279 96.4141C118.989 96.543 118.625 96.6074 118.188 96.6074C117.605 96.6074 117.146 96.457 116.813 96.1562C116.484 95.8555 116.319 95.4276 116.319 94.8726C116.319 93.6838 117.27 93.0607 119.171 93.0034L120.17 92.9712V92.606C120.17 92.144 120.07 91.8039 119.87 91.5854C119.673 91.3634 119.356 91.2524 118.919 91.2524C118.428 91.2524 117.873 91.4028 117.254 91.7036L116.98 91.0215C117.27 90.8639 117.587 90.7404 117.931 90.6509C118.278 90.5614 118.625 90.5166 118.973 90.5166C119.674 90.5166 120.194 90.6724 120.53 90.9839C120.87 91.2954 121.041 91.7949 121.041 92.4824V96.5H120.38ZM118.366 95.8716C118.921 95.8716 119.356 95.7194 119.671 95.415C119.99 95.1107 120.149 94.6846 120.149 94.1367V93.605L119.257 93.6426C118.548 93.6676 118.036 93.7786 117.721 93.9756C117.41 94.1689 117.254 94.4715 117.254 94.8833C117.254 95.2056 117.351 95.4508 117.544 95.6191C117.741 95.7874 118.015 95.8716 118.366 95.8716ZM129.747 95.7104H129.699C129.287 96.3084 128.671 96.6074 127.851 96.6074C127.081 96.6074 126.481 96.3442 126.052 95.8179C125.626 95.2915 125.413 94.5431 125.413 93.5728C125.413 92.6024 125.627 91.8486 126.057 91.3115C126.487 90.7744 127.085 90.5059 127.851 90.5059C128.65 90.5059 129.262 90.7959 129.688 91.376H129.758L129.72 90.9517L129.699 90.5381V88.1426H130.59V96.5H129.865L129.747 95.7104ZM127.964 95.8608C128.573 95.8608 129.013 95.6961 129.285 95.3667C129.561 95.0337 129.699 94.4984 129.699 93.7607V93.5728C129.699 92.7384 129.559 92.144 129.28 91.7896C129.004 91.4315 128.562 91.2524 127.953 91.2524C127.43 91.2524 127.029 91.4565 126.75 91.8647C126.474 92.2694 126.336 92.8423 126.336 93.5835C126.336 94.3354 126.474 94.903 126.75 95.2861C127.026 95.6693 127.43 95.8608 127.964 95.8608ZM134.973 96.6074C134.103 96.6074 133.416 96.3424 132.911 95.8125C132.409 95.2826 132.159 94.5467 132.159 93.605C132.159 92.6561 132.391 91.9023 132.857 91.3438C133.326 90.7852 133.954 90.5059 134.742 90.5059C135.48 90.5059 136.063 90.7493 136.493 91.2363C136.923 91.7197 137.138 92.3589 137.138 93.1538V93.7178H133.083C133.1 94.4089 133.274 94.9334 133.604 95.2915C133.937 95.6496 134.404 95.8286 135.005 95.8286C135.639 95.8286 136.266 95.6961 136.885 95.4312V96.2261C136.57 96.3621 136.271 96.4588 135.988 96.5161C135.709 96.577 135.371 96.6074 134.973 96.6074ZM134.731 91.2524C134.259 91.2524 133.881 91.4064 133.598 91.7144C133.319 92.0223 133.154 92.4484 133.104 92.9927H136.182C136.182 92.4305 136.056 92.0008 135.806 91.7036C135.555 91.4028 135.197 91.2524 134.731 91.2524ZM142.46 94.894C142.46 95.4419 142.256 95.8644 141.848 96.1616C141.44 96.4588 140.867 96.6074 140.129 96.6074C139.349 96.6074 138.74 96.4839 138.303 96.2368V95.4097C138.586 95.5529 138.889 95.6657 139.211 95.748C139.537 95.8304 139.85 95.8716 140.151 95.8716C140.616 95.8716 140.974 95.7982 141.225 95.6514C141.476 95.501 141.601 95.2736 141.601 94.9692C141.601 94.7401 141.501 94.5449 141.3 94.3838C141.103 94.2191 140.717 94.0257 140.14 93.8037C139.592 93.5996 139.202 93.4224 138.969 93.272C138.74 93.118 138.568 92.9443 138.454 92.751C138.343 92.5576 138.287 92.3267 138.287 92.0581C138.287 91.5783 138.482 91.2005 138.873 90.9248C139.263 90.6455 139.798 90.5059 140.479 90.5059C141.112 90.5059 141.732 90.6348 142.337 90.8926L142.02 91.6177C141.429 91.3742 140.894 91.2524 140.414 91.2524C139.992 91.2524 139.673 91.3187 139.458 91.4512C139.243 91.5837 139.136 91.7663 139.136 91.999C139.136 92.1566 139.175 92.2909 139.254 92.4019C139.336 92.5129 139.467 92.6185 139.646 92.7188C139.825 92.819 140.169 92.964 140.677 93.1538C141.375 93.408 141.846 93.6641 142.09 93.9219C142.337 94.1797 142.46 94.5037 142.46 94.894ZM146.269 96.6074C145.416 96.6074 144.756 96.346 144.287 95.8232C143.821 95.2969 143.588 94.5539 143.588 93.5942C143.588 92.6095 143.825 91.8486 144.297 91.3115C144.774 90.7744 145.45 90.5059 146.328 90.5059C146.611 90.5059 146.893 90.5363 147.176 90.5972C147.459 90.658 147.681 90.7297 147.842 90.812L147.568 91.5693C147.371 91.4906 147.157 91.4261 146.924 91.376C146.691 91.3223 146.485 91.2954 146.306 91.2954C145.11 91.2954 144.512 92.0581 144.512 93.5835C144.512 94.3068 144.657 94.8618 144.947 95.2485C145.241 95.6353 145.674 95.8286 146.247 95.8286C146.738 95.8286 147.241 95.723 147.756 95.5117V96.3013C147.362 96.5054 146.867 96.6074 146.269 96.6074ZM151.844 90.5059C152.105 90.5059 152.34 90.5273 152.547 90.5703L152.424 91.3975C152.18 91.3438 151.965 91.3169 151.779 91.3169C151.303 91.3169 150.895 91.5103 150.555 91.897C150.218 92.2837 150.05 92.7653 150.05 93.3418V96.5H149.158V90.6133H149.894L149.996 91.7036H150.039C150.257 91.3205 150.521 91.0251 150.829 90.8174C151.137 90.6097 151.475 90.5059 151.844 90.5059ZM154.54 96.5H153.648V90.6133H154.54V96.5ZM153.573 89.0181C153.573 88.814 153.623 88.6654 153.724 88.5723C153.824 88.4756 153.949 88.4272 154.1 88.4272C154.243 88.4272 154.366 88.4756 154.47 88.5723C154.574 88.6689 154.626 88.8175 154.626 89.0181C154.626 89.2186 154.574 89.369 154.47 89.4692C154.366 89.5659 154.243 89.6143 154.1 89.6143C153.949 89.6143 153.824 89.5659 153.724 89.4692C153.623 89.369 153.573 89.2186 153.573 89.0181ZM159.17 96.6074C158.787 96.6074 158.436 96.5376 158.117 96.3979C157.802 96.2547 157.537 96.0363 157.322 95.7427H157.258C157.301 96.0864 157.322 96.4123 157.322 96.7202V99.1426H156.431V90.6133H157.156L157.279 91.4189H157.322C157.551 91.0967 157.818 90.8639 158.123 90.7207C158.427 90.5775 158.776 90.5059 159.17 90.5059C159.951 90.5059 160.552 90.7726 160.975 91.3062C161.401 91.8397 161.614 92.5881 161.614 93.5513C161.614 94.5181 161.397 95.27 160.964 95.8071C160.534 96.3407 159.936 96.6074 159.17 96.6074ZM159.041 91.2632C158.439 91.2632 158.004 91.4297 157.736 91.7627C157.467 92.0957 157.329 92.6257 157.322 93.3525V93.5513C157.322 94.3784 157.46 94.971 157.736 95.3291C158.012 95.6836 158.454 95.8608 159.062 95.8608C159.571 95.8608 159.968 95.6549 160.255 95.2432C160.545 94.8314 160.69 94.2638 160.69 93.5405C160.69 92.8065 160.545 92.2443 160.255 91.854C159.968 91.4601 159.564 91.2632 159.041 91.2632ZM165.529 96.6074C164.677 96.6074 164.016 96.346 163.547 95.8232C163.082 95.2969 162.849 94.5539 162.849 93.5942C162.849 92.6095 163.085 91.8486 163.558 91.3115C164.034 90.7744 164.711 90.5059 165.588 90.5059C165.871 90.5059 166.154 90.5363 166.437 90.5972C166.72 90.658 166.942 90.7297 167.103 90.812L166.829 91.5693C166.632 91.4906 166.417 91.4261 166.185 91.376C165.952 91.3223 165.746 91.2954 165.567 91.2954C164.371 91.2954 163.773 92.0581 163.773 93.5835C163.773 94.3068 163.918 94.8618 164.208 95.2485C164.502 95.6353 164.935 95.8286 165.508 95.8286C165.998 95.8286 166.501 95.723 167.017 95.5117V96.3013C166.623 96.5054 166.127 96.6074 165.529 96.6074ZM169.311 96.5H168.419V90.6133H169.311V96.5ZM168.344 89.0181C168.344 88.814 168.394 88.6654 168.494 88.5723C168.594 88.4756 168.72 88.4272 168.87 88.4272C169.013 88.4272 169.137 88.4756 169.241 88.5723C169.345 88.6689 169.396 88.8175 169.396 89.0181C169.396 89.2186 169.345 89.369 169.241 89.4692C169.137 89.5659 169.013 89.6143 168.87 89.6143C168.72 89.6143 168.594 89.5659 168.494 89.4692C168.394 89.369 168.344 89.2186 168.344 89.0181ZM176.282 93.5513C176.282 94.5109 176.041 95.2611 175.557 95.8018C175.074 96.3389 174.406 96.6074 173.554 96.6074C173.027 96.6074 172.56 96.4839 172.152 96.2368C171.744 95.9897 171.429 95.6353 171.207 95.1733C170.985 94.7114 170.874 94.1707 170.874 93.5513C170.874 92.5916 171.113 91.8451 171.593 91.3115C172.073 90.7744 172.739 90.5059 173.591 90.5059C174.415 90.5059 175.068 90.7798 175.552 91.3276C176.039 91.8755 176.282 92.6167 176.282 93.5513ZM171.797 93.5513C171.797 94.3032 171.948 94.8761 172.249 95.27C172.549 95.6639 172.992 95.8608 173.575 95.8608C174.159 95.8608 174.601 95.6657 174.902 95.2754C175.206 94.8815 175.358 94.3068 175.358 93.5513C175.358 92.8029 175.206 92.2354 174.902 91.8486C174.601 91.4583 174.155 91.2632 173.564 91.2632C172.981 91.2632 172.54 91.4548 172.243 91.8379C171.946 92.221 171.797 92.7922 171.797 93.5513ZM172.829 89.7002C173 89.4782 173.185 89.2096 173.382 88.8945C173.582 88.5794 173.74 88.3055 173.854 88.0728H174.939V88.1855C174.782 88.4183 174.547 88.7048 174.236 89.0449C173.924 89.3851 173.654 89.6483 173.425 89.8345H172.829V89.7002ZM181.879 96.5V92.6919C181.879 92.2121 181.77 91.854 181.551 91.6177C181.333 91.3813 180.991 91.2632 180.525 91.2632C179.91 91.2632 179.458 91.4297 179.172 91.7627C178.885 92.0957 178.742 92.6453 178.742 93.4116V96.5H177.851V90.6133H178.576L178.721 91.4189H178.764C178.946 91.1289 179.202 90.9051 179.532 90.7476C179.861 90.5864 180.228 90.5059 180.633 90.5059C181.342 90.5059 181.875 90.6777 182.233 91.0215C182.591 91.3617 182.771 91.9077 182.771 92.6597V96.5H181.879ZM191.472 95.7104H191.423C191.012 96.3084 190.396 96.6074 189.576 96.6074C188.806 96.6074 188.206 96.3442 187.776 95.8179C187.35 95.2915 187.137 94.5431 187.137 93.5728C187.137 92.6024 187.352 91.8486 187.782 91.3115C188.211 90.7744 188.809 90.5059 189.576 90.5059C190.374 90.5059 190.986 90.7959 191.413 91.376H191.482L191.445 90.9517L191.423 90.5381V88.1426H192.315V96.5H191.59L191.472 95.7104ZM189.688 95.8608C190.297 95.8608 190.738 95.6961 191.01 95.3667C191.285 95.0337 191.423 94.4984 191.423 93.7607V93.5728C191.423 92.7384 191.284 92.144 191.004 91.7896C190.729 91.4315 190.286 91.2524 189.678 91.2524C189.155 91.2524 188.754 91.4565 188.475 91.8647C188.199 92.2694 188.061 92.8423 188.061 93.5835C188.061 94.3354 188.199 94.903 188.475 95.2861C188.75 95.6693 189.155 95.8608 189.688 95.8608ZM196.698 96.6074C195.828 96.6074 195.14 96.3424 194.635 95.8125C194.134 95.2826 193.883 94.5467 193.883 93.605C193.883 92.6561 194.116 91.9023 194.582 91.3438C195.051 90.7852 195.679 90.5059 196.467 90.5059C197.204 90.5059 197.788 90.7493 198.218 91.2363C198.647 91.7197 198.862 92.3589 198.862 93.1538V93.7178H194.807C194.825 94.4089 194.999 94.9334 195.328 95.2915C195.661 95.6496 196.128 95.8286 196.73 95.8286C197.364 95.8286 197.99 95.6961 198.61 95.4312V96.2261C198.295 96.3621 197.996 96.4588 197.713 96.5161C197.434 96.577 197.095 96.6074 196.698 96.6074ZM196.456 91.2524C195.983 91.2524 195.606 91.4064 195.323 91.7144C195.043 92.0223 194.879 92.4484 194.829 92.9927H197.906C197.906 92.4305 197.781 92.0008 197.53 91.7036C197.28 91.4028 196.922 91.2524 196.456 91.2524ZM204.083 90.6133V94.4321C204.083 94.9119 204.192 95.27 204.411 95.5063C204.629 95.7427 204.971 95.8608 205.437 95.8608C206.052 95.8608 206.502 95.6925 206.785 95.356C207.071 95.0194 207.214 94.4697 207.214 93.707V90.6133H208.106V96.5H207.37L207.241 95.7104H207.193C207.01 96.0005 206.756 96.2225 206.43 96.3765C206.108 96.5304 205.739 96.6074 205.324 96.6074C204.608 96.6074 204.07 96.4373 203.712 96.0972C203.358 95.757 203.181 95.2127 203.181 94.4644V90.6133H204.083ZM214.03 96.5V92.6919C214.03 92.2121 213.921 91.854 213.703 91.6177C213.484 91.3813 213.142 91.2632 212.677 91.2632C212.061 91.2632 211.61 91.4297 211.323 91.7627C211.037 92.0957 210.894 92.6453 210.894 93.4116V96.5H210.002V90.6133H210.727L210.872 91.4189H210.915C211.098 91.1289 211.354 90.9051 211.683 90.7476C212.013 90.5864 212.38 90.5059 212.784 90.5059C213.493 90.5059 214.027 90.6777 214.385 91.0215C214.743 91.3617 214.922 91.9077 214.922 92.6597V96.5H214.03ZM227.12 96.5V92.6704C227.12 92.2013 227.019 91.8504 226.819 91.6177C226.618 91.3813 226.307 91.2632 225.884 91.2632C225.329 91.2632 224.919 91.4225 224.654 91.7412C224.389 92.0599 224.257 92.5505 224.257 93.2129V96.5H223.365V92.6704C223.365 92.2013 223.265 91.8504 223.064 91.6177C222.864 91.3813 222.551 91.2632 222.125 91.2632C221.566 91.2632 221.156 91.4315 220.895 91.7681C220.637 92.1011 220.508 92.6489 220.508 93.4116V96.5H219.616V90.6133H220.341L220.486 91.4189H220.529C220.698 91.1325 220.934 90.9087 221.238 90.7476C221.546 90.5864 221.89 90.5059 222.27 90.5059C223.19 90.5059 223.791 90.8389 224.074 91.5049H224.117C224.293 91.1969 224.547 90.9535 224.88 90.7744C225.213 90.5954 225.592 90.5059 226.019 90.5059C226.685 90.5059 227.182 90.6777 227.512 91.0215C227.845 91.3617 228.011 91.9077 228.011 92.6597V96.5H227.12ZM234.935 93.5513C234.935 94.5109 234.693 95.2611 234.209 95.8018C233.726 96.3389 233.058 96.6074 232.206 96.6074C231.68 96.6074 231.212 96.4839 230.804 96.2368C230.396 95.9897 230.081 95.6353 229.859 95.1733C229.637 94.7114 229.526 94.1707 229.526 93.5513C229.526 92.5916 229.766 91.8451 230.246 91.3115C230.725 90.7744 231.391 90.5059 232.244 90.5059C233.067 90.5059 233.721 90.7798 234.204 91.3276C234.691 91.8755 234.935 92.6167 234.935 93.5513ZM230.45 93.5513C230.45 94.3032 230.6 94.8761 230.901 95.27C231.202 95.6639 231.644 95.8608 232.228 95.8608C232.811 95.8608 233.253 95.6657 233.554 95.2754C233.859 94.8815 234.011 94.3068 234.011 93.5513C234.011 92.8029 233.859 92.2354 233.554 91.8486C233.253 91.4583 232.808 91.2632 232.217 91.2632C231.633 91.2632 231.193 91.4548 230.896 91.8379C230.598 92.221 230.45 92.7922 230.45 93.5513ZM240.51 95.7104H240.461C240.05 96.3084 239.434 96.6074 238.614 96.6074C237.844 96.6074 237.244 96.3442 236.814 95.8179C236.388 95.2915 236.175 94.5431 236.175 93.5728C236.175 92.6024 236.39 91.8486 236.82 91.3115C237.25 90.7744 237.847 90.5059 238.614 90.5059C239.412 90.5059 240.025 90.7959 240.451 91.376H240.521L240.483 90.9517L240.461 90.5381V88.1426H241.353V96.5H240.628L240.51 95.7104ZM238.727 95.8608C239.335 95.8608 239.776 95.6961 240.048 95.3667C240.324 95.0337 240.461 94.4984 240.461 93.7607V93.5728C240.461 92.7384 240.322 92.144 240.042 91.7896C239.767 91.4315 239.325 91.2524 238.716 91.2524C238.193 91.2524 237.792 91.4565 237.513 91.8647C237.237 92.2694 237.099 92.8423 237.099 93.5835C237.099 94.3354 237.237 94.903 237.513 95.2861C237.788 95.6693 238.193 95.8608 238.727 95.8608ZM246.869 96.5L246.692 95.6621H246.649C246.355 96.0309 246.062 96.2816 245.768 96.4141C245.478 96.543 245.115 96.6074 244.678 96.6074C244.094 96.6074 243.636 96.457 243.303 96.1562C242.973 95.8555 242.809 95.4276 242.809 94.8726C242.809 93.6838 243.759 93.0607 245.661 93.0034L246.66 92.9712V92.606C246.66 92.144 246.559 91.8039 246.359 91.5854C246.162 91.3634 245.845 91.2524 245.408 91.2524C244.918 91.2524 244.363 91.4028 243.743 91.7036L243.469 91.0215C243.759 90.8639 244.076 90.7404 244.42 90.6509C244.767 90.5614 245.115 90.5166 245.462 90.5166C246.164 90.5166 246.683 90.6724 247.02 90.9839C247.36 91.2954 247.53 91.7949 247.53 92.4824V96.5H246.869ZM244.855 95.8716C245.41 95.8716 245.845 95.7194 246.16 95.415C246.479 95.1107 246.638 94.6846 246.638 94.1367V93.605L245.747 93.6426C245.038 93.6676 244.526 93.7786 244.21 93.9756C243.899 94.1689 243.743 94.4715 243.743 94.8833C243.743 95.2056 243.84 95.4508 244.033 95.6191C244.23 95.7874 244.504 95.8716 244.855 95.8716ZM250.264 96.5H249.372V88.1426H250.264V96.5ZM77.7979 110.607C76.9456 110.607 76.285 110.346 75.8159 109.823C75.3504 109.297 75.1177 108.554 75.1177 107.594C75.1177 106.61 75.354 105.849 75.8267 105.312C76.3029 104.774 76.9797 104.506 77.8569 104.506C78.1398 104.506 78.4227 104.536 78.7056 104.597C78.9884 104.658 79.2104 104.73 79.3716 104.812L79.0977 105.569C78.9007 105.491 78.6859 105.426 78.4531 105.376C78.2204 105.322 78.0145 105.295 77.8354 105.295C76.6395 105.295 76.0415 106.058 76.0415 107.583C76.0415 108.307 76.1865 108.862 76.4766 109.249C76.7702 109.635 77.2035 109.829 77.7764 109.829C78.2669 109.829 78.77 109.723 79.2856 109.512V110.301C78.8918 110.505 78.3958 110.607 77.7979 110.607ZM85.7686 107.551C85.7686 108.511 85.5269 109.261 85.0435 109.802C84.5601 110.339 83.8923 110.607 83.04 110.607C82.5137 110.607 82.0464 110.484 81.6382 110.237C81.23 109.99 80.9149 109.635 80.6929 109.173C80.4709 108.711 80.3599 108.171 80.3599 107.551C80.3599 106.592 80.5998 105.845 81.0796 105.312C81.5594 104.774 82.2254 104.506 83.0776 104.506C83.9012 104.506 84.5547 104.78 85.0381 105.328C85.5251 105.875 85.7686 106.617 85.7686 107.551ZM81.2837 107.551C81.2837 108.303 81.4341 108.876 81.7349 109.27C82.0356 109.664 82.4779 109.861 83.0615 109.861C83.6452 109.861 84.0874 109.666 84.3882 109.275C84.6925 108.882 84.8447 108.307 84.8447 107.551C84.8447 106.803 84.6925 106.235 84.3882 105.849C84.0874 105.458 83.6416 105.263 83.0508 105.263C82.4671 105.263 82.0267 105.455 81.7295 105.838C81.4323 106.221 81.2837 106.792 81.2837 107.551ZM91.3652 110.5V106.692C91.3652 106.212 91.256 105.854 91.0376 105.618C90.8192 105.381 90.4772 105.263 90.0117 105.263C89.3958 105.263 88.9447 105.43 88.6582 105.763C88.3717 106.096 88.2285 106.645 88.2285 107.412V110.5H87.3369V104.613H88.062L88.207 105.419H88.25C88.4326 105.129 88.6886 104.905 89.0181 104.748C89.3475 104.586 89.7145 104.506 90.1191 104.506C90.8281 104.506 91.3617 104.678 91.7197 105.021C92.0778 105.362 92.2568 105.908 92.2568 106.66V110.5H91.3652ZM97.7891 104.613V108.432C97.7891 108.912 97.8983 109.27 98.1167 109.506C98.3351 109.743 98.6771 109.861 99.1426 109.861C99.7585 109.861 100.208 109.693 100.491 109.356C100.777 109.019 100.92 108.47 100.92 107.707V104.613H101.812V110.5H101.076L100.947 109.71H100.899C100.716 110 100.462 110.222 100.136 110.376C99.814 110.53 99.4451 110.607 99.0298 110.607C98.3136 110.607 97.7765 110.437 97.4185 110.097C97.064 109.757 96.8867 109.213 96.8867 108.464V104.613H97.7891ZM107.736 110.5V106.692C107.736 106.212 107.627 105.854 107.409 105.618C107.19 105.381 106.848 105.263 106.383 105.263C105.767 105.263 105.316 105.43 105.029 105.763C104.743 106.096 104.6 106.645 104.6 107.412V110.5H103.708V104.613H104.433L104.578 105.419H104.621C104.804 105.129 105.06 104.905 105.389 104.748C105.719 104.586 106.086 104.506 106.49 104.506C107.199 104.506 107.733 104.678 108.091 105.021C108.449 105.362 108.628 105.908 108.628 106.66V110.5H107.736ZM115.675 110.607C114.823 110.607 114.162 110.346 113.693 109.823C113.227 109.297 112.995 108.554 112.995 107.594C112.995 106.61 113.231 105.849 113.704 105.312C114.18 104.774 114.857 104.506 115.734 104.506C116.017 104.506 116.3 104.536 116.583 104.597C116.865 104.658 117.087 104.73 117.249 104.812L116.975 105.569C116.778 105.491 116.563 105.426 116.33 105.376C116.097 105.322 115.891 105.295 115.712 105.295C114.516 105.295 113.918 106.058 113.918 107.583C113.918 108.307 114.063 108.862 114.354 109.249C114.647 109.635 115.08 109.829 115.653 109.829C116.144 109.829 116.647 109.723 117.163 109.512V110.301C116.769 110.505 116.273 110.607 115.675 110.607ZM123.646 107.551C123.646 108.511 123.404 109.261 122.92 109.802C122.437 110.339 121.769 110.607 120.917 110.607C120.391 110.607 119.923 110.484 119.515 110.237C119.107 109.99 118.792 109.635 118.57 109.173C118.348 108.711 118.237 108.171 118.237 107.551C118.237 106.592 118.477 105.845 118.957 105.312C119.436 104.774 120.102 104.506 120.955 104.506C121.778 104.506 122.432 104.78 122.915 105.328C123.402 105.875 123.646 106.617 123.646 107.551ZM119.161 107.551C119.161 108.303 119.311 108.876 119.612 109.27C119.913 109.664 120.355 109.861 120.938 109.861C121.522 109.861 121.964 109.666 122.265 109.275C122.569 108.882 122.722 108.307 122.722 107.551C122.722 106.803 122.569 106.235 122.265 105.849C121.964 105.458 121.519 105.263 120.928 105.263C120.344 105.263 119.904 105.455 119.606 105.838C119.309 106.221 119.161 106.792 119.161 107.551ZM129.242 110.5V106.692C129.242 106.212 129.133 105.854 128.915 105.618C128.696 105.381 128.354 105.263 127.889 105.263C127.273 105.263 126.822 105.43 126.535 105.763C126.249 106.096 126.105 106.645 126.105 107.412V110.5H125.214V104.613H125.939L126.084 105.419H126.127C126.31 105.129 126.566 104.905 126.895 104.748C127.224 104.586 127.591 104.506 127.996 104.506C128.705 104.506 129.239 104.678 129.597 105.021C129.955 105.362 130.134 105.908 130.134 106.66V110.5H129.242ZM133.872 109.872C134.03 109.872 134.182 109.861 134.329 109.839C134.475 109.814 134.592 109.789 134.678 109.764V110.446C134.581 110.493 134.438 110.53 134.248 110.559C134.062 110.591 133.894 110.607 133.743 110.607C132.604 110.607 132.035 110.008 132.035 108.808V105.306H131.192V104.876L132.035 104.506L132.411 103.249H132.927V104.613H134.635V105.306H132.927V108.771C132.927 109.125 133.011 109.397 133.179 109.587C133.347 109.777 133.578 109.872 133.872 109.872ZM138.346 110.607C137.476 110.607 136.789 110.342 136.284 109.812C135.782 109.283 135.532 108.547 135.532 107.605C135.532 106.656 135.764 105.902 136.23 105.344C136.699 104.785 137.327 104.506 138.115 104.506C138.853 104.506 139.437 104.749 139.866 105.236C140.296 105.72 140.511 106.359 140.511 107.154V107.718H136.456C136.473 108.409 136.647 108.933 136.977 109.292C137.31 109.65 137.777 109.829 138.378 109.829C139.012 109.829 139.639 109.696 140.258 109.431V110.226C139.943 110.362 139.644 110.459 139.361 110.516C139.082 110.577 138.744 110.607 138.346 110.607ZM138.104 105.252C137.632 105.252 137.254 105.406 136.971 105.714C136.692 106.022 136.527 106.448 136.477 106.993H139.555C139.555 106.431 139.429 106.001 139.179 105.704C138.928 105.403 138.57 105.252 138.104 105.252ZM146.064 110.5V106.692C146.064 106.212 145.955 105.854 145.737 105.618C145.518 105.381 145.176 105.263 144.711 105.263C144.095 105.263 143.644 105.43 143.357 105.763C143.071 106.096 142.928 106.645 142.928 107.412V110.5H142.036V104.613H142.761L142.906 105.419H142.949C143.132 105.129 143.388 104.905 143.717 104.748C144.047 104.586 144.414 104.506 144.818 104.506C145.527 104.506 146.061 104.678 146.419 105.021C146.777 105.362 146.956 105.908 146.956 106.66V110.5H146.064ZM151.28 110.607C150.41 110.607 149.722 110.342 149.217 109.812C148.716 109.283 148.465 108.547 148.465 107.605C148.465 106.656 148.698 105.902 149.164 105.344C149.633 104.785 150.261 104.506 151.049 104.506C151.786 104.506 152.37 104.749 152.8 105.236C153.229 105.72 153.444 106.359 153.444 107.154V107.718H149.389C149.407 108.409 149.581 108.933 149.91 109.292C150.243 109.65 150.71 109.829 151.312 109.829C151.946 109.829 152.572 109.696 153.192 109.431V110.226C152.877 110.362 152.578 110.459 152.295 110.516C152.016 110.577 151.677 110.607 151.28 110.607ZM151.038 105.252C150.565 105.252 150.188 105.406 149.905 105.714C149.625 106.022 149.461 106.448 149.411 106.993H152.488C152.488 106.431 152.363 106.001 152.112 105.704C151.862 105.403 151.504 105.252 151.038 105.252ZM158.977 109.71H158.928C158.516 110.308 157.901 110.607 157.081 110.607C156.311 110.607 155.711 110.344 155.281 109.818C154.855 109.292 154.642 108.543 154.642 107.573C154.642 106.602 154.857 105.849 155.287 105.312C155.716 104.774 156.314 104.506 157.081 104.506C157.879 104.506 158.491 104.796 158.917 105.376H158.987L158.95 104.952L158.928 104.538V102.143H159.82V110.5H159.095L158.977 109.71ZM157.193 109.861C157.802 109.861 158.243 109.696 158.515 109.367C158.79 109.034 158.928 108.498 158.928 107.761V107.573C158.928 106.738 158.789 106.144 158.509 105.79C158.234 105.431 157.791 105.252 157.183 105.252C156.66 105.252 156.259 105.457 155.979 105.865C155.704 106.269 155.566 106.842 155.566 107.583C155.566 108.335 155.704 108.903 155.979 109.286C156.255 109.669 156.66 109.861 157.193 109.861ZM166.797 107.551C166.797 108.511 166.555 109.261 166.072 109.802C165.588 110.339 164.921 110.607 164.068 110.607C163.542 110.607 163.075 110.484 162.667 110.237C162.258 109.99 161.943 109.635 161.721 109.173C161.499 108.711 161.388 108.171 161.388 107.551C161.388 106.592 161.628 105.845 162.108 105.312C162.588 104.774 163.254 104.506 164.106 104.506C164.93 104.506 165.583 104.78 166.066 105.328C166.553 105.875 166.797 106.617 166.797 107.551ZM162.312 107.551C162.312 108.303 162.462 108.876 162.763 109.27C163.064 109.664 163.506 109.861 164.09 109.861C164.674 109.861 165.116 109.666 165.417 109.275C165.721 108.882 165.873 108.307 165.873 107.551C165.873 106.803 165.721 106.235 165.417 105.849C165.116 105.458 164.67 105.263 164.079 105.263C163.495 105.263 163.055 105.455 162.758 105.838C162.461 106.221 162.312 106.792 162.312 107.551ZM171.051 104.506C171.312 104.506 171.547 104.527 171.754 104.57L171.631 105.397C171.387 105.344 171.173 105.317 170.986 105.317C170.51 105.317 170.102 105.51 169.762 105.897C169.425 106.284 169.257 106.765 169.257 107.342V110.5H168.365V104.613H169.101L169.203 105.704H169.246C169.465 105.32 169.728 105.025 170.036 104.817C170.344 104.61 170.682 104.506 171.051 104.506ZM172.727 109.931C172.727 109.691 172.78 109.51 172.888 109.388C172.999 109.263 173.156 109.2 173.36 109.2C173.568 109.2 173.729 109.263 173.844 109.388C173.962 109.51 174.021 109.691 174.021 109.931C174.021 110.163 173.962 110.342 173.844 110.468C173.726 110.593 173.564 110.656 173.36 110.656C173.178 110.656 173.026 110.6 172.904 110.489C172.786 110.375 172.727 110.188 172.727 109.931Z" fill="#38485C"/>
<rect x="171.5" y="125.5" width="43" height="19" rx="4" fill="#E6EBF0"/>
<path d="M178.34 138.08C178.18 138.08 178.05 138.043 177.95 137.97C177.857 137.897 177.8 137.8 177.78 137.68C177.76 137.553 177.783 137.413 177.85 137.26L180.49 131.41C180.577 131.217 180.68 131.08 180.8 131C180.927 130.913 181.07 130.87 181.23 130.87C181.383 130.87 181.52 130.913 181.64 131C181.767 131.08 181.873 131.217 181.96 131.41L184.61 137.26C184.683 137.413 184.71 137.553 184.69 137.68C184.67 137.807 184.613 137.907 184.52 137.98C184.427 138.047 184.303 138.08 184.15 138.08C183.963 138.08 183.817 138.037 183.71 137.95C183.61 137.857 183.52 137.717 183.44 137.53L182.79 136.02L183.33 136.37H179.11L179.65 136.02L179.01 137.53C178.923 137.723 178.833 137.863 178.74 137.95C178.647 138.037 178.513 138.08 178.34 138.08ZM181.21 132.34L179.81 135.67L179.55 135.35H182.89L182.64 135.67L181.23 132.34H181.21ZM187.803 138.1C187.289 138.1 186.843 137.997 186.463 137.79C186.083 137.577 185.789 137.277 185.583 136.89C185.376 136.503 185.273 136.05 185.273 135.53C185.273 135.137 185.329 134.787 185.443 134.48C185.563 134.167 185.733 133.903 185.953 133.69C186.173 133.47 186.439 133.303 186.753 133.19C187.066 133.07 187.416 133.01 187.803 133.01C188.023 133.01 188.259 133.04 188.513 133.1C188.773 133.16 189.016 133.26 189.243 133.4C189.349 133.467 189.419 133.547 189.453 133.64C189.486 133.733 189.493 133.83 189.473 133.93C189.453 134.023 189.409 134.107 189.343 134.18C189.283 134.247 189.206 134.29 189.113 134.31C189.019 134.323 188.916 134.3 188.803 134.24C188.656 134.153 188.506 134.09 188.353 134.05C188.199 134.003 188.053 133.98 187.913 133.98C187.693 133.98 187.499 134.017 187.333 134.09C187.166 134.157 187.023 134.257 186.903 134.39C186.789 134.517 186.703 134.677 186.643 134.87C186.583 135.063 186.553 135.287 186.553 135.54C186.553 136.033 186.669 136.423 186.903 136.71C187.143 136.99 187.479 137.13 187.913 137.13C188.053 137.13 188.196 137.11 188.343 137.07C188.496 137.03 188.649 136.967 188.803 136.88C188.916 136.82 189.016 136.8 189.103 136.82C189.196 136.84 189.273 136.887 189.333 136.96C189.393 137.027 189.429 137.11 189.443 137.21C189.456 137.303 189.443 137.397 189.403 137.49C189.369 137.583 189.303 137.66 189.203 137.72C188.983 137.853 188.749 137.95 188.503 138.01C188.256 138.07 188.023 138.1 187.803 138.1ZM192.422 138.1C191.908 138.1 191.462 137.997 191.082 137.79C190.702 137.577 190.408 137.277 190.202 136.89C189.995 136.503 189.892 136.05 189.892 135.53C189.892 135.137 189.948 134.787 190.062 134.48C190.182 134.167 190.352 133.903 190.572 133.69C190.792 133.47 191.058 133.303 191.372 133.19C191.685 133.07 192.035 133.01 192.422 133.01C192.642 133.01 192.878 133.04 193.132 133.1C193.392 133.16 193.635 133.26 193.862 133.4C193.968 133.467 194.038 133.547 194.072 133.64C194.105 133.733 194.112 133.83 194.092 133.93C194.072 134.023 194.028 134.107 193.962 134.18C193.902 134.247 193.825 134.29 193.732 134.31C193.638 134.323 193.535 134.3 193.422 134.24C193.275 134.153 193.125 134.09 192.972 134.05C192.818 134.003 192.672 133.98 192.532 133.98C192.312 133.98 192.118 134.017 191.952 134.09C191.785 134.157 191.642 134.257 191.522 134.39C191.408 134.517 191.322 134.677 191.262 134.87C191.202 135.063 191.172 135.287 191.172 135.54C191.172 136.033 191.288 136.423 191.522 136.71C191.762 136.99 192.098 137.13 192.532 137.13C192.672 137.13 192.815 137.11 192.962 137.07C193.115 137.03 193.268 136.967 193.422 136.88C193.535 136.82 193.635 136.8 193.722 136.82C193.815 136.84 193.892 136.887 193.952 136.96C194.012 137.027 194.048 137.11 194.062 137.21C194.075 137.303 194.062 137.397 194.022 137.49C193.988 137.583 193.922 137.66 193.822 137.72C193.602 137.853 193.368 137.95 193.122 138.01C192.875 138.07 192.642 138.1 192.422 138.1ZM195.499 138.07C195.299 138.07 195.145 138.01 195.039 137.89C194.932 137.77 194.879 137.603 194.879 137.39V133.72C194.879 133.5 194.932 133.333 195.039 133.22C195.145 133.1 195.299 133.04 195.499 133.04C195.699 133.04 195.852 133.1 195.959 133.22C196.072 133.333 196.129 133.5 196.129 133.72V137.39C196.129 137.603 196.075 137.77 195.969 137.89C195.862 138.01 195.705 138.07 195.499 138.07ZM195.499 132.11C195.265 132.11 195.082 132.053 194.949 131.94C194.822 131.82 194.759 131.657 194.759 131.45C194.759 131.237 194.822 131.073 194.949 130.96C195.082 130.847 195.265 130.79 195.499 130.79C195.739 130.79 195.922 130.847 196.049 130.96C196.175 131.073 196.239 131.237 196.239 131.45C196.239 131.657 196.175 131.82 196.049 131.94C195.922 132.053 195.739 132.11 195.499 132.11ZM199.657 138.1C199.151 138.1 198.711 137.997 198.337 137.79C197.964 137.583 197.674 137.29 197.467 136.91C197.261 136.523 197.157 136.07 197.157 135.55C197.157 135.157 197.214 134.807 197.327 134.5C197.447 134.187 197.617 133.92 197.837 133.7C198.057 133.473 198.321 133.303 198.627 133.19C198.934 133.07 199.277 133.01 199.657 133.01C200.164 133.01 200.604 133.113 200.977 133.32C201.351 133.527 201.641 133.82 201.847 134.2C202.054 134.58 202.157 135.03 202.157 135.55C202.157 135.943 202.097 136.297 201.977 136.61C201.864 136.923 201.697 137.193 201.477 137.42C201.257 137.64 200.994 137.81 200.687 137.93C200.381 138.043 200.037 138.1 199.657 138.1ZM199.657 137.15C199.904 137.15 200.121 137.09 200.307 136.97C200.494 136.85 200.637 136.673 200.737 136.44C200.844 136.2 200.897 135.903 200.897 135.55C200.897 135.017 200.784 134.62 200.557 134.36C200.331 134.093 200.031 133.96 199.657 133.96C199.411 133.96 199.194 134.02 199.007 134.14C198.821 134.253 198.674 134.43 198.567 134.67C198.467 134.903 198.417 135.197 198.417 135.55C198.417 136.077 198.531 136.477 198.757 136.75C198.984 137.017 199.284 137.15 199.657 137.15ZM200.127 132.4C200.061 132.493 199.981 132.547 199.887 132.56C199.794 132.573 199.704 132.557 199.617 132.51C199.531 132.463 199.467 132.397 199.427 132.31C199.394 132.223 199.404 132.127 199.457 132.02L200.217 130.53C200.277 130.403 200.357 130.323 200.457 130.29C200.557 130.25 200.661 130.243 200.767 130.27C200.874 130.297 200.964 130.347 201.037 130.42C201.117 130.493 201.164 130.583 201.177 130.69C201.197 130.79 201.171 130.893 201.097 131L200.127 132.4ZM203.809 138.08C203.609 138.08 203.456 138.027 203.349 137.92C203.242 137.807 203.189 137.647 203.189 137.44V133.66C203.189 133.453 203.242 133.297 203.349 133.19C203.456 133.083 203.606 133.03 203.799 133.03C203.992 133.03 204.142 133.083 204.249 133.19C204.356 133.297 204.409 133.453 204.409 133.66V134.34L204.299 134.09C204.446 133.737 204.672 133.47 204.979 133.29C205.292 133.103 205.646 133.01 206.039 133.01C206.432 133.01 206.756 133.083 207.009 133.23C207.262 133.377 207.452 133.6 207.579 133.9C207.706 134.193 207.769 134.567 207.769 135.02V137.44C207.769 137.647 207.716 137.807 207.609 137.92C207.502 138.027 207.349 138.08 207.149 138.08C206.949 138.08 206.792 138.027 206.679 137.92C206.572 137.807 206.519 137.647 206.519 137.44V135.08C206.519 134.7 206.446 134.423 206.299 134.25C206.159 134.077 205.939 133.99 205.639 133.99C205.272 133.99 204.979 134.107 204.759 134.34C204.546 134.567 204.439 134.87 204.439 135.25V137.44C204.439 137.867 204.229 138.08 203.809 138.08Z" fill="#007BC7"/>
<rect x="222.5" y="125.5" width="43" height="19" rx="4" fill="#FFDB2E"/>
<path d="M235.15 137.23C235.19 137.317 235.21 137.403 235.21 137.49C235.21 137.643 235.147 137.773 235.02 137.88C234.9 137.987 234.76 138.04 234.6 138.04C234.493 138.04 234.393 138.013 234.3 137.96C234.207 137.9 234.133 137.81 234.08 137.69L233.48 136.35H229.96L229.36 137.69C229.307 137.81 229.233 137.9 229.14 137.96C229.047 138.013 228.943 138.04 228.83 138.04C228.677 138.04 228.537 137.987 228.41 137.88C228.283 137.773 228.22 137.643 228.22 137.49C228.22 137.403 228.24 137.317 228.28 137.23L231.04 131.3C231.1 131.167 231.19 131.067 231.31 131C231.437 130.927 231.57 130.89 231.71 130.89C231.85 130.89 231.98 130.927 232.1 131C232.227 131.067 232.32 131.167 232.38 131.3L235.15 137.23ZM233.04 135.35L231.72 132.38L230.4 135.35H233.04ZM238.242 138.08C237.755 138.08 237.325 137.977 236.952 137.77C236.585 137.563 236.302 137.27 236.102 136.89C235.902 136.51 235.802 136.067 235.802 135.56C235.802 135.053 235.905 134.607 236.112 134.22C236.325 133.827 236.622 133.523 237.002 133.31C237.382 133.097 237.819 132.99 238.312 132.99C238.572 132.99 238.832 133.027 239.092 133.1C239.359 133.173 239.592 133.273 239.792 133.4C240.005 133.54 240.112 133.717 240.112 133.93C240.112 134.077 240.075 134.197 240.002 134.29C239.935 134.377 239.845 134.42 239.732 134.42C239.659 134.42 239.582 134.403 239.502 134.37C239.422 134.337 239.342 134.297 239.262 134.25C239.115 134.163 238.975 134.097 238.842 134.05C238.709 133.997 238.555 133.97 238.382 133.97C237.969 133.97 237.649 134.107 237.422 134.38C237.202 134.647 237.092 135.033 237.092 135.54C237.092 136.04 237.202 136.427 237.422 136.7C237.649 136.967 237.969 137.1 238.382 137.1C238.549 137.1 238.695 137.077 238.822 137.03C238.955 136.977 239.102 136.907 239.262 136.82C239.362 136.76 239.449 136.717 239.522 136.69C239.595 136.657 239.669 136.64 239.742 136.64C239.849 136.64 239.939 136.687 240.012 136.78C240.085 136.873 240.122 136.99 240.122 137.13C240.122 137.243 240.095 137.343 240.042 137.43C239.995 137.51 239.915 137.583 239.802 137.65C239.595 137.783 239.355 137.89 239.082 137.97C238.809 138.043 238.529 138.08 238.242 138.08ZM243.125 138.08C242.638 138.08 242.208 137.977 241.835 137.77C241.468 137.563 241.185 137.27 240.985 136.89C240.785 136.51 240.685 136.067 240.685 135.56C240.685 135.053 240.788 134.607 240.995 134.22C241.208 133.827 241.505 133.523 241.885 133.31C242.265 133.097 242.701 132.99 243.195 132.99C243.455 132.99 243.715 133.027 243.975 133.1C244.241 133.173 244.475 133.273 244.675 133.4C244.888 133.54 244.995 133.717 244.995 133.93C244.995 134.077 244.958 134.197 244.885 134.29C244.818 134.377 244.728 134.42 244.615 134.42C244.541 134.42 244.465 134.403 244.385 134.37C244.305 134.337 244.225 134.297 244.145 134.25C243.998 134.163 243.858 134.097 243.725 134.05C243.591 133.997 243.438 133.97 243.265 133.97C242.851 133.97 242.531 134.107 242.305 134.38C242.085 134.647 241.975 135.033 241.975 135.54C241.975 136.04 242.085 136.427 242.305 136.7C242.531 136.967 242.851 137.1 243.265 137.1C243.431 137.1 243.578 137.077 243.705 137.03C243.838 136.977 243.985 136.907 244.145 136.82C244.245 136.76 244.331 136.717 244.405 136.69C244.478 136.657 244.551 136.64 244.625 136.64C244.731 136.64 244.821 136.687 244.895 136.78C244.968 136.873 245.005 136.99 245.005 137.13C245.005 137.243 244.978 137.343 244.925 137.43C244.878 137.51 244.798 137.583 244.685 137.65C244.478 137.783 244.238 137.89 243.965 137.97C243.691 138.043 243.411 138.08 243.125 138.08ZM246.458 138.06C246.278 138.06 246.128 138.01 246.008 137.91C245.894 137.803 245.838 137.653 245.838 137.46V133.6C245.838 133.407 245.894 133.26 246.008 133.16C246.128 133.06 246.278 133.01 246.458 133.01C246.638 133.01 246.788 133.06 246.908 133.16C247.028 133.26 247.088 133.407 247.088 133.6V137.46C247.088 137.653 247.028 137.803 246.908 137.91C246.788 138.01 246.638 138.06 246.458 138.06ZM246.458 132.12C246.231 132.12 246.051 132.06 245.918 131.94C245.784 131.813 245.718 131.65 245.718 131.45C245.718 131.25 245.784 131.09 245.918 130.97C246.051 130.85 246.231 130.79 246.458 130.79C246.678 130.79 246.854 130.85 246.988 130.97C247.128 131.09 247.198 131.25 247.198 131.45C247.198 131.65 247.131 131.813 246.998 131.94C246.864 132.06 246.684 132.12 246.458 132.12ZM250.607 138.08C250.107 138.08 249.667 137.977 249.287 137.77C248.913 137.563 248.623 137.267 248.417 136.88C248.21 136.493 248.107 136.043 248.107 135.53C248.107 135.017 248.21 134.57 248.417 134.19C248.623 133.803 248.913 133.507 249.287 133.3C249.667 133.093 250.107 132.99 250.607 132.99C251.107 132.99 251.543 133.093 251.917 133.3C252.297 133.507 252.587 133.803 252.787 134.19C252.993 134.57 253.097 135.017 253.097 135.53C253.097 136.043 252.993 136.493 252.787 136.88C252.587 137.267 252.297 137.563 251.917 137.77C251.543 137.977 251.107 138.08 250.607 138.08ZM250.597 137.11C251.003 137.11 251.313 136.977 251.527 136.71C251.74 136.443 251.847 136.05 251.847 135.53C251.847 135.017 251.74 134.627 251.527 134.36C251.313 134.087 251.007 133.95 250.607 133.95C250.207 133.95 249.897 134.087 249.677 134.36C249.463 134.627 249.357 135.017 249.357 135.53C249.357 136.05 249.463 136.443 249.677 136.71C249.89 136.977 250.197 137.11 250.597 137.11ZM250.857 132.44C250.783 132.493 250.71 132.52 250.637 132.52C250.543 132.52 250.463 132.49 250.397 132.43C250.337 132.363 250.307 132.287 250.307 132.2C250.307 132.127 250.333 132.053 250.387 131.98L251.357 130.69C251.51 130.49 251.687 130.39 251.887 130.39C252.033 130.39 252.157 130.443 252.257 130.55C252.363 130.65 252.417 130.77 252.417 130.91C252.417 131.097 252.327 131.257 252.147 131.39L250.857 132.44ZM256.969 132.99C257.555 132.99 257.992 133.157 258.279 133.49C258.565 133.823 258.709 134.327 258.709 135V137.46C258.709 137.647 258.652 137.793 258.539 137.9C258.432 138.007 258.282 138.06 258.089 138.06C257.895 138.06 257.742 138.007 257.629 137.9C257.515 137.793 257.459 137.647 257.459 137.46V135.07C257.459 134.69 257.385 134.413 257.239 134.24C257.099 134.067 256.875 133.98 256.569 133.98C256.209 133.98 255.919 134.093 255.699 134.32C255.485 134.547 255.379 134.85 255.379 135.23V137.46C255.379 137.647 255.322 137.793 255.209 137.9C255.095 138.007 254.942 138.06 254.749 138.06C254.555 138.06 254.402 138.007 254.289 137.9C254.182 137.793 254.129 137.647 254.129 137.46V133.59C254.129 133.417 254.185 133.277 254.299 133.17C254.412 133.063 254.565 133.01 254.759 133.01C254.932 133.01 255.072 133.063 255.179 133.17C255.292 133.27 255.349 133.403 255.349 133.57V133.84C255.515 133.567 255.739 133.357 256.019 133.21C256.299 133.063 256.615 132.99 256.969 132.99Z" fill="#38485C"/>
<rect x="61.5" y="32.5" width="217" height="125" rx="5" stroke="#E6EBF0" stroke-width="2"/>
</svg>
