<svg width="340" height="190" viewBox="0 0 340 190" fill="none" xmlns="http://www.w3.org/2000/svg">
<rect width="340" height="190" fill="#F3F6F9"/>
<rect x="19" y="75" width="147" height="40" rx="8" fill="#007BC7"/>
<path d="M43 95C45.21 95 47 93.21 47 91C47 88.79 45.21 87 43 87C40.79 87 39 88.79 39 91C39 93.21 40.79 95 43 95ZM43 97C40.33 97 35 98.34 35 101V103H51V101C51 98.34 45.67 97 43 97Z" fill="white"/>
<path d="M70.052 88.22C70.268 88.22 70.436 88.292 70.556 88.436C70.676 88.568 70.736 88.748 70.736 88.976V100.334C70.736 100.562 70.67 100.748 70.538 100.892C70.418 101.024 70.244 101.09 70.016 101.09C69.788 101.09 69.59 100.988 69.422 100.784L61.952 90.794V100.334C61.952 100.562 61.886 100.748 61.754 100.892C61.634 101.024 61.466 101.09 61.25 101.09C61.034 101.09 60.866 101.024 60.746 100.892C60.626 100.748 60.566 100.562 60.566 100.334V88.976C60.566 88.748 60.626 88.568 60.746 88.436C60.878 88.292 61.058 88.22 61.286 88.22C61.526 88.22 61.73 88.322 61.898 88.526L69.35 98.516V88.976C69.35 88.748 69.41 88.568 69.53 88.436C69.662 88.292 69.836 88.22 70.052 88.22ZM77.2386 92.018C79.4346 92.018 80.5326 93.17 80.5326 95.474V100.37C80.5326 100.586 80.4666 100.76 80.3346 100.892C80.2146 101.024 80.0466 101.09 79.8306 101.09C79.6146 101.09 79.4406 101.024 79.3086 100.892C79.1766 100.76 79.1106 100.586 79.1106 100.37V99.506C78.8826 100.022 78.5346 100.424 78.0666 100.712C77.5986 100.988 77.0586 101.126 76.4466 101.126C75.8826 101.126 75.3606 101.012 74.8806 100.784C74.4126 100.556 74.0406 100.238 73.7646 99.83C73.4886 99.422 73.3506 98.972 73.3506 98.48C73.3506 97.82 73.5186 97.31 73.8546 96.95C74.1906 96.578 74.7426 96.314 75.5106 96.158C76.2786 95.99 77.3466 95.906 78.7146 95.906H79.1106V95.312C79.1106 94.592 78.9606 94.064 78.6606 93.728C78.3726 93.392 77.8986 93.224 77.2386 93.224C76.4226 93.224 75.5946 93.446 74.7546 93.89C74.4306 94.094 74.2026 94.196 74.0706 94.196C73.9266 94.196 73.8066 94.142 73.7106 94.034C73.6146 93.926 73.5666 93.788 73.5666 93.62C73.5666 93.452 73.6146 93.308 73.7106 93.188C73.8186 93.056 73.9866 92.924 74.2146 92.792C74.6346 92.552 75.1086 92.366 75.6366 92.234C76.1766 92.09 76.7106 92.018 77.2386 92.018ZM76.6446 99.974C77.3646 99.974 77.9526 99.734 78.4086 99.254C78.8766 98.762 79.1106 98.132 79.1106 97.364V96.842H78.7866C77.7306 96.842 76.9266 96.89 76.3746 96.986C75.8226 97.07 75.4266 97.22 75.1866 97.436C74.9586 97.64 74.8446 97.946 74.8446 98.354C74.8446 98.822 75.0126 99.212 75.3486 99.524C75.6966 99.824 76.1286 99.974 76.6446 99.974ZM89.5196 92.504C89.6516 92.216 89.8616 92.072 90.1496 92.072C90.3296 92.072 90.4916 92.132 90.6356 92.252C90.7796 92.372 90.8516 92.522 90.8516 92.702C90.8516 92.81 90.8276 92.906 90.7796 92.99L87.2696 100.55C87.1976 100.706 87.0896 100.832 86.9456 100.928C86.8016 101.012 86.6456 101.054 86.4776 101.054C86.3216 101.054 86.1716 101.012 86.0276 100.928C85.8836 100.832 85.7696 100.706 85.6856 100.55L82.1936 92.99C82.1456 92.906 82.1216 92.816 82.1216 92.72C82.1216 92.54 82.1996 92.384 82.3556 92.252C82.5236 92.12 82.7036 92.054 82.8956 92.054C83.0156 92.054 83.1296 92.09 83.2376 92.162C83.3576 92.234 83.4476 92.336 83.5076 92.468L86.5136 99.218L89.5196 92.504ZM99.1282 98.966C99.2602 98.966 99.3742 99.02 99.4702 99.128C99.5662 99.236 99.6142 99.374 99.6142 99.542C99.6142 99.842 99.4042 100.118 98.9842 100.37C98.5522 100.622 98.0962 100.814 97.6162 100.946C97.1362 101.066 96.6682 101.126 96.2122 101.126C94.8562 101.126 93.7822 100.724 92.9902 99.92C92.2102 99.116 91.8202 98.006 91.8202 96.59C91.8202 95.69 91.9942 94.898 92.3422 94.214C92.6902 93.518 93.1762 92.978 93.8002 92.594C94.4362 92.21 95.1562 92.018 95.9602 92.018C97.1002 92.018 98.0062 92.39 98.6782 93.134C99.3502 93.878 99.6862 94.886 99.6862 96.158C99.6862 96.398 99.6382 96.572 99.5422 96.68C99.4462 96.788 99.2902 96.842 99.0742 96.842H93.2782C93.3862 98.906 94.3642 99.938 96.2122 99.938C96.6802 99.938 97.0822 99.878 97.4182 99.758C97.7542 99.626 98.1142 99.452 98.4982 99.236C98.8102 99.056 99.0202 98.966 99.1282 98.966ZM95.9782 93.152C95.2102 93.152 94.5922 93.392 94.1242 93.872C93.6682 94.352 93.3982 95.03 93.3142 95.906H98.4082C98.3842 95.018 98.1622 94.34 97.7422 93.872C97.3222 93.392 96.7342 93.152 95.9782 93.152ZM108.944 92.054C109.172 92.054 109.352 92.12 109.484 92.252C109.616 92.384 109.682 92.558 109.682 92.774V100.406C109.682 101.714 109.346 102.698 108.674 103.358C108.002 104.03 107.006 104.366 105.686 104.366C104.402 104.366 103.334 104.114 102.482 103.61C102.05 103.37 101.834 103.094 101.834 102.782C101.834 102.614 101.876 102.476 101.96 102.368C102.056 102.26 102.176 102.206 102.32 102.206C102.44 102.206 102.656 102.29 102.968 102.458C103.388 102.674 103.802 102.848 104.21 102.98C104.618 103.112 105.104 103.178 105.668 103.178C106.52 103.178 107.162 102.95 107.594 102.494C108.026 102.05 108.242 101.396 108.242 100.532V98.984C107.99 99.548 107.6 99.98 107.072 100.28C106.556 100.58 105.944 100.73 105.236 100.73C104.468 100.73 103.784 100.55 103.184 100.19C102.596 99.83 102.134 99.32 101.798 98.66C101.474 98 101.312 97.238 101.312 96.374C101.312 95.51 101.474 94.748 101.798 94.088C102.134 93.428 102.596 92.918 103.184 92.558C103.784 92.198 104.468 92.018 105.236 92.018C105.932 92.018 106.538 92.168 107.054 92.468C107.57 92.768 107.96 93.194 108.224 93.746V92.774C108.224 92.558 108.284 92.384 108.404 92.252C108.536 92.12 108.716 92.054 108.944 92.054ZM105.524 99.524C106.364 99.524 107.024 99.248 107.504 98.696C107.984 98.132 108.224 97.358 108.224 96.374C108.224 95.402 107.984 94.64 107.504 94.088C107.036 93.524 106.376 93.242 105.524 93.242C104.672 93.242 104 93.524 103.508 94.088C103.028 94.64 102.788 95.402 102.788 96.374C102.788 97.358 103.028 98.132 103.508 98.696C104 99.248 104.672 99.524 105.524 99.524ZM115.963 92.018C118.159 92.018 119.257 93.17 119.257 95.474V100.37C119.257 100.586 119.191 100.76 119.059 100.892C118.939 101.024 118.771 101.09 118.555 101.09C118.339 101.09 118.165 101.024 118.033 100.892C117.901 100.76 117.835 100.586 117.835 100.37V99.506C117.607 100.022 117.259 100.424 116.791 100.712C116.323 100.988 115.783 101.126 115.171 101.126C114.607 101.126 114.085 101.012 113.605 100.784C113.137 100.556 112.765 100.238 112.489 99.83C112.213 99.422 112.075 98.972 112.075 98.48C112.075 97.82 112.243 97.31 112.579 96.95C112.915 96.578 113.467 96.314 114.235 96.158C115.003 95.99 116.071 95.906 117.439 95.906H117.835V95.312C117.835 94.592 117.685 94.064 117.385 93.728C117.097 93.392 116.623 93.224 115.963 93.224C115.147 93.224 114.319 93.446 113.479 93.89C113.155 94.094 112.927 94.196 112.795 94.196C112.651 94.196 112.531 94.142 112.435 94.034C112.339 93.926 112.291 93.788 112.291 93.62C112.291 93.452 112.339 93.308 112.435 93.188C112.543 93.056 112.711 92.924 112.939 92.792C113.359 92.552 113.833 92.366 114.361 92.234C114.901 92.09 115.435 92.018 115.963 92.018ZM115.369 99.974C116.089 99.974 116.677 99.734 117.133 99.254C117.601 98.762 117.835 98.132 117.835 97.364V96.842H117.511C116.455 96.842 115.651 96.89 115.099 96.986C114.547 97.07 114.151 97.22 113.911 97.436C113.683 97.64 113.569 97.946 113.569 98.354C113.569 98.822 113.737 99.212 114.073 99.524C114.421 99.824 114.853 99.974 115.369 99.974ZM125.544 101.126C124.728 101.126 124.002 100.94 123.366 100.568C122.742 100.196 122.256 99.668 121.908 98.984C121.572 98.3 121.404 97.508 121.404 96.608C121.404 95.708 121.578 94.91 121.926 94.214C122.286 93.518 122.784 92.978 123.42 92.594C124.056 92.21 124.788 92.018 125.616 92.018C126.072 92.018 126.522 92.084 126.966 92.216C127.422 92.336 127.818 92.516 128.154 92.756C128.37 92.9 128.52 93.044 128.604 93.188C128.7 93.32 128.748 93.47 128.748 93.638C128.748 93.806 128.7 93.944 128.604 94.052C128.52 94.16 128.406 94.214 128.262 94.214C128.178 94.214 128.088 94.19 127.992 94.142C127.896 94.094 127.812 94.046 127.74 93.998C127.68 93.95 127.638 93.92 127.614 93.908C127.302 93.704 127.002 93.542 126.714 93.422C126.438 93.302 126.096 93.242 125.688 93.242C124.812 93.242 124.128 93.542 123.636 94.142C123.156 94.73 122.916 95.552 122.916 96.608C122.916 97.664 123.156 98.48 123.636 99.056C124.128 99.632 124.812 99.92 125.688 99.92C126.096 99.92 126.444 99.86 126.732 99.74C127.032 99.62 127.332 99.458 127.632 99.254C127.764 99.17 127.89 99.098 128.01 99.038C128.13 98.978 128.232 98.948 128.316 98.948C128.448 98.948 128.556 99.002 128.64 99.11C128.736 99.218 128.784 99.356 128.784 99.524C128.784 99.68 128.742 99.824 128.658 99.956C128.574 100.076 128.418 100.214 128.19 100.37C127.854 100.598 127.446 100.784 126.966 100.928C126.498 101.06 126.024 101.126 125.544 101.126ZM131.277 101.09C131.061 101.09 130.881 101.03 130.737 100.91C130.605 100.778 130.539 100.598 130.539 100.37V92.774C130.539 92.546 130.605 92.372 130.737 92.252C130.881 92.12 131.061 92.054 131.277 92.054C131.493 92.054 131.667 92.12 131.799 92.252C131.931 92.372 131.997 92.546 131.997 92.774V100.37C131.997 100.61 131.931 100.79 131.799 100.91C131.667 101.03 131.493 101.09 131.277 101.09ZM131.277 90.164C130.989 90.164 130.755 90.08 130.575 89.912C130.395 89.744 130.305 89.522 130.305 89.246C130.305 88.982 130.395 88.766 130.575 88.598C130.755 88.43 130.989 88.346 131.277 88.346C131.565 88.346 131.799 88.43 131.979 88.598C132.159 88.766 132.249 88.982 132.249 89.246C132.249 89.522 132.159 89.744 131.979 89.912C131.799 90.08 131.565 90.164 131.277 90.164ZM138.359 101.126C137.531 101.126 136.799 100.94 136.163 100.568C135.539 100.196 135.053 99.668 134.705 98.984C134.369 98.288 134.201 97.484 134.201 96.572C134.201 95.66 134.369 94.862 134.705 94.178C135.053 93.482 135.539 92.948 136.163 92.576C136.799 92.204 137.531 92.018 138.359 92.018C139.187 92.018 139.919 92.204 140.555 92.576C141.191 92.948 141.677 93.482 142.013 94.178C142.361 94.862 142.535 95.66 142.535 96.572C142.535 97.484 142.361 98.288 142.013 98.984C141.677 99.668 141.191 100.196 140.555 100.568C139.919 100.94 139.187 101.126 138.359 101.126ZM138.359 99.92C139.223 99.92 139.883 99.638 140.339 99.074C140.807 98.498 141.041 97.664 141.041 96.572C141.041 95.504 140.807 94.682 140.339 94.106C139.871 93.518 139.211 93.224 138.359 93.224C137.507 93.224 136.847 93.518 136.379 94.106C135.911 94.682 135.677 95.504 135.677 96.572C135.677 97.652 135.905 98.48 136.361 99.056C136.829 99.632 137.495 99.92 138.359 99.92ZM138.683 91.064C138.587 91.136 138.491 91.172 138.395 91.172C138.275 91.172 138.173 91.136 138.089 91.064C138.005 90.98 137.963 90.884 137.963 90.776C137.963 90.68 137.999 90.59 138.071 90.506L140.159 87.77C140.375 87.494 140.621 87.356 140.897 87.356C141.089 87.356 141.251 87.422 141.383 87.554C141.515 87.674 141.581 87.83 141.581 88.022C141.581 88.274 141.461 88.502 141.221 88.706L138.683 91.064ZM149.117 92.018C151.217 92.018 152.267 93.176 152.267 95.492V100.37C152.267 100.598 152.201 100.778 152.069 100.91C151.949 101.03 151.775 101.09 151.547 101.09C151.319 101.09 151.139 101.03 151.007 100.91C150.875 100.778 150.809 100.598 150.809 100.37V95.582C150.809 94.766 150.647 94.172 150.323 93.8C150.011 93.428 149.507 93.242 148.811 93.242C148.007 93.242 147.365 93.488 146.885 93.98C146.405 94.472 146.165 95.138 146.165 95.978V100.37C146.165 100.598 146.099 100.778 145.967 100.91C145.847 101.03 145.673 101.09 145.445 101.09C145.217 101.09 145.037 101.03 144.905 100.91C144.773 100.778 144.707 100.598 144.707 100.37V92.774C144.707 92.558 144.773 92.384 144.905 92.252C145.037 92.12 145.217 92.054 145.445 92.054C145.661 92.054 145.829 92.12 145.949 92.252C146.081 92.384 146.147 92.552 146.147 92.756V93.674C146.435 93.134 146.837 92.726 147.353 92.45C147.869 92.162 148.457 92.018 149.117 92.018Z" fill="white"/>
<rect x="174" y="75" width="147" height="40" rx="8" fill="white"/>
<path d="M198 95C200.21 95 202 93.21 202 91C202 88.79 200.21 87 198 87C195.79 87 194 88.79 194 91C194 93.21 195.79 95 198 95ZM198 97C195.33 97 190 98.34 190 101V103H206V101C206 98.34 200.67 97 198 97Z" fill="#38485C"/>
<path d="M225.052 88.22C225.268 88.22 225.436 88.292 225.556 88.436C225.676 88.568 225.736 88.748 225.736 88.976V100.334C225.736 100.562 225.67 100.748 225.538 100.892C225.418 101.024 225.244 101.09 225.016 101.09C224.788 101.09 224.59 100.988 224.422 100.784L216.952 90.794V100.334C216.952 100.562 216.886 100.748 216.754 100.892C216.634 101.024 216.466 101.09 216.25 101.09C216.034 101.09 215.866 101.024 215.746 100.892C215.626 100.748 215.566 100.562 215.566 100.334V88.976C215.566 88.748 215.626 88.568 215.746 88.436C215.878 88.292 216.058 88.22 216.286 88.22C216.526 88.22 216.73 88.322 216.898 88.526L224.35 98.516V88.976C224.35 88.748 224.41 88.568 224.53 88.436C224.662 88.292 224.836 88.22 225.052 88.22ZM232.239 92.018C234.435 92.018 235.533 93.17 235.533 95.474V100.37C235.533 100.586 235.467 100.76 235.335 100.892C235.215 101.024 235.047 101.09 234.831 101.09C234.615 101.09 234.441 101.024 234.309 100.892C234.177 100.76 234.111 100.586 234.111 100.37V99.506C233.883 100.022 233.535 100.424 233.067 100.712C232.599 100.988 232.059 101.126 231.447 101.126C230.883 101.126 230.361 101.012 229.881 100.784C229.413 100.556 229.041 100.238 228.765 99.83C228.489 99.422 228.351 98.972 228.351 98.48C228.351 97.82 228.519 97.31 228.855 96.95C229.191 96.578 229.743 96.314 230.511 96.158C231.279 95.99 232.347 95.906 233.715 95.906H234.111V95.312C234.111 94.592 233.961 94.064 233.661 93.728C233.373 93.392 232.899 93.224 232.239 93.224C231.423 93.224 230.595 93.446 229.755 93.89C229.431 94.094 229.203 94.196 229.071 94.196C228.927 94.196 228.807 94.142 228.711 94.034C228.615 93.926 228.567 93.788 228.567 93.62C228.567 93.452 228.615 93.308 228.711 93.188C228.819 93.056 228.987 92.924 229.215 92.792C229.635 92.552 230.109 92.366 230.637 92.234C231.177 92.09 231.711 92.018 232.239 92.018ZM231.645 99.974C232.365 99.974 232.953 99.734 233.409 99.254C233.877 98.762 234.111 98.132 234.111 97.364V96.842H233.787C232.731 96.842 231.927 96.89 231.375 96.986C230.823 97.07 230.427 97.22 230.187 97.436C229.959 97.64 229.845 97.946 229.845 98.354C229.845 98.822 230.013 99.212 230.349 99.524C230.697 99.824 231.129 99.974 231.645 99.974ZM244.52 92.504C244.652 92.216 244.862 92.072 245.15 92.072C245.33 92.072 245.492 92.132 245.636 92.252C245.78 92.372 245.852 92.522 245.852 92.702C245.852 92.81 245.828 92.906 245.78 92.99L242.27 100.55C242.198 100.706 242.09 100.832 241.946 100.928C241.802 101.012 241.646 101.054 241.478 101.054C241.322 101.054 241.172 101.012 241.028 100.928C240.884 100.832 240.77 100.706 240.686 100.55L237.194 92.99C237.146 92.906 237.122 92.816 237.122 92.72C237.122 92.54 237.2 92.384 237.356 92.252C237.524 92.12 237.704 92.054 237.896 92.054C238.016 92.054 238.13 92.09 238.238 92.162C238.358 92.234 238.448 92.336 238.508 92.468L241.514 99.218L244.52 92.504ZM254.128 98.966C254.26 98.966 254.374 99.02 254.47 99.128C254.566 99.236 254.614 99.374 254.614 99.542C254.614 99.842 254.404 100.118 253.984 100.37C253.552 100.622 253.096 100.814 252.616 100.946C252.136 101.066 251.668 101.126 251.212 101.126C249.856 101.126 248.782 100.724 247.99 99.92C247.21 99.116 246.82 98.006 246.82 96.59C246.82 95.69 246.994 94.898 247.342 94.214C247.69 93.518 248.176 92.978 248.8 92.594C249.436 92.21 250.156 92.018 250.96 92.018C252.1 92.018 253.006 92.39 253.678 93.134C254.35 93.878 254.686 94.886 254.686 96.158C254.686 96.398 254.638 96.572 254.542 96.68C254.446 96.788 254.29 96.842 254.074 96.842H248.278C248.386 98.906 249.364 99.938 251.212 99.938C251.68 99.938 252.082 99.878 252.418 99.758C252.754 99.626 253.114 99.452 253.498 99.236C253.81 99.056 254.02 98.966 254.128 98.966ZM250.978 93.152C250.21 93.152 249.592 93.392 249.124 93.872C248.668 94.352 248.398 95.03 248.314 95.906H253.408C253.384 95.018 253.162 94.34 252.742 93.872C252.322 93.392 251.734 93.152 250.978 93.152ZM263.944 92.054C264.172 92.054 264.352 92.12 264.484 92.252C264.616 92.384 264.682 92.558 264.682 92.774V100.406C264.682 101.714 264.346 102.698 263.674 103.358C263.002 104.03 262.006 104.366 260.686 104.366C259.402 104.366 258.334 104.114 257.482 103.61C257.05 103.37 256.834 103.094 256.834 102.782C256.834 102.614 256.876 102.476 256.96 102.368C257.056 102.26 257.176 102.206 257.32 102.206C257.44 102.206 257.656 102.29 257.968 102.458C258.388 102.674 258.802 102.848 259.21 102.98C259.618 103.112 260.104 103.178 260.668 103.178C261.52 103.178 262.162 102.95 262.594 102.494C263.026 102.05 263.242 101.396 263.242 100.532V98.984C262.99 99.548 262.6 99.98 262.072 100.28C261.556 100.58 260.944 100.73 260.236 100.73C259.468 100.73 258.784 100.55 258.184 100.19C257.596 99.83 257.134 99.32 256.798 98.66C256.474 98 256.312 97.238 256.312 96.374C256.312 95.51 256.474 94.748 256.798 94.088C257.134 93.428 257.596 92.918 258.184 92.558C258.784 92.198 259.468 92.018 260.236 92.018C260.932 92.018 261.538 92.168 262.054 92.468C262.57 92.768 262.96 93.194 263.224 93.746V92.774C263.224 92.558 263.284 92.384 263.404 92.252C263.536 92.12 263.716 92.054 263.944 92.054ZM260.524 99.524C261.364 99.524 262.024 99.248 262.504 98.696C262.984 98.132 263.224 97.358 263.224 96.374C263.224 95.402 262.984 94.64 262.504 94.088C262.036 93.524 261.376 93.242 260.524 93.242C259.672 93.242 259 93.524 258.508 94.088C258.028 94.64 257.788 95.402 257.788 96.374C257.788 97.358 258.028 98.132 258.508 98.696C259 99.248 259.672 99.524 260.524 99.524ZM270.963 92.018C273.159 92.018 274.257 93.17 274.257 95.474V100.37C274.257 100.586 274.191 100.76 274.059 100.892C273.939 101.024 273.771 101.09 273.555 101.09C273.339 101.09 273.165 101.024 273.033 100.892C272.901 100.76 272.835 100.586 272.835 100.37V99.506C272.607 100.022 272.259 100.424 271.791 100.712C271.323 100.988 270.783 101.126 270.171 101.126C269.607 101.126 269.085 101.012 268.605 100.784C268.137 100.556 267.765 100.238 267.489 99.83C267.213 99.422 267.075 98.972 267.075 98.48C267.075 97.82 267.243 97.31 267.579 96.95C267.915 96.578 268.467 96.314 269.235 96.158C270.003 95.99 271.071 95.906 272.439 95.906H272.835V95.312C272.835 94.592 272.685 94.064 272.385 93.728C272.097 93.392 271.623 93.224 270.963 93.224C270.147 93.224 269.319 93.446 268.479 93.89C268.155 94.094 267.927 94.196 267.795 94.196C267.651 94.196 267.531 94.142 267.435 94.034C267.339 93.926 267.291 93.788 267.291 93.62C267.291 93.452 267.339 93.308 267.435 93.188C267.543 93.056 267.711 92.924 267.939 92.792C268.359 92.552 268.833 92.366 269.361 92.234C269.901 92.09 270.435 92.018 270.963 92.018ZM270.369 99.974C271.089 99.974 271.677 99.734 272.133 99.254C272.601 98.762 272.835 98.132 272.835 97.364V96.842H272.511C271.455 96.842 270.651 96.89 270.099 96.986C269.547 97.07 269.151 97.22 268.911 97.436C268.683 97.64 268.569 97.946 268.569 98.354C268.569 98.822 268.737 99.212 269.073 99.524C269.421 99.824 269.853 99.974 270.369 99.974ZM280.544 101.126C279.728 101.126 279.002 100.94 278.366 100.568C277.742 100.196 277.256 99.668 276.908 98.984C276.572 98.3 276.404 97.508 276.404 96.608C276.404 95.708 276.578 94.91 276.926 94.214C277.286 93.518 277.784 92.978 278.42 92.594C279.056 92.21 279.788 92.018 280.616 92.018C281.072 92.018 281.522 92.084 281.966 92.216C282.422 92.336 282.818 92.516 283.154 92.756C283.37 92.9 283.52 93.044 283.604 93.188C283.7 93.32 283.748 93.47 283.748 93.638C283.748 93.806 283.7 93.944 283.604 94.052C283.52 94.16 283.406 94.214 283.262 94.214C283.178 94.214 283.088 94.19 282.992 94.142C282.896 94.094 282.812 94.046 282.74 93.998C282.68 93.95 282.638 93.92 282.614 93.908C282.302 93.704 282.002 93.542 281.714 93.422C281.438 93.302 281.096 93.242 280.688 93.242C279.812 93.242 279.128 93.542 278.636 94.142C278.156 94.73 277.916 95.552 277.916 96.608C277.916 97.664 278.156 98.48 278.636 99.056C279.128 99.632 279.812 99.92 280.688 99.92C281.096 99.92 281.444 99.86 281.732 99.74C282.032 99.62 282.332 99.458 282.632 99.254C282.764 99.17 282.89 99.098 283.01 99.038C283.13 98.978 283.232 98.948 283.316 98.948C283.448 98.948 283.556 99.002 283.64 99.11C283.736 99.218 283.784 99.356 283.784 99.524C283.784 99.68 283.742 99.824 283.658 99.956C283.574 100.076 283.418 100.214 283.19 100.37C282.854 100.598 282.446 100.784 281.966 100.928C281.498 101.06 281.024 101.126 280.544 101.126ZM286.277 101.09C286.061 101.09 285.881 101.03 285.737 100.91C285.605 100.778 285.539 100.598 285.539 100.37V92.774C285.539 92.546 285.605 92.372 285.737 92.252C285.881 92.12 286.061 92.054 286.277 92.054C286.493 92.054 286.667 92.12 286.799 92.252C286.931 92.372 286.997 92.546 286.997 92.774V100.37C286.997 100.61 286.931 100.79 286.799 100.91C286.667 101.03 286.493 101.09 286.277 101.09ZM286.277 90.164C285.989 90.164 285.755 90.08 285.575 89.912C285.395 89.744 285.305 89.522 285.305 89.246C285.305 88.982 285.395 88.766 285.575 88.598C285.755 88.43 285.989 88.346 286.277 88.346C286.565 88.346 286.799 88.43 286.979 88.598C287.159 88.766 287.249 88.982 287.249 89.246C287.249 89.522 287.159 89.744 286.979 89.912C286.799 90.08 286.565 90.164 286.277 90.164ZM293.359 101.126C292.531 101.126 291.799 100.94 291.163 100.568C290.539 100.196 290.053 99.668 289.705 98.984C289.369 98.288 289.201 97.484 289.201 96.572C289.201 95.66 289.369 94.862 289.705 94.178C290.053 93.482 290.539 92.948 291.163 92.576C291.799 92.204 292.531 92.018 293.359 92.018C294.187 92.018 294.919 92.204 295.555 92.576C296.191 92.948 296.677 93.482 297.013 94.178C297.361 94.862 297.535 95.66 297.535 96.572C297.535 97.484 297.361 98.288 297.013 98.984C296.677 99.668 296.191 100.196 295.555 100.568C294.919 100.94 294.187 101.126 293.359 101.126ZM293.359 99.92C294.223 99.92 294.883 99.638 295.339 99.074C295.807 98.498 296.041 97.664 296.041 96.572C296.041 95.504 295.807 94.682 295.339 94.106C294.871 93.518 294.211 93.224 293.359 93.224C292.507 93.224 291.847 93.518 291.379 94.106C290.911 94.682 290.677 95.504 290.677 96.572C290.677 97.652 290.905 98.48 291.361 99.056C291.829 99.632 292.495 99.92 293.359 99.92ZM293.683 91.064C293.587 91.136 293.491 91.172 293.395 91.172C293.275 91.172 293.173 91.136 293.089 91.064C293.005 90.98 292.963 90.884 292.963 90.776C292.963 90.68 292.999 90.59 293.071 90.506L295.159 87.77C295.375 87.494 295.621 87.356 295.897 87.356C296.089 87.356 296.251 87.422 296.383 87.554C296.515 87.674 296.581 87.83 296.581 88.022C296.581 88.274 296.461 88.502 296.221 88.706L293.683 91.064ZM304.117 92.018C306.217 92.018 307.267 93.176 307.267 95.492V100.37C307.267 100.598 307.201 100.778 307.069 100.91C306.949 101.03 306.775 101.09 306.547 101.09C306.319 101.09 306.139 101.03 306.007 100.91C305.875 100.778 305.809 100.598 305.809 100.37V95.582C305.809 94.766 305.647 94.172 305.323 93.8C305.011 93.428 304.507 93.242 303.811 93.242C303.007 93.242 302.365 93.488 301.885 93.98C301.405 94.472 301.165 95.138 301.165 95.978V100.37C301.165 100.598 301.099 100.778 300.967 100.91C300.847 101.03 300.673 101.09 300.445 101.09C300.217 101.09 300.037 101.03 299.905 100.91C299.773 100.778 299.707 100.598 299.707 100.37V92.774C299.707 92.558 299.773 92.384 299.905 92.252C300.037 92.12 300.217 92.054 300.445 92.054C300.661 92.054 300.829 92.12 300.949 92.252C301.081 92.384 301.147 92.552 301.147 92.756V93.674C301.435 93.134 301.837 92.726 302.353 92.45C302.869 92.162 303.457 92.018 304.117 92.018Z" fill="#38485C"/>
</svg>
