<svg width="340" height="190" viewBox="0 0 340 190" fill="none" xmlns="http://www.w3.org/2000/svg">
<rect width="340" height="190" fill="#F3F6F9"/>
<path d="M60.5 45C60.5 40.5817 64.0817 37 68.5 37H271.5C275.918 37 279.5 40.5817 279.5 45V79C279.5 83.4183 275.918 87 271.5 87H68.5C64.0817 87 60.5 83.4183 60.5 79V45Z" fill="white"/>
<path d="M84.5 52C78.98 52 74.5 56.48 74.5 62C74.5 67.52 78.98 72 84.5 72C90.02 72 94.5 67.52 94.5 62C94.5 56.48 90.02 52 84.5 52ZM84.5 67C83.95 67 83.5 66.55 83.5 66V62C83.5 61.45 83.95 61 84.5 61C85.05 61 85.5 61.45 85.5 62V66C85.5 66.55 85.05 67 84.5 67ZM85.5 59H83.5V57H85.5V59Z" fill="#38485C"/>
<path d="M117.312 59.9062C117.312 61.0625 116.917 61.9531 116.125 62.5781C115.339 63.1979 114.211 63.5078 112.742 63.5078H111.398V68H110.07V56.5781H113.031C115.885 56.5781 117.312 57.6875 117.312 59.9062ZM111.398 62.3672H112.594C113.771 62.3672 114.622 62.1771 115.148 61.7969C115.674 61.4167 115.938 60.8073 115.938 59.9688C115.938 59.2135 115.69 58.651 115.195 58.2812C114.701 57.9115 113.93 57.7266 112.883 57.7266H111.398V62.3672ZM123.422 59.2812C123.802 59.2812 124.143 59.3125 124.445 59.375L124.266 60.5781C123.911 60.5 123.599 60.4609 123.328 60.4609C122.635 60.4609 122.042 60.7422 121.547 61.3047C121.057 61.8672 120.812 62.5677 120.812 63.4062V68H119.516V59.4375H120.586L120.734 61.0234H120.797C121.115 60.4661 121.497 60.0365 121.945 59.7344C122.393 59.4323 122.885 59.2812 123.422 59.2812ZM127.344 68H126.047V59.4375H127.344V68ZM125.938 57.1172C125.938 56.8203 126.01 56.6042 126.156 56.4688C126.302 56.3281 126.484 56.2578 126.703 56.2578C126.911 56.2578 127.091 56.3281 127.242 56.4688C127.393 56.6094 127.469 56.8255 127.469 57.1172C127.469 57.4089 127.393 57.6276 127.242 57.7734C127.091 57.9141 126.911 57.9844 126.703 57.9844C126.484 57.9844 126.302 57.9141 126.156 57.7734C126.01 57.6276 125.938 57.4089 125.938 57.1172ZM141.008 68V62.4297C141.008 61.7474 140.862 61.237 140.57 60.8984C140.279 60.5547 139.826 60.3828 139.211 60.3828C138.404 60.3828 137.807 60.6146 137.422 61.0781C137.036 61.5417 136.844 62.2552 136.844 63.2188V68H135.547V62.4297C135.547 61.7474 135.401 61.237 135.109 60.8984C134.818 60.5547 134.362 60.3828 133.742 60.3828C132.93 60.3828 132.333 60.6276 131.953 61.1172C131.578 61.6016 131.391 62.3984 131.391 63.5078V68H130.094V59.4375H131.148L131.359 60.6094H131.422C131.667 60.1927 132.01 59.8672 132.453 59.6328C132.901 59.3984 133.401 59.2812 133.953 59.2812C135.292 59.2812 136.167 59.7656 136.578 60.7344H136.641C136.896 60.2865 137.266 59.9323 137.75 59.6719C138.234 59.4115 138.786 59.2812 139.406 59.2812C140.375 59.2812 141.099 59.5312 141.578 60.0312C142.062 60.526 142.305 61.3203 142.305 62.4141V68H141.008ZM148.602 68.1562C147.336 68.1562 146.336 67.7708 145.602 67C144.872 66.2292 144.508 65.1589 144.508 63.7891C144.508 62.4089 144.846 61.3125 145.523 60.5C146.206 59.6875 147.12 59.2812 148.266 59.2812C149.339 59.2812 150.188 59.6354 150.812 60.3438C151.438 61.0469 151.75 61.9766 151.75 63.1328V63.9531H145.852C145.878 64.9583 146.13 65.7214 146.609 66.2422C147.094 66.763 147.773 67.0234 148.648 67.0234C149.57 67.0234 150.482 66.8307 151.383 66.4453V67.6016C150.924 67.7995 150.49 67.9401 150.078 68.0234C149.672 68.112 149.18 68.1562 148.602 68.1562ZM148.25 60.3672C147.562 60.3672 147.013 60.5911 146.602 61.0391C146.195 61.487 145.956 62.1068 145.883 62.8984H150.359C150.359 62.0807 150.177 61.4557 149.812 61.0234C149.448 60.5859 148.927 60.3672 148.25 60.3672ZM157.875 59.2812C158.255 59.2812 158.596 59.3125 158.898 59.375L158.719 60.5781C158.365 60.5 158.052 60.4609 157.781 60.4609C157.089 60.4609 156.495 60.7422 156 61.3047C155.51 61.8672 155.266 62.5677 155.266 63.4062V68H153.969V59.4375H155.039L155.188 61.0234H155.25C155.568 60.4661 155.951 60.0365 156.398 59.7344C156.846 59.4323 157.339 59.2812 157.875 59.2812ZM165.766 68L165.508 66.7812H165.445C165.018 67.3177 164.591 67.6823 164.164 67.875C163.742 68.0625 163.214 68.1562 162.578 68.1562C161.729 68.1562 161.062 67.9375 160.578 67.5C160.099 67.0625 159.859 66.4401 159.859 65.6328C159.859 63.9036 161.242 62.9974 164.008 62.9141L165.461 62.8672V62.3359C165.461 61.6641 165.315 61.1693 165.023 60.8516C164.737 60.5286 164.276 60.3672 163.641 60.3672C162.927 60.3672 162.12 60.5859 161.219 61.0234L160.82 60.0312C161.242 59.8021 161.703 59.6224 162.203 59.4922C162.708 59.362 163.214 59.2969 163.719 59.2969C164.74 59.2969 165.495 59.5234 165.984 59.9766C166.479 60.4297 166.727 61.1562 166.727 62.1562V68H165.766ZM162.836 67.0859C163.643 67.0859 164.276 66.8646 164.734 66.4219C165.198 65.9792 165.43 65.3594 165.43 64.5625V63.7891L164.133 63.8438C163.102 63.8802 162.357 64.0417 161.898 64.3281C161.445 64.6094 161.219 65.0495 161.219 65.6484C161.219 66.1172 161.359 66.474 161.641 66.7188C161.927 66.9635 162.326 67.0859 162.836 67.0859ZM180.953 63.7109C180.953 65.1068 180.602 66.1979 179.898 66.9844C179.195 67.7656 178.224 68.1562 176.984 68.1562C176.219 68.1562 175.539 67.9766 174.945 67.6172C174.352 67.2578 173.893 66.7422 173.57 66.0703C173.247 65.3984 173.086 64.612 173.086 63.7109C173.086 62.3151 173.435 61.2292 174.133 60.4531C174.831 59.6719 175.799 59.2812 177.039 59.2812C178.237 59.2812 179.188 59.6797 179.891 60.4766C180.599 61.2734 180.953 62.3516 180.953 63.7109ZM174.43 63.7109C174.43 64.8047 174.648 65.638 175.086 66.2109C175.523 66.7839 176.167 67.0703 177.016 67.0703C177.865 67.0703 178.508 66.7865 178.945 66.2188C179.388 65.6458 179.609 64.8099 179.609 63.7109C179.609 62.6224 179.388 61.7969 178.945 61.2344C178.508 60.6667 177.859 60.3828 177 60.3828C176.151 60.3828 175.51 60.6615 175.078 61.2188C174.646 61.776 174.43 62.6068 174.43 63.7109ZM187.219 68.1562C186.661 68.1562 186.151 68.0547 185.688 67.8516C185.229 67.6432 184.844 67.3255 184.531 66.8984H184.438C184.5 67.3984 184.531 67.8724 184.531 68.3203V71.8438H183.234V59.4375H184.289L184.469 60.6094H184.531C184.865 60.1406 185.253 59.8021 185.695 59.5938C186.138 59.3854 186.646 59.2812 187.219 59.2812C188.354 59.2812 189.229 59.6693 189.844 60.4453C190.464 61.2214 190.773 62.3099 190.773 63.7109C190.773 65.1172 190.458 66.2109 189.828 66.9922C189.203 67.7682 188.333 68.1562 187.219 68.1562ZM187.031 60.3828C186.156 60.3828 185.523 60.625 185.133 61.1094C184.742 61.5938 184.542 62.3646 184.531 63.4219V63.7109C184.531 64.9141 184.732 65.776 185.133 66.2969C185.534 66.8125 186.177 67.0703 187.062 67.0703C187.802 67.0703 188.38 66.7708 188.797 66.1719C189.219 65.5729 189.43 64.7474 189.43 63.6953C189.43 62.6276 189.219 61.8099 188.797 61.2422C188.38 60.6693 187.792 60.3828 187.031 60.3828ZM196.469 68.1562C195.229 68.1562 194.268 67.776 193.586 67.0156C192.909 66.25 192.57 65.1693 192.57 63.7734C192.57 62.3411 192.914 61.2344 193.602 60.4531C194.294 59.6719 195.279 59.2812 196.555 59.2812C196.966 59.2812 197.378 59.3255 197.789 59.4141C198.201 59.5026 198.523 59.6068 198.758 59.7266L198.359 60.8281C198.073 60.7135 197.76 60.6198 197.422 60.5469C197.083 60.4688 196.784 60.4297 196.523 60.4297C194.784 60.4297 193.914 61.5391 193.914 63.7578C193.914 64.8099 194.125 65.6172 194.547 66.1797C194.974 66.7422 195.604 67.0234 196.438 67.0234C197.151 67.0234 197.883 66.8698 198.633 66.5625V67.7109C198.06 68.0078 197.339 68.1562 196.469 68.1562ZM201.969 68H200.672V59.4375H201.969V68ZM200.562 57.1172C200.562 56.8203 200.635 56.6042 200.781 56.4688C200.927 56.3281 201.109 56.2578 201.328 56.2578C201.536 56.2578 201.716 56.3281 201.867 56.4688C202.018 56.6094 202.094 56.8255 202.094 57.1172C202.094 57.4089 202.018 57.6276 201.867 57.7734C201.716 57.9141 201.536 57.9844 201.328 57.9844C201.109 57.9844 200.927 57.9141 200.781 57.7734C200.635 57.6276 200.562 57.4089 200.562 57.1172ZM212.109 63.7109C212.109 65.1068 211.758 66.1979 211.055 66.9844C210.352 67.7656 209.38 68.1562 208.141 68.1562C207.375 68.1562 206.695 67.9766 206.102 67.6172C205.508 67.2578 205.049 66.7422 204.727 66.0703C204.404 65.3984 204.242 64.612 204.242 63.7109C204.242 62.3151 204.591 61.2292 205.289 60.4531C205.987 59.6719 206.956 59.2812 208.195 59.2812C209.393 59.2812 210.344 59.6797 211.047 60.4766C211.755 61.2734 212.109 62.3516 212.109 63.7109ZM205.586 63.7109C205.586 64.8047 205.805 65.638 206.242 66.2109C206.68 66.7839 207.323 67.0703 208.172 67.0703C209.021 67.0703 209.664 66.7865 210.102 66.2188C210.544 65.6458 210.766 64.8099 210.766 63.7109C210.766 62.6224 210.544 61.7969 210.102 61.2344C209.664 60.6667 209.016 60.3828 208.156 60.3828C207.307 60.3828 206.667 60.6615 206.234 61.2188C205.802 61.776 205.586 62.6068 205.586 63.7109ZM207.086 58.1094C207.336 57.7865 207.604 57.3958 207.891 56.9375C208.182 56.4792 208.411 56.0807 208.578 55.7422H210.156V55.9062C209.927 56.2448 209.586 56.6615 209.133 57.1562C208.68 57.651 208.286 58.0339 207.953 58.3047H207.086V58.1094ZM220.25 68V62.4609C220.25 61.763 220.091 61.2422 219.773 60.8984C219.456 60.5547 218.958 60.3828 218.281 60.3828C217.385 60.3828 216.729 60.625 216.312 61.1094C215.896 61.5938 215.688 62.3932 215.688 63.5078V68H214.391V59.4375H215.445L215.656 60.6094H215.719C215.984 60.1875 216.357 59.862 216.836 59.6328C217.315 59.3984 217.849 59.2812 218.438 59.2812C219.469 59.2812 220.245 59.5312 220.766 60.0312C221.286 60.526 221.547 61.3203 221.547 62.4141V68H220.25Z" fill="#38485C"/>
<path d="M60.5 111C60.5 106.582 64.0817 103 68.5 103H271.5C275.918 103 279.5 106.582 279.5 111V145C279.5 149.418 275.918 153 271.5 153H68.5C64.0817 153 60.5 149.418 60.5 145V111Z" fill="white"/>
<path d="M84.5 118C78.98 118 74.5 122.48 74.5 128C74.5 133.52 78.98 138 84.5 138C90.02 138 94.5 133.52 94.5 128C94.5 122.48 90.02 118 84.5 118ZM84.5 133C83.95 133 83.5 132.55 83.5 132V128C83.5 127.45 83.95 127 84.5 127C85.05 127 85.5 127.45 85.5 128V132C85.5 132.55 85.05 133 84.5 133ZM85.5 125H83.5V123H85.5V125Z" fill="#38485C"/>
<path d="M116.516 130.961C116.516 131.966 116.151 132.75 115.422 133.312C114.693 133.875 113.703 134.156 112.453 134.156C111.099 134.156 110.057 133.982 109.328 133.633V132.352C109.797 132.549 110.307 132.706 110.859 132.82C111.411 132.935 111.958 132.992 112.5 132.992C113.385 132.992 114.052 132.826 114.5 132.492C114.948 132.154 115.172 131.685 115.172 131.086C115.172 130.69 115.091 130.367 114.93 130.117C114.773 129.862 114.508 129.628 114.133 129.414C113.763 129.201 113.198 128.958 112.438 128.688C111.375 128.307 110.615 127.857 110.156 127.336C109.703 126.815 109.477 126.135 109.477 125.297C109.477 124.417 109.807 123.716 110.469 123.195C111.13 122.674 112.005 122.414 113.094 122.414C114.229 122.414 115.273 122.622 116.227 123.039L115.812 124.195C114.87 123.799 113.953 123.602 113.062 123.602C112.359 123.602 111.81 123.753 111.414 124.055C111.018 124.357 110.82 124.776 110.82 125.312C110.82 125.708 110.893 126.034 111.039 126.289C111.185 126.539 111.43 126.771 111.773 126.984C112.122 127.193 112.654 127.424 113.367 127.68C114.565 128.107 115.388 128.565 115.836 129.055C116.289 129.544 116.516 130.18 116.516 130.961ZM122.273 134.156C121.008 134.156 120.008 133.771 119.273 133C118.544 132.229 118.18 131.159 118.18 129.789C118.18 128.409 118.518 127.312 119.195 126.5C119.878 125.688 120.792 125.281 121.938 125.281C123.01 125.281 123.859 125.635 124.484 126.344C125.109 127.047 125.422 127.977 125.422 129.133V129.953H119.523C119.549 130.958 119.802 131.721 120.281 132.242C120.766 132.763 121.445 133.023 122.32 133.023C123.242 133.023 124.154 132.831 125.055 132.445V133.602C124.596 133.799 124.161 133.94 123.75 134.023C123.344 134.112 122.852 134.156 122.273 134.156ZM121.922 126.367C121.234 126.367 120.685 126.591 120.273 127.039C119.867 127.487 119.628 128.107 119.555 128.898H124.031C124.031 128.081 123.849 127.456 123.484 127.023C123.12 126.586 122.599 126.367 121.922 126.367ZM134.648 125.438V126.258L133.062 126.445C133.208 126.628 133.339 126.867 133.453 127.164C133.568 127.456 133.625 127.786 133.625 128.156C133.625 128.995 133.339 129.664 132.766 130.164C132.193 130.664 131.406 130.914 130.406 130.914C130.151 130.914 129.911 130.893 129.688 130.852C129.135 131.143 128.859 131.51 128.859 131.953C128.859 132.188 128.956 132.362 129.148 132.477C129.341 132.586 129.672 132.641 130.141 132.641H131.656C132.583 132.641 133.294 132.836 133.789 133.227C134.289 133.617 134.539 134.185 134.539 134.93C134.539 135.878 134.159 136.599 133.398 137.094C132.638 137.594 131.529 137.844 130.07 137.844C128.951 137.844 128.086 137.635 127.477 137.219C126.872 136.802 126.57 136.214 126.57 135.453C126.57 134.932 126.737 134.482 127.07 134.102C127.404 133.721 127.872 133.464 128.477 133.328C128.258 133.229 128.073 133.076 127.922 132.867C127.776 132.659 127.703 132.417 127.703 132.141C127.703 131.828 127.786 131.555 127.953 131.32C128.12 131.086 128.383 130.859 128.742 130.641C128.299 130.458 127.938 130.148 127.656 129.711C127.38 129.273 127.242 128.773 127.242 128.211C127.242 127.273 127.523 126.552 128.086 126.047C128.648 125.536 129.445 125.281 130.477 125.281C130.924 125.281 131.328 125.333 131.688 125.438H134.648ZM127.82 135.438C127.82 135.901 128.016 136.253 128.406 136.492C128.797 136.732 129.357 136.852 130.086 136.852C131.174 136.852 131.979 136.688 132.5 136.359C133.026 136.036 133.289 135.596 133.289 135.039C133.289 134.576 133.146 134.253 132.859 134.07C132.573 133.893 132.034 133.805 131.242 133.805H129.688C129.099 133.805 128.641 133.945 128.312 134.227C127.984 134.508 127.82 134.911 127.82 135.438ZM128.523 128.18C128.523 128.779 128.693 129.232 129.031 129.539C129.37 129.846 129.841 130 130.445 130C131.711 130 132.344 129.385 132.344 128.156C132.344 126.87 131.703 126.227 130.422 126.227C129.812 126.227 129.344 126.391 129.016 126.719C128.688 127.047 128.523 127.534 128.523 128.18ZM137.625 125.438V130.992C137.625 131.69 137.784 132.211 138.102 132.555C138.419 132.898 138.917 133.07 139.594 133.07C140.49 133.07 141.143 132.826 141.555 132.336C141.971 131.846 142.18 131.047 142.18 129.938V125.438H143.477V134H142.406L142.219 132.852H142.148C141.883 133.273 141.513 133.596 141.039 133.82C140.57 134.044 140.034 134.156 139.43 134.156C138.388 134.156 137.607 133.909 137.086 133.414C136.57 132.919 136.312 132.128 136.312 131.039V125.438H137.625ZM152.094 134V128.461C152.094 127.763 151.935 127.242 151.617 126.898C151.299 126.555 150.802 126.383 150.125 126.383C149.229 126.383 148.573 126.625 148.156 127.109C147.74 127.594 147.531 128.393 147.531 129.508V134H146.234V125.438H147.289L147.5 126.609H147.562C147.828 126.188 148.201 125.862 148.68 125.633C149.159 125.398 149.693 125.281 150.281 125.281C151.312 125.281 152.089 125.531 152.609 126.031C153.13 126.526 153.391 127.32 153.391 128.414V134H152.094ZM161.891 132.852H161.82C161.221 133.721 160.326 134.156 159.133 134.156C158.013 134.156 157.141 133.773 156.516 133.008C155.896 132.242 155.586 131.154 155.586 129.742C155.586 128.331 155.898 127.234 156.523 126.453C157.148 125.672 158.018 125.281 159.133 125.281C160.294 125.281 161.185 125.703 161.805 126.547H161.906L161.852 125.93L161.82 125.328V121.844H163.117V134H162.062L161.891 132.852ZM159.297 133.07C160.182 133.07 160.823 132.831 161.219 132.352C161.62 131.867 161.82 131.089 161.82 130.016V129.742C161.82 128.529 161.617 127.664 161.211 127.148C160.81 126.628 160.167 126.367 159.281 126.367C158.521 126.367 157.938 126.664 157.531 127.258C157.13 127.846 156.93 128.68 156.93 129.758C156.93 130.852 157.13 131.677 157.531 132.234C157.932 132.792 158.521 133.07 159.297 133.07ZM171.141 134L170.883 132.781H170.82C170.393 133.318 169.966 133.682 169.539 133.875C169.117 134.062 168.589 134.156 167.953 134.156C167.104 134.156 166.438 133.938 165.953 133.5C165.474 133.062 165.234 132.44 165.234 131.633C165.234 129.904 166.617 128.997 169.383 128.914L170.836 128.867V128.336C170.836 127.664 170.69 127.169 170.398 126.852C170.112 126.529 169.651 126.367 169.016 126.367C168.302 126.367 167.495 126.586 166.594 127.023L166.195 126.031C166.617 125.802 167.078 125.622 167.578 125.492C168.083 125.362 168.589 125.297 169.094 125.297C170.115 125.297 170.87 125.523 171.359 125.977C171.854 126.43 172.102 127.156 172.102 128.156V134H171.141ZM168.211 133.086C169.018 133.086 169.651 132.865 170.109 132.422C170.573 131.979 170.805 131.359 170.805 130.562V129.789L169.508 129.844C168.477 129.88 167.732 130.042 167.273 130.328C166.82 130.609 166.594 131.049 166.594 131.648C166.594 132.117 166.734 132.474 167.016 132.719C167.302 132.964 167.701 133.086 168.211 133.086ZM186.328 129.711C186.328 131.107 185.977 132.198 185.273 132.984C184.57 133.766 183.599 134.156 182.359 134.156C181.594 134.156 180.914 133.977 180.32 133.617C179.727 133.258 179.268 132.742 178.945 132.07C178.622 131.398 178.461 130.612 178.461 129.711C178.461 128.315 178.81 127.229 179.508 126.453C180.206 125.672 181.174 125.281 182.414 125.281C183.612 125.281 184.562 125.68 185.266 126.477C185.974 127.273 186.328 128.352 186.328 129.711ZM179.805 129.711C179.805 130.805 180.023 131.638 180.461 132.211C180.898 132.784 181.542 133.07 182.391 133.07C183.24 133.07 183.883 132.786 184.32 132.219C184.763 131.646 184.984 130.81 184.984 129.711C184.984 128.622 184.763 127.797 184.32 127.234C183.883 126.667 183.234 126.383 182.375 126.383C181.526 126.383 180.885 126.661 180.453 127.219C180.021 127.776 179.805 128.607 179.805 129.711ZM192.594 134.156C192.036 134.156 191.526 134.055 191.062 133.852C190.604 133.643 190.219 133.326 189.906 132.898H189.812C189.875 133.398 189.906 133.872 189.906 134.32V137.844H188.609V125.438H189.664L189.844 126.609H189.906C190.24 126.141 190.628 125.802 191.07 125.594C191.513 125.385 192.021 125.281 192.594 125.281C193.729 125.281 194.604 125.669 195.219 126.445C195.839 127.221 196.148 128.31 196.148 129.711C196.148 131.117 195.833 132.211 195.203 132.992C194.578 133.768 193.708 134.156 192.594 134.156ZM192.406 126.383C191.531 126.383 190.898 126.625 190.508 127.109C190.117 127.594 189.917 128.365 189.906 129.422V129.711C189.906 130.914 190.107 131.776 190.508 132.297C190.909 132.812 191.552 133.07 192.438 133.07C193.177 133.07 193.755 132.771 194.172 132.172C194.594 131.573 194.805 130.747 194.805 129.695C194.805 128.628 194.594 127.81 194.172 127.242C193.755 126.669 193.167 126.383 192.406 126.383ZM201.844 134.156C200.604 134.156 199.643 133.776 198.961 133.016C198.284 132.25 197.945 131.169 197.945 129.773C197.945 128.341 198.289 127.234 198.977 126.453C199.669 125.672 200.654 125.281 201.93 125.281C202.341 125.281 202.753 125.326 203.164 125.414C203.576 125.503 203.898 125.607 204.133 125.727L203.734 126.828C203.448 126.714 203.135 126.62 202.797 126.547C202.458 126.469 202.159 126.43 201.898 126.43C200.159 126.43 199.289 127.539 199.289 129.758C199.289 130.81 199.5 131.617 199.922 132.18C200.349 132.742 200.979 133.023 201.812 133.023C202.526 133.023 203.258 132.87 204.008 132.562V133.711C203.435 134.008 202.714 134.156 201.844 134.156ZM207.344 134H206.047V125.438H207.344V134ZM205.938 123.117C205.938 122.82 206.01 122.604 206.156 122.469C206.302 122.328 206.484 122.258 206.703 122.258C206.911 122.258 207.091 122.328 207.242 122.469C207.393 122.609 207.469 122.826 207.469 123.117C207.469 123.409 207.393 123.628 207.242 123.773C207.091 123.914 206.911 123.984 206.703 123.984C206.484 123.984 206.302 123.914 206.156 123.773C206.01 123.628 205.938 123.409 205.938 123.117ZM217.484 129.711C217.484 131.107 217.133 132.198 216.43 132.984C215.727 133.766 214.755 134.156 213.516 134.156C212.75 134.156 212.07 133.977 211.477 133.617C210.883 133.258 210.424 132.742 210.102 132.07C209.779 131.398 209.617 130.612 209.617 129.711C209.617 128.315 209.966 127.229 210.664 126.453C211.362 125.672 212.331 125.281 213.57 125.281C214.768 125.281 215.719 125.68 216.422 126.477C217.13 127.273 217.484 128.352 217.484 129.711ZM210.961 129.711C210.961 130.805 211.18 131.638 211.617 132.211C212.055 132.784 212.698 133.07 213.547 133.07C214.396 133.07 215.039 132.786 215.477 132.219C215.919 131.646 216.141 130.81 216.141 129.711C216.141 128.622 215.919 127.797 215.477 127.234C215.039 126.667 214.391 126.383 213.531 126.383C212.682 126.383 212.042 126.661 211.609 127.219C211.177 127.776 210.961 128.607 210.961 129.711ZM212.461 124.109C212.711 123.786 212.979 123.396 213.266 122.938C213.557 122.479 213.786 122.081 213.953 121.742H215.531V121.906C215.302 122.245 214.961 122.661 214.508 123.156C214.055 123.651 213.661 124.034 213.328 124.305H212.461V124.109ZM225.625 134V128.461C225.625 127.763 225.466 127.242 225.148 126.898C224.831 126.555 224.333 126.383 223.656 126.383C222.76 126.383 222.104 126.625 221.688 127.109C221.271 127.594 221.062 128.393 221.062 129.508V134H219.766V125.438H220.82L221.031 126.609H221.094C221.359 126.188 221.732 125.862 222.211 125.633C222.69 125.398 223.224 125.281 223.812 125.281C224.844 125.281 225.62 125.531 226.141 126.031C226.661 126.526 226.922 127.32 226.922 128.414V134H225.625Z" fill="#38485C"/>
</svg>
