<svg width="340" height="190" viewBox="0 0 340 190" fill="none" xmlns="http://www.w3.org/2000/svg">
<rect width="340" height="190" fill="#F3F6F9"/>
<rect x="38" y="74" width="37" height="42" rx="9" fill="#007BC7"/>
<path d="M59.856 99.758C60.072 99.758 60.24 99.812 60.36 99.92C60.48 100.028 60.54 100.178 60.54 100.37C60.54 100.574 60.48 100.73 60.36 100.838C60.252 100.946 60.084 101 59.856 101H53.898C53.67 101 53.496 100.946 53.376 100.838C53.268 100.73 53.214 100.574 53.214 100.37C53.214 100.178 53.274 100.028 53.394 99.92C53.514 99.812 53.682 99.758 53.898 99.758H56.13V90.11L54.168 91.388C54.072 91.448 53.976 91.478 53.88 91.478C53.712 91.478 53.562 91.4 53.43 91.244C53.31 91.088 53.25 90.92 53.25 90.74C53.25 90.488 53.346 90.308 53.538 90.2L56.274 88.418C56.478 88.286 56.688 88.22 56.904 88.22C57.108 88.22 57.276 88.286 57.408 88.418C57.54 88.55 57.606 88.736 57.606 88.976V99.758H59.856Z" fill="white"/>
<rect x="38" y="74" width="37" height="42" rx="9" stroke="#E6EBF0" stroke-width="2"/>
<rect x="82" y="75" width="37" height="40" rx="8" fill="white"/>
<path d="M96.07 101.09C95.782 101.09 95.542 101 95.35 100.82C95.158 100.628 95.062 100.382 95.062 100.082C95.062 99.782 95.158 99.536 95.35 99.344C95.542 99.152 95.782 99.056 96.07 99.056C96.346 99.056 96.574 99.152 96.754 99.344C96.946 99.536 97.042 99.782 97.042 100.082C97.042 100.382 96.946 100.628 96.754 100.82C96.574 101 96.346 101.09 96.07 101.09ZM100.183 101.09C99.8953 101.09 99.6553 101 99.4633 100.82C99.2713 100.628 99.1753 100.382 99.1753 100.082C99.1753 99.782 99.2713 99.536 99.4633 99.344C99.6553 99.152 99.8953 99.056 100.183 99.056C100.459 99.056 100.687 99.152 100.867 99.344C101.059 99.536 101.155 99.782 101.155 100.082C101.155 100.382 101.059 100.628 100.867 100.82C100.687 101 100.459 101.09 100.183 101.09ZM104.297 101.09C104.009 101.09 103.769 101 103.577 100.82C103.385 100.628 103.289 100.382 103.289 100.082C103.289 99.782 103.385 99.536 103.577 99.344C103.769 99.152 104.009 99.056 104.297 99.056C104.573 99.056 104.801 99.152 104.981 99.344C105.173 99.536 105.269 99.782 105.269 100.082C105.269 100.382 105.173 100.628 104.981 100.82C104.801 101 104.573 101.09 104.297 101.09Z" fill="#38485C"/>
<rect x="126" y="74" width="48" height="42" rx="9" fill="white"/>
<path d="M147.856 99.758C148.072 99.758 148.24 99.812 148.36 99.92C148.48 100.028 148.54 100.178 148.54 100.37C148.54 100.574 148.48 100.73 148.36 100.838C148.252 100.946 148.084 101 147.856 101H141.898C141.67 101 141.496 100.946 141.376 100.838C141.268 100.73 141.214 100.574 141.214 100.37C141.214 100.178 141.274 100.028 141.394 99.92C141.514 99.812 141.682 99.758 141.898 99.758H144.13V90.11L142.168 91.388C142.072 91.448 141.976 91.478 141.88 91.478C141.712 91.478 141.562 91.4 141.43 91.244C141.31 91.088 141.25 90.92 141.25 90.74C141.25 90.488 141.346 90.308 141.538 90.2L144.274 88.418C144.478 88.286 144.688 88.22 144.904 88.22C145.108 88.22 145.276 88.286 145.408 88.418C145.54 88.55 145.606 88.736 145.606 88.976V99.758H147.856ZM155.193 101.144C153.741 101.144 152.637 100.592 151.881 99.488C151.125 98.384 150.747 96.776 150.747 94.664C150.747 92.54 151.125 90.926 151.881 89.822C152.637 88.718 153.741 88.166 155.193 88.166C156.645 88.166 157.749 88.718 158.505 89.822C159.261 90.914 159.639 92.522 159.639 94.646C159.639 96.77 159.261 98.384 158.505 99.488C157.749 100.592 156.645 101.144 155.193 101.144ZM155.193 99.902C156.201 99.902 156.945 99.476 157.425 98.624C157.905 97.772 158.145 96.446 158.145 94.646C158.145 92.834 157.905 91.508 157.425 90.668C156.957 89.828 156.213 89.408 155.193 89.408C154.185 89.408 153.441 89.834 152.961 90.686C152.481 91.526 152.241 92.846 152.241 94.646C152.241 96.446 152.481 97.772 152.961 98.624C153.441 99.476 154.185 99.902 155.193 99.902Z" fill="#38485C"/>
<rect x="126" y="74" width="48" height="42" rx="9" stroke="#E6EBF0" stroke-width="2"/>
<rect x="180" y="74" width="122" height="42" rx="9" fill="white"/>
<path d="M198.616 101.144C197.716 101.144 196.852 101.012 196.024 100.748C195.208 100.472 194.554 100.106 194.062 99.65C193.882 99.482 193.792 99.272 193.792 99.02C193.792 98.852 193.84 98.708 193.936 98.588C194.032 98.456 194.146 98.39 194.278 98.39C194.434 98.39 194.602 98.456 194.782 98.588C195.898 99.452 197.17 99.884 198.598 99.884C199.63 99.884 200.422 99.686 200.974 99.29C201.526 98.894 201.802 98.33 201.802 97.598C201.802 97.178 201.67 96.842 201.406 96.59C201.142 96.326 200.794 96.116 200.362 95.96C199.93 95.804 199.348 95.642 198.616 95.474C197.632 95.246 196.822 95.006 196.186 94.754C195.562 94.502 195.052 94.142 194.656 93.674C194.272 93.206 194.08 92.594 194.08 91.838C194.08 91.118 194.272 90.482 194.656 89.93C195.052 89.366 195.598 88.934 196.294 88.634C197.002 88.322 197.806 88.166 198.706 88.166C199.546 88.166 200.326 88.298 201.046 88.562C201.778 88.814 202.39 89.18 202.882 89.66C203.074 89.852 203.17 90.062 203.17 90.29C203.17 90.458 203.122 90.608 203.026 90.74C202.93 90.86 202.816 90.92 202.684 90.92C202.552 90.92 202.378 90.854 202.162 90.722C201.574 90.242 201.028 89.906 200.524 89.714C200.02 89.522 199.414 89.426 198.706 89.426C197.71 89.426 196.936 89.636 196.384 90.056C195.832 90.464 195.556 91.04 195.556 91.784C195.556 92.42 195.796 92.9 196.276 93.224C196.768 93.536 197.518 93.812 198.526 94.052C199.618 94.316 200.476 94.562 201.1 94.79C201.724 95.006 202.24 95.336 202.648 95.78C203.068 96.224 203.278 96.818 203.278 97.562C203.278 98.27 203.08 98.894 202.684 99.434C202.3 99.974 201.754 100.394 201.046 100.694C200.338 100.994 199.528 101.144 198.616 101.144ZM206.197 101.09C205.981 101.09 205.801 101.03 205.657 100.91C205.525 100.778 205.459 100.598 205.459 100.37V92.774C205.459 92.546 205.525 92.372 205.657 92.252C205.801 92.12 205.981 92.054 206.197 92.054C206.413 92.054 206.587 92.12 206.719 92.252C206.851 92.372 206.917 92.546 206.917 92.774V100.37C206.917 100.61 206.851 100.79 206.719 100.91C206.587 101.03 206.413 101.09 206.197 101.09ZM206.197 90.164C205.909 90.164 205.675 90.08 205.495 89.912C205.315 89.744 205.225 89.522 205.225 89.246C205.225 88.982 205.315 88.766 205.495 88.598C205.675 88.43 205.909 88.346 206.197 88.346C206.485 88.346 206.719 88.43 206.899 88.598C207.079 88.766 207.169 88.982 207.169 89.246C207.169 89.522 207.079 89.744 206.899 89.912C206.719 90.08 206.485 90.164 206.197 90.164ZM216.753 92.054C216.981 92.054 217.161 92.12 217.293 92.252C217.425 92.384 217.491 92.558 217.491 92.774V100.406C217.491 101.714 217.155 102.698 216.483 103.358C215.811 104.03 214.815 104.366 213.495 104.366C212.211 104.366 211.143 104.114 210.291 103.61C209.859 103.37 209.643 103.094 209.643 102.782C209.643 102.614 209.685 102.476 209.769 102.368C209.865 102.26 209.985 102.206 210.129 102.206C210.249 102.206 210.465 102.29 210.777 102.458C211.197 102.674 211.611 102.848 212.019 102.98C212.427 103.112 212.913 103.178 213.477 103.178C214.329 103.178 214.971 102.95 215.403 102.494C215.835 102.05 216.051 101.396 216.051 100.532V98.984C215.799 99.548 215.409 99.98 214.881 100.28C214.365 100.58 213.753 100.73 213.045 100.73C212.277 100.73 211.593 100.55 210.993 100.19C210.405 99.83 209.943 99.32 209.607 98.66C209.283 98 209.121 97.238 209.121 96.374C209.121 95.51 209.283 94.748 209.607 94.088C209.943 93.428 210.405 92.918 210.993 92.558C211.593 92.198 212.277 92.018 213.045 92.018C213.741 92.018 214.347 92.168 214.863 92.468C215.379 92.768 215.769 93.194 216.033 93.746V92.774C216.033 92.558 216.093 92.384 216.213 92.252C216.345 92.12 216.525 92.054 216.753 92.054ZM213.333 99.524C214.173 99.524 214.833 99.248 215.313 98.696C215.793 98.132 216.033 97.358 216.033 96.374C216.033 95.402 215.793 94.64 215.313 94.088C214.845 93.524 214.185 93.242 213.333 93.242C212.481 93.242 211.809 93.524 211.317 94.088C210.837 94.64 210.597 95.402 210.597 96.374C210.597 97.358 210.837 98.132 211.317 98.696C211.809 99.248 212.481 99.524 213.333 99.524ZM226.85 92.054C227.078 92.054 227.252 92.12 227.372 92.252C227.504 92.384 227.57 92.558 227.57 92.774V100.388C227.57 100.592 227.504 100.76 227.372 100.892C227.252 101.024 227.078 101.09 226.85 101.09C226.634 101.09 226.46 101.03 226.328 100.91C226.208 100.778 226.148 100.61 226.148 100.406V99.506C225.872 100.034 225.482 100.436 224.978 100.712C224.486 100.988 223.928 101.126 223.304 101.126C222.26 101.126 221.474 100.838 220.946 100.262C220.418 99.674 220.154 98.81 220.154 97.67V92.774C220.154 92.558 220.22 92.384 220.352 92.252C220.484 92.12 220.664 92.054 220.892 92.054C221.12 92.054 221.294 92.12 221.414 92.252C221.546 92.384 221.612 92.558 221.612 92.774V97.634C221.612 98.414 221.768 98.99 222.08 99.362C222.392 99.722 222.884 99.902 223.556 99.902C224.324 99.902 224.942 99.656 225.41 99.164C225.878 98.66 226.112 98 226.112 97.184V92.774C226.112 92.558 226.178 92.384 226.31 92.252C226.442 92.12 226.622 92.054 226.85 92.054ZM231.018 101.09C230.802 101.09 230.622 101.03 230.478 100.91C230.346 100.778 230.28 100.598 230.28 100.37V92.774C230.28 92.546 230.346 92.372 230.478 92.252C230.622 92.12 230.802 92.054 231.018 92.054C231.234 92.054 231.408 92.12 231.54 92.252C231.672 92.372 231.738 92.546 231.738 92.774V100.37C231.738 100.61 231.672 100.79 231.54 100.91C231.408 101.03 231.234 101.09 231.018 101.09ZM231.018 90.164C230.73 90.164 230.496 90.08 230.316 89.912C230.136 89.744 230.046 89.522 230.046 89.246C230.046 88.982 230.136 88.766 230.316 88.598C230.496 88.43 230.73 88.346 231.018 88.346C231.306 88.346 231.54 88.43 231.72 88.598C231.9 88.766 231.99 88.982 231.99 89.246C231.99 89.522 231.9 89.744 231.72 89.912C231.54 90.08 231.306 90.164 231.018 90.164ZM241.249 98.966C241.381 98.966 241.495 99.02 241.591 99.128C241.687 99.236 241.735 99.374 241.735 99.542C241.735 99.842 241.525 100.118 241.105 100.37C240.673 100.622 240.217 100.814 239.737 100.946C239.257 101.066 238.789 101.126 238.333 101.126C236.977 101.126 235.903 100.724 235.111 99.92C234.331 99.116 233.941 98.006 233.941 96.59C233.941 95.69 234.115 94.898 234.463 94.214C234.811 93.518 235.297 92.978 235.921 92.594C236.557 92.21 237.277 92.018 238.081 92.018C239.221 92.018 240.127 92.39 240.799 93.134C241.471 93.878 241.807 94.886 241.807 96.158C241.807 96.398 241.759 96.572 241.663 96.68C241.567 96.788 241.411 96.842 241.195 96.842H235.399C235.507 98.906 236.485 99.938 238.333 99.938C238.801 99.938 239.203 99.878 239.539 99.758C239.875 99.626 240.235 99.452 240.619 99.236C240.931 99.056 241.141 98.966 241.249 98.966ZM238.099 93.152C237.331 93.152 236.713 93.392 236.245 93.872C235.789 94.352 235.519 95.03 235.435 95.906H240.529C240.505 95.018 240.283 94.34 239.863 93.872C239.443 93.392 238.855 93.152 238.099 93.152ZM248.365 92.018C250.465 92.018 251.515 93.176 251.515 95.492V100.37C251.515 100.598 251.449 100.778 251.317 100.91C251.197 101.03 251.023 101.09 250.795 101.09C250.567 101.09 250.387 101.03 250.255 100.91C250.123 100.778 250.057 100.598 250.057 100.37V95.582C250.057 94.766 249.895 94.172 249.571 93.8C249.259 93.428 248.755 93.242 248.059 93.242C247.255 93.242 246.613 93.488 246.133 93.98C245.653 94.472 245.413 95.138 245.413 95.978V100.37C245.413 100.598 245.347 100.778 245.215 100.91C245.095 101.03 244.921 101.09 244.693 101.09C244.465 101.09 244.285 101.03 244.153 100.91C244.021 100.778 243.955 100.598 243.955 100.37V92.774C243.955 92.558 244.021 92.384 244.153 92.252C244.285 92.12 244.465 92.054 244.693 92.054C244.909 92.054 245.077 92.12 245.197 92.252C245.329 92.384 245.395 92.552 245.395 92.756V93.674C245.683 93.134 246.085 92.726 246.601 92.45C247.117 92.162 247.705 92.018 248.365 92.018ZM258.236 99.938C258.656 99.974 258.866 100.166 258.866 100.514C258.866 100.718 258.788 100.874 258.632 100.982C258.488 101.078 258.266 101.114 257.966 101.09L257.48 101.054C256.52 100.982 255.812 100.694 255.356 100.19C254.9 99.686 254.672 98.924 254.672 97.904V93.386H253.466C253.262 93.386 253.1 93.338 252.98 93.242C252.872 93.134 252.818 92.996 252.818 92.828C252.818 92.648 252.872 92.504 252.98 92.396C253.1 92.288 253.262 92.234 253.466 92.234H254.672V90.2C254.672 89.972 254.738 89.798 254.87 89.678C255.002 89.546 255.182 89.48 255.41 89.48C255.626 89.48 255.8 89.546 255.932 89.678C256.064 89.798 256.13 89.972 256.13 90.2V92.234H258.128C258.32 92.234 258.47 92.288 258.578 92.396C258.698 92.504 258.758 92.648 258.758 92.828C258.758 92.996 258.698 93.134 258.578 93.242C258.47 93.338 258.32 93.386 258.128 93.386H256.13V97.976C256.13 98.636 256.262 99.116 256.526 99.416C256.802 99.704 257.21 99.866 257.75 99.902L258.236 99.938ZM267.089 98.966C267.221 98.966 267.335 99.02 267.431 99.128C267.527 99.236 267.575 99.374 267.575 99.542C267.575 99.842 267.365 100.118 266.945 100.37C266.513 100.622 266.057 100.814 265.577 100.946C265.097 101.066 264.629 101.126 264.173 101.126C262.817 101.126 261.743 100.724 260.951 99.92C260.171 99.116 259.781 98.006 259.781 96.59C259.781 95.69 259.955 94.898 260.303 94.214C260.651 93.518 261.137 92.978 261.761 92.594C262.397 92.21 263.117 92.018 263.921 92.018C265.061 92.018 265.967 92.39 266.639 93.134C267.311 93.878 267.647 94.886 267.647 96.158C267.647 96.398 267.599 96.572 267.503 96.68C267.407 96.788 267.251 96.842 267.035 96.842H261.239C261.347 98.906 262.325 99.938 264.173 99.938C264.641 99.938 265.043 99.878 265.379 99.758C265.715 99.626 266.075 99.452 266.459 99.236C266.771 99.056 266.981 98.966 267.089 98.966ZM263.939 93.152C263.171 93.152 262.553 93.392 262.085 93.872C261.629 94.352 261.359 95.03 261.275 95.906H266.369C266.345 95.018 266.123 94.34 265.703 93.872C265.283 93.392 264.695 93.152 263.939 93.152Z" fill="#38485C"/>
<g clip-path="url(#clip0_2199_69847)">
<path d="M282.29 98.8805L286.17 95.0005L282.29 91.1205C281.9 90.7305 281.9 90.1005 282.29 89.7105C282.68 89.3205 283.31 89.3205 283.7 89.7105L288.29 94.3005C288.68 94.6905 288.68 95.3205 288.29 95.7105L283.7 100.3C283.31 100.69 282.68 100.69 282.29 100.3C281.91 99.9105 281.9 99.2705 282.29 98.8805Z" fill="#38485C"/>
</g>
<rect x="180" y="74" width="122" height="42" rx="9" stroke="#E6EBF0" stroke-width="2"/>
<defs>
<clipPath id="clip0_2199_69847">
<rect width="24" height="24" fill="white" transform="translate(273 83)"/>
</clipPath>
</defs>
</svg>
