<svg width="340" height="190" viewBox="0 0 340 190" fill="none" xmlns="http://www.w3.org/2000/svg">
<rect width="340" height="190" fill="#F3F6F9"/>
<rect width="276" height="102" transform="translate(32 44)" fill="white"/>
<path d="M60.24 64.8C60.5333 64.8 60.7667 64.9 60.94 65.1C61.1267 65.2867 61.22 65.5333 61.22 65.84V78.06C61.22 78.3667 61.1267 78.62 60.94 78.82C60.7533 79.0067 60.5133 79.1 60.22 79.1C59.8733 79.1 59.6067 78.9667 59.42 78.7L51.58 68.36V78.06C51.58 78.3667 51.4867 78.62 51.3 78.82C51.1267 79.0067 50.8933 79.1 50.6 79.1C50.3067 79.1 50.0733 79.0067 49.9 78.82C49.7267 78.6333 49.64 78.38 49.64 78.06V65.84C49.64 65.5333 49.7333 65.2867 49.92 65.1C50.1067 64.9 50.3467 64.8 50.64 64.8C50.9867 64.8 51.2533 64.9333 51.44 65.2L59.28 75.56V65.84C59.28 65.5333 59.3667 65.2867 59.54 65.1C59.7133 64.9 59.9467 64.8 60.24 64.8ZM68.3033 79.14C67.3433 79.14 66.4966 78.9333 65.7633 78.52C65.0433 78.1067 64.4833 77.52 64.0833 76.76C63.6966 75.9867 63.5033 75.0933 63.5033 74.08C63.5033 73.0533 63.6966 72.16 64.0833 71.4C64.4833 70.6267 65.0433 70.0333 65.7633 69.62C66.4966 69.2067 67.3433 69 68.3033 69C69.2633 69 70.1033 69.2067 70.8233 69.62C71.5566 70.0333 72.1166 70.6267 72.5033 71.4C72.9033 72.16 73.1033 73.0533 73.1033 74.08C73.1033 75.0933 72.9033 75.9867 72.5033 76.76C72.1166 77.52 71.5566 78.1067 70.8233 78.52C70.1033 78.9333 69.2633 79.14 68.3033 79.14ZM68.3033 77.54C69.1966 77.54 69.8766 77.2467 70.3433 76.66C70.8233 76.0733 71.0633 75.2133 71.0633 74.08C71.0633 72.96 70.8233 72.1067 70.3433 71.52C69.8633 70.92 69.1833 70.62 68.3033 70.62C67.4233 70.62 66.7433 70.92 66.2633 71.52C65.7833 72.1067 65.5433 72.96 65.5433 74.08C65.5433 75.2133 65.7766 76.0733 66.2433 76.66C66.7233 77.2467 67.4099 77.54 68.3033 77.54ZM86.3523 69C88.539 69 89.6323 70.3133 89.6323 72.94V78.14C89.6323 78.4467 89.539 78.6867 89.3523 78.86C89.1657 79.02 88.919 79.1 88.6123 79.1C88.319 79.1 88.079 79.02 87.8923 78.86C87.7057 78.6867 87.6123 78.4467 87.6123 78.14V72.96C87.6123 72.1467 87.4657 71.56 87.1723 71.2C86.879 70.8267 86.419 70.64 85.7923 70.64C85.059 70.64 84.479 70.8933 84.0523 71.4C83.6257 71.8933 83.4123 72.5733 83.4123 73.44V78.14C83.4123 78.4467 83.319 78.6867 83.1323 78.86C82.9457 79.02 82.699 79.1 82.3923 79.1C82.099 79.1 81.859 79.02 81.6723 78.86C81.4857 78.6867 81.3923 78.4467 81.3923 78.14V72.96C81.3923 72.1467 81.2457 71.56 80.9523 71.2C80.659 70.8267 80.199 70.64 79.5723 70.64C78.839 70.64 78.2523 70.8933 77.8123 71.4C77.3857 71.8933 77.1723 72.5733 77.1723 73.44V78.14C77.1723 78.4467 77.079 78.6867 76.8923 78.86C76.7057 79.02 76.4657 79.1 76.1723 79.1C75.879 79.1 75.6323 79.02 75.4323 78.86C75.2457 78.6867 75.1523 78.4467 75.1523 78.14V70C75.1523 69.7067 75.2523 69.4733 75.4523 69.3C75.6523 69.1267 75.8923 69.04 76.1723 69.04C76.4523 69.04 76.679 69.1267 76.8523 69.3C77.039 69.46 77.1323 69.6867 77.1323 69.98V70.72C77.4257 70.16 77.8323 69.7333 78.3523 69.44C78.8723 69.1467 79.4723 69 80.1523 69C80.899 69 81.5123 69.1533 81.9923 69.46C82.4857 69.7667 82.8523 70.24 83.0923 70.88C83.3857 70.3067 83.819 69.8533 84.3923 69.52C84.9657 69.1733 85.619 69 86.3523 69ZM97.4384 69C98.2918 69 99.0451 69.2067 99.6984 69.62C100.352 70.0333 100.858 70.62 101.218 71.38C101.592 72.14 101.778 73.0267 101.778 74.04C101.778 75.04 101.592 75.9267 101.218 76.7C100.858 77.4733 100.345 78.0733 99.6784 78.5C99.0251 78.9267 98.2784 79.14 97.4384 79.14C96.7051 79.14 96.0584 78.9867 95.4984 78.68C94.9384 78.36 94.5118 77.9067 94.2184 77.32V78.12C94.2184 78.4133 94.1251 78.6533 93.9384 78.84C93.7651 79.0133 93.5251 79.1 93.2184 79.1C92.9118 79.1 92.6651 79.0133 92.4784 78.84C92.2918 78.6533 92.1984 78.4133 92.1984 78.12V65.76C92.1984 65.4667 92.2918 65.2333 92.4784 65.06C92.6784 64.8867 92.9318 64.8 93.2384 64.8C93.5318 64.8 93.7651 64.8867 93.9384 65.06C94.1251 65.22 94.2184 65.44 94.2184 65.72V70.84C94.5118 70.2533 94.9384 69.8 95.4984 69.48C96.0584 69.16 96.7051 69 97.4384 69ZM96.9584 77.54C97.8251 77.54 98.4984 77.2333 98.9784 76.62C99.4718 76.0067 99.7184 75.1467 99.7184 74.04C99.7184 72.9467 99.4784 72.1067 98.9984 71.52C98.5184 70.92 97.8384 70.62 96.9584 70.62C96.0784 70.62 95.3984 70.92 94.9184 71.52C94.4518 72.12 94.2184 72.9733 94.2184 74.08C94.2184 75.1867 94.4518 76.04 94.9184 76.64C95.3984 77.24 96.0784 77.54 96.9584 77.54ZM108.935 69.04C109.575 69 109.895 69.2733 109.895 69.86C109.895 70.1533 109.822 70.3733 109.675 70.52C109.528 70.6667 109.275 70.7533 108.915 70.78L108.315 70.84C107.475 70.92 106.848 71.2133 106.435 71.72C106.035 72.2267 105.835 72.84 105.835 73.56V78.14C105.835 78.46 105.742 78.7 105.555 78.86C105.368 79.02 105.128 79.1 104.835 79.1C104.542 79.1 104.295 79.02 104.095 78.86C103.908 78.7 103.815 78.46 103.815 78.14V70C103.815 69.6933 103.908 69.46 104.095 69.3C104.295 69.1267 104.542 69.04 104.835 69.04C105.102 69.04 105.322 69.1267 105.495 69.3C105.682 69.46 105.775 69.6867 105.775 69.98V70.94C106.042 70.3533 106.428 69.9067 106.935 69.6C107.442 69.2933 108.015 69.1133 108.655 69.06L108.935 69.04ZM118.384 76.54C118.57 76.54 118.724 76.6133 118.844 76.76C118.964 76.9067 119.024 77.0933 119.024 77.32C119.024 77.7067 118.784 78.0333 118.304 78.3C117.837 78.5667 117.324 78.7733 116.764 78.92C116.217 79.0667 115.69 79.14 115.184 79.14C113.637 79.14 112.417 78.6933 111.524 77.8C110.63 76.8933 110.184 75.66 110.184 74.1C110.184 73.1 110.377 72.2133 110.764 71.44C111.164 70.6667 111.717 70.0667 112.424 69.64C113.144 69.2133 113.957 69 114.864 69C116.17 69 117.204 69.42 117.964 70.26C118.724 71.1 119.104 72.2333 119.104 73.66C119.104 74.1933 118.864 74.46 118.384 74.46H112.204C112.337 76.5267 113.33 77.56 115.184 77.56C115.677 77.56 116.104 77.4933 116.464 77.36C116.824 77.2267 117.204 77.0533 117.604 76.84C117.644 76.8133 117.75 76.76 117.924 76.68C118.11 76.5867 118.264 76.54 118.384 76.54ZM114.904 70.48C114.13 70.48 113.51 70.7267 113.044 71.22C112.577 71.7133 112.297 72.4067 112.204 73.3H117.364C117.324 72.3933 117.09 71.7 116.664 71.22C116.25 70.7267 115.664 70.48 114.904 70.48ZM134.183 64.8C134.49 64.8 134.736 64.8867 134.923 65.06C135.11 65.2333 135.203 65.4667 135.203 65.76V78.12C135.203 78.4267 135.11 78.6667 134.923 78.84C134.75 79.0133 134.51 79.1 134.203 79.1C133.896 79.1 133.65 79.0133 133.463 78.84C133.29 78.6667 133.203 78.4267 133.203 78.12V77.32C132.91 77.9067 132.483 78.36 131.923 78.68C131.363 78.9867 130.716 79.14 129.983 79.14C129.143 79.14 128.39 78.9267 127.723 78.5C127.07 78.0733 126.556 77.4733 126.183 76.7C125.823 75.9267 125.643 75.04 125.643 74.04C125.643 73.0267 125.823 72.14 126.183 71.38C126.556 70.62 127.07 70.0333 127.723 69.62C128.376 69.2067 129.13 69 129.983 69C130.716 69 131.356 69.16 131.903 69.48C132.463 69.7867 132.89 70.2267 133.183 70.8V65.72C133.183 65.44 133.27 65.22 133.443 65.06C133.63 64.8867 133.876 64.8 134.183 64.8ZM130.463 77.54C131.33 77.54 132.003 77.24 132.483 76.64C132.963 76.04 133.203 75.1867 133.203 74.08C133.203 72.9733 132.963 72.12 132.483 71.52C132.016 70.92 131.343 70.62 130.463 70.62C129.583 70.62 128.896 70.92 128.403 71.52C127.923 72.1067 127.683 72.9467 127.683 74.04C127.683 75.1333 127.93 75.9933 128.423 76.62C128.916 77.2333 129.596 77.54 130.463 77.54ZM145.46 76.54C145.646 76.54 145.8 76.6133 145.92 76.76C146.04 76.9067 146.1 77.0933 146.1 77.32C146.1 77.7067 145.86 78.0333 145.38 78.3C144.913 78.5667 144.4 78.7733 143.84 78.92C143.293 79.0667 142.766 79.14 142.26 79.14C140.713 79.14 139.493 78.6933 138.6 77.8C137.706 76.8933 137.26 75.66 137.26 74.1C137.26 73.1 137.453 72.2133 137.84 71.44C138.24 70.6667 138.793 70.0667 139.5 69.64C140.22 69.2133 141.033 69 141.94 69C143.246 69 144.28 69.42 145.04 70.26C145.8 71.1 146.18 72.2333 146.18 73.66C146.18 74.1933 145.94 74.46 145.46 74.46H139.28C139.413 76.5267 140.406 77.56 142.26 77.56C142.753 77.56 143.18 77.4933 143.54 77.36C143.9 77.2267 144.28 77.0533 144.68 76.84C144.72 76.8133 144.826 76.76 145 76.68C145.186 76.5867 145.34 76.54 145.46 76.54ZM141.98 70.48C141.206 70.48 140.586 70.7267 140.12 71.22C139.653 71.7133 139.373 72.4067 139.28 73.3H144.44C144.4 72.3933 144.166 71.7 143.74 71.22C143.326 70.7267 142.74 70.48 141.98 70.48ZM149.225 79.1C148.932 79.1 148.685 79.02 148.485 78.86C148.299 78.7 148.205 78.46 148.205 78.14V65.78C148.205 65.46 148.299 65.22 148.485 65.06C148.685 64.8867 148.932 64.8 149.225 64.8C149.519 64.8 149.759 64.8867 149.945 65.06C150.132 65.22 150.225 65.46 150.225 65.78V78.14C150.225 78.46 150.132 78.7 149.945 78.86C149.759 79.02 149.519 79.1 149.225 79.1ZM163.163 69C164.003 69 164.749 69.2133 165.403 69.64C166.069 70.0667 166.583 70.6667 166.943 71.44C167.316 72.2133 167.503 73.1067 167.503 74.12C167.503 75.12 167.323 76 166.963 76.76C166.603 77.52 166.089 78.1067 165.423 78.52C164.769 78.9333 164.016 79.14 163.163 79.14C162.429 79.14 161.783 78.9867 161.223 78.68C160.663 78.36 160.236 77.9067 159.943 77.32V81.78C159.943 82.06 159.849 82.28 159.663 82.44C159.489 82.6133 159.256 82.7 158.963 82.7C158.656 82.7 158.403 82.6133 158.203 82.44C158.016 82.2667 157.923 82.0333 157.923 81.74V70.02C157.923 69.7267 158.016 69.4933 158.203 69.32C158.389 69.1333 158.636 69.04 158.943 69.04C159.236 69.04 159.476 69.1333 159.663 69.32C159.849 69.4933 159.943 69.7267 159.943 70.02V70.84C160.236 70.2533 160.663 69.8 161.223 69.48C161.783 69.16 162.429 69 163.163 69ZM162.683 77.54C163.563 77.54 164.243 77.2467 164.723 76.66C165.203 76.06 165.443 75.2133 165.443 74.12C165.443 73.0133 165.196 72.1533 164.703 71.54C164.223 70.9267 163.549 70.62 162.683 70.62C161.803 70.62 161.123 70.92 160.643 71.52C160.176 72.12 159.943 72.9733 159.943 74.08C159.943 75.1867 160.176 76.04 160.643 76.64C161.123 77.24 161.803 77.54 162.683 77.54ZM173.639 69C174.932 69 175.892 69.3267 176.519 69.98C177.159 70.6333 177.479 71.6267 177.479 72.96V78.14C177.479 78.4467 177.392 78.6867 177.219 78.86C177.046 79.02 176.806 79.1 176.499 79.1C176.206 79.1 175.972 79.0133 175.799 78.84C175.626 78.6667 175.539 78.4333 175.539 78.14V77.4C175.286 77.96 174.906 78.3933 174.399 78.7C173.906 78.9933 173.326 79.14 172.659 79.14C172.019 79.14 171.432 79.0133 170.899 78.76C170.366 78.4933 169.946 78.1267 169.639 77.66C169.346 77.1933 169.199 76.6733 169.199 76.1C169.199 75.3933 169.379 74.84 169.739 74.44C170.112 74.0267 170.719 73.7333 171.559 73.56C172.412 73.3867 173.579 73.3 175.059 73.3H175.519V72.72C175.519 71.9733 175.366 71.4333 175.059 71.1C174.752 70.7667 174.259 70.6 173.579 70.6C173.112 70.6 172.672 70.66 172.259 70.78C171.846 70.9 171.392 71.0733 170.899 71.3C170.539 71.5 170.286 71.6 170.139 71.6C169.939 71.6 169.772 71.5267 169.639 71.38C169.519 71.2333 169.459 71.0467 169.459 70.82C169.459 70.62 169.512 70.4467 169.619 70.3C169.739 70.14 169.926 69.9867 170.179 69.84C170.646 69.5867 171.192 69.3867 171.819 69.24C172.446 69.08 173.052 69 173.639 69ZM173.019 77.64C173.752 77.64 174.352 77.3933 174.819 76.9C175.286 76.3933 175.519 75.7467 175.519 74.96V74.44H175.159C174.119 74.44 173.319 74.4867 172.759 74.58C172.199 74.6733 171.799 74.8333 171.559 75.06C171.319 75.2733 171.199 75.5867 171.199 76C171.199 76.48 171.372 76.8733 171.719 77.18C172.066 77.4867 172.499 77.64 173.019 77.64ZM183.442 79.14C182.082 79.14 180.969 78.86 180.102 78.3C179.862 78.1533 179.689 78 179.582 77.84C179.489 77.68 179.442 77.5 179.442 77.3C179.442 77.0867 179.502 76.9067 179.622 76.76C179.742 76.6133 179.896 76.54 180.082 76.54C180.256 76.54 180.529 76.6467 180.902 76.86C181.302 77.0733 181.689 77.2467 182.062 77.38C182.449 77.5133 182.929 77.58 183.502 77.58C184.142 77.58 184.642 77.4667 185.002 77.24C185.362 77.0133 185.542 76.6933 185.542 76.28C185.542 76.0133 185.469 75.8 185.322 75.64C185.189 75.48 184.949 75.34 184.602 75.22C184.256 75.0867 183.742 74.9467 183.062 74.8C181.889 74.5467 181.042 74.2067 180.522 73.78C180.016 73.34 179.762 72.7467 179.762 72C179.762 71.4267 179.929 70.9133 180.262 70.46C180.596 69.9933 181.056 69.6333 181.642 69.38C182.229 69.1267 182.896 69 183.642 69C184.176 69 184.696 69.0733 185.202 69.22C185.709 69.3533 186.156 69.5533 186.542 69.82C186.982 70.1133 187.202 70.4533 187.202 70.84C187.202 71.0533 187.136 71.2333 187.002 71.38C186.882 71.5267 186.736 71.6 186.562 71.6C186.442 71.6 186.322 71.5733 186.202 71.52C186.082 71.4667 185.922 71.38 185.722 71.26C185.362 71.0467 185.022 70.88 184.702 70.76C184.396 70.64 184.009 70.58 183.542 70.58C182.982 70.58 182.529 70.7 182.182 70.94C181.849 71.18 181.682 71.5067 181.682 71.92C181.682 72.2933 181.836 72.5867 182.142 72.8C182.462 73 183.056 73.1933 183.922 73.38C184.816 73.5667 185.516 73.78 186.022 74.02C186.529 74.26 186.889 74.56 187.102 74.92C187.329 75.2667 187.442 75.7133 187.442 76.26C187.442 77.1267 187.076 77.8267 186.342 78.36C185.622 78.88 184.656 79.14 183.442 79.14ZM193.731 79.14C192.771 79.14 191.924 78.9333 191.191 78.52C190.471 78.1067 189.911 77.52 189.511 76.76C189.124 75.9867 188.931 75.0933 188.931 74.08C188.931 73.0533 189.124 72.16 189.511 71.4C189.911 70.6267 190.471 70.0333 191.191 69.62C191.924 69.2067 192.771 69 193.731 69C194.691 69 195.531 69.2067 196.251 69.62C196.984 70.0333 197.544 70.6267 197.931 71.4C198.331 72.16 198.531 73.0533 198.531 74.08C198.531 75.0933 198.331 75.9867 197.931 76.76C197.544 77.52 196.984 78.1067 196.251 78.52C195.531 78.9333 194.691 79.14 193.731 79.14ZM193.731 77.54C194.624 77.54 195.304 77.2467 195.771 76.66C196.251 76.0733 196.491 75.2133 196.491 74.08C196.491 72.96 196.251 72.1067 195.771 71.52C195.291 70.92 194.611 70.62 193.731 70.62C192.851 70.62 192.171 70.92 191.691 71.52C191.211 72.1067 190.971 72.96 190.971 74.08C190.971 75.2133 191.204 76.0733 191.671 76.66C192.151 77.2467 192.837 77.54 193.731 77.54Z" fill="#38485C"/>
<path d="M54.6094 92.9297C54.6094 93.7969 54.3125 94.4648 53.7188 94.9336C53.1289 95.3984 52.2832 95.6309 51.1816 95.6309H50.1738V99H49.1777V90.4336H51.3984C53.5391 90.4336 54.6094 91.2656 54.6094 92.9297ZM50.1738 94.7754H51.0703C51.9531 94.7754 52.5918 94.6328 52.9863 94.3477C53.3809 94.0625 53.5781 93.6055 53.5781 92.9766C53.5781 92.4102 53.3926 91.9883 53.0215 91.7109C52.6504 91.4336 52.0723 91.2949 51.2871 91.2949H50.1738V94.7754ZM60.2109 99L60.0176 98.0859H59.9707C59.6504 98.4883 59.3301 98.7617 59.0098 98.9062C58.6934 99.0469 58.2969 99.1172 57.8203 99.1172C57.1836 99.1172 56.6836 98.9531 56.3203 98.625C55.9609 98.2969 55.7812 97.8301 55.7812 97.2246C55.7812 95.9277 56.8184 95.248 58.8926 95.1855L59.9824 95.1504V94.752C59.9824 94.248 59.873 93.877 59.6543 93.6387C59.4395 93.3965 59.0938 93.2754 58.6172 93.2754C58.082 93.2754 57.4766 93.4395 56.8008 93.7676L56.502 93.0234C56.8184 92.8516 57.1641 92.7168 57.5391 92.6191C57.918 92.5215 58.2969 92.4727 58.6758 92.4727C59.4414 92.4727 60.0078 92.6426 60.375 92.9824C60.7461 93.3223 60.9316 93.8672 60.9316 94.6172V99H60.2109ZM58.0137 98.3145C58.6191 98.3145 59.0938 98.1484 59.4375 97.8164C59.7852 97.4844 59.959 97.0195 59.959 96.4219V95.8418L58.9863 95.8828C58.2129 95.9102 57.6543 96.0312 57.3105 96.2461C56.9707 96.457 56.8008 96.7871 56.8008 97.2363C56.8008 97.5879 56.9062 97.8555 57.1172 98.0391C57.332 98.2227 57.6309 98.3145 58.0137 98.3145ZM67.084 97.248C67.084 97.8457 66.8613 98.3066 66.416 98.6309C65.9707 98.9551 65.3457 99.1172 64.541 99.1172C63.6895 99.1172 63.0254 98.9824 62.5488 98.7129V97.8105C62.8574 97.9668 63.1875 98.0898 63.5391 98.1797C63.8945 98.2695 64.2363 98.3145 64.5645 98.3145C65.0723 98.3145 65.4629 98.2344 65.7363 98.0742C66.0098 97.9102 66.1465 97.6621 66.1465 97.3301C66.1465 97.0801 66.0371 96.8672 65.8184 96.6914C65.6035 96.5117 65.1816 96.3008 64.5527 96.0586C63.9551 95.8359 63.5293 95.6426 63.2754 95.4785C63.0254 95.3105 62.8379 95.1211 62.7129 94.9102C62.5918 94.6992 62.5312 94.4473 62.5312 94.1543C62.5312 93.6309 62.7441 93.2188 63.1699 92.918C63.5957 92.6133 64.1797 92.4609 64.9219 92.4609C65.6133 92.4609 66.2891 92.6016 66.9492 92.8828L66.6035 93.6738C65.959 93.4082 65.375 93.2754 64.8516 93.2754C64.3906 93.2754 64.043 93.3477 63.8086 93.4922C63.5742 93.6367 63.457 93.8359 63.457 94.0898C63.457 94.2617 63.5 94.4082 63.5859 94.5293C63.6758 94.6504 63.8184 94.7656 64.0137 94.875C64.209 94.9844 64.584 95.1426 65.1387 95.3496C65.9004 95.627 66.4141 95.9062 66.6797 96.1875C66.9492 96.4688 67.084 96.8223 67.084 97.248ZM74.2148 95.7832C74.2148 96.8301 73.9512 97.6484 73.4238 98.2383C72.8965 98.8242 72.168 99.1172 71.2383 99.1172C70.6641 99.1172 70.1543 98.9824 69.709 98.7129C69.2637 98.4434 68.9199 98.0566 68.6777 97.5527C68.4355 97.0488 68.3145 96.459 68.3145 95.7832C68.3145 94.7363 68.5762 93.9219 69.0996 93.3398C69.623 92.7539 70.3496 92.4609 71.2793 92.4609C72.1777 92.4609 72.8906 92.7598 73.418 93.3574C73.9492 93.9551 74.2148 94.7637 74.2148 95.7832ZM69.3223 95.7832C69.3223 96.6035 69.4863 97.2285 69.8145 97.6582C70.1426 98.0879 70.625 98.3027 71.2617 98.3027C71.8984 98.3027 72.3809 98.0898 72.709 97.6641C73.041 97.2344 73.207 96.6074 73.207 95.7832C73.207 94.9668 73.041 94.3477 72.709 93.9258C72.3809 93.5 71.8945 93.2871 71.25 93.2871C70.6133 93.2871 70.1328 93.4961 69.8086 93.9141C69.4844 94.332 69.3223 94.9551 69.3223 95.7832ZM83.1855 97.248C83.1855 97.8457 82.9629 98.3066 82.5176 98.6309C82.0723 98.9551 81.4473 99.1172 80.6426 99.1172C79.791 99.1172 79.127 98.9824 78.6504 98.7129V97.8105C78.959 97.9668 79.2891 98.0898 79.6406 98.1797C79.9961 98.2695 80.3379 98.3145 80.666 98.3145C81.1738 98.3145 81.5645 98.2344 81.8379 98.0742C82.1113 97.9102 82.248 97.6621 82.248 97.3301C82.248 97.0801 82.1387 96.8672 81.9199 96.6914C81.7051 96.5117 81.2832 96.3008 80.6543 96.0586C80.0566 95.8359 79.6309 95.6426 79.377 95.4785C79.127 95.3105 78.9395 95.1211 78.8145 94.9102C78.6934 94.6992 78.6328 94.4473 78.6328 94.1543C78.6328 93.6309 78.8457 93.2188 79.2715 92.918C79.6973 92.6133 80.2812 92.4609 81.0234 92.4609C81.7148 92.4609 82.3906 92.6016 83.0508 92.8828L82.7051 93.6738C82.0605 93.4082 81.4766 93.2754 80.9531 93.2754C80.4922 93.2754 80.1445 93.3477 79.9102 93.4922C79.6758 93.6367 79.5586 93.8359 79.5586 94.0898C79.5586 94.2617 79.6016 94.4082 79.6875 94.5293C79.7773 94.6504 79.9199 94.7656 80.1152 94.875C80.3105 94.9844 80.6855 95.1426 81.2402 95.3496C82.002 95.627 82.5156 95.9062 82.7812 96.1875C83.0508 96.4688 83.1855 96.8223 83.1855 97.248ZM85.7461 99H84.7734V92.5781H85.7461V99ZM84.6914 90.8379C84.6914 90.6152 84.7461 90.4531 84.8555 90.3516C84.9648 90.2461 85.1016 90.1934 85.2656 90.1934C85.4219 90.1934 85.5566 90.2461 85.6699 90.3516C85.7832 90.457 85.8398 90.6191 85.8398 90.8379C85.8398 91.0566 85.7832 91.2207 85.6699 91.3301C85.5566 91.4355 85.4219 91.4883 85.2656 91.4883C85.1016 91.4883 84.9648 91.4355 84.8555 91.3301C84.7461 91.2207 84.6914 91.0566 84.6914 90.8379ZM93.0645 92.5781V93.1934L91.875 93.334C91.9844 93.4707 92.082 93.6504 92.168 93.873C92.2539 94.0918 92.2969 94.3398 92.2969 94.6172C92.2969 95.2461 92.082 95.748 91.6523 96.123C91.2227 96.498 90.6328 96.6855 89.8828 96.6855C89.6914 96.6855 89.5117 96.6699 89.3438 96.6387C88.9297 96.8574 88.7227 97.1328 88.7227 97.4648C88.7227 97.6406 88.7949 97.7715 88.9395 97.8574C89.084 97.9395 89.332 97.9805 89.6836 97.9805H90.8203C91.5156 97.9805 92.0488 98.127 92.4199 98.4199C92.7949 98.7129 92.9824 99.1387 92.9824 99.6973C92.9824 100.408 92.6973 100.949 92.127 101.32C91.5566 101.695 90.7246 101.883 89.6309 101.883C88.791 101.883 88.1426 101.727 87.6855 101.414C87.2324 101.102 87.0059 100.66 87.0059 100.09C87.0059 99.6992 87.1309 99.3613 87.3809 99.0762C87.6309 98.791 87.9824 98.5977 88.4355 98.4961C88.2715 98.4219 88.1328 98.3066 88.0195 98.1504C87.9102 97.9941 87.8555 97.8125 87.8555 97.6055C87.8555 97.3711 87.918 97.166 88.043 96.9902C88.168 96.8145 88.3652 96.6445 88.6348 96.4805C88.3027 96.3438 88.0312 96.1113 87.8203 95.7832C87.6133 95.4551 87.5098 95.0801 87.5098 94.6582C87.5098 93.9551 87.7207 93.4141 88.1426 93.0352C88.5645 92.6523 89.1621 92.4609 89.9355 92.4609C90.2715 92.4609 90.5742 92.5 90.8438 92.5781H93.0645ZM87.9434 100.078C87.9434 100.426 88.0898 100.689 88.3828 100.869C88.6758 101.049 89.0957 101.139 89.6426 101.139C90.459 101.139 91.0625 101.016 91.4531 100.77C91.8477 100.527 92.0449 100.197 92.0449 99.7793C92.0449 99.4316 91.9375 99.1895 91.7227 99.0527C91.5078 98.9199 91.1035 98.8535 90.5098 98.8535H89.3438C88.9023 98.8535 88.5586 98.959 88.3125 99.1699C88.0664 99.3809 87.9434 99.6836 87.9434 100.078ZM88.4707 94.6348C88.4707 95.084 88.5977 95.4238 88.8516 95.6543C89.1055 95.8848 89.459 96 89.9121 96C90.8613 96 91.3359 95.5391 91.3359 94.6172C91.3359 93.6523 90.8555 93.1699 89.8945 93.1699C89.4375 93.1699 89.0859 93.293 88.8398 93.5391C88.5938 93.7852 88.4707 94.1504 88.4707 94.6348ZM95.2969 92.5781V96.7441C95.2969 97.2676 95.416 97.6582 95.6543 97.916C95.8926 98.1738 96.2656 98.3027 96.7734 98.3027C97.4453 98.3027 97.9355 98.1191 98.2441 97.752C98.5566 97.3848 98.7129 96.7852 98.7129 95.9531V92.5781H99.6855V99H98.8828L98.7422 98.1387H98.6895C98.4902 98.4551 98.2129 98.6973 97.8574 98.8652C97.5059 99.0332 97.1035 99.1172 96.6504 99.1172C95.8691 99.1172 95.2832 98.9316 94.8926 98.5605C94.5059 98.1895 94.3125 97.5957 94.3125 96.7793V92.5781H95.2969ZM102.727 99H101.754V92.5781H102.727V99ZM101.672 90.8379C101.672 90.6152 101.727 90.4531 101.836 90.3516C101.945 90.2461 102.082 90.1934 102.246 90.1934C102.402 90.1934 102.537 90.2461 102.65 90.3516C102.764 90.457 102.82 90.6191 102.82 90.8379C102.82 91.0566 102.764 91.2207 102.65 91.3301C102.537 91.4355 102.402 91.4883 102.246 91.4883C102.082 91.4883 101.945 91.4355 101.836 91.3301C101.727 91.2207 101.672 91.0566 101.672 90.8379ZM107.502 99.1172C106.553 99.1172 105.803 98.8281 105.252 98.25C104.705 97.6719 104.432 96.8691 104.432 95.8418C104.432 94.8066 104.686 93.9844 105.193 93.375C105.705 92.7656 106.391 92.4609 107.25 92.4609C108.055 92.4609 108.691 92.7266 109.16 93.2578C109.629 93.7852 109.863 94.4824 109.863 95.3496V95.9648H105.439C105.459 96.7188 105.648 97.291 106.008 97.6816C106.371 98.0723 106.881 98.2676 107.537 98.2676C108.229 98.2676 108.912 98.123 109.588 97.834V98.7012C109.244 98.8496 108.918 98.9551 108.609 99.0176C108.305 99.084 107.936 99.1172 107.502 99.1172ZM107.238 93.2754C106.723 93.2754 106.311 93.4434 106.002 93.7793C105.697 94.1152 105.518 94.5801 105.463 95.1738H108.82C108.82 94.5605 108.684 94.0918 108.41 93.7676C108.137 93.4395 107.746 93.2754 107.238 93.2754ZM115.922 99V94.8457C115.922 94.3223 115.803 93.9316 115.564 93.6738C115.326 93.416 114.953 93.2871 114.445 93.2871C113.773 93.2871 113.281 93.4688 112.969 93.832C112.656 94.1953 112.5 94.7949 112.5 95.6309V99H111.527V92.5781H112.318L112.477 93.457H112.523C112.723 93.1406 113.002 92.8965 113.361 92.7246C113.721 92.5488 114.121 92.4609 114.562 92.4609C115.336 92.4609 115.918 92.6484 116.309 93.0234C116.699 93.3945 116.895 93.9902 116.895 94.8105V99H115.922ZM120.973 98.3145C121.145 98.3145 121.311 98.3027 121.471 98.2793C121.631 98.252 121.758 98.2246 121.852 98.1973V98.9414C121.746 98.9922 121.59 99.0332 121.383 99.0645C121.18 99.0996 120.996 99.1172 120.832 99.1172C119.59 99.1172 118.969 98.4629 118.969 97.1543V93.334H118.049V92.8652L118.969 92.4609L119.379 91.0898H119.941V92.5781H121.805V93.334H119.941V97.1133C119.941 97.5 120.033 97.7969 120.217 98.0039C120.4 98.2109 120.652 98.3145 120.973 98.3145ZM125.854 99.1172C124.904 99.1172 124.154 98.8281 123.604 98.25C123.057 97.6719 122.783 96.8691 122.783 95.8418C122.783 94.8066 123.037 93.9844 123.545 93.375C124.057 92.7656 124.742 92.4609 125.602 92.4609C126.406 92.4609 127.043 92.7266 127.512 93.2578C127.98 93.7852 128.215 94.4824 128.215 95.3496V95.9648H123.791C123.811 96.7188 124 97.291 124.359 97.6816C124.723 98.0723 125.232 98.2676 125.889 98.2676C126.58 98.2676 127.264 98.123 127.939 97.834V98.7012C127.596 98.8496 127.27 98.9551 126.961 99.0176C126.656 99.084 126.287 99.1172 125.854 99.1172ZM125.59 93.2754C125.074 93.2754 124.662 93.4434 124.354 93.7793C124.049 94.1152 123.869 94.5801 123.814 95.1738H127.172C127.172 94.5605 127.035 94.0918 126.762 93.7676C126.488 93.4395 126.098 93.2754 125.59 93.2754ZM129.738 98.3789C129.738 98.1172 129.797 97.9199 129.914 97.7871C130.035 97.6504 130.207 97.582 130.43 97.582C130.656 97.582 130.832 97.6504 130.957 97.7871C131.086 97.9199 131.15 98.1172 131.15 98.3789C131.15 98.6328 131.086 98.8281 130.957 98.9648C130.828 99.1016 130.652 99.1699 130.43 99.1699C130.23 99.1699 130.064 99.1094 129.932 98.9883C129.803 98.8633 129.738 98.6602 129.738 98.3789ZM129.738 93.2051C129.738 92.6777 129.969 92.4141 130.43 92.4141C130.91 92.4141 131.15 92.6777 131.15 93.2051C131.15 93.459 131.086 93.6543 130.957 93.791C130.828 93.9277 130.652 93.9961 130.43 93.9961C130.23 93.9961 130.064 93.9355 129.932 93.8145C129.803 93.6895 129.738 93.4863 129.738 93.2051ZM143.033 99H141.896L137.215 91.8105H137.168C137.23 92.6543 137.262 93.4277 137.262 94.1309V99H136.342V90.4336H137.467L142.137 97.5938H142.184C142.176 97.4883 142.158 97.1504 142.131 96.5801C142.104 96.0059 142.094 95.5957 142.102 95.3496V90.4336H143.033V99ZM150.785 95.7832C150.785 96.8301 150.521 97.6484 149.994 98.2383C149.467 98.8242 148.738 99.1172 147.809 99.1172C147.234 99.1172 146.725 98.9824 146.279 98.7129C145.834 98.4434 145.49 98.0566 145.248 97.5527C145.006 97.0488 144.885 96.459 144.885 95.7832C144.885 94.7363 145.146 93.9219 145.67 93.3398C146.193 92.7539 146.92 92.4609 147.85 92.4609C148.748 92.4609 149.461 92.7598 149.988 93.3574C150.52 93.9551 150.785 94.7637 150.785 95.7832ZM145.893 95.7832C145.893 96.6035 146.057 97.2285 146.385 97.6582C146.713 98.0879 147.195 98.3027 147.832 98.3027C148.469 98.3027 148.951 98.0898 149.279 97.6641C149.611 97.2344 149.777 96.6074 149.777 95.7832C149.777 94.9668 149.611 94.3477 149.279 93.9258C148.951 93.5 148.465 93.2871 147.82 93.2871C147.184 93.2871 146.703 93.4961 146.379 93.9141C146.055 94.332 145.893 94.9551 145.893 95.7832ZM160.682 99V94.8223C160.682 94.3105 160.572 93.9277 160.354 93.6738C160.135 93.416 159.795 93.2871 159.334 93.2871C158.729 93.2871 158.281 93.4609 157.992 93.8086C157.703 94.1562 157.559 94.6914 157.559 95.4141V99H156.586V94.8223C156.586 94.3105 156.477 93.9277 156.258 93.6738C156.039 93.416 155.697 93.2871 155.232 93.2871C154.623 93.2871 154.176 93.4707 153.891 93.8379C153.609 94.2012 153.469 94.7988 153.469 95.6309V99H152.496V92.5781H153.287L153.445 93.457H153.492C153.676 93.1445 153.934 92.9004 154.266 92.7246C154.602 92.5488 154.977 92.4609 155.391 92.4609C156.395 92.4609 157.051 92.8242 157.359 93.5508H157.406C157.598 93.2148 157.875 92.9492 158.238 92.7539C158.602 92.5586 159.016 92.4609 159.48 92.4609C160.207 92.4609 160.75 92.6484 161.109 93.0234C161.473 93.3945 161.654 93.9902 161.654 94.8105V99H160.682ZM166.652 92.4727C167.496 92.4727 168.15 92.7617 168.615 93.3398C169.084 93.9141 169.318 94.7285 169.318 95.7832C169.318 96.8379 169.082 97.6582 168.609 98.2441C168.141 98.8262 167.488 99.1172 166.652 99.1172C166.234 99.1172 165.852 99.041 165.504 98.8887C165.16 98.7324 164.871 98.4941 164.637 98.1738H164.566L164.361 99H163.664V89.8828H164.637V92.0977C164.637 92.5938 164.621 93.0391 164.59 93.4336H164.637C165.09 92.793 165.762 92.4727 166.652 92.4727ZM166.512 93.2871C165.848 93.2871 165.369 93.4785 165.076 93.8613C164.783 94.2402 164.637 94.8809 164.637 95.7832C164.637 96.6855 164.787 97.332 165.088 97.7227C165.389 98.1094 165.871 98.3027 166.535 98.3027C167.133 98.3027 167.578 98.0859 167.871 97.6523C168.164 97.2148 168.311 96.5879 168.311 95.7715C168.311 94.9355 168.164 94.3125 167.871 93.9023C167.578 93.4922 167.125 93.2871 166.512 93.2871ZM173.953 92.4609C174.238 92.4609 174.494 92.4844 174.721 92.5312L174.586 93.4336C174.32 93.375 174.086 93.3457 173.883 93.3457C173.363 93.3457 172.918 93.5566 172.547 93.9785C172.18 94.4004 171.996 94.9258 171.996 95.5547V99H171.023V92.5781H171.826L171.938 93.7676H171.984C172.223 93.3496 172.51 93.0273 172.846 92.8008C173.182 92.5742 173.551 92.4609 173.953 92.4609ZM178.635 99.1172C177.686 99.1172 176.936 98.8281 176.385 98.25C175.838 97.6719 175.564 96.8691 175.564 95.8418C175.564 94.8066 175.818 93.9844 176.326 93.375C176.838 92.7656 177.523 92.4609 178.383 92.4609C179.188 92.4609 179.824 92.7266 180.293 93.2578C180.762 93.7852 180.996 94.4824 180.996 95.3496V95.9648H176.572C176.592 96.7188 176.781 97.291 177.141 97.6816C177.504 98.0723 178.014 98.2676 178.67 98.2676C179.361 98.2676 180.045 98.123 180.721 97.834V98.7012C180.377 98.8496 180.051 98.9551 179.742 99.0176C179.438 99.084 179.068 99.1172 178.635 99.1172ZM178.371 93.2754C177.855 93.2754 177.443 93.4434 177.135 93.7793C176.83 94.1152 176.65 94.5801 176.596 95.1738H179.953C179.953 94.5605 179.816 94.0918 179.543 93.7676C179.27 93.4395 178.879 93.2754 178.371 93.2754ZM190.148 98.1387H190.096C189.646 98.791 188.975 99.1172 188.08 99.1172C187.24 99.1172 186.586 98.8301 186.117 98.2559C185.652 97.6816 185.42 96.8652 185.42 95.8066C185.42 94.748 185.654 93.9258 186.123 93.3398C186.592 92.7539 187.244 92.4609 188.08 92.4609C188.951 92.4609 189.619 92.7773 190.084 93.4102H190.16L190.119 92.9473L190.096 92.4961V89.8828H191.068V99H190.277L190.148 98.1387ZM188.203 98.3027C188.867 98.3027 189.348 98.123 189.645 97.7637C189.945 97.4004 190.096 96.8164 190.096 96.0117V95.8066C190.096 94.8965 189.943 94.248 189.639 93.8613C189.338 93.4707 188.855 93.2754 188.191 93.2754C187.621 93.2754 187.184 93.498 186.879 93.9434C186.578 94.3848 186.428 95.0098 186.428 95.8184C186.428 96.6387 186.578 97.2578 186.879 97.6758C187.18 98.0938 187.621 98.3027 188.203 98.3027ZM195.85 99.1172C194.9 99.1172 194.15 98.8281 193.6 98.25C193.053 97.6719 192.779 96.8691 192.779 95.8418C192.779 94.8066 193.033 93.9844 193.541 93.375C194.053 92.7656 194.738 92.4609 195.598 92.4609C196.402 92.4609 197.039 92.7266 197.508 93.2578C197.977 93.7852 198.211 94.4824 198.211 95.3496V95.9648H193.787C193.807 96.7188 193.996 97.291 194.355 97.6816C194.719 98.0723 195.229 98.2676 195.885 98.2676C196.576 98.2676 197.26 98.123 197.936 97.834V98.7012C197.592 98.8496 197.266 98.9551 196.957 99.0176C196.652 99.084 196.283 99.1172 195.85 99.1172ZM195.586 93.2754C195.07 93.2754 194.658 93.4434 194.35 93.7793C194.045 94.1152 193.865 94.5801 193.811 95.1738H197.168C197.168 94.5605 197.031 94.0918 196.758 93.7676C196.484 93.4395 196.094 93.2754 195.586 93.2754ZM200.848 99H199.875V89.8828H200.848V99ZM209.016 99.1172C208.598 99.1172 208.215 99.041 207.867 98.8887C207.523 98.7324 207.234 98.4941 207 98.1738H206.93C206.977 98.5488 207 98.9043 207 99.2402V101.883H206.027V92.5781H206.818L206.953 93.457H207C207.25 93.1055 207.541 92.8516 207.873 92.6953C208.205 92.5391 208.586 92.4609 209.016 92.4609C209.867 92.4609 210.523 92.752 210.984 93.334C211.449 93.916 211.682 94.7324 211.682 95.7832C211.682 96.8379 211.445 97.6582 210.973 98.2441C210.504 98.8262 209.852 99.1172 209.016 99.1172ZM208.875 93.2871C208.219 93.2871 207.744 93.4688 207.451 93.832C207.158 94.1953 207.008 94.7734 207 95.5664V95.7832C207 96.6855 207.15 97.332 207.451 97.7227C207.752 98.1094 208.234 98.3027 208.898 98.3027C209.453 98.3027 209.887 98.0781 210.199 97.6289C210.516 97.1797 210.674 96.5605 210.674 95.7715C210.674 94.9707 210.516 94.3574 210.199 93.9316C209.887 93.502 209.445 93.2871 208.875 93.2871ZM217.336 99L217.143 98.0859H217.096C216.775 98.4883 216.455 98.7617 216.135 98.9062C215.818 99.0469 215.422 99.1172 214.945 99.1172C214.309 99.1172 213.809 98.9531 213.445 98.625C213.086 98.2969 212.906 97.8301 212.906 97.2246C212.906 95.9277 213.943 95.248 216.018 95.1855L217.107 95.1504V94.752C217.107 94.248 216.998 93.877 216.779 93.6387C216.564 93.3965 216.219 93.2754 215.742 93.2754C215.207 93.2754 214.602 93.4395 213.926 93.7676L213.627 93.0234C213.943 92.8516 214.289 92.7168 214.664 92.6191C215.043 92.5215 215.422 92.4727 215.801 92.4727C216.566 92.4727 217.133 92.6426 217.5 92.9824C217.871 93.3223 218.057 93.8672 218.057 94.6172V99H217.336ZM215.139 98.3145C215.744 98.3145 216.219 98.1484 216.562 97.8164C216.91 97.4844 217.084 97.0195 217.084 96.4219V95.8418L216.111 95.8828C215.338 95.9102 214.779 96.0312 214.436 96.2461C214.096 96.457 213.926 96.7871 213.926 97.2363C213.926 97.5879 214.031 97.8555 214.242 98.0391C214.457 98.2227 214.756 98.3145 215.139 98.3145ZM224.209 97.248C224.209 97.8457 223.986 98.3066 223.541 98.6309C223.096 98.9551 222.471 99.1172 221.666 99.1172C220.814 99.1172 220.15 98.9824 219.674 98.7129V97.8105C219.982 97.9668 220.312 98.0898 220.664 98.1797C221.02 98.2695 221.361 98.3145 221.689 98.3145C222.197 98.3145 222.588 98.2344 222.861 98.0742C223.135 97.9102 223.271 97.6621 223.271 97.3301C223.271 97.0801 223.162 96.8672 222.943 96.6914C222.729 96.5117 222.307 96.3008 221.678 96.0586C221.08 95.8359 220.654 95.6426 220.4 95.4785C220.15 95.3105 219.963 95.1211 219.838 94.9102C219.717 94.6992 219.656 94.4473 219.656 94.1543C219.656 93.6309 219.869 93.2188 220.295 92.918C220.721 92.6133 221.305 92.4609 222.047 92.4609C222.738 92.4609 223.414 92.6016 224.074 92.8828L223.729 93.6738C223.084 93.4082 222.5 93.2754 221.977 93.2754C221.516 93.2754 221.168 93.3477 220.934 93.4922C220.699 93.6367 220.582 93.8359 220.582 94.0898C220.582 94.2617 220.625 94.4082 220.711 94.5293C220.801 94.6504 220.943 94.7656 221.139 94.875C221.334 94.9844 221.709 95.1426 222.264 95.3496C223.025 95.627 223.539 95.9062 223.805 96.1875C224.074 96.4688 224.209 96.8223 224.209 97.248ZM231.34 95.7832C231.34 96.8301 231.076 97.6484 230.549 98.2383C230.021 98.8242 229.293 99.1172 228.363 99.1172C227.789 99.1172 227.279 98.9824 226.834 98.7129C226.389 98.4434 226.045 98.0566 225.803 97.5527C225.561 97.0488 225.439 96.459 225.439 95.7832C225.439 94.7363 225.701 93.9219 226.225 93.3398C226.748 92.7539 227.475 92.4609 228.404 92.4609C229.303 92.4609 230.016 92.7598 230.543 93.3574C231.074 93.9551 231.34 94.7637 231.34 95.7832ZM226.447 95.7832C226.447 96.6035 226.611 97.2285 226.939 97.6582C227.268 98.0879 227.75 98.3027 228.387 98.3027C229.023 98.3027 229.506 98.0898 229.834 97.6641C230.166 97.2344 230.332 96.6074 230.332 95.7832C230.332 94.9668 230.166 94.3477 229.834 93.9258C229.506 93.5 229.02 93.2871 228.375 93.2871C227.738 93.2871 227.258 93.4961 226.934 93.9141C226.609 94.332 226.447 94.9551 226.447 95.7832ZM241.354 99H235.723V98.1621L237.979 95.8945C238.666 95.1992 239.119 94.7031 239.338 94.4062C239.557 94.1094 239.721 93.8203 239.83 93.5391C239.939 93.2578 239.994 92.9551 239.994 92.6309C239.994 92.1738 239.855 91.8125 239.578 91.5469C239.301 91.2773 238.916 91.1426 238.424 91.1426C238.068 91.1426 237.73 91.2012 237.41 91.3184C237.094 91.4355 236.74 91.6484 236.35 91.957L235.834 91.2949C236.623 90.6387 237.482 90.3105 238.412 90.3105C239.217 90.3105 239.848 90.5176 240.305 90.9316C240.762 91.3418 240.99 91.8945 240.99 92.5898C240.99 93.1328 240.838 93.6699 240.533 94.2012C240.229 94.7324 239.658 95.4043 238.822 96.2168L236.947 98.0508V98.0977H241.354V99Z" fill="#38485C"/>
<path d="M52 124C54.2091 124 56 122.209 56 120C56 117.791 54.2091 116 52 116C49.7909 116 48 117.791 48 120C48 122.209 49.7909 124 52 124Z" fill="#38485C"/>
<path d="M65.5 120C65.5 121.933 63.933 123.5 62 123.5C60.067 123.5 58.5 121.933 58.5 120C58.5 118.067 60.067 116.5 62 116.5C63.933 116.5 65.5 118.067 65.5 120Z" stroke="#38485C"/>
<path d="M75.5 120C75.5 121.933 73.933 123.5 72 123.5C70.067 123.5 68.5 121.933 68.5 120C68.5 118.067 70.067 116.5 72 116.5C73.933 116.5 75.5 118.067 75.5 120Z" stroke="#38485C"/>
<path d="M85.5 120C85.5 121.933 83.933 123.5 82 123.5C80.067 123.5 78.5 121.933 78.5 120C78.5 118.067 80.067 116.5 82 116.5C83.933 116.5 85.5 118.067 85.5 120Z" stroke="#38485C"/>
<path d="M95.5 120C95.5 121.933 93.933 123.5 92 123.5C90.067 123.5 88.5 121.933 88.5 120C88.5 118.067 90.067 116.5 92 116.5C93.933 116.5 95.5 118.067 95.5 120Z" stroke="#38485C"/>
<path d="M110.609 118.93C110.609 119.797 110.312 120.465 109.719 120.934C109.129 121.398 108.283 121.631 107.182 121.631H106.174V125H105.178V116.434H107.398C109.539 116.434 110.609 117.266 110.609 118.93ZM106.174 120.775H107.07C107.953 120.775 108.592 120.633 108.986 120.348C109.381 120.062 109.578 119.605 109.578 118.977C109.578 118.41 109.393 117.988 109.021 117.711C108.65 117.434 108.072 117.295 107.287 117.295H106.174V120.775ZM116.211 125L116.018 124.086H115.971C115.65 124.488 115.33 124.762 115.01 124.906C114.693 125.047 114.297 125.117 113.82 125.117C113.184 125.117 112.684 124.953 112.32 124.625C111.961 124.297 111.781 123.83 111.781 123.225C111.781 121.928 112.818 121.248 114.893 121.186L115.982 121.15V120.752C115.982 120.248 115.873 119.877 115.654 119.639C115.439 119.396 115.094 119.275 114.617 119.275C114.082 119.275 113.477 119.439 112.801 119.768L112.502 119.023C112.818 118.852 113.164 118.717 113.539 118.619C113.918 118.521 114.297 118.473 114.676 118.473C115.441 118.473 116.008 118.643 116.375 118.982C116.746 119.322 116.932 119.867 116.932 120.617V125H116.211ZM114.014 124.314C114.619 124.314 115.094 124.148 115.438 123.816C115.785 123.484 115.959 123.02 115.959 122.422V121.842L114.986 121.883C114.213 121.91 113.654 122.031 113.311 122.246C112.971 122.457 112.801 122.787 112.801 123.236C112.801 123.588 112.906 123.855 113.117 124.039C113.332 124.223 113.631 124.314 114.014 124.314ZM123.084 123.248C123.084 123.846 122.861 124.307 122.416 124.631C121.971 124.955 121.346 125.117 120.541 125.117C119.689 125.117 119.025 124.982 118.549 124.713V123.811C118.857 123.967 119.188 124.09 119.539 124.18C119.895 124.27 120.236 124.314 120.564 124.314C121.072 124.314 121.463 124.234 121.736 124.074C122.01 123.91 122.146 123.662 122.146 123.33C122.146 123.08 122.037 122.867 121.818 122.691C121.604 122.512 121.182 122.301 120.553 122.059C119.955 121.836 119.529 121.643 119.275 121.479C119.025 121.311 118.838 121.121 118.713 120.91C118.592 120.699 118.531 120.447 118.531 120.154C118.531 119.631 118.744 119.219 119.17 118.918C119.596 118.613 120.18 118.461 120.922 118.461C121.613 118.461 122.289 118.602 122.949 118.883L122.604 119.674C121.959 119.408 121.375 119.275 120.852 119.275C120.391 119.275 120.043 119.348 119.809 119.492C119.574 119.637 119.457 119.836 119.457 120.09C119.457 120.262 119.5 120.408 119.586 120.529C119.676 120.65 119.818 120.766 120.014 120.875C120.209 120.984 120.584 121.143 121.139 121.35C121.9 121.627 122.414 121.906 122.68 122.188C122.949 122.469 123.084 122.822 123.084 123.248ZM130.215 121.783C130.215 122.83 129.951 123.648 129.424 124.238C128.896 124.824 128.168 125.117 127.238 125.117C126.664 125.117 126.154 124.982 125.709 124.713C125.264 124.443 124.92 124.057 124.678 123.553C124.436 123.049 124.314 122.459 124.314 121.783C124.314 120.736 124.576 119.922 125.1 119.34C125.623 118.754 126.35 118.461 127.279 118.461C128.178 118.461 128.891 118.76 129.418 119.357C129.949 119.955 130.215 120.764 130.215 121.783ZM125.322 121.783C125.322 122.604 125.486 123.229 125.814 123.658C126.143 124.088 126.625 124.303 127.262 124.303C127.898 124.303 128.381 124.09 128.709 123.664C129.041 123.234 129.207 122.607 129.207 121.783C129.207 120.967 129.041 120.348 128.709 119.926C128.381 119.5 127.895 119.287 127.25 119.287C126.613 119.287 126.133 119.496 125.809 119.914C125.484 120.332 125.322 120.955 125.322 121.783ZM138.201 125H137.252V118.895C137.252 118.387 137.268 117.906 137.299 117.453C137.217 117.535 137.125 117.621 137.023 117.711C136.922 117.801 136.457 118.182 135.629 118.854L135.113 118.186L137.381 116.434H138.201V125ZM149.398 124.139H149.346C148.896 124.791 148.225 125.117 147.33 125.117C146.49 125.117 145.836 124.83 145.367 124.256C144.902 123.682 144.67 122.865 144.67 121.807C144.67 120.748 144.904 119.926 145.373 119.34C145.842 118.754 146.494 118.461 147.33 118.461C148.201 118.461 148.869 118.777 149.334 119.41H149.41L149.369 118.947L149.346 118.496V115.883H150.318V125H149.527L149.398 124.139ZM147.453 124.303C148.117 124.303 148.598 124.123 148.895 123.764C149.195 123.4 149.346 122.816 149.346 122.012V121.807C149.346 120.896 149.193 120.248 148.889 119.861C148.588 119.471 148.105 119.275 147.441 119.275C146.871 119.275 146.434 119.498 146.129 119.943C145.828 120.385 145.678 121.01 145.678 121.818C145.678 122.639 145.828 123.258 146.129 123.676C146.43 124.094 146.871 124.303 147.453 124.303ZM155.1 125.117C154.15 125.117 153.4 124.828 152.85 124.25C152.303 123.672 152.029 122.869 152.029 121.842C152.029 120.807 152.283 119.984 152.791 119.375C153.303 118.766 153.988 118.461 154.848 118.461C155.652 118.461 156.289 118.727 156.758 119.258C157.227 119.785 157.461 120.482 157.461 121.35V121.965H153.037C153.057 122.719 153.246 123.291 153.605 123.682C153.969 124.072 154.479 124.268 155.135 124.268C155.826 124.268 156.51 124.123 157.186 123.834V124.701C156.842 124.85 156.516 124.955 156.207 125.018C155.902 125.084 155.533 125.117 155.1 125.117ZM154.836 119.275C154.32 119.275 153.908 119.443 153.6 119.779C153.295 120.115 153.115 120.58 153.061 121.174H156.418C156.418 120.561 156.281 120.092 156.008 119.768C155.734 119.439 155.344 119.275 154.836 119.275ZM164.475 119.768C165.377 119.768 166.086 119.992 166.602 120.441C167.121 120.887 167.381 121.498 167.381 122.275C167.381 123.162 167.098 123.857 166.531 124.361C165.969 124.865 165.191 125.117 164.199 125.117C163.234 125.117 162.498 124.963 161.99 124.654V123.717C162.264 123.893 162.604 124.031 163.01 124.133C163.416 124.23 163.816 124.279 164.211 124.279C164.898 124.279 165.432 124.117 165.811 123.793C166.193 123.469 166.385 123 166.385 122.387C166.385 121.191 165.652 120.594 164.188 120.594C163.816 120.594 163.32 120.65 162.699 120.764L162.195 120.441L162.518 116.434H166.777V117.33H163.35L163.133 119.902C163.582 119.812 164.029 119.768 164.475 119.768Z" fill="#38485C"/>
</svg>
