<svg width="340" height="190" viewBox="0 0 340 190" fill="none" xmlns="http://www.w3.org/2000/svg">
<rect width="340" height="190" fill="#F3F6F9"/>
<path fill-rule="evenodd" clip-rule="evenodd" d="M170 119C183.255 119 194 108.255 194 95C194 81.7452 183.255 71 170 71C156.745 71 146 81.7452 146 95C146 108.255 156.745 119 170 119ZM170 113C179.941 113 188 104.941 188 95C188 85.0589 179.941 77 170 77C160.059 77 152 85.0589 152 95C152 104.941 160.059 113 170 113Z" fill="#E6EBF0"/>
<path fill-rule="evenodd" clip-rule="evenodd" d="M189.955 81.6663C192.592 85.6131 194 90.2533 194 95C194 96.6569 192.657 98 191 98C189.343 98 188 96.6569 188 95C188 94.9985 188 94.997 188 94.9955C187.998 85.0565 179.94 77 170 77C160.059 77 152 85.0589 152 95C152 104.938 160.053 112.995 169.99 113L170 113C171.657 113 173 114.343 173 116C173 117.657 171.657 119 170 119C165.253 119 160.613 117.592 156.666 114.955C152.72 112.318 149.643 108.57 147.827 104.184C146.01 99.799 145.535 94.9734 146.461 90.3178C147.387 85.6623 149.673 81.3859 153.029 78.0294C156.386 74.673 160.662 72.3872 165.318 71.4612C169.973 70.5351 174.799 71.0104 179.184 72.8269C183.57 74.6434 187.318 77.7195 189.955 81.6663Z" fill="#007BC7"/>
</svg>
