<svg width="340" height="190" viewBox="0 0 340 190" fill="none" xmlns="http://www.w3.org/2000/svg">
<rect width="340" height="190" fill="#F3F6F9"/>
<rect width="48" height="24" rx="12" transform="matrix(-1 0 0 1 173.5 60)" fill="#007BC7"/>
<circle cx="9" cy="9" r="9" transform="matrix(-1 0 0 1 171.5 63)" fill="white"/>
<path d="M182.776 77V67.7197H183.855V76.0225H187.949V77H182.776ZM193.649 77L193.44 76.0098H193.389C193.042 76.4456 192.695 76.7419 192.348 76.8984C192.005 77.0508 191.576 77.127 191.06 77.127C190.37 77.127 189.828 76.9492 189.435 76.5938C189.045 76.2383 188.851 75.7326 188.851 75.0767C188.851 73.6717 189.974 72.9354 192.221 72.8677L193.402 72.8296V72.3979C193.402 71.8521 193.283 71.45 193.046 71.1919C192.814 70.9295 192.439 70.7983 191.923 70.7983C191.343 70.7983 190.687 70.9761 189.955 71.3315L189.631 70.5254C189.974 70.3392 190.349 70.1932 190.755 70.0874C191.165 69.9816 191.576 69.9287 191.986 69.9287C192.816 69.9287 193.429 70.1128 193.827 70.481C194.229 70.8491 194.43 71.4395 194.43 72.252V77H193.649ZM191.269 76.2573C191.925 76.2573 192.439 76.0775 192.812 75.7178C193.188 75.3581 193.376 74.8545 193.376 74.207V73.5786L192.323 73.623C191.485 73.6527 190.88 73.7839 190.507 74.0166C190.139 74.2451 189.955 74.6027 189.955 75.0894C189.955 75.4702 190.069 75.7601 190.298 75.959C190.531 76.1579 190.854 76.2573 191.269 76.2573ZM199.845 69.9287C200.759 69.9287 201.468 70.2419 201.971 70.8682C202.479 71.4902 202.733 72.3726 202.733 73.5151C202.733 74.6577 202.477 75.5464 201.965 76.1812C201.457 76.8117 200.75 77.127 199.845 77.127C199.392 77.127 198.977 77.0444 198.601 76.8794C198.228 76.7101 197.915 76.452 197.661 76.105H197.585L197.363 77H196.607V67.123H197.661V69.5225C197.661 70.0599 197.644 70.5423 197.61 70.9697H197.661C198.152 70.2757 198.88 69.9287 199.845 69.9287ZM199.692 70.811C198.973 70.811 198.455 71.0184 198.137 71.4331C197.82 71.8436 197.661 72.5376 197.661 73.5151C197.661 74.4927 197.824 75.193 198.15 75.6162C198.476 76.0352 198.998 76.2446 199.718 76.2446C200.365 76.2446 200.848 76.0098 201.165 75.54C201.482 75.0661 201.641 74.3869 201.641 73.5024C201.641 72.5968 201.482 71.9219 201.165 71.4775C200.848 71.0332 200.357 70.811 199.692 70.811ZM207.519 77.127C206.491 77.127 205.678 76.8138 205.082 76.1875C204.489 75.5612 204.193 74.6916 204.193 73.5786C204.193 72.4572 204.468 71.5664 205.018 70.9062C205.572 70.2461 206.315 69.916 207.246 69.916C208.118 69.916 208.808 70.2038 209.315 70.7793C209.823 71.3506 210.077 72.106 210.077 73.0454V73.7119H205.285C205.306 74.5286 205.511 75.1486 205.9 75.5718C206.294 75.995 206.846 76.2065 207.557 76.2065C208.306 76.2065 209.047 76.05 209.779 75.7368V76.6763C209.406 76.8371 209.053 76.9513 208.719 77.019C208.389 77.091 207.989 77.127 207.519 77.127ZM207.233 70.7983C206.675 70.7983 206.228 70.9803 205.894 71.3442C205.564 71.7082 205.369 72.2118 205.31 72.855H208.947C208.947 72.1906 208.799 71.6828 208.503 71.3315C208.207 70.9761 207.784 70.7983 207.233 70.7983ZM212.934 77H211.88V67.123H212.934V77Z" fill="#38485C"/>
<rect x="125.5" y="106" width="48" height="24" rx="12" fill="#9EAAB8"/>
<circle cx="136.5" cy="118" r="9" fill="white"/>
<path d="M182.776 123V113.72H183.855V122.022H187.949V123H182.776ZM193.649 123L193.44 122.01H193.389C193.042 122.446 192.695 122.742 192.348 122.898C192.005 123.051 191.576 123.127 191.06 123.127C190.37 123.127 189.828 122.949 189.435 122.594C189.045 122.238 188.851 121.733 188.851 121.077C188.851 119.672 189.974 118.935 192.221 118.868L193.402 118.83V118.398C193.402 117.852 193.283 117.45 193.046 117.192C192.814 116.93 192.439 116.798 191.923 116.798C191.343 116.798 190.687 116.976 189.955 117.332L189.631 116.525C189.974 116.339 190.349 116.193 190.755 116.087C191.165 115.982 191.576 115.929 191.986 115.929C192.816 115.929 193.429 116.113 193.827 116.481C194.229 116.849 194.43 117.439 194.43 118.252V123H193.649ZM191.269 122.257C191.925 122.257 192.439 122.077 192.812 121.718C193.188 121.358 193.376 120.854 193.376 120.207V119.579L192.323 119.623C191.485 119.653 190.88 119.784 190.507 120.017C190.139 120.245 189.955 120.603 189.955 121.089C189.955 121.47 190.069 121.76 190.298 121.959C190.531 122.158 190.854 122.257 191.269 122.257ZM199.845 115.929C200.759 115.929 201.468 116.242 201.971 116.868C202.479 117.49 202.733 118.373 202.733 119.515C202.733 120.658 202.477 121.546 201.965 122.181C201.457 122.812 200.75 123.127 199.845 123.127C199.392 123.127 198.977 123.044 198.601 122.879C198.228 122.71 197.915 122.452 197.661 122.105H197.585L197.363 123H196.607V113.123H197.661V115.522C197.661 116.06 197.644 116.542 197.61 116.97H197.661C198.152 116.276 198.88 115.929 199.845 115.929ZM199.692 116.811C198.973 116.811 198.455 117.018 198.137 117.433C197.82 117.844 197.661 118.538 197.661 119.515C197.661 120.493 197.824 121.193 198.15 121.616C198.476 122.035 198.998 122.245 199.718 122.245C200.365 122.245 200.848 122.01 201.165 121.54C201.482 121.066 201.641 120.387 201.641 119.502C201.641 118.597 201.482 117.922 201.165 117.478C200.848 117.033 200.357 116.811 199.692 116.811ZM207.519 123.127C206.491 123.127 205.678 122.814 205.082 122.188C204.489 121.561 204.193 120.692 204.193 119.579C204.193 118.457 204.468 117.566 205.018 116.906C205.572 116.246 206.315 115.916 207.246 115.916C208.118 115.916 208.808 116.204 209.315 116.779C209.823 117.351 210.077 118.106 210.077 119.045V119.712H205.285C205.306 120.529 205.511 121.149 205.9 121.572C206.294 121.995 206.846 122.207 207.557 122.207C208.306 122.207 209.047 122.05 209.779 121.737V122.676C209.406 122.837 209.053 122.951 208.719 123.019C208.389 123.091 207.989 123.127 207.519 123.127ZM207.233 116.798C206.675 116.798 206.228 116.98 205.894 117.344C205.564 117.708 205.369 118.212 205.31 118.855H208.947C208.947 118.191 208.799 117.683 208.503 117.332C208.207 116.976 207.784 116.798 207.233 116.798ZM212.934 123H211.88V113.123H212.934V123Z" fill="#38485C"/>
</svg>
