<svg width="340" height="190" viewBox="0 0 340 190" fill="none" xmlns="http://www.w3.org/2000/svg">
<rect width="340" height="190" fill="#F3F6F9"/>
<path d="M29.5 27C29.5 22.5817 33.0817 19 37.5 19H302.5C306.918 19 310.5 22.5817 310.5 27V67H29.5V27Z" fill="#E6EBF0"/>
<path d="M29.5 27C29.5 22.5817 33.0817 19 37.5 19H129.5V67H29.5V27Z" fill="#F3F6F9"/>
<path d="M49.3047 42.4062L48.9375 44.2188H50.9531V45.8281H48.6328L48.0312 49H46.3125L46.9219 45.8281H45.4062L44.8125 49H43.1328L43.7109 45.8281H41.8516V44.2188H44.0156L44.3828 42.4062H42.4141V40.7734H44.6719L45.2734 37.5938H46.9844L46.3828 40.7734H47.9297L48.5391 37.5938H50.2188L49.6094 40.7734H51.4844V42.4062H49.3047ZM45.7109 44.2188H47.2422L47.6094 42.4062H46.0781L45.7109 44.2188Z" fill="#38485C"/>
<rect width="125" height="48" transform="translate(129.5 19)" fill="#F3F6F9"/>
<path d="M149.516 49H142.938V37.5781H149.516V39.5625H145.359V42.0703H149.227V44.0547H145.359V47H149.516V49ZM159.781 49H157.398V43.8984C157.398 43.2682 157.286 42.7969 157.062 42.4844C156.839 42.1667 156.482 42.0078 155.992 42.0078C155.326 42.0078 154.844 42.2318 154.547 42.6797C154.25 43.1224 154.102 43.8594 154.102 44.8906V49H151.719V40.2656H153.539L153.859 41.3828H153.992C154.258 40.9609 154.622 40.6432 155.086 40.4297C155.555 40.2109 156.086 40.1016 156.68 40.1016C157.695 40.1016 158.466 40.3776 158.992 40.9297C159.518 41.4766 159.781 42.2682 159.781 43.3047V49ZM165.781 49.1562C163.062 49.1562 161.703 47.6641 161.703 44.6797C161.703 43.1953 162.073 42.0625 162.812 41.2812C163.552 40.4948 164.612 40.1016 165.992 40.1016C167.003 40.1016 167.909 40.2995 168.711 40.6953L168.008 42.5391C167.633 42.388 167.284 42.2656 166.961 42.1719C166.638 42.0729 166.315 42.0234 165.992 42.0234C164.753 42.0234 164.133 42.9036 164.133 44.6641C164.133 46.3724 164.753 47.2266 165.992 47.2266C166.451 47.2266 166.875 47.1667 167.266 47.0469C167.656 46.9219 168.047 46.7292 168.438 46.4688V48.5078C168.052 48.7526 167.661 48.9219 167.266 49.0156C166.875 49.1094 166.38 49.1562 165.781 49.1562ZM176.016 49L175.555 47.8125H175.492C175.091 48.3177 174.677 48.6693 174.25 48.8672C173.828 49.0599 173.276 49.1562 172.594 49.1562C171.755 49.1562 171.094 48.9167 170.609 48.4375C170.13 47.9583 169.891 47.276 169.891 46.3906C169.891 45.4635 170.214 44.7812 170.859 44.3438C171.51 43.901 172.49 43.6562 173.797 43.6094L175.312 43.5625V43.1797C175.312 42.2943 174.859 41.8516 173.953 41.8516C173.255 41.8516 172.435 42.0625 171.492 42.4844L170.703 40.875C171.708 40.349 172.823 40.0859 174.047 40.0859C175.219 40.0859 176.117 40.3411 176.742 40.8516C177.367 41.362 177.68 42.138 177.68 43.1797V49H176.016ZM175.312 44.9531L174.391 44.9844C173.698 45.0052 173.182 45.1302 172.844 45.3594C172.505 45.5885 172.336 45.9375 172.336 46.4062C172.336 47.0781 172.721 47.4141 173.492 47.4141C174.044 47.4141 174.484 47.2552 174.812 46.9375C175.146 46.6198 175.312 46.1979 175.312 45.6719V44.9531ZM185 40.1016C186.031 40.1016 186.839 40.5052 187.422 41.3125C188.005 42.1146 188.297 43.2161 188.297 44.6172C188.297 46.0599 187.995 47.1771 187.391 47.9688C186.792 48.7604 185.974 49.1562 184.938 49.1562C183.911 49.1562 183.107 48.7839 182.523 48.0391H182.359L181.961 49H180.141V36.8438H182.523V39.6719C182.523 40.0312 182.492 40.6068 182.43 41.3984H182.523C183.081 40.5339 183.906 40.1016 185 40.1016ZM184.234 42.0078C183.646 42.0078 183.216 42.1901 182.945 42.5547C182.674 42.9141 182.534 43.5104 182.523 44.3438V44.6016C182.523 45.5391 182.661 46.2109 182.938 46.6172C183.219 47.0234 183.661 47.2266 184.266 47.2266C184.755 47.2266 185.143 47.0026 185.43 46.5547C185.721 46.1016 185.867 45.4453 185.867 44.5859C185.867 43.7266 185.721 43.0833 185.43 42.6562C185.138 42.224 184.74 42.0078 184.234 42.0078ZM193.883 41.7969C193.378 41.7969 192.982 41.9583 192.695 42.2812C192.409 42.599 192.245 43.0521 192.203 43.6406H195.547C195.536 43.0521 195.383 42.599 195.086 42.2812C194.789 41.9583 194.388 41.7969 193.883 41.7969ZM194.219 49.1562C192.812 49.1562 191.714 48.7682 190.922 47.9922C190.13 47.2161 189.734 46.1172 189.734 44.6953C189.734 43.2318 190.099 42.1016 190.828 41.3047C191.562 40.5026 192.576 40.1016 193.867 40.1016C195.102 40.1016 196.062 40.4531 196.75 41.1562C197.438 41.8594 197.781 42.8307 197.781 44.0703V45.2266H192.148C192.174 45.9036 192.375 46.4323 192.75 46.8125C193.125 47.1927 193.651 47.3828 194.328 47.3828C194.854 47.3828 195.352 47.3281 195.82 47.2188C196.289 47.1094 196.779 46.9349 197.289 46.6953V48.5391C196.872 48.7474 196.427 48.901 195.953 49C195.479 49.1042 194.901 49.1562 194.219 49.1562ZM205.797 49H198.898V47.5938L202.945 42.0859H199.141V40.2656H205.656V41.8125L201.719 47.1797H205.797V49ZM213.078 49L212.617 47.8125H212.555C212.154 48.3177 211.74 48.6693 211.312 48.8672C210.891 49.0599 210.339 49.1562 209.656 49.1562C208.818 49.1562 208.156 48.9167 207.672 48.4375C207.193 47.9583 206.953 47.276 206.953 46.3906C206.953 45.4635 207.276 44.7812 207.922 44.3438C208.573 43.901 209.552 43.6562 210.859 43.6094L212.375 43.5625V43.1797C212.375 42.2943 211.922 41.8516 211.016 41.8516C210.318 41.8516 209.497 42.0625 208.555 42.4844L207.766 40.875C208.771 40.349 209.885 40.0859 211.109 40.0859C212.281 40.0859 213.18 40.3411 213.805 40.8516C214.43 41.362 214.742 42.138 214.742 43.1797V49H213.078ZM212.375 44.9531L211.453 44.9844C210.76 45.0052 210.245 45.1302 209.906 45.3594C209.568 45.5885 209.398 45.9375 209.398 46.4062C209.398 47.0781 209.784 47.4141 210.555 47.4141C211.107 47.4141 211.547 47.2552 211.875 46.9375C212.208 46.6198 212.375 46.1979 212.375 45.6719V44.9531ZM219.969 49.1562C218.943 49.1562 218.135 48.7578 217.547 47.9609C216.964 47.1641 216.672 46.0599 216.672 44.6484C216.672 43.2161 216.969 42.1016 217.562 41.3047C218.161 40.5026 218.984 40.1016 220.031 40.1016C221.13 40.1016 221.969 40.5286 222.547 41.3828H222.625C222.505 40.7318 222.445 40.151 222.445 39.6406V36.8438H224.836V49H223.008L222.547 47.8672H222.445C221.904 48.7266 221.078 49.1562 219.969 49.1562ZM220.805 47.2578C221.414 47.2578 221.859 47.0807 222.141 46.7266C222.427 46.3724 222.583 45.7708 222.609 44.9219V44.6641C222.609 43.7266 222.464 43.0547 222.172 42.6484C221.885 42.2422 221.417 42.0391 220.766 42.0391C220.234 42.0391 219.82 42.2656 219.523 42.7188C219.232 43.1667 219.086 43.8203 219.086 44.6797C219.086 45.5391 219.234 46.1849 219.531 46.6172C219.828 47.0443 220.253 47.2578 220.805 47.2578ZM229.227 44.6172C229.227 45.4818 229.367 46.1354 229.648 46.5781C229.935 47.0208 230.398 47.2422 231.039 47.2422C231.674 47.2422 232.13 47.0234 232.406 46.5859C232.688 46.1432 232.828 45.487 232.828 44.6172C232.828 43.7526 232.688 43.1042 232.406 42.6719C232.125 42.2396 231.664 42.0234 231.023 42.0234C230.388 42.0234 229.93 42.2396 229.648 42.6719C229.367 43.099 229.227 43.7474 229.227 44.6172ZM235.266 44.6172C235.266 46.0391 234.891 47.151 234.141 47.9531C233.391 48.7552 232.346 49.1562 231.008 49.1562C230.169 49.1562 229.43 48.974 228.789 48.6094C228.148 48.2396 227.656 47.7109 227.312 47.0234C226.969 46.3359 226.797 45.5339 226.797 44.6172C226.797 43.1901 227.169 42.0807 227.914 41.2891C228.659 40.4974 229.706 40.1016 231.055 40.1016C231.893 40.1016 232.633 40.2839 233.273 40.6484C233.914 41.013 234.406 41.5365 234.75 42.2188C235.094 42.901 235.266 43.7005 235.266 44.6172Z" fill="#38485C"/>
<path d="M254.5 19H302.5C306.918 19 310.5 22.5817 310.5 27V67H254.5V19Z" fill="#F3F6F9"/>
<path d="M270.93 49L270.102 46.2812H265.938L265.109 49H262.5L266.531 37.5312H269.492L273.539 49H270.93ZM269.523 44.25C268.758 41.7865 268.326 40.3932 268.227 40.0703C268.133 39.7474 268.065 39.4922 268.023 39.3047C267.852 39.9714 267.359 41.6198 266.547 44.25H269.523ZM278.344 49.1562C275.625 49.1562 274.266 47.6641 274.266 44.6797C274.266 43.1953 274.635 42.0625 275.375 41.2812C276.115 40.4948 277.174 40.1016 278.555 40.1016C279.565 40.1016 280.471 40.2995 281.273 40.6953L280.57 42.5391C280.195 42.388 279.846 42.2656 279.523 42.1719C279.201 42.0729 278.878 42.0234 278.555 42.0234C277.315 42.0234 276.695 42.9036 276.695 44.6641C276.695 46.3724 277.315 47.2266 278.555 47.2266C279.013 47.2266 279.438 47.1667 279.828 47.0469C280.219 46.9219 280.609 46.7292 281 46.4688V48.5078C280.615 48.7526 280.224 48.9219 279.828 49.0156C279.438 49.1094 278.943 49.1562 278.344 49.1562ZM286.578 49.1562C283.859 49.1562 282.5 47.6641 282.5 44.6797C282.5 43.1953 282.87 42.0625 283.609 41.2812C284.349 40.4948 285.409 40.1016 286.789 40.1016C287.799 40.1016 288.706 40.2995 289.508 40.6953L288.805 42.5391C288.43 42.388 288.081 42.2656 287.758 42.1719C287.435 42.0729 287.112 42.0234 286.789 42.0234C285.549 42.0234 284.93 42.9036 284.93 44.6641C284.93 46.3724 285.549 47.2266 286.789 47.2266C287.247 47.2266 287.672 47.1667 288.062 47.0469C288.453 46.9219 288.844 46.7292 289.234 46.4688V48.5078C288.849 48.7526 288.458 48.9219 288.062 49.0156C287.672 49.1094 287.177 49.1562 286.578 49.1562ZM290.93 47.8828C290.93 47.4453 291.047 47.1146 291.281 46.8906C291.516 46.6667 291.857 46.5547 292.305 46.5547C292.737 46.5547 293.07 46.6693 293.305 46.8984C293.544 47.1276 293.664 47.4557 293.664 47.8828C293.664 48.2943 293.544 48.6198 293.305 48.8594C293.065 49.0938 292.732 49.2109 292.305 49.2109C291.867 49.2109 291.529 49.0964 291.289 48.8672C291.049 48.6328 290.93 48.3047 290.93 47.8828Z" fill="#F3F6F9"/>
<mask id="path-10-inside-2_2698_38245" fill="white">
<path d="M29.5 67H137.5V111H29.5V67Z"/>
</mask>
<path d="M29.5 67H137.5V111H29.5V67Z" fill="white"/>
<path d="M47.0859 95H45.8203V86.8594C45.8203 86.1823 45.8411 85.5417 45.8828 84.9375C45.7734 85.0469 45.651 85.1615 45.5156 85.2812C45.3802 85.401 44.7604 85.9089 43.6562 86.8047L42.9688 85.9141L45.9922 83.5781H47.0859V95Z" fill="#38485C"/>
<path d="M137.5 110H29.5V112H137.5V110Z" fill="#E6EBF0" mask="url(#path-10-inside-2_2698_38245)"/>
<mask id="path-13-inside-3_2698_38245" fill="white">
<path d="M137.5 67H310.5V111H137.5V67Z"/>
</mask>
<path d="M137.5 67H310.5V111H137.5V67Z" fill="white"/>
<path d="M145.406 98.0078C144.917 98.0078 144.531 97.9375 144.25 97.7969V96.6641C144.62 96.7682 145.005 96.8203 145.406 96.8203C145.922 96.8203 146.312 96.6641 146.578 96.3516C146.849 96.0391 146.984 95.5885 146.984 95V83.5781H148.312V94.8906C148.312 95.8802 148.062 96.6458 147.562 97.1875C147.062 97.7344 146.344 98.0078 145.406 98.0078ZM152.375 86.4375V91.9922C152.375 92.6901 152.534 93.2109 152.852 93.5547C153.169 93.8984 153.667 94.0703 154.344 94.0703C155.24 94.0703 155.893 93.8255 156.305 93.3359C156.721 92.8464 156.93 92.0469 156.93 90.9375V86.4375H158.227V95H157.156L156.969 93.8516H156.898C156.633 94.2734 156.263 94.5964 155.789 94.8203C155.32 95.0443 154.784 95.1562 154.18 95.1562C153.138 95.1562 152.357 94.9089 151.836 94.4141C151.32 93.9193 151.062 93.1276 151.062 92.0391V86.4375H152.375ZM166.25 95L165.992 93.7812H165.93C165.503 94.3177 165.076 94.6823 164.648 94.875C164.227 95.0625 163.698 95.1562 163.062 95.1562C162.214 95.1562 161.547 94.9375 161.062 94.5C160.583 94.0625 160.344 93.4401 160.344 92.6328C160.344 90.9036 161.727 89.9974 164.492 89.9141L165.945 89.8672V89.3359C165.945 88.6641 165.799 88.1693 165.508 87.8516C165.221 87.5286 164.76 87.3672 164.125 87.3672C163.411 87.3672 162.604 87.5859 161.703 88.0234L161.305 87.0312C161.727 86.8021 162.188 86.6224 162.688 86.4922C163.193 86.362 163.698 86.2969 164.203 86.2969C165.224 86.2969 165.979 86.5234 166.469 86.9766C166.964 87.4297 167.211 88.1562 167.211 89.1562V95H166.25ZM163.32 94.0859C164.128 94.0859 164.76 93.8646 165.219 93.4219C165.682 92.9792 165.914 92.3594 165.914 91.5625V90.7891L164.617 90.8438C163.586 90.8802 162.841 91.0417 162.383 91.3281C161.93 91.6094 161.703 92.0495 161.703 92.6484C161.703 93.1172 161.844 93.474 162.125 93.7188C162.411 93.9635 162.81 94.0859 163.32 94.0859ZM175.75 95V89.4609C175.75 88.763 175.591 88.2422 175.273 87.8984C174.956 87.5547 174.458 87.3828 173.781 87.3828C172.885 87.3828 172.229 87.625 171.812 88.1094C171.396 88.5938 171.188 89.3932 171.188 90.5078V95H169.891V86.4375H170.945L171.156 87.6094H171.219C171.484 87.1875 171.857 86.862 172.336 86.6328C172.815 86.3984 173.349 86.2812 173.938 86.2812C174.969 86.2812 175.745 86.5312 176.266 87.0312C176.786 87.526 177.047 88.3203 177.047 89.4141V95H175.75Z" fill="#38485C"/>
<path d="M310.5 110H137.5V112H310.5V110Z" fill="#E6EBF0" mask="url(#path-13-inside-3_2698_38245)"/>
<path d="M310.5 110H29.5V112H310.5V110Z" fill="#D1D8E0" mask="url(#path-8-inside-1_2698_38245)"/>
<mask id="path-18-inside-5_2698_38245" fill="white">
<path d="M29.5 111H137.5V155H29.5V111Z"/>
</mask>
<path d="M29.5 111H137.5V155H29.5V111Z" fill="white"/>
<path d="M49.7891 139H42.2812V137.883L45.2891 134.859C46.2057 133.932 46.8099 133.271 47.1016 132.875C47.3932 132.479 47.612 132.094 47.7578 131.719C47.9036 131.344 47.9766 130.94 47.9766 130.508C47.9766 129.898 47.7917 129.417 47.4219 129.062C47.0521 128.703 46.5391 128.523 45.8828 128.523C45.4089 128.523 44.9583 128.602 44.5312 128.758C44.1094 128.914 43.638 129.198 43.1172 129.609L42.4297 128.727C43.4818 127.852 44.6276 127.414 45.8672 127.414C46.9401 127.414 47.7812 127.69 48.3906 128.242C49 128.789 49.3047 129.526 49.3047 130.453C49.3047 131.177 49.1016 131.893 48.6953 132.602C48.2891 133.31 47.5286 134.206 46.4141 135.289L43.9141 137.734V137.797H49.7891V139Z" fill="#38485C"/>
<path d="M137.5 154H29.5V156H137.5V154Z" fill="#E6EBF0" mask="url(#path-18-inside-5_2698_38245)"/>
<mask id="path-21-inside-6_2698_38245" fill="white">
<path d="M137.5 111H310.5V155H137.5V111Z"/>
</mask>
<path d="M137.5 111H310.5V155H137.5V111Z" fill="white"/>
<path d="M152.125 139L148.25 128.875H148.188C148.26 129.677 148.297 130.63 148.297 131.734V139H147.07V127.578H149.07L152.688 137H152.75L156.398 127.578H158.383V139H157.055V131.641C157.055 130.797 157.091 129.88 157.164 128.891H157.102L153.195 139H152.125ZM166.594 139L166.336 137.781H166.273C165.846 138.318 165.419 138.682 164.992 138.875C164.57 139.062 164.042 139.156 163.406 139.156C162.557 139.156 161.891 138.938 161.406 138.5C160.927 138.062 160.688 137.44 160.688 136.633C160.688 134.904 162.07 133.997 164.836 133.914L166.289 133.867V133.336C166.289 132.664 166.143 132.169 165.852 131.852C165.565 131.529 165.104 131.367 164.469 131.367C163.755 131.367 162.948 131.586 162.047 132.023L161.648 131.031C162.07 130.802 162.531 130.622 163.031 130.492C163.536 130.362 164.042 130.297 164.547 130.297C165.568 130.297 166.323 130.523 166.812 130.977C167.307 131.43 167.555 132.156 167.555 133.156V139H166.594ZM163.664 138.086C164.471 138.086 165.104 137.865 165.562 137.422C166.026 136.979 166.258 136.359 166.258 135.562V134.789L164.961 134.844C163.93 134.88 163.185 135.042 162.727 135.328C162.273 135.609 162.047 136.049 162.047 136.648C162.047 137.117 162.188 137.474 162.469 137.719C162.755 137.964 163.154 138.086 163.664 138.086ZM174.141 130.281C174.521 130.281 174.862 130.312 175.164 130.375L174.984 131.578C174.63 131.5 174.318 131.461 174.047 131.461C173.354 131.461 172.76 131.742 172.266 132.305C171.776 132.867 171.531 133.568 171.531 134.406V139H170.234V130.438H171.305L171.453 132.023H171.516C171.833 131.466 172.216 131.036 172.664 130.734C173.112 130.432 173.604 130.281 174.141 130.281ZM178.062 139H176.766V130.438H178.062V139ZM176.711 129.109C176.961 128.786 177.229 128.396 177.516 127.938C177.807 127.479 178.036 127.081 178.203 126.742H179.781V126.906C179.552 127.245 179.211 127.661 178.758 128.156C178.305 128.651 177.911 129.034 177.578 129.305H176.711V129.109ZM186.078 139L185.82 137.781H185.758C185.331 138.318 184.904 138.682 184.477 138.875C184.055 139.062 183.526 139.156 182.891 139.156C182.042 139.156 181.375 138.938 180.891 138.5C180.411 138.062 180.172 137.44 180.172 136.633C180.172 134.904 181.555 133.997 184.32 133.914L185.773 133.867V133.336C185.773 132.664 185.628 132.169 185.336 131.852C185.049 131.529 184.589 131.367 183.953 131.367C183.24 131.367 182.432 131.586 181.531 132.023L181.133 131.031C181.555 130.802 182.016 130.622 182.516 130.492C183.021 130.362 183.526 130.297 184.031 130.297C185.052 130.297 185.807 130.523 186.297 130.977C186.792 131.43 187.039 132.156 187.039 133.156V139H186.078ZM183.148 138.086C183.956 138.086 184.589 137.865 185.047 137.422C185.51 136.979 185.742 136.359 185.742 135.562V134.789L184.445 134.844C183.414 134.88 182.669 135.042 182.211 135.328C181.758 135.609 181.531 136.049 181.531 136.648C181.531 137.117 181.672 137.474 181.953 137.719C182.24 137.964 182.638 138.086 183.148 138.086Z" fill="#38485C"/>
<path d="M310.5 154H137.5V156H310.5V154Z" fill="#E6EBF0" mask="url(#path-21-inside-6_2698_38245)"/>
<path d="M310.5 154H29.5V156H310.5V154Z" fill="#D1D8E0" mask="url(#path-16-inside-4_2698_38245)"/>
<path d="M29.5 155H310.5V163C310.5 167.418 306.918 171 302.5 171H37.5C33.0817 171 29.5 167.418 29.5 163V155Z" fill="white"/>
<rect x="29" y="18.5" width="282" height="153" rx="8.5" stroke="#D1D8E0"/>
</svg>
