<svg width="340" height="190" viewBox="0 0 340 190" fill="none" xmlns="http://www.w3.org/2000/svg">
<rect width="340" height="190" fill="#F3F6F9"/>
<path d="M274 34H66C61.0294 34 57 38.0294 57 43V147C57 151.971 61.0294 156 66 156H274C278.971 156 283 151.971 283 147V43C283 38.0294 278.971 34 274 34Z" fill="white"/>
<rect x="70" y="47" width="36" height="36" rx="8" fill="#F3F6F9"/>
<path d="M87.9998 56.668C83.3998 56.668 79.6665 60.4013 79.6665 65.0013C79.6665 69.6013 83.3998 73.3346 87.9998 73.3346C92.5998 73.3346 96.3332 69.6013 96.3332 65.0013C96.3332 60.4013 92.5998 56.668 87.9998 56.668ZM87.9998 69.168C87.5415 69.168 87.1665 68.793 87.1665 68.3346V65.0013C87.1665 64.543 87.5415 64.168 87.9998 64.168C88.4582 64.168 88.8332 64.543 88.8332 65.0013V68.3346C88.8332 68.793 88.4582 69.168 87.9998 69.168ZM88.8332 62.5013H87.1665V60.8346H88.8332V62.5013Z" fill="#38485C"/>
<path d="M74.896 110.112C74.6293 110.112 74.4213 110.037 74.272 109.888C74.1333 109.739 74.064 109.531 74.064 109.264V100.112H70.672C70.448 100.112 70.272 100.053 70.144 99.936C70.016 99.808 69.952 99.632 69.952 99.408C69.952 99.184 70.016 99.0133 70.144 98.896C70.272 98.7787 70.448 98.72 70.672 98.72H79.104C79.3387 98.72 79.52 98.7787 79.648 98.896C79.776 99.0133 79.84 99.184 79.84 99.408C79.84 99.632 79.776 99.808 79.648 99.936C79.52 100.053 79.3387 100.112 79.104 100.112H75.712V109.264C75.712 109.531 75.6427 109.739 75.504 109.888C75.376 110.037 75.1733 110.112 74.896 110.112ZM82.1823 110.096C81.9263 110.096 81.7289 110.021 81.5903 109.872C81.4516 109.712 81.3823 109.493 81.3823 109.216V102.976C81.3823 102.699 81.4516 102.485 81.5903 102.336C81.7289 102.187 81.9263 102.112 82.1823 102.112C82.4383 102.112 82.6356 102.187 82.7743 102.336C82.9236 102.485 82.9983 102.699 82.9983 102.976V109.216C82.9983 109.493 82.9289 109.712 82.7903 109.872C82.6516 110.021 82.4489 110.096 82.1823 110.096ZM82.8063 101.072C82.7209 101.2 82.6143 101.275 82.4863 101.296C82.3689 101.317 82.2516 101.296 82.1343 101.232C82.0169 101.168 81.9316 101.077 81.8783 100.96C81.8356 100.843 81.8463 100.715 81.9103 100.576L83.2063 98.064C83.2916 97.8933 83.3983 97.7813 83.5263 97.728C83.6649 97.6747 83.8036 97.6693 83.9423 97.712C84.0916 97.744 84.2143 97.808 84.3103 97.904C84.4169 98 84.4809 98.1227 84.5023 98.272C84.5236 98.4107 84.4863 98.5493 84.3903 98.688L82.8063 101.072ZM88.4409 110.144C87.8009 110.144 87.2622 110.032 86.8249 109.808C86.3875 109.584 86.0622 109.253 85.8489 108.816C85.6355 108.379 85.5289 107.845 85.5289 107.216V103.44H84.5689C84.3555 103.44 84.1902 103.387 84.0729 103.28C83.9555 103.163 83.8969 103.008 83.8969 102.816C83.8969 102.613 83.9555 102.459 84.0729 102.352C84.1902 102.245 84.3555 102.192 84.5689 102.192H85.5289V100.544C85.5289 100.277 85.5982 100.075 85.7369 99.936C85.8862 99.7973 86.0889 99.728 86.3449 99.728C86.6009 99.728 86.7982 99.7973 86.9369 99.936C87.0755 100.075 87.1449 100.277 87.1449 100.544V102.192H89.0169C89.2302 102.192 89.3955 102.245 89.5129 102.352C89.6302 102.459 89.6889 102.613 89.6889 102.816C89.6889 103.008 89.6302 103.163 89.5129 103.28C89.3955 103.387 89.2302 103.44 89.0169 103.44H87.1449V107.088C87.1449 107.653 87.2622 108.08 87.4969 108.368C87.7422 108.656 88.1369 108.8 88.6809 108.8C88.8729 108.8 89.0382 108.784 89.1769 108.752C89.3262 108.709 89.4489 108.683 89.5449 108.672C89.6622 108.672 89.7582 108.715 89.8329 108.8C89.9075 108.875 89.9449 109.024 89.9449 109.248C89.9449 109.408 89.9129 109.557 89.8489 109.696C89.7955 109.835 89.6942 109.925 89.5449 109.968C89.4169 110.011 89.2409 110.048 89.0169 110.08C88.8035 110.123 88.6115 110.144 88.4409 110.144ZM93.5806 110.144C92.9513 110.144 92.4233 110.027 91.9966 109.792C91.5806 109.557 91.266 109.211 91.0526 108.752C90.85 108.283 90.7486 107.696 90.7486 106.992V102.896C90.7486 102.619 90.818 102.416 90.9566 102.288C91.0953 102.149 91.2926 102.08 91.5486 102.08C91.8046 102.08 92.002 102.149 92.1406 102.288C92.29 102.416 92.3646 102.619 92.3646 102.896V107.008C92.3646 107.637 92.4926 108.101 92.7486 108.4C93.0046 108.699 93.41 108.848 93.9646 108.848C94.5726 108.848 95.0633 108.645 95.4366 108.24C95.8206 107.824 96.0126 107.28 96.0126 106.608V102.896C96.0126 102.619 96.082 102.416 96.2206 102.288C96.3593 102.149 96.562 102.08 96.8286 102.08C97.0846 102.08 97.282 102.149 97.4206 102.288C97.5593 102.416 97.6286 102.619 97.6286 102.896V109.296C97.6286 109.84 97.3673 110.112 96.8446 110.112C96.5993 110.112 96.4073 110.043 96.2686 109.904C96.13 109.755 96.0606 109.552 96.0606 109.296V107.936L96.2686 108.288C96.0553 108.885 95.714 109.344 95.2446 109.664C94.7753 109.984 94.2206 110.144 93.5806 110.144ZM102.258 110.144C101.426 110.144 100.797 109.904 100.37 109.424C99.954 108.933 99.746 108.229 99.746 107.312V99.424C99.746 99.1573 99.8153 98.9547 99.954 98.816C100.093 98.6773 100.29 98.608 100.546 98.608C100.802 98.608 100.999 98.6773 101.138 98.816C101.287 98.9547 101.362 99.1573 101.362 99.424V107.216C101.362 107.749 101.469 108.149 101.682 108.416C101.906 108.672 102.226 108.8 102.642 108.8C102.738 108.8 102.823 108.8 102.898 108.8C102.973 108.789 103.047 108.779 103.122 108.768C103.25 108.757 103.341 108.795 103.394 108.88C103.447 108.955 103.474 109.115 103.474 109.36C103.474 109.584 103.426 109.76 103.33 109.888C103.234 110.005 103.079 110.08 102.866 110.112C102.77 110.123 102.669 110.128 102.562 110.128C102.455 110.139 102.354 110.144 102.258 110.144ZM107.791 110.144C107.001 110.144 106.319 109.979 105.743 109.648C105.177 109.317 104.735 108.848 104.415 108.24C104.095 107.632 103.935 106.917 103.935 106.096C103.935 105.467 104.025 104.907 104.207 104.416C104.388 103.925 104.644 103.504 104.975 103.152C105.316 102.789 105.721 102.517 106.191 102.336C106.671 102.144 107.204 102.048 107.791 102.048C108.569 102.048 109.241 102.213 109.807 102.544C110.383 102.875 110.831 103.344 111.151 103.952C111.471 104.549 111.631 105.264 111.631 106.096C111.631 106.715 111.54 107.275 111.359 107.776C111.177 108.277 110.916 108.704 110.575 109.056C110.244 109.408 109.839 109.68 109.359 109.872C108.889 110.053 108.367 110.144 107.791 110.144ZM107.791 108.896C108.228 108.896 108.612 108.789 108.943 108.576C109.273 108.363 109.529 108.048 109.711 107.632C109.903 107.216 109.999 106.704 109.999 106.096C109.999 105.179 109.796 104.485 109.391 104.016C108.985 103.547 108.452 103.312 107.791 103.312C107.343 103.312 106.953 103.419 106.623 103.632C106.292 103.835 106.031 104.144 105.839 104.56C105.657 104.976 105.567 105.488 105.567 106.096C105.567 107.003 105.769 107.696 106.175 108.176C106.58 108.656 107.119 108.896 107.791 108.896ZM120.32 110.144C119.637 110.144 119.035 109.984 118.512 109.664C118 109.333 117.6 108.864 117.312 108.256C117.024 107.637 116.88 106.917 116.88 106.096C116.88 105.253 117.024 104.533 117.312 103.936C117.6 103.339 118 102.875 118.512 102.544C119.035 102.213 119.637 102.048 120.32 102.048C121.003 102.048 121.589 102.219 122.08 102.56C122.581 102.891 122.917 103.339 123.088 103.904H122.912V99.424C122.912 99.1573 122.981 98.9547 123.12 98.816C123.259 98.6773 123.456 98.608 123.712 98.608C123.968 98.608 124.165 98.6773 124.304 98.816C124.453 98.9547 124.528 99.1573 124.528 99.424V109.296C124.528 109.552 124.459 109.755 124.32 109.904C124.181 110.043 123.984 110.112 123.728 110.112C123.472 110.112 123.275 110.043 123.136 109.904C122.997 109.755 122.928 109.552 122.928 109.296V107.888L123.104 108.24C122.933 108.816 122.597 109.28 122.096 109.632C121.605 109.973 121.013 110.144 120.32 110.144ZM120.736 108.896C121.173 108.896 121.557 108.789 121.888 108.576C122.219 108.363 122.475 108.048 122.656 107.632C122.848 107.216 122.944 106.704 122.944 106.096C122.944 105.179 122.741 104.485 122.336 104.016C121.931 103.547 121.397 103.312 120.736 103.312C120.288 103.312 119.899 103.419 119.568 103.632C119.237 103.835 118.976 104.144 118.784 104.56C118.603 104.976 118.512 105.488 118.512 106.096C118.512 107.003 118.715 107.696 119.12 108.176C119.525 108.656 120.064 108.896 120.736 108.896ZM130.301 110.144C129.448 110.144 128.712 109.984 128.093 109.664C127.485 109.333 127.011 108.869 126.669 108.272C126.339 107.664 126.173 106.944 126.173 106.112C126.173 105.301 126.339 104.592 126.669 103.984C127 103.376 127.453 102.901 128.029 102.56C128.605 102.219 129.261 102.048 129.997 102.048C130.541 102.048 131.027 102.139 131.453 102.32C131.88 102.491 132.243 102.747 132.541 103.088C132.851 103.419 133.08 103.824 133.229 104.304C133.389 104.784 133.469 105.323 133.469 105.92C133.469 106.101 133.416 106.24 133.309 106.336C133.203 106.421 133.043 106.464 132.829 106.464H127.453V105.472H132.381L132.109 105.696C132.109 105.163 132.029 104.709 131.869 104.336C131.72 103.963 131.491 103.68 131.181 103.488C130.883 103.285 130.509 103.184 130.061 103.184C129.56 103.184 129.133 103.301 128.781 103.536C128.44 103.771 128.179 104.096 127.997 104.512C127.816 104.928 127.725 105.413 127.725 105.968V106.064C127.725 107.003 127.944 107.712 128.381 108.192C128.829 108.661 129.475 108.896 130.317 108.896C130.637 108.896 130.973 108.853 131.325 108.768C131.688 108.683 132.029 108.539 132.349 108.336C132.531 108.229 132.691 108.181 132.829 108.192C132.979 108.203 133.096 108.251 133.181 108.336C133.277 108.421 133.336 108.528 133.357 108.656C133.379 108.784 133.357 108.917 133.293 109.056C133.229 109.184 133.117 109.301 132.957 109.408C132.595 109.653 132.173 109.84 131.693 109.968C131.213 110.085 130.749 110.144 130.301 110.144ZM141.642 110.144C140.81 110.144 140.18 109.904 139.754 109.424C139.338 108.933 139.13 108.229 139.13 107.312V99.424C139.13 99.1573 139.199 98.9547 139.338 98.816C139.476 98.6773 139.674 98.608 139.93 98.608C140.186 98.608 140.383 98.6773 140.522 98.816C140.671 98.9547 140.746 99.1573 140.746 99.424V107.216C140.746 107.749 140.852 108.149 141.066 108.416C141.29 108.672 141.61 108.8 142.026 108.8C142.122 108.8 142.207 108.8 142.282 108.8C142.356 108.789 142.431 108.779 142.506 108.768C142.634 108.757 142.724 108.795 142.778 108.88C142.831 108.955 142.858 109.115 142.858 109.36C142.858 109.584 142.81 109.76 142.714 109.888C142.618 110.005 142.463 110.08 142.25 110.112C142.154 110.123 142.052 110.128 141.946 110.128C141.839 110.139 141.738 110.144 141.642 110.144ZM146.356 110.144C145.812 110.144 145.322 110.037 144.884 109.824C144.458 109.611 144.122 109.323 143.876 108.96C143.631 108.597 143.508 108.187 143.508 107.728C143.508 107.152 143.652 106.699 143.94 106.368C144.239 106.027 144.724 105.787 145.396 105.648C146.079 105.499 146.996 105.424 148.148 105.424H148.9V106.416H148.164C147.396 106.416 146.788 106.453 146.34 106.528C145.892 106.603 145.572 106.731 145.38 106.912C145.199 107.083 145.108 107.323 145.108 107.632C145.108 108.037 145.247 108.368 145.524 108.624C145.802 108.869 146.186 108.992 146.676 108.992C147.071 108.992 147.418 108.901 147.716 108.72C148.015 108.528 148.25 108.272 148.42 107.952C148.602 107.632 148.692 107.264 148.692 106.848V105.008C148.692 104.4 148.564 103.963 148.308 103.696C148.052 103.429 147.631 103.296 147.044 103.296C146.703 103.296 146.346 103.339 145.972 103.424C145.61 103.509 145.231 103.653 144.836 103.856C144.655 103.941 144.5 103.968 144.372 103.936C144.244 103.904 144.143 103.835 144.068 103.728C143.994 103.611 143.951 103.488 143.94 103.36C143.94 103.221 143.972 103.088 144.036 102.96C144.111 102.832 144.234 102.736 144.404 102.672C144.874 102.448 145.338 102.288 145.796 102.192C146.255 102.096 146.687 102.048 147.092 102.048C147.807 102.048 148.394 102.16 148.852 102.384C149.322 102.608 149.668 102.949 149.892 103.408C150.116 103.867 150.228 104.459 150.228 105.184V109.296C150.228 109.552 150.164 109.755 150.036 109.904C149.908 110.043 149.722 110.112 149.476 110.112C149.242 110.112 149.055 110.043 148.916 109.904C148.778 109.755 148.708 109.552 148.708 109.296V108.256H148.852C148.767 108.651 148.607 108.992 148.372 109.28C148.148 109.557 147.866 109.771 147.524 109.92C147.183 110.069 146.794 110.144 146.356 110.144ZM159.681 110.144C159.041 110.144 158.502 110.032 158.065 109.808C157.628 109.584 157.302 109.253 157.089 108.816C156.876 108.379 156.769 107.845 156.769 107.216V103.44H155.809C155.596 103.44 155.43 103.387 155.313 103.28C155.196 103.163 155.137 103.008 155.137 102.816C155.137 102.613 155.196 102.459 155.313 102.352C155.43 102.245 155.596 102.192 155.809 102.192H156.769V100.544C156.769 100.277 156.838 100.075 156.977 99.936C157.126 99.7973 157.329 99.728 157.585 99.728C157.841 99.728 158.038 99.7973 158.177 99.936C158.316 100.075 158.385 100.277 158.385 100.544V102.192H160.257C160.47 102.192 160.636 102.245 160.753 102.352C160.87 102.459 160.929 102.613 160.929 102.816C160.929 103.008 160.87 103.163 160.753 103.28C160.636 103.387 160.47 103.44 160.257 103.44H158.385V107.088C158.385 107.653 158.502 108.08 158.737 108.368C158.982 108.656 159.377 108.8 159.921 108.8C160.113 108.8 160.278 108.784 160.417 108.752C160.566 108.709 160.689 108.683 160.785 108.672C160.902 108.672 160.998 108.715 161.073 108.8C161.148 108.875 161.185 109.024 161.185 109.248C161.185 109.408 161.153 109.557 161.089 109.696C161.036 109.835 160.934 109.925 160.785 109.968C160.657 110.011 160.481 110.048 160.257 110.08C160.044 110.123 159.852 110.144 159.681 110.144ZM164.533 110.144C163.989 110.144 163.498 110.037 163.061 109.824C162.634 109.611 162.298 109.323 162.053 108.96C161.807 108.597 161.685 108.187 161.685 107.728C161.685 107.152 161.829 106.699 162.117 106.368C162.415 106.027 162.901 105.787 163.573 105.648C164.255 105.499 165.173 105.424 166.325 105.424H167.077V106.416H166.341C165.573 106.416 164.965 106.453 164.517 106.528C164.069 106.603 163.749 106.731 163.557 106.912C163.375 107.083 163.285 107.323 163.285 107.632C163.285 108.037 163.423 108.368 163.701 108.624C163.978 108.869 164.362 108.992 164.853 108.992C165.247 108.992 165.594 108.901 165.893 108.72C166.191 108.528 166.426 108.272 166.597 107.952C166.778 107.632 166.869 107.264 166.869 106.848V105.008C166.869 104.4 166.741 103.963 166.485 103.696C166.229 103.429 165.807 103.296 165.221 103.296C164.879 103.296 164.522 103.339 164.149 103.424C163.786 103.509 163.407 103.653 163.013 103.856C162.831 103.941 162.677 103.968 162.549 103.936C162.421 103.904 162.319 103.835 162.245 103.728C162.17 103.611 162.127 103.488 162.117 103.36C162.117 103.221 162.149 103.088 162.213 102.96C162.287 102.832 162.41 102.736 162.581 102.672C163.05 102.448 163.514 102.288 163.973 102.192C164.431 102.096 164.863 102.048 165.269 102.048C165.983 102.048 166.57 102.16 167.029 102.384C167.498 102.608 167.845 102.949 168.069 103.408C168.293 103.867 168.405 104.459 168.405 105.184V109.296C168.405 109.552 168.341 109.755 168.213 109.904C168.085 110.043 167.898 110.112 167.653 110.112C167.418 110.112 167.231 110.043 167.093 109.904C166.954 109.755 166.885 109.552 166.885 109.296V108.256H167.029C166.943 108.651 166.783 108.992 166.549 109.28C166.325 109.557 166.042 109.771 165.701 109.92C165.359 110.069 164.97 110.144 164.533 110.144ZM171.286 110.112C171.02 110.112 170.817 110.043 170.678 109.904C170.54 109.755 170.47 109.552 170.47 109.296V102.896C170.47 102.629 170.54 102.427 170.678 102.288C170.817 102.149 171.009 102.08 171.254 102.08C171.51 102.08 171.702 102.149 171.83 102.288C171.969 102.427 172.038 102.629 172.038 102.896V104.064H171.878C172.049 103.424 172.364 102.939 172.822 102.608C173.281 102.277 173.868 102.085 174.582 102.032C174.774 102.021 174.924 102.069 175.03 102.176C175.148 102.283 175.212 102.448 175.222 102.672C175.244 102.896 175.196 103.077 175.078 103.216C174.961 103.344 174.78 103.419 174.534 103.44L174.23 103.472C173.537 103.536 173.009 103.755 172.646 104.128C172.284 104.501 172.102 105.013 172.102 105.664V109.296C172.102 109.552 172.033 109.755 171.894 109.904C171.766 110.043 171.564 110.112 171.286 110.112ZM175.031 113.04C174.839 113.051 174.684 113.019 174.567 112.944C174.439 112.869 174.354 112.773 174.311 112.656C174.258 112.539 174.242 112.416 174.263 112.288C174.274 112.171 174.327 112.064 174.423 111.968C174.508 111.883 174.626 111.835 174.775 111.824C175.308 111.792 175.698 111.648 175.943 111.392C176.199 111.136 176.327 110.731 176.327 110.176V102.896C176.327 102.629 176.396 102.427 176.535 102.288C176.684 102.149 176.887 102.08 177.143 102.08C177.41 102.08 177.607 102.149 177.735 102.288C177.874 102.427 177.943 102.629 177.943 102.896V110.048C177.943 110.709 177.831 111.253 177.607 111.68C177.394 112.117 177.074 112.443 176.647 112.656C176.22 112.869 175.682 112.997 175.031 113.04ZM177.143 100.448C176.823 100.448 176.572 100.368 176.391 100.208C176.22 100.048 176.135 99.824 176.135 99.536C176.135 99.2373 176.22 99.0133 176.391 98.864C176.572 98.704 176.823 98.624 177.143 98.624C177.463 98.624 177.708 98.704 177.879 98.864C178.05 99.0133 178.135 99.2373 178.135 99.536C178.135 99.824 178.05 100.048 177.879 100.208C177.708 100.368 177.463 100.448 177.143 100.448ZM183.721 110.144C182.867 110.144 182.131 109.984 181.513 109.664C180.905 109.333 180.43 108.869 180.089 108.272C179.758 107.664 179.593 106.944 179.593 106.112C179.593 105.301 179.758 104.592 180.089 103.984C180.419 103.376 180.873 102.901 181.449 102.56C182.025 102.219 182.681 102.048 183.417 102.048C183.961 102.048 184.446 102.139 184.873 102.32C185.299 102.491 185.662 102.747 185.961 103.088C186.27 103.419 186.499 103.824 186.649 104.304C186.809 104.784 186.889 105.323 186.889 105.92C186.889 106.101 186.835 106.24 186.729 106.336C186.622 106.421 186.462 106.464 186.249 106.464H180.873V105.472H185.801L185.529 105.696C185.529 105.163 185.449 104.709 185.289 104.336C185.139 103.963 184.91 103.68 184.601 103.488C184.302 103.285 183.929 103.184 183.481 103.184C182.979 103.184 182.553 103.301 182.201 103.536C181.859 103.771 181.598 104.096 181.417 104.512C181.235 104.928 181.145 105.413 181.145 105.968V106.064C181.145 107.003 181.363 107.712 181.801 108.192C182.249 108.661 182.894 108.896 183.737 108.896C184.057 108.896 184.393 108.853 184.745 108.768C185.107 108.683 185.449 108.539 185.769 108.336C185.95 108.229 186.11 108.181 186.249 108.192C186.398 108.203 186.515 108.251 186.601 108.336C186.697 108.421 186.755 108.528 186.777 108.656C186.798 108.784 186.777 108.917 186.713 109.056C186.649 109.184 186.537 109.301 186.377 109.408C186.014 109.653 185.593 109.84 185.113 109.968C184.633 110.085 184.169 110.144 183.721 110.144ZM191.803 110.144C191.163 110.144 190.624 110.032 190.187 109.808C189.749 109.584 189.424 109.253 189.211 108.816C188.997 108.379 188.891 107.845 188.891 107.216V103.44H187.931C187.717 103.44 187.552 103.387 187.435 103.28C187.317 103.163 187.259 103.008 187.259 102.816C187.259 102.613 187.317 102.459 187.435 102.352C187.552 102.245 187.717 102.192 187.931 102.192H188.891V100.544C188.891 100.277 188.96 100.075 189.099 99.936C189.248 99.7973 189.451 99.728 189.707 99.728C189.963 99.728 190.16 99.7973 190.299 99.936C190.437 100.075 190.507 100.277 190.507 100.544V102.192H192.379C192.592 102.192 192.757 102.245 192.875 102.352C192.992 102.459 193.051 102.613 193.051 102.816C193.051 103.008 192.992 103.163 192.875 103.28C192.757 103.387 192.592 103.44 192.379 103.44H190.507V107.088C190.507 107.653 190.624 108.08 190.859 108.368C191.104 108.656 191.499 108.8 192.043 108.8C192.235 108.8 192.4 108.784 192.539 108.752C192.688 108.709 192.811 108.683 192.907 108.672C193.024 108.672 193.12 108.715 193.195 108.8C193.269 108.875 193.307 109.024 193.307 109.248C193.307 109.408 193.275 109.557 193.211 109.696C193.157 109.835 193.056 109.925 192.907 109.968C192.779 110.011 192.603 110.048 192.379 110.08C192.165 110.123 191.973 110.144 191.803 110.144ZM196.654 110.144C196.11 110.144 195.62 110.037 195.182 109.824C194.756 109.611 194.42 109.323 194.174 108.96C193.929 108.597 193.806 108.187 193.806 107.728C193.806 107.152 193.95 106.699 194.238 106.368C194.537 106.027 195.022 105.787 195.694 105.648C196.377 105.499 197.294 105.424 198.446 105.424H199.198V106.416H198.462C197.694 106.416 197.086 106.453 196.638 106.528C196.19 106.603 195.87 106.731 195.678 106.912C195.497 107.083 195.406 107.323 195.406 107.632C195.406 108.037 195.545 108.368 195.822 108.624C196.1 108.869 196.484 108.992 196.974 108.992C197.369 108.992 197.716 108.901 198.014 108.72C198.313 108.528 198.548 108.272 198.718 107.952C198.9 107.632 198.99 107.264 198.99 106.848V105.008C198.99 104.4 198.862 103.963 198.606 103.696C198.35 103.429 197.929 103.296 197.342 103.296C197.001 103.296 196.644 103.339 196.27 103.424C195.908 103.509 195.529 103.653 195.134 103.856C194.953 103.941 194.798 103.968 194.67 103.936C194.542 103.904 194.441 103.835 194.366 103.728C194.292 103.611 194.249 103.488 194.238 103.36C194.238 103.221 194.27 103.088 194.334 102.96C194.409 102.832 194.532 102.736 194.702 102.672C195.172 102.448 195.636 102.288 196.094 102.192C196.553 102.096 196.985 102.048 197.39 102.048C198.105 102.048 198.692 102.16 199.15 102.384C199.62 102.608 199.966 102.949 200.19 103.408C200.414 103.867 200.526 104.459 200.526 105.184V109.296C200.526 109.552 200.462 109.755 200.334 109.904C200.206 110.043 200.02 110.112 199.774 110.112C199.54 110.112 199.353 110.043 199.214 109.904C199.076 109.755 199.006 109.552 199.006 109.296V108.256H199.15C199.065 108.651 198.905 108.992 198.67 109.28C198.446 109.557 198.164 109.771 197.822 109.92C197.481 110.069 197.092 110.144 196.654 110.144Z" fill="#38485C"/>
<path d="M78.0156 131.635C78.0156 133.049 77.6309 134.131 76.8613 134.881C76.0957 135.627 74.9922 136 73.5508 136H71.1777V127.434H73.8027C75.1348 127.434 76.1699 127.803 76.9082 128.541C77.6465 129.279 78.0156 130.311 78.0156 131.635ZM76.9609 131.67C76.9609 130.553 76.6797 129.711 76.1172 129.145C75.5586 128.578 74.7266 128.295 73.6211 128.295H72.1738V135.139H73.3867C74.5742 135.139 75.4668 134.848 76.0645 134.266C76.6621 133.68 76.9609 132.814 76.9609 131.67ZM82.378 136.117C81.4288 136.117 80.6788 135.828 80.128 135.25C79.5812 134.672 79.3077 133.869 79.3077 132.842C79.3077 131.807 79.5616 130.984 80.0695 130.375C80.5812 129.766 81.2667 129.461 82.1261 129.461C82.9308 129.461 83.5675 129.727 84.0363 130.258C84.505 130.785 84.7394 131.482 84.7394 132.35V132.965H80.3155C80.3351 133.719 80.5245 134.291 80.8839 134.682C81.2472 135.072 81.757 135.268 82.4132 135.268C83.1046 135.268 83.7882 135.123 84.464 134.834V135.701C84.1202 135.85 83.7941 135.955 83.4855 136.018C83.1808 136.084 82.8116 136.117 82.378 136.117ZM82.1144 130.275C81.5988 130.275 81.1866 130.443 80.878 130.779C80.5734 131.115 80.3937 131.58 80.339 132.174H83.6964C83.6964 131.561 83.5597 131.092 83.2863 130.768C83.0128 130.439 82.6222 130.275 82.1144 130.275ZM90.426 134.248C90.426 134.846 90.2034 135.307 89.758 135.631C89.3127 135.955 88.6877 136.117 87.883 136.117C87.0315 136.117 86.3674 135.982 85.8909 135.713V134.811C86.1995 134.967 86.5295 135.09 86.8811 135.18C87.2366 135.27 87.5784 135.314 87.9065 135.314C88.4143 135.314 88.8049 135.234 89.0784 135.074C89.3518 134.91 89.4885 134.662 89.4885 134.33C89.4885 134.08 89.3791 133.867 89.1604 133.691C88.9455 133.512 88.5237 133.301 87.8948 133.059C87.2971 132.836 86.8713 132.643 86.6174 132.479C86.3674 132.311 86.1799 132.121 86.0549 131.91C85.9338 131.699 85.8733 131.447 85.8733 131.154C85.8733 130.631 86.0862 130.219 86.512 129.918C86.9377 129.613 87.5217 129.461 88.2639 129.461C88.9553 129.461 89.6311 129.602 90.2913 129.883L89.9455 130.674C89.301 130.408 88.717 130.275 88.1936 130.275C87.7327 130.275 87.385 130.348 87.1506 130.492C86.9163 130.637 86.7991 130.836 86.7991 131.09C86.7991 131.262 86.842 131.408 86.928 131.529C87.0178 131.65 87.1604 131.766 87.3557 131.875C87.551 131.984 87.926 132.143 88.4807 132.35C89.2424 132.627 89.7561 132.906 90.0217 133.188C90.2913 133.469 90.426 133.822 90.426 134.248ZM94.4603 136.117C93.5306 136.117 92.8099 135.832 92.2982 135.262C91.7904 134.688 91.5365 133.877 91.5365 132.83C91.5365 131.756 91.7943 130.926 92.3099 130.34C92.8295 129.754 93.5677 129.461 94.5248 129.461C94.8334 129.461 95.142 129.494 95.4505 129.561C95.7591 129.627 96.0013 129.705 96.1771 129.795L95.8783 130.621C95.6634 130.535 95.4291 130.465 95.1752 130.41C94.9212 130.352 94.6966 130.322 94.5013 130.322C93.1966 130.322 92.5443 131.154 92.5443 132.818C92.5443 133.607 92.7025 134.213 93.0189 134.635C93.3392 135.057 93.8119 135.268 94.4369 135.268C94.972 135.268 95.5209 135.152 96.0834 134.922V135.783C95.6537 136.006 95.1127 136.117 94.4603 136.117ZM100.422 129.461C100.708 129.461 100.963 129.484 101.19 129.531L101.055 130.434C100.79 130.375 100.555 130.346 100.352 130.346C99.8325 130.346 99.3872 130.557 99.0161 130.979C98.6489 131.4 98.4653 131.926 98.4653 132.555V136H97.4927V129.578H98.2954L98.4067 130.768H98.4536C98.6919 130.35 98.979 130.027 99.3149 129.801C99.6509 129.574 100.02 129.461 100.422 129.461ZM103.244 136H102.271V129.578H103.244V136ZM102.189 127.838C102.189 127.615 102.244 127.453 102.353 127.352C102.462 127.246 102.599 127.193 102.763 127.193C102.92 127.193 103.054 127.246 103.168 127.352C103.281 127.457 103.337 127.619 103.337 127.838C103.337 128.057 103.281 128.221 103.168 128.33C103.054 128.436 102.92 128.488 102.763 128.488C102.599 128.488 102.462 128.436 102.353 128.33C102.244 128.221 102.189 128.057 102.189 127.838ZM108.175 136.117C107.757 136.117 107.374 136.041 107.026 135.889C106.682 135.732 106.393 135.494 106.159 135.174H106.089C106.135 135.549 106.159 135.904 106.159 136.24V138.883H105.186V129.578H105.977L106.112 130.457H106.159C106.409 130.105 106.7 129.852 107.032 129.695C107.364 129.539 107.745 129.461 108.175 129.461C109.026 129.461 109.682 129.752 110.143 130.334C110.608 130.916 110.841 131.732 110.841 132.783C110.841 133.838 110.604 134.658 110.132 135.244C109.663 135.826 109.01 136.117 108.175 136.117ZM108.034 130.287C107.378 130.287 106.903 130.469 106.61 130.832C106.317 131.195 106.167 131.773 106.159 132.566V132.783C106.159 133.686 106.309 134.332 106.61 134.723C106.911 135.109 107.393 135.303 108.057 135.303C108.612 135.303 109.046 135.078 109.358 134.629C109.675 134.18 109.833 133.561 109.833 132.771C109.833 131.971 109.675 131.357 109.358 130.932C109.046 130.502 108.604 130.287 108.034 130.287ZM114.992 136.117C114.062 136.117 113.342 135.832 112.83 135.262C112.322 134.688 112.068 133.877 112.068 132.83C112.068 131.756 112.326 130.926 112.842 130.34C113.361 129.754 114.099 129.461 115.056 129.461C115.365 129.461 115.674 129.494 115.982 129.561C116.291 129.627 116.533 129.705 116.709 129.795L116.41 130.621C116.195 130.535 115.961 130.465 115.707 130.41C115.453 130.352 115.228 130.322 115.033 130.322C113.728 130.322 113.076 131.154 113.076 132.818C113.076 133.607 113.234 134.213 113.551 134.635C113.871 135.057 114.344 135.268 114.969 135.268C115.504 135.268 116.053 135.152 116.615 134.922V135.783C116.185 136.006 115.644 136.117 114.992 136.117ZM118.997 136H118.024V129.578H118.997V136ZM117.942 127.838C117.942 127.615 117.997 127.453 118.106 127.352C118.216 127.246 118.353 127.193 118.517 127.193C118.673 127.193 118.808 127.246 118.921 127.352C119.034 127.457 119.091 127.619 119.091 127.838C119.091 128.057 119.034 128.221 118.921 128.33C118.808 128.436 118.673 128.488 118.517 128.488C118.353 128.488 118.216 128.436 118.106 128.33C117.997 128.221 117.942 128.057 117.942 127.838ZM126.482 132.783C126.482 133.83 126.219 134.648 125.691 135.238C125.164 135.824 124.436 136.117 123.506 136.117C122.932 136.117 122.422 135.982 121.977 135.713C121.531 135.443 121.188 135.057 120.945 134.553C120.703 134.049 120.582 133.459 120.582 132.783C120.582 131.736 120.844 130.922 121.367 130.34C121.891 129.754 122.617 129.461 123.547 129.461C124.445 129.461 125.158 129.76 125.686 130.357C126.217 130.955 126.482 131.764 126.482 132.783ZM121.59 132.783C121.59 133.604 121.754 134.229 122.082 134.658C122.41 135.088 122.893 135.303 123.529 135.303C124.166 135.303 124.649 135.09 124.977 134.664C125.309 134.234 125.475 133.607 125.475 132.783C125.475 131.967 125.309 131.348 124.977 130.926C124.649 130.5 124.162 130.287 123.518 130.287C122.881 130.287 122.4 130.496 122.076 130.914C121.752 131.332 121.59 131.955 121.59 132.783ZM122.715 128.582C122.902 128.34 123.104 128.047 123.318 127.703C123.537 127.359 123.709 127.061 123.834 126.807H125.018V126.93C124.846 127.184 124.59 127.496 124.25 127.867C123.91 128.238 123.615 128.525 123.365 128.729H122.715V128.582ZM132.468 136V131.846C132.468 131.322 132.349 130.932 132.111 130.674C131.872 130.416 131.499 130.287 130.991 130.287C130.32 130.287 129.827 130.469 129.515 130.832C129.202 131.195 129.046 131.795 129.046 132.631V136H128.073V129.578H128.864L129.023 130.457H129.07C129.269 130.141 129.548 129.896 129.907 129.725C130.267 129.549 130.667 129.461 131.109 129.461C131.882 129.461 132.464 129.648 132.855 130.023C133.245 130.395 133.441 130.99 133.441 131.811V136H132.468ZM142.693 135.139H142.64C142.191 135.791 141.519 136.117 140.624 136.117C139.785 136.117 139.13 135.83 138.662 135.256C138.197 134.682 137.964 133.865 137.964 132.807C137.964 131.748 138.199 130.926 138.667 130.34C139.136 129.754 139.789 129.461 140.624 129.461C141.496 129.461 142.164 129.777 142.628 130.41H142.705L142.664 129.947L142.64 129.496V126.883H143.613V136H142.822L142.693 135.139ZM140.747 135.303C141.412 135.303 141.892 135.123 142.189 134.764C142.49 134.4 142.64 133.816 142.64 133.012V132.807C142.64 131.896 142.488 131.248 142.183 130.861C141.882 130.471 141.4 130.275 140.736 130.275C140.165 130.275 139.728 130.498 139.423 130.943C139.122 131.385 138.972 132.01 138.972 132.818C138.972 133.639 139.122 134.258 139.423 134.676C139.724 135.094 140.165 135.303 140.747 135.303ZM148.274 136.117C147.325 136.117 146.575 135.828 146.024 135.25C145.477 134.672 145.204 133.869 145.204 132.842C145.204 131.807 145.458 130.984 145.965 130.375C146.477 129.766 147.163 129.461 148.022 129.461C148.827 129.461 149.463 129.727 149.932 130.258C150.401 130.785 150.635 131.482 150.635 132.35V132.965H146.211C146.231 133.719 146.42 134.291 146.78 134.682C147.143 135.072 147.653 135.268 148.309 135.268C149.001 135.268 149.684 135.123 150.36 134.834V135.701C150.016 135.85 149.69 135.955 149.381 136.018C149.077 136.084 148.708 136.117 148.274 136.117ZM148.01 130.275C147.495 130.275 147.083 130.443 146.774 130.779C146.469 131.115 146.29 131.58 146.235 132.174H149.592C149.592 131.561 149.456 131.092 149.182 130.768C148.909 130.439 148.518 130.275 148.01 130.275ZM153.152 136H152.179V126.883H153.152V136ZM162.041 136L161.848 135.086H161.801C161.48 135.488 161.16 135.762 160.84 135.906C160.523 136.047 160.127 136.117 159.65 136.117C159.014 136.117 158.514 135.953 158.15 135.625C157.791 135.297 157.611 134.83 157.611 134.225C157.611 132.928 158.648 132.248 160.723 132.186L161.812 132.15V131.752C161.812 131.248 161.703 130.877 161.484 130.639C161.269 130.396 160.924 130.275 160.447 130.275C159.912 130.275 159.307 130.439 158.631 130.768L158.332 130.023C158.648 129.852 158.994 129.717 159.369 129.619C159.748 129.521 160.127 129.473 160.506 129.473C161.271 129.473 161.838 129.643 162.205 129.982C162.576 130.322 162.762 130.867 162.762 131.617V136H162.041ZM159.844 135.314C160.449 135.314 160.924 135.148 161.268 134.816C161.615 134.484 161.789 134.02 161.789 133.422V132.842L160.816 132.883C160.043 132.91 159.484 133.031 159.141 133.246C158.801 133.457 158.631 133.787 158.631 134.236C158.631 134.588 158.736 134.855 158.947 135.039C159.162 135.223 159.461 135.314 159.844 135.314ZM167.218 136.117C166.288 136.117 165.567 135.832 165.056 135.262C164.548 134.688 164.294 133.877 164.294 132.83C164.294 131.756 164.552 130.926 165.067 130.34C165.587 129.754 166.325 129.461 167.282 129.461C167.591 129.461 167.899 129.494 168.208 129.561C168.517 129.627 168.759 129.705 168.935 129.795L168.636 130.621C168.421 130.535 168.187 130.465 167.933 130.41C167.679 130.352 167.454 130.322 167.259 130.322C165.954 130.322 165.302 131.154 165.302 132.818C165.302 133.607 165.46 134.213 165.776 134.635C166.097 135.057 166.569 135.268 167.194 135.268C167.73 135.268 168.278 135.152 168.841 134.922V135.783C168.411 136.006 167.87 136.117 167.218 136.117ZM172.817 136.117C171.887 136.117 171.166 135.832 170.654 135.262C170.147 134.688 169.893 133.877 169.893 132.83C169.893 131.756 170.151 130.926 170.666 130.34C171.186 129.754 171.924 129.461 172.881 129.461C173.19 129.461 173.498 129.494 173.807 129.561C174.115 129.627 174.358 129.705 174.533 129.795L174.235 130.621C174.02 130.535 173.785 130.465 173.531 130.41C173.277 130.352 173.053 130.322 172.858 130.322C171.553 130.322 170.901 131.154 170.901 132.818C170.901 133.607 171.059 134.213 171.375 134.635C171.695 135.057 172.168 135.268 172.793 135.268C173.328 135.268 173.877 135.152 174.44 134.922V135.783C174.01 136.006 173.469 136.117 172.817 136.117ZM178.562 136.117C177.613 136.117 176.863 135.828 176.312 135.25C175.765 134.672 175.491 133.869 175.491 132.842C175.491 131.807 175.745 130.984 176.253 130.375C176.765 129.766 177.45 129.461 178.31 129.461C179.115 129.461 179.751 129.727 180.22 130.258C180.689 130.785 180.923 131.482 180.923 132.35V132.965H176.499C176.519 133.719 176.708 134.291 177.068 134.682C177.431 135.072 177.941 135.268 178.597 135.268C179.288 135.268 179.972 135.123 180.648 134.834V135.701C180.304 135.85 179.978 135.955 179.669 136.018C179.365 136.084 178.995 136.117 178.562 136.117ZM178.298 130.275C177.783 130.275 177.37 130.443 177.062 130.779C176.757 131.115 176.577 131.58 176.523 132.174H179.88C179.88 131.561 179.743 131.092 179.47 130.768C179.197 130.439 178.806 130.275 178.298 130.275ZM186.61 134.248C186.61 134.846 186.387 135.307 185.942 135.631C185.496 135.955 184.871 136.117 184.067 136.117C183.215 136.117 182.551 135.982 182.075 135.713V134.811C182.383 134.967 182.713 135.09 183.065 135.18C183.42 135.27 183.762 135.314 184.09 135.314C184.598 135.314 184.989 135.234 185.262 135.074C185.536 134.91 185.672 134.662 185.672 134.33C185.672 134.08 185.563 133.867 185.344 133.691C185.129 133.512 184.707 133.301 184.079 133.059C183.481 132.836 183.055 132.643 182.801 132.479C182.551 132.311 182.364 132.121 182.239 131.91C182.118 131.699 182.057 131.447 182.057 131.154C182.057 130.631 182.27 130.219 182.696 129.918C183.121 129.613 183.705 129.461 184.448 129.461C185.139 129.461 185.815 129.602 186.475 129.883L186.129 130.674C185.485 130.408 184.901 130.275 184.377 130.275C183.916 130.275 183.569 130.348 183.334 130.492C183.1 130.637 182.983 130.836 182.983 131.09C182.983 131.262 183.026 131.408 183.112 131.529C183.202 131.65 183.344 131.766 183.539 131.875C183.735 131.984 184.11 132.143 184.664 132.35C185.426 132.627 185.94 132.906 186.205 133.188C186.475 133.469 186.61 133.822 186.61 134.248ZM193.621 132.783C193.621 133.83 193.357 134.648 192.83 135.238C192.302 135.824 191.574 136.117 190.644 136.117C190.07 136.117 189.56 135.982 189.115 135.713C188.669 135.443 188.326 135.057 188.084 134.553C187.841 134.049 187.72 133.459 187.72 132.783C187.72 131.736 187.982 130.922 188.505 130.34C189.029 129.754 189.755 129.461 190.685 129.461C191.584 129.461 192.296 129.76 192.824 130.357C193.355 130.955 193.621 131.764 193.621 132.783ZM188.728 132.783C188.728 133.604 188.892 134.229 189.22 134.658C189.548 135.088 190.031 135.303 190.668 135.303C191.304 135.303 191.787 135.09 192.115 134.664C192.447 134.234 192.613 133.607 192.613 132.783C192.613 131.967 192.447 131.348 192.115 130.926C191.787 130.5 191.3 130.287 190.656 130.287C190.019 130.287 189.539 130.496 189.214 130.914C188.89 131.332 188.728 131.955 188.728 132.783Z" fill="#38485C"/>
<path d="M274 34H66C61.0294 34 57 38.0294 57 43V147C57 151.971 61.0294 156 66 156H274C278.971 156 283 151.971 283 147V43C283 38.0294 278.971 34 274 34Z" stroke="#E6EBF0" stroke-width="2"/>
</svg>
