<svg width="340" height="190" viewBox="0 0 340 190" fill="none" xmlns="http://www.w3.org/2000/svg">
<rect width="340" height="190" fill="#F3F6F9"/>
<path d="M162 71L178 71L171.414 64.4142C170.633 63.6332 169.367 63.6332 168.586 64.4142L162 71Z" fill="#38485C"/>
<rect x="24.5" y="71" width="291" height="56" rx="8" fill="#38485C"/>
<path d="M48.4375 105H42.0703V93.5781H48.4375V94.7578H43.3984V98.4375H48.1328V99.6094H43.3984V103.812H48.4375V105ZM56.3047 102.664C56.3047 103.461 56.0078 104.076 55.4141 104.508C54.8203 104.94 53.987 105.156 52.9141 105.156C51.7786 105.156 50.8932 104.977 50.2578 104.617V103.414C50.6693 103.622 51.1094 103.786 51.5781 103.906C52.0521 104.026 52.5078 104.086 52.9453 104.086C53.6224 104.086 54.1432 103.979 54.5078 103.766C54.8724 103.547 55.0547 103.216 55.0547 102.773C55.0547 102.44 54.9089 102.156 54.6172 101.922C54.3307 101.682 53.7682 101.401 52.9297 101.078C52.1328 100.781 51.5651 100.523 51.2266 100.305C50.8932 100.081 50.6432 99.8281 50.4766 99.5469C50.3151 99.2656 50.2344 98.9297 50.2344 98.5391C50.2344 97.8411 50.5182 97.2917 51.0859 96.8906C51.6536 96.4844 52.4323 96.2812 53.4219 96.2812C54.3438 96.2812 55.2448 96.4688 56.125 96.8438L55.6641 97.8984C54.8047 97.5443 54.026 97.3672 53.3281 97.3672C52.7135 97.3672 52.25 97.4635 51.9375 97.6562C51.625 97.849 51.4688 98.1146 51.4688 98.4531C51.4688 98.6823 51.526 98.8776 51.6406 99.0391C51.7604 99.2005 51.9505 99.3542 52.2109 99.5C52.4714 99.6458 52.9714 99.8568 53.7109 100.133C54.7266 100.503 55.4115 100.875 55.7656 101.25C56.125 101.625 56.3047 102.096 56.3047 102.664ZM61.1875 104.086C61.4167 104.086 61.638 104.07 61.8516 104.039C62.0651 104.003 62.2344 103.966 62.3594 103.93V104.922C62.2188 104.99 62.0104 105.044 61.7344 105.086C61.4635 105.133 61.2188 105.156 61 105.156C59.3438 105.156 58.5156 104.284 58.5156 102.539V97.4453H57.2891V96.8203L58.5156 96.2812L59.0625 94.4531H59.8125V96.4375H62.2969V97.4453H59.8125V102.484C59.8125 103 59.9349 103.396 60.1797 103.672C60.4245 103.948 60.7604 104.086 61.1875 104.086ZM69.3438 105L69.0859 103.781H69.0234C68.5964 104.318 68.1693 104.682 67.7422 104.875C67.3203 105.062 66.7917 105.156 66.1562 105.156C65.3073 105.156 64.6406 104.938 64.1562 104.5C63.6771 104.062 63.4375 103.44 63.4375 102.633C63.4375 100.904 64.8203 99.9974 67.5859 99.9141L69.0391 99.8672V99.3359C69.0391 98.6641 68.8932 98.1693 68.6016 97.8516C68.3151 97.5286 67.8542 97.3672 67.2188 97.3672C66.5052 97.3672 65.6979 97.5859 64.7969 98.0234L64.3984 97.0312C64.8203 96.8021 65.2812 96.6224 65.7812 96.4922C66.2865 96.362 66.7917 96.2969 67.2969 96.2969C68.3177 96.2969 69.0729 96.5234 69.5625 96.9766C70.0573 97.4297 70.3047 98.1562 70.3047 99.1562V105H69.3438ZM66.4141 104.086C67.2214 104.086 67.8542 103.865 68.3125 103.422C68.776 102.979 69.0078 102.359 69.0078 101.562V100.789L67.7109 100.844C66.6797 100.88 65.9349 101.042 65.4766 101.328C65.0234 101.609 64.7969 102.049 64.7969 102.648C64.7969 103.117 64.9375 103.474 65.2188 103.719C65.5052 103.964 65.9036 104.086 66.4141 104.086ZM80.7578 105.156C79.4922 105.156 78.4922 104.771 77.7578 104C77.0286 103.229 76.6641 102.159 76.6641 100.789C76.6641 99.4089 77.0026 98.3125 77.6797 97.5C78.362 96.6875 79.276 96.2812 80.4219 96.2812C81.4948 96.2812 82.3438 96.6354 82.9688 97.3438C83.5938 98.0469 83.9062 98.9766 83.9062 100.133V100.953H78.0078C78.0339 101.958 78.2865 102.721 78.7656 103.242C79.25 103.763 79.9297 104.023 80.8047 104.023C81.7266 104.023 82.638 103.831 83.5391 103.445V104.602C83.0807 104.799 82.6458 104.94 82.2344 105.023C81.8281 105.112 81.3359 105.156 80.7578 105.156ZM80.4062 97.3672C79.7188 97.3672 79.1693 97.5911 78.7578 98.0391C78.3516 98.487 78.112 99.1068 78.0391 99.8984H82.5156C82.5156 99.0807 82.3333 98.4557 81.9688 98.0234C81.6042 97.5859 81.0833 97.3672 80.4062 97.3672ZM91.6484 102.664C91.6484 103.461 91.3516 104.076 90.7578 104.508C90.1641 104.94 89.3307 105.156 88.2578 105.156C87.1224 105.156 86.237 104.977 85.6016 104.617V103.414C86.013 103.622 86.4531 103.786 86.9219 103.906C87.3958 104.026 87.8516 104.086 88.2891 104.086C88.9661 104.086 89.487 103.979 89.8516 103.766C90.2161 103.547 90.3984 103.216 90.3984 102.773C90.3984 102.44 90.2526 102.156 89.9609 101.922C89.6745 101.682 89.112 101.401 88.2734 101.078C87.4766 100.781 86.9089 100.523 86.5703 100.305C86.237 100.081 85.987 99.8281 85.8203 99.5469C85.6589 99.2656 85.5781 98.9297 85.5781 98.5391C85.5781 97.8411 85.862 97.2917 86.4297 96.8906C86.9974 96.4844 87.776 96.2812 88.7656 96.2812C89.6875 96.2812 90.5885 96.4688 91.4688 96.8438L91.0078 97.8984C90.1484 97.5443 89.3698 97.3672 88.6719 97.3672C88.0573 97.3672 87.5938 97.4635 87.2812 97.6562C86.9688 97.849 86.8125 98.1146 86.8125 98.4531C86.8125 98.6823 86.8698 98.8776 86.9844 99.0391C87.1042 99.2005 87.2943 99.3542 87.5547 99.5C87.8151 99.6458 88.3151 99.8568 89.0547 100.133C90.0703 100.503 90.7552 100.875 91.1094 101.25C91.4688 101.625 91.6484 102.096 91.6484 102.664ZM99.2188 105H97.9219V92.8438H99.2188V105ZM107.234 105L106.977 103.781H106.914C106.487 104.318 106.06 104.682 105.633 104.875C105.211 105.062 104.682 105.156 104.047 105.156C103.198 105.156 102.531 104.938 102.047 104.5C101.568 104.062 101.328 103.44 101.328 102.633C101.328 100.904 102.711 99.9974 105.477 99.9141L106.93 99.8672V99.3359C106.93 98.6641 106.784 98.1693 106.492 97.8516C106.206 97.5286 105.745 97.3672 105.109 97.3672C104.396 97.3672 103.589 97.5859 102.688 98.0234L102.289 97.0312C102.711 96.8021 103.172 96.6224 103.672 96.4922C104.177 96.362 104.682 96.2969 105.188 96.2969C106.208 96.2969 106.964 96.5234 107.453 96.9766C107.948 97.4297 108.195 98.1562 108.195 99.1562V105H107.234ZM104.305 104.086C105.112 104.086 105.745 103.865 106.203 103.422C106.667 102.979 106.898 102.359 106.898 101.562V100.789L105.602 100.844C104.57 100.88 103.826 101.042 103.367 101.328C102.914 101.609 102.688 102.049 102.688 102.648C102.688 103.117 102.828 103.474 103.109 103.719C103.396 103.964 103.794 104.086 104.305 104.086ZM120.859 103.852H120.789C120.19 104.721 119.294 105.156 118.102 105.156C116.982 105.156 116.109 104.773 115.484 104.008C114.865 103.242 114.555 102.154 114.555 100.742C114.555 99.3307 114.867 98.2344 115.492 97.4531C116.117 96.6719 116.987 96.2812 118.102 96.2812C119.263 96.2812 120.154 96.7031 120.773 97.5469H120.875L120.82 96.9297L120.789 96.3281V92.8438H122.086V105H121.031L120.859 103.852ZM118.266 104.07C119.151 104.07 119.792 103.831 120.188 103.352C120.589 102.867 120.789 102.089 120.789 101.016V100.742C120.789 99.5286 120.586 98.6641 120.18 98.1484C119.779 97.6276 119.135 97.3672 118.25 97.3672C117.49 97.3672 116.906 97.6641 116.5 98.2578C116.099 98.8464 115.898 99.6797 115.898 100.758C115.898 101.852 116.099 102.677 116.5 103.234C116.901 103.792 117.49 104.07 118.266 104.07ZM128.461 105.156C127.195 105.156 126.195 104.771 125.461 104C124.732 103.229 124.367 102.159 124.367 100.789C124.367 99.4089 124.706 98.3125 125.383 97.5C126.065 96.6875 126.979 96.2812 128.125 96.2812C129.198 96.2812 130.047 96.6354 130.672 97.3438C131.297 98.0469 131.609 98.9766 131.609 100.133V100.953H125.711C125.737 101.958 125.99 102.721 126.469 103.242C126.953 103.763 127.633 104.023 128.508 104.023C129.43 104.023 130.341 103.831 131.242 103.445V104.602C130.784 104.799 130.349 104.94 129.938 105.023C129.531 105.112 129.039 105.156 128.461 105.156ZM128.109 97.3672C127.422 97.3672 126.872 97.5911 126.461 98.0391C126.055 98.487 125.815 99.1068 125.742 99.8984H130.219C130.219 99.0807 130.036 98.4557 129.672 98.0234C129.307 97.5859 128.786 97.3672 128.109 97.3672ZM139.352 102.664C139.352 103.461 139.055 104.076 138.461 104.508C137.867 104.94 137.034 105.156 135.961 105.156C134.826 105.156 133.94 104.977 133.305 104.617V103.414C133.716 103.622 134.156 103.786 134.625 103.906C135.099 104.026 135.555 104.086 135.992 104.086C136.669 104.086 137.19 103.979 137.555 103.766C137.919 103.547 138.102 103.216 138.102 102.773C138.102 102.44 137.956 102.156 137.664 101.922C137.378 101.682 136.815 101.401 135.977 101.078C135.18 100.781 134.612 100.523 134.273 100.305C133.94 100.081 133.69 99.8281 133.523 99.5469C133.362 99.2656 133.281 98.9297 133.281 98.5391C133.281 97.8411 133.565 97.2917 134.133 96.8906C134.701 96.4844 135.479 96.2812 136.469 96.2812C137.391 96.2812 138.292 96.4688 139.172 96.8438L138.711 97.8984C137.852 97.5443 137.073 97.3672 136.375 97.3672C135.76 97.3672 135.297 97.4635 134.984 97.6562C134.672 97.849 134.516 98.1146 134.516 98.4531C134.516 98.6823 134.573 98.8776 134.688 99.0391C134.807 99.2005 134.997 99.3542 135.258 99.5C135.518 99.6458 136.018 99.8568 136.758 100.133C137.773 100.503 138.458 100.875 138.812 101.25C139.172 101.625 139.352 102.096 139.352 102.664ZM144.891 105.156C143.651 105.156 142.69 104.776 142.008 104.016C141.331 103.25 140.992 102.169 140.992 100.773C140.992 99.3411 141.336 98.2344 142.023 97.4531C142.716 96.6719 143.701 96.2812 144.977 96.2812C145.388 96.2812 145.799 96.3255 146.211 96.4141C146.622 96.5026 146.945 96.6068 147.18 96.7266L146.781 97.8281C146.495 97.7135 146.182 97.6198 145.844 97.5469C145.505 97.4688 145.206 97.4297 144.945 97.4297C143.206 97.4297 142.336 98.5391 142.336 100.758C142.336 101.81 142.547 102.617 142.969 103.18C143.396 103.742 144.026 104.023 144.859 104.023C145.573 104.023 146.305 103.87 147.055 103.562V104.711C146.482 105.008 145.76 105.156 144.891 105.156ZM153 96.2812C153.38 96.2812 153.721 96.3125 154.023 96.375L153.844 97.5781C153.49 97.5 153.177 97.4609 152.906 97.4609C152.214 97.4609 151.62 97.7422 151.125 98.3047C150.635 98.8672 150.391 99.5677 150.391 100.406V105H149.094V96.4375H150.164L150.312 98.0234H150.375C150.693 97.4661 151.076 97.0365 151.523 96.7344C151.971 96.4323 152.464 96.2812 153 96.2812ZM156.922 105H155.625V96.4375H156.922V105ZM155.516 94.1172C155.516 93.8203 155.589 93.6042 155.734 93.4688C155.88 93.3281 156.062 93.2578 156.281 93.2578C156.49 93.2578 156.669 93.3281 156.82 93.4688C156.971 93.6094 157.047 93.8255 157.047 94.1172C157.047 94.4089 156.971 94.6276 156.82 94.7734C156.669 94.9141 156.49 94.9844 156.281 94.9844C156.062 94.9844 155.88 94.9141 155.734 94.7734C155.589 94.6276 155.516 94.4089 155.516 94.1172ZM163.656 105.156C163.099 105.156 162.589 105.055 162.125 104.852C161.667 104.643 161.281 104.326 160.969 103.898H160.875C160.938 104.398 160.969 104.872 160.969 105.32V108.844H159.672V96.4375H160.727L160.906 97.6094H160.969C161.302 97.1406 161.69 96.8021 162.133 96.5938C162.576 96.3854 163.083 96.2812 163.656 96.2812C164.792 96.2812 165.667 96.6693 166.281 97.4453C166.901 98.2214 167.211 99.3099 167.211 100.711C167.211 102.117 166.896 103.211 166.266 103.992C165.641 104.768 164.771 105.156 163.656 105.156ZM163.469 97.3828C162.594 97.3828 161.961 97.625 161.57 98.1094C161.18 98.5938 160.979 99.3646 160.969 100.422V100.711C160.969 101.914 161.169 102.776 161.57 103.297C161.971 103.812 162.615 104.07 163.5 104.07C164.24 104.07 164.818 103.771 165.234 103.172C165.656 102.573 165.867 101.747 165.867 100.695C165.867 99.6276 165.656 98.8099 165.234 98.2422C164.818 97.6693 164.229 97.3828 163.469 97.3828ZM172.906 105.156C171.667 105.156 170.706 104.776 170.023 104.016C169.346 103.25 169.008 102.169 169.008 100.773C169.008 99.3411 169.352 98.2344 170.039 97.4531C170.732 96.6719 171.716 96.2812 172.992 96.2812C173.404 96.2812 173.815 96.3255 174.227 96.4141C174.638 96.5026 174.961 96.6068 175.195 96.7266L174.797 97.8281C174.51 97.7135 174.198 97.6198 173.859 97.5469C173.521 97.4688 173.221 97.4297 172.961 97.4297C171.221 97.4297 170.352 98.5391 170.352 100.758C170.352 101.81 170.562 102.617 170.984 103.18C171.411 103.742 172.042 104.023 172.875 104.023C173.589 104.023 174.32 103.87 175.07 103.562V104.711C174.497 105.008 173.776 105.156 172.906 105.156ZM178.406 105H177.109V96.4375H178.406V105ZM177 94.1172C177 93.8203 177.073 93.6042 177.219 93.4688C177.365 93.3281 177.547 93.2578 177.766 93.2578C177.974 93.2578 178.154 93.3281 178.305 93.4688C178.456 93.6094 178.531 93.8255 178.531 94.1172C178.531 94.4089 178.456 94.6276 178.305 94.7734C178.154 94.9141 177.974 94.9844 177.766 94.9844C177.547 94.9844 177.365 94.9141 177.219 94.7734C177.073 94.6276 177 94.4089 177 94.1172ZM188.547 100.711C188.547 102.107 188.195 103.198 187.492 103.984C186.789 104.766 185.818 105.156 184.578 105.156C183.812 105.156 183.133 104.977 182.539 104.617C181.945 104.258 181.487 103.742 181.164 103.07C180.841 102.398 180.68 101.612 180.68 100.711C180.68 99.3151 181.029 98.2292 181.727 97.4531C182.424 96.6719 183.393 96.2812 184.633 96.2812C185.831 96.2812 186.781 96.6797 187.484 97.4766C188.193 98.2734 188.547 99.3516 188.547 100.711ZM182.023 100.711C182.023 101.805 182.242 102.638 182.68 103.211C183.117 103.784 183.76 104.07 184.609 104.07C185.458 104.07 186.102 103.786 186.539 103.219C186.982 102.646 187.203 101.81 187.203 100.711C187.203 99.6224 186.982 98.7969 186.539 98.2344C186.102 97.6667 185.453 97.3828 184.594 97.3828C183.745 97.3828 183.104 97.6615 182.672 98.2188C182.24 98.776 182.023 99.6068 182.023 100.711ZM183.523 95.1094C183.773 94.7865 184.042 94.3958 184.328 93.9375C184.62 93.4792 184.849 93.0807 185.016 92.7422H186.594V92.9062C186.365 93.2448 186.023 93.6615 185.57 94.1562C185.117 94.651 184.724 95.0339 184.391 95.3047H183.523V95.1094ZM196.688 105V99.4609C196.688 98.763 196.529 98.2422 196.211 97.8984C195.893 97.5547 195.396 97.3828 194.719 97.3828C193.823 97.3828 193.167 97.625 192.75 98.1094C192.333 98.5938 192.125 99.3932 192.125 100.508V105H190.828V96.4375H191.883L192.094 97.6094H192.156C192.422 97.1875 192.794 96.862 193.273 96.6328C193.753 96.3984 194.286 96.2812 194.875 96.2812C195.906 96.2812 196.682 96.5312 197.203 97.0312C197.724 97.526 197.984 98.3203 197.984 99.4141V105H196.688ZM210.641 103.852H210.57C209.971 104.721 209.076 105.156 207.883 105.156C206.763 105.156 205.891 104.773 205.266 104.008C204.646 103.242 204.336 102.154 204.336 100.742C204.336 99.3307 204.648 98.2344 205.273 97.4531C205.898 96.6719 206.768 96.2812 207.883 96.2812C209.044 96.2812 209.935 96.7031 210.555 97.5469H210.656L210.602 96.9297L210.57 96.3281V92.8438H211.867V105H210.812L210.641 103.852ZM208.047 104.07C208.932 104.07 209.573 103.831 209.969 103.352C210.37 102.867 210.57 102.089 210.57 101.016V100.742C210.57 99.5286 210.367 98.6641 209.961 98.1484C209.56 97.6276 208.917 97.3672 208.031 97.3672C207.271 97.3672 206.688 97.6641 206.281 98.2578C205.88 98.8464 205.68 99.6797 205.68 100.758C205.68 101.852 205.88 102.677 206.281 103.234C206.682 103.792 207.271 104.07 208.047 104.07ZM218.242 105.156C216.977 105.156 215.977 104.771 215.242 104C214.513 103.229 214.148 102.159 214.148 100.789C214.148 99.4089 214.487 98.3125 215.164 97.5C215.846 96.6875 216.76 96.2812 217.906 96.2812C218.979 96.2812 219.828 96.6354 220.453 97.3438C221.078 98.0469 221.391 98.9766 221.391 100.133V100.953H215.492C215.518 101.958 215.771 102.721 216.25 103.242C216.734 103.763 217.414 104.023 218.289 104.023C219.211 104.023 220.122 103.831 221.023 103.445V104.602C220.565 104.799 220.13 104.94 219.719 105.023C219.312 105.112 218.82 105.156 218.242 105.156ZM217.891 97.3672C217.203 97.3672 216.654 97.5911 216.242 98.0391C215.836 98.487 215.596 99.1068 215.523 99.8984H220C220 99.0807 219.818 98.4557 219.453 98.0234C219.089 97.5859 218.568 97.3672 217.891 97.3672ZM228.984 96.4375V101.992C228.984 102.69 229.143 103.211 229.461 103.555C229.779 103.898 230.276 104.07 230.953 104.07C231.849 104.07 232.503 103.826 232.914 103.336C233.331 102.846 233.539 102.047 233.539 100.938V96.4375H234.836V105H233.766L233.578 103.852H233.508C233.242 104.273 232.872 104.596 232.398 104.82C231.93 105.044 231.393 105.156 230.789 105.156C229.747 105.156 228.966 104.909 228.445 104.414C227.93 103.919 227.672 103.128 227.672 102.039V96.4375H228.984ZM243.453 105V99.4609C243.453 98.763 243.294 98.2422 242.977 97.8984C242.659 97.5547 242.161 97.3828 241.484 97.3828C240.589 97.3828 239.932 97.625 239.516 98.1094C239.099 98.5938 238.891 99.3932 238.891 100.508V105H237.594V96.4375H238.648L238.859 97.6094H238.922C239.188 97.1875 239.56 96.862 240.039 96.6328C240.518 96.3984 241.052 96.2812 241.641 96.2812C242.672 96.2812 243.448 96.5312 243.969 97.0312C244.49 97.526 244.75 98.3203 244.75 99.4141V105H243.453ZM254.344 104.086C254.573 104.086 254.794 104.07 255.008 104.039C255.221 104.003 255.391 103.966 255.516 103.93V104.922C255.375 104.99 255.167 105.044 254.891 105.086C254.62 105.133 254.375 105.156 254.156 105.156C252.5 105.156 251.672 104.284 251.672 102.539V97.4453H250.445V96.8203L251.672 96.2812L252.219 94.4531H252.969V96.4375H255.453V97.4453H252.969V102.484C252.969 103 253.091 103.396 253.336 103.672C253.581 103.948 253.917 104.086 254.344 104.086ZM264.625 100.711C264.625 102.107 264.273 103.198 263.57 103.984C262.867 104.766 261.896 105.156 260.656 105.156C259.891 105.156 259.211 104.977 258.617 104.617C258.023 104.258 257.565 103.742 257.242 103.07C256.919 102.398 256.758 101.612 256.758 100.711C256.758 99.3151 257.107 98.2292 257.805 97.4531C258.503 96.6719 259.471 96.2812 260.711 96.2812C261.909 96.2812 262.859 96.6797 263.562 97.4766C264.271 98.2734 264.625 99.3516 264.625 100.711ZM258.102 100.711C258.102 101.805 258.32 102.638 258.758 103.211C259.195 103.784 259.839 104.07 260.688 104.07C261.536 104.07 262.18 103.786 262.617 103.219C263.06 102.646 263.281 101.81 263.281 100.711C263.281 99.6224 263.06 98.7969 262.617 98.2344C262.18 97.6667 261.531 97.3828 260.672 97.3828C259.823 97.3828 259.182 97.6615 258.75 98.2188C258.318 98.776 258.102 99.6068 258.102 100.711ZM274.297 100.711C274.297 102.107 273.945 103.198 273.242 103.984C272.539 104.766 271.568 105.156 270.328 105.156C269.562 105.156 268.883 104.977 268.289 104.617C267.695 104.258 267.237 103.742 266.914 103.07C266.591 102.398 266.43 101.612 266.43 100.711C266.43 99.3151 266.779 98.2292 267.477 97.4531C268.174 96.6719 269.143 96.2812 270.383 96.2812C271.581 96.2812 272.531 96.6797 273.234 97.4766C273.943 98.2734 274.297 99.3516 274.297 100.711ZM267.773 100.711C267.773 101.805 267.992 102.638 268.43 103.211C268.867 103.784 269.51 104.07 270.359 104.07C271.208 104.07 271.852 103.786 272.289 103.219C272.732 102.646 272.953 101.81 272.953 100.711C272.953 99.6224 272.732 98.7969 272.289 98.2344C271.852 97.6667 271.203 97.3828 270.344 97.3828C269.495 97.3828 268.854 97.6615 268.422 98.2188C267.99 98.776 267.773 99.6068 267.773 100.711ZM277.875 105H276.578V92.8438H277.875V105ZM283.391 104.086C283.62 104.086 283.841 104.07 284.055 104.039C284.268 104.003 284.438 103.966 284.562 103.93V104.922C284.422 104.99 284.214 105.044 283.938 105.086C283.667 105.133 283.422 105.156 283.203 105.156C281.547 105.156 280.719 104.284 280.719 102.539V97.4453H279.492V96.8203L280.719 96.2812L281.266 94.4531H282.016V96.4375H284.5V97.4453H282.016V102.484C282.016 103 282.138 103.396 282.383 103.672C282.628 103.948 282.964 104.086 283.391 104.086ZM287.578 105H286.281V96.4375H287.578V105ZM286.172 94.1172C286.172 93.8203 286.245 93.6042 286.391 93.4688C286.536 93.3281 286.719 93.2578 286.938 93.2578C287.146 93.2578 287.326 93.3281 287.477 93.4688C287.628 93.6094 287.703 93.8255 287.703 94.1172C287.703 94.4089 287.628 94.6276 287.477 94.7734C287.326 94.9141 287.146 94.9844 286.938 94.9844C286.719 94.9844 286.536 94.9141 286.391 94.7734C286.245 94.6276 286.172 94.4089 286.172 94.1172ZM294.312 105.156C293.755 105.156 293.245 105.055 292.781 104.852C292.323 104.643 291.938 104.326 291.625 103.898H291.531C291.594 104.398 291.625 104.872 291.625 105.32V108.844H290.328V96.4375H291.383L291.562 97.6094H291.625C291.958 97.1406 292.346 96.8021 292.789 96.5938C293.232 96.3854 293.74 96.2812 294.312 96.2812C295.448 96.2812 296.323 96.6693 296.938 97.4453C297.557 98.2214 297.867 99.3099 297.867 100.711C297.867 102.117 297.552 103.211 296.922 103.992C296.297 104.768 295.427 105.156 294.312 105.156ZM294.125 97.3828C293.25 97.3828 292.617 97.625 292.227 98.1094C291.836 98.5938 291.635 99.3646 291.625 100.422V100.711C291.625 101.914 291.826 102.776 292.227 103.297C292.628 103.812 293.271 104.07 294.156 104.07C294.896 104.07 295.474 103.771 295.891 103.172C296.312 102.573 296.523 101.747 296.523 100.695C296.523 99.6276 296.312 98.8099 295.891 98.2422C295.474 97.6693 294.885 97.3828 294.125 97.3828Z" fill="white"/>
</svg>
